<canvas id="myCanvas" width="768" height="614.4" style="position:absolute;z-index: 10;"></canvas><svg id="demo" version="1.1" width="768" height="614.4" xmlns="http://www.w3.org/2000/svg" style="position:relative;"><g class="theWords" stroke-linejoin="round"><g id="handwriting" transform="translate(153.6, 102.4 ) scale(0.1500000, 0.1500000)"><path d="M201.008 75.750 C 201.013 117.413,202.341 179.850,203.960 214.500 C 205.580 249.150,208.251 315.975,209.898 363.000 C 211.544 410.025,214.432 492.375,216.315 546.000 C 218.198 599.625,220.833 644.881,222.171 646.569 C 225.540 650.818,496.701 652.067,564.000 648.144 C 592.875 646.460,671.513 644.169,738.750 643.053 L 861.000 641.024 861.000 320.512 L 861.000 0.000 849.393 0.000 C 838.310 0.000,837.701 0.509,835.926 11.250 C 834.903 17.438,834.051 26.213,834.033 30.750 L 834.000 39.000 803.250 39.031 C 771.711 39.062,632.752 46.828,616.539 49.465 C 607.737 50.897,478.248 54.777,306.750 58.749 L 222.000 60.711 222.000 30.356 L 222.000 0.000 211.500 0.000 L 201.000 0.000 201.008 75.750 M1013.235 299.250 C 1013.704 463.838,1014.865 607.071,1015.815 617.547 L 1017.541 636.594 1043.521 634.707 C 1057.809 633.670,1133.625 631.511,1212.000 629.909 C 1290.375 628.308,1365.975 625.722,1380.000 624.163 C 1394.025 622.603,1454.775 619.775,1515.000 617.877 C 1575.225 615.979,1625.349 613.542,1626.387 612.463 C 1627.425 611.383,1629.096 545.700,1630.102 466.500 C 1631.107 387.300,1632.839 249.938,1633.951 161.250 L 1635.972 0.000 1496.736 0.021 C 1420.156 0.032,1321.050 1.471,1276.500 3.218 C 1159.814 7.794,1043.342 10.841,1037.250 9.476 C 1034.363 8.829,1032.000 6.433,1032.000 4.150 C 1032.000 1.463,1028.543 0.000,1022.191 0.000 L 1012.382 0.000 1013.235 299.250 M1804.196 86.250 C 1805.345 133.688,1807.517 187.350,1809.024 205.500 C 1810.531 223.650,1813.235 272.250,1815.034 313.500 C 1816.833 354.750,1819.661 413.475,1821.319 444.000 C 1822.977 474.525,1825.409 521.154,1826.724 547.619 C 1828.038 574.085,1830.694 598.691,1832.626 602.300 C 1840.488 616.991,1826.761 616.439,2209.706 617.462 C 2547.671 618.365,2570.178 618.105,2574.206 613.254 C 2577.832 608.888,2578.794 564.878,2580.391 330.292 C 2581.430 177.506,2583.314 40.594,2584.576 26.043 L 2586.872 -0.414 2575.186 0.543 L 2563.500 1.500 2561.330 25.500 C 2560.136 38.700,2558.285 172.871,2557.215 323.659 L 2555.271 597.818 2206.041 596.415 C 1946.848 595.373,1855.915 594.115,1853.333 591.533 C 1850.951 589.151,1848.658 550.943,1846.056 470.278 C 1843.967 405.500,1840.807 324.150,1839.035 289.500 C 1836.493 239.782,1827.312 20.778,1827.056 3.750 C 1827.020 1.362,1822.481 0.000,1814.554 0.000 L 1802.108 0.000 1804.196 86.250 M1609.060 37.953 C 1610.127 50.577,1611.000 71.040,1611.000 83.426 L 1611.000 105.947 1538.250 103.909 C 1498.238 102.788,1430.400 99.919,1387.500 97.534 C 1344.600 95.149,1264.950 92.440,1210.500 91.514 C 1156.050 90.588,1093.560 89.052,1071.634 88.102 L 1031.767 86.373 1032.634 61.936 L 1033.500 37.500 1066.500 35.375 C 1084.650 34.207,1122.450 31.206,1150.500 28.708 C 1198.699 24.414,1284.160 18.861,1330.500 17.013 C 1342.050 16.552,1409.014 15.911,1479.310 15.588 L 1607.120 15.000 1609.060 37.953 M835.553 57.085 C 836.601 58.782,836.507 69.063,835.343 79.932 L 833.227 99.695 744.363 97.860 C 695.488 96.851,568.425 94.614,462.000 92.889 C 244.431 89.361,225.000 88.489,225.000 82.244 C 225.000 78.775,233.359 77.981,270.750 77.894 C 415.513 77.560,602.179 70.744,723.000 61.382 C 778.855 57.054,797.873 55.747,822.573 54.541 C 828.663 54.243,834.504 55.388,835.553 57.085 M424.500 108.221 C 478.950 109.898,553.875 112.549,591.000 114.112 C 628.125 115.675,697.916 117.845,746.091 118.934 L 833.682 120.914 835.558 136.207 C 836.590 144.618,836.999 158.925,836.467 168.000 L 835.500 184.500 676.206 190.858 C 529.900 196.697,322.061 202.456,256.500 202.487 L 229.500 202.500 227.396 177.104 C 226.239 163.136,225.656 151.344,226.101 150.899 C 226.545 150.455,305.117 149.776,400.704 149.391 C 496.292 149.006,591.375 147.909,612.000 146.954 L 649.500 145.216 609.000 144.534 C 586.725 144.158,544.875 142.598,516.000 141.067 C 487.125 139.536,427.725 137.508,384.000 136.561 C 340.275 135.614,286.613 134.062,264.750 133.112 L 225.000 131.385 225.000 117.001 L 225.000 102.618 275.250 103.895 C 302.888 104.597,370.050 106.544,424.500 108.221 M1375.500 116.970 C 1415.100 118.626,1471.800 121.343,1501.500 123.007 C 1531.200 124.671,1565.926 126.261,1578.670 126.540 C 1591.413 126.818,1603.399 128.010,1605.305 129.189 C 1607.730 130.687,1608.121 137.396,1606.607 151.535 L 1604.443 171.740 1563.472 169.755 C 1428.603 163.220,1378.896 162.126,1214.250 162.066 L 1032.000 162.000 1032.000 136.011 L 1032.000 110.023 1167.750 111.990 C 1242.413 113.072,1335.900 115.313,1375.500 116.970 M1459.500 186.118 C 1499.100 187.823,1544.900 191.193,1561.278 193.609 C 1577.657 196.024,1594.869 198.000,1599.528 198.000 L 1608.000 198.000 1608.000 228.482 L 1608.000 258.965 1362.750 256.624 C 1227.863 255.337,1098.600 253.432,1075.500 252.392 L 1033.500 250.500 1032.652 216.750 L 1031.803 183.000 1209.652 183.010 C 1307.468 183.015,1419.900 184.414,1459.500 186.118 M837.000 226.057 L 837.000 248.114 807.750 250.203 C 714.590 256.857,341.508 260.850,262.826 256.035 L 230.719 254.071 231.609 238.785 L 232.500 223.500 294.000 222.828 C 372.173 221.973,623.469 213.652,721.500 208.672 C 762.750 206.576,805.613 204.668,816.750 204.431 L 837.000 204.000 837.000 226.057 M835.500 306.250 L 835.500 340.500 801.000 341.193 C 714.060 342.941,587.542 348.317,537.000 352.413 C 486.254 356.524,422.609 359.732,287.720 364.974 L 237.940 366.909 235.970 352.536 C 234.887 344.630,234.000 323.965,234.000 306.613 L 234.000 275.063 285.750 277.045 C 467.257 283.995,627.206 282.753,795.000 273.093 C 813.975 272.001,830.850 271.308,832.500 271.553 C 834.299 271.821,835.500 285.714,835.500 306.250 M1338.750 275.979 L 1605.000 276.000 1605.000 292.051 L 1605.000 308.101 1569.750 311.660 C 1473.413 321.385,1436.981 324.443,1386.000 327.083 C 1355.475 328.664,1317.000 331.400,1300.500 333.164 C 1284.000 334.928,1257.000 337.826,1240.500 339.604 C 1207.617 343.147,1039.727 344.711,1036.510 341.504 C 1033.728 338.730,1028.759 278.817,1031.010 275.175 C 1032.112 273.391,1040.736 272.957,1052.671 274.084 C 1063.577 275.114,1192.313 275.967,1338.750 275.979 M1605.000 361.316 L 1605.000 389.632 1592.250 391.201 C 1557.382 395.490,1296.822 399.245,1170.750 397.276 L 1032.000 395.108 1032.000 380.948 L 1032.000 366.787 1130.250 365.156 C 1221.057 363.649,1253.344 361.977,1351.500 353.696 C 1391.591 350.314,1390.285 350.430,1497.000 340.709 C 1539.075 336.877,1580.588 333.574,1589.250 333.370 L 1605.000 333.000 1605.000 361.316 M836.420 377.626 L 837.340 393.752 773.420 391.898 C 738.264 390.879,607.575 389.103,483.000 387.952 C 358.425 386.802,263.925 384.935,273.000 383.804 C 282.075 382.673,331.350 380.115,382.500 378.121 C 433.650 376.126,482.925 373.324,492.000 371.895 C 531.579 365.660,644.544 361.116,754.500 361.337 L 835.500 361.500 836.420 377.626 M444.000 406.462 C 599.220 407.807,750.759 410.533,800.250 412.869 L 837.000 414.604 837.000 450.680 L 837.000 486.755 765.750 485.081 C 726.563 484.160,612.691 481.896,512.703 480.050 C 412.714 478.204,310.114 475.750,284.703 474.597 L 238.500 472.500 237.651 436.840 L 236.802 401.180 276.651 403.268 C 298.568 404.417,373.875 405.854,444.000 406.462 M1605.000 431.517 L 1605.000 452.034 1511.250 454.037 C 1459.688 455.139,1396.575 457.364,1371.000 458.982 C 1276.694 464.947,1211.347 467.824,1124.250 469.844 L 1035.000 471.915 1035.000 442.978 L 1035.000 414.042 1238.250 413.250 C 1350.038 412.814,1478.288 412.129,1523.250 411.729 L 1605.000 411.000 1605.000 431.517 M1605.000 491.864 C 1605.000 509.702,1604.986 509.730,1595.250 511.269 C 1585.685 512.780,1166.188 519.090,1079.250 519.030 L 1035.000 519.000 1035.000 505.500 L 1035.000 492.000 1053.750 491.957 C 1149.173 491.736,1319.730 484.665,1410.000 477.186 C 1425.675 475.888,1475.963 474.639,1521.750 474.413 L 1605.000 474.000 1605.000 491.864 M654.000 504.010 C 704.325 505.683,766.088 507.857,791.250 508.842 L 837.000 510.632 837.000 565.816 L 837.000 621.000 747.750 621.425 C 646.888 621.904,639.445 622.116,556.500 626.859 C 447.688 633.081,246.773 630.475,244.488 622.813 C 243.945 620.991,242.688 592.838,241.695 560.250 L 239.891 501.000 401.195 500.984 C 489.913 500.975,603.675 502.337,654.000 504.010 M1604.363 564.750 L 1603.500 592.500 1563.000 594.317 C 1540.725 595.316,1459.050 597.690,1381.500 599.592 C 1242.370 603.004,1098.424 609.847,1057.500 614.995 C 1045.950 616.448,1035.441 616.592,1034.147 615.315 C 1032.853 614.039,1032.178 597.583,1032.647 578.747 L 1033.500 544.500 1265.097 542.903 C 1392.476 542.024,1497.663 540.337,1498.847 539.153 C 1500.031 537.969,1524.451 537.000,1553.113 537.000 L 1605.225 537.000 1604.363 564.750 M1636.500 782.585 C 1580.993 794.788,1559.863 801.593,1539.126 813.946 C 1529.115 819.910,1515.602 826.222,1509.098 827.974 C 1502.594 829.725,1493.499 834.260,1488.886 838.051 C 1484.274 841.843,1467.675 852.195,1452.000 861.057 C 1419.701 879.317,1397.644 893.975,1384.500 905.917 C 1379.550 910.414,1372.646 915.985,1369.158 918.297 C 1351.149 930.233,1300.002 978.774,1288.863 994.500 C 1262.461 1031.773,1256.921 1058.433,1260.495 1131.000 C 1262.358 1168.835,1265.542 1192.366,1276.324 1248.000 C 1278.722 1260.375,1280.755 1281.060,1280.842 1293.966 C 1280.974 1313.508,1282.275 1319.607,1288.623 1330.439 C 1302.249 1353.691,1333.251 1360.134,1355.156 1344.267 C 1381.393 1325.261,1387.461 1304.454,1378.540 1264.092 C 1372.587 1237.159,1370.223 1231.672,1359.731 1220.416 C 1346.119 1205.814,1337.674 1168.853,1335.816 1115.757 C 1334.074 1065.960,1336.929 1048.873,1349.783 1032.148 C 1354.673 1025.787,1356.096 1025.345,1360.344 1028.870 C 1379.442 1044.720,1409.416 1108.181,1422.045 1159.500 C 1439.165 1229.075,1449.464 1366.820,1443.540 1447.017 C 1440.709 1485.360,1440.648 1485.584,1430.232 1496.517 C 1424.477 1502.558,1415.087 1514.925,1409.365 1524.000 C 1403.644 1533.075,1389.807 1552.650,1378.616 1567.500 C 1367.426 1582.350,1355.614 1600.367,1352.368 1607.538 C 1349.121 1614.708,1342.191 1625.508,1336.968 1631.538 C 1310.838 1661.700,1299.532 1680.749,1299.132 1695.282 C 1299.020 1699.352,1292.233 1700.356,1253.523 1702.032 C 1228.511 1703.114,1179.911 1704.000,1145.523 1704.000 L 1083.000 1704.000 1083.000 1603.977 L 1083.000 1503.955 1100.250 1500.215 C 1130.109 1493.742,1149.015 1483.417,1168.084 1463.170 C 1198.450 1430.928,1208.226 1398.258,1205.063 1339.587 C 1202.258 1287.548,1193.343 1255.763,1176.557 1237.950 C 1150.858 1210.680,1121.678 1201.625,1066.500 1203.799 C 1006.316 1206.170,968.854 1223.364,941.283 1261.271 C 920.081 1290.421,917.224 1301.396,918.969 1347.000 C 920.666 1391.387,925.505 1409.394,943.591 1438.639 C 965.115 1473.441,1003.251 1499.617,1036.442 1502.370 L 1052.139 1503.672 1054.054 1532.586 C 1055.107 1548.489,1055.976 1594.025,1055.984 1633.778 L 1056.000 1706.055 950.250 1708.084 C 892.088 1709.200,814.125 1711.558,777.000 1713.325 C 739.875 1715.092,704.775 1716.079,699.000 1715.519 L 688.500 1714.500 686.670 1657.500 C 684.593 1592.794,679.593 1530.060,675.390 1515.976 C 673.827 1510.738,673.136 1505.864,673.854 1505.146 C 677.038 1501.962,700.187 1401.187,698.192 1399.192 C 697.793 1398.793,686.375 1399.227,672.818 1400.156 C 657.342 1401.217,648.866 1402.975,650.044 1404.880 C 652.957 1409.594,630.353 1405.075,615.767 1398.028 C 608.782 1394.654,600.837 1388.487,598.109 1384.325 C 591.027 1373.516,582.313 1369.365,577.398 1374.457 C 574.241 1377.729,574.101 1390.672,576.666 1442.333 C 578.409 1477.441,578.919 1507.081,577.801 1508.199 C 576.682 1509.318,562.995 1510.792,547.384 1511.474 L 519.000 1512.716 518.974 1504.108 C 518.941 1493.043,513.681 1430.375,511.390 1413.750 C 509.969 1403.444,510.530 1401.000,514.316 1401.000 C 519.176 1401.000,520.819 1388.230,517.179 1378.745 C 515.247 1373.710,496.636 1371.925,493.807 1376.504 C 490.979 1381.080,495.789 1472.867,498.760 1471.030 C 500.488 1469.962,500.462 1471.472,498.693 1474.888 C 495.537 1480.984,498.503 1574.493,503.819 1636.500 C 507.898 1684.078,507.882 1730.101,503.786 1732.632 C 502.019 1733.725,480.857 1739.256,456.759 1744.925 C 416.208 1754.464,393.008 1762.080,360.915 1776.389 C 353.993 1779.475,346.898 1782.000,345.150 1782.000 C 340.802 1782.000,316.168 1794.150,301.203 1803.676 C 281.103 1816.470,250.755 1848.485,237.651 1870.720 C 217.897 1904.236,211.500 1927.724,211.500 1966.730 C 211.500 1999.959,211.500 1999.961,224.719 2026.730 C 236.006 2049.587,242.584 2058.135,269.719 2085.210 C 287.199 2102.650,306.900 2119.560,313.500 2122.787 C 320.100 2126.014,332.250 2132.233,340.500 2136.607 C 394.624 2165.304,445.976 2188.610,481.918 2200.790 C 504.788 2208.541,526.200 2216.553,529.500 2218.597 C 541.389 2225.959,593.572 2241.030,648.000 2252.820 C 733.978 2271.445,746.782 2274.008,844.500 2292.146 C 852.750 2293.677,877.050 2297.013,898.500 2299.559 C 919.950 2302.105,944.925 2305.427,954.000 2306.941 C 963.075 2308.455,982.650 2310.500,997.500 2311.487 C 1012.350 2312.474,1030.575 2314.495,1038.000 2315.980 C 1045.425 2317.464,1065.675 2320.142,1083.000 2321.931 C 1100.325 2323.719,1124.625 2326.463,1137.000 2328.028 C 1149.375 2329.593,1187.850 2332.280,1222.500 2333.999 C 1294.604 2337.577,1464.064 2348.633,1477.500 2350.636 L 1486.500 2351.977 1485.557 2383.489 L 1484.614 2415.000 1475.978 2415.000 C 1467.573 2415.000,1449.949 2423.407,1439.157 2432.565 C 1432.907 2437.868,1393.602 2450.901,1383.684 2450.960 C 1375.680 2451.007,1310.577 2475.973,1297.500 2484.009 C 1292.550 2487.052,1281.075 2492.338,1272.000 2495.756 C 1262.925 2499.175,1246.050 2507.974,1234.500 2515.310 C 1202.065 2535.912,1149.287 2569.787,1131.000 2581.740 C 1121.925 2587.672,1108.658 2595.104,1101.517 2598.256 C 1087.664 2604.370,1077.707 2612.130,1033.390 2651.345 C 987.984 2691.523,966.069 2717.515,947.273 2753.480 C 903.074 2838.053,892.497 2910.678,915.084 2974.500 C 922.798 2996.297,928.673 3006.501,945.574 3027.452 C 976.028 3065.205,985.460 3072.023,1007.074 3071.905 C 1022.935 3071.818,1023.961 3071.428,1018.500 3067.567 C 1000.412 3054.776,987.013 3043.130,984.080 3037.650 C 982.257 3034.242,976.211 3028.335,970.645 3024.521 C 958.589 3016.260,942.612 2987.250,931.688 2953.787 C 922.583 2925.894,921.552 2895.029,928.605 2861.501 C 934.191 2834.946,957.374 2773.040,968.089 2756.066 C 1000.283 2705.068,1082.276 2630.431,1137.005 2602.306 C 1149.377 2595.947,1164.225 2587.205,1170.000 2582.879 C 1180.150 2575.276,1189.154 2569.757,1240.500 2539.667 C 1253.700 2531.931,1272.754 2520.486,1282.841 2514.233 C 1292.929 2507.979,1312.788 2498.664,1326.972 2493.531 C 1341.156 2488.399,1355.178 2482.944,1358.131 2481.409 C 1380.029 2470.026,1432.637 2455.152,1435.173 2459.627 C 1435.757 2460.657,1437.167 2472.551,1438.307 2486.057 C 1440.319 2509.908,1440.166 2510.753,1432.973 2515.466 C 1428.900 2518.135,1415.652 2522.773,1403.533 2525.772 C 1332.299 2543.403,1274.115 2562.814,1251.000 2576.660 C 1243.575 2581.108,1229.400 2588.333,1219.500 2592.715 C 1209.600 2597.098,1195.425 2604.107,1188.000 2608.292 C 1180.575 2612.476,1171.283 2617.307,1167.351 2619.027 C 1139.952 2631.014,1067.487 2687.275,1038.821 2718.816 C 1000.928 2760.510,970.370 2813.023,961.147 2852.298 C 954.260 2881.627,956.623 2930.304,965.915 2950.500 C 979.503 2980.034,1008.239 3016.161,1032.000 3033.583 C 1037.775 3037.817,1046.550 3045.078,1051.500 3049.719 C 1071.553 3068.520,1079.454 3072.000,1102.082 3072.000 L 1123.327 3072.000 1098.218 3055.288 C 1074.408 3039.441,1053.625 3022.492,1018.433 2990.223 C 1007.539 2980.233,999.842 2969.423,992.800 2954.223 C 984.086 2935.415,982.575 2928.621,981.533 2903.589 C 979.375 2851.735,995.962 2807.361,1037.588 2753.632 C 1064.277 2719.183,1091.953 2694.545,1134.434 2667.419 C 1149.870 2657.562,1166.550 2646.178,1171.500 2642.122 C 1179.736 2635.373,1214.473 2617.774,1243.098 2605.848 L 1254.697 2601.015 1252.812 2609.258 C 1248.306 2628.971,1247.349 2664.666,1250.845 2682.605 C 1256.081 2709.468,1266.206 2725.364,1294.092 2750.505 C 1334.808 2787.212,1394.836 2814.171,1458.829 2824.490 C 1474.048 2826.943,1495.950 2830.446,1507.500 2832.273 C 1519.050 2834.101,1533.900 2836.514,1540.500 2837.637 L 1552.500 2839.678 1553.355 2870.339 L 1554.210 2901.000 1530.253 2901.000 C 1488.251 2901.000,1462.025 2909.707,1429.063 2934.593 C 1413.090 2946.653,1399.422 2965.042,1390.770 2986.116 C 1383.614 3003.543,1384.727 3025.639,1393.734 3044.990 C 1405.113 3069.436,1408.289 3072.000,1427.195 3072.000 L 1443.460 3072.000 1434.099 3064.123 C 1422.354 3054.240,1414.184 3038.442,1411.475 3020.378 C 1409.752 3008.886,1410.733 3003.437,1416.991 2989.770 C 1426.517 2968.962,1441.296 2950.359,1453.293 2944.075 C 1458.357 2941.422,1465.934 2937.435,1470.131 2935.215 C 1483.683 2928.046,1521.446 2921.562,1537.210 2923.697 L 1551.920 2925.690 1549.955 2977.095 C 1548.874 3005.368,1547.113 3038.381,1546.042 3050.458 L 1544.095 3072.416 1555.797 3071.458 L 1567.500 3070.500 1569.634 3045.000 C 1570.808 3030.975,1572.665 2979.258,1573.760 2930.073 L 1575.752 2840.647 1615.126 2842.716 C 1636.782 2843.854,1654.925 2845.146,1655.444 2845.587 C 1655.964 2846.028,1654.337 2877.914,1651.830 2916.444 C 1649.323 2954.975,1646.409 3005.738,1645.356 3029.250 L 1643.441 3072.000 1656.769 3072.000 L 1670.097 3072.000 1672.212 3008.250 C 1673.376 2973.188,1675.075 2941.463,1675.989 2937.750 C 1677.904 2929.969,1688.581 2928.835,1708.321 2934.315 C 1719.702 2937.475,1758.000 2970.190,1758.000 2976.752 C 1758.000 2978.293,1760.632 2982.899,1763.848 2986.988 C 1776.792 3003.444,1774.145 3045.048,1759.010 3063.035 L 1751.467 3072.000 1766.466 3072.000 C 1781.378 3072.000,1781.505 3071.918,1788.453 3057.750 C 1793.632 3047.191,1795.449 3038.321,1795.471 3023.508 C 1795.496 3006.000,1793.943 3000.410,1782.962 2978.508 C 1776.066 2964.754,1769.785 2951.368,1769.003 2948.763 C 1767.077 2942.344,1715.547 2913.887,1694.623 2907.687 L 1677.746 2902.687 1679.120 2877.093 C 1679.875 2863.017,1680.739 2850.429,1681.040 2849.120 C 1681.340 2847.812,1704.517 2846.328,1732.543 2845.823 C 1806.027 2844.500,1846.581 2839.823,1888.511 2827.834 C 1947.887 2810.856,1968.233 2801.161,2007.056 2771.347 C 2048.207 2739.743,2063.829 2683.542,2044.483 2636.695 C 2040.123 2626.138,2035.928 2614.125,2035.159 2610.000 C 2034.390 2605.875,2029.805 2596.061,2024.968 2588.191 C 2016.765 2574.843,2016.622 2574.116,2022.837 2577.367 C 2026.502 2579.283,2033.310 2583.521,2037.967 2586.784 C 2042.624 2590.048,2052.196 2594.452,2059.237 2596.571 C 2066.279 2598.690,2090.242 2611.261,2112.488 2624.507 C 2161.359 2653.604,2200.768 2688.787,2214.124 2715.246 C 2218.820 2724.548,2227.800 2737.516,2234.081 2744.064 C 2248.415 2759.009,2290.811 2842.968,2303.811 2882.155 C 2310.963 2903.714,2311.857 2930.713,2305.805 2942.399 C 2297.653 2958.141,2261.159 2987.467,2235.725 2998.716 C 2226.421 3002.830,2214.689 3009.315,2209.654 3013.127 C 2204.619 3016.938,2178.225 3029.751,2151.000 3041.601 C 2074.830 3074.752,2079.184 3071.584,2109.484 3071.808 C 2132.609 3071.979,2138.056 3070.883,2158.984 3061.852 C 2195.603 3046.049,2256.620 3014.838,2265.772 3007.229 C 2270.321 3003.446,2280.786 2996.681,2289.027 2992.196 C 2301.220 2985.560,2306.485 2979.883,2317.292 2961.724 C 2333.586 2934.345,2335.870 2922.581,2329.594 2898.363 C 2324.909 2880.282,2310.000 2837.762,2304.553 2826.946 C 2303.044 2823.951,2297.916 2813.648,2293.155 2804.052 C 2266.836 2750.995,2245.273 2716.534,2225.322 2695.646 C 2219.095 2689.126,2214.000 2682.281,2214.000 2680.436 C 2214.000 2673.630,2192.394 2652.143,2172.123 2638.789 C 2160.645 2631.227,2146.623 2620.973,2140.962 2616.003 C 2135.300 2611.032,2123.431 2603.731,2114.584 2599.778 C 2105.738 2595.825,2082.975 2584.260,2064.000 2574.079 C 2002.354 2541.001,1924.299 2509.506,1885.228 2501.944 C 1868.689 2498.743,1866.200 2497.241,1858.978 2486.103 C 1849.680 2471.763,1848.709 2464.973,1856.250 2467.022 C 1859.138 2467.806,1871.625 2470.694,1884.000 2473.438 C 1932.713 2484.241,1964.812 2493.381,1993.514 2504.623 C 2029.845 2518.851,2110.282 2558.820,2133.000 2573.933 C 2142.075 2579.970,2158.683 2589.985,2169.906 2596.189 C 2203.758 2614.900,2258.741 2674.041,2280.370 2715.005 C 2284.291 2722.432,2291.100 2733.232,2295.500 2739.005 C 2299.899 2744.777,2305.860 2755.575,2308.747 2763.000 C 2311.633 2770.425,2316.298 2779.875,2319.113 2784.000 C 2321.928 2788.125,2331.278 2805.408,2339.890 2822.407 C 2353.321 2848.918,2356.342 2858.178,2361.129 2887.524 C 2370.473 2944.808,2362.272 2974.620,2328.975 3004.401 C 2310.292 3021.112,2290.620 3036.000,2287.223 3036.000 C 2286.392 3036.000,2278.014 3040.935,2268.606 3046.966 C 2259.198 3052.997,2244.750 3061.083,2236.500 3064.936 L 2221.500 3071.941 2244.161 3071.971 C 2270.207 3072.004,2288.209 3064.789,2310.479 3045.391 C 2317.641 3039.153,2328.900 3031.050,2335.500 3027.385 C 2346.842 3021.085,2364.749 2998.110,2376.929 2974.231 C 2392.988 2942.746,2388.651 2872.252,2368.455 2836.500 C 2364.727 2829.900,2359.304 2817.152,2356.405 2808.172 C 2350.969 2791.334,2338.608 2768.353,2318.754 2738.175 C 2312.486 2728.647,2306.437 2717.847,2305.313 2714.175 C 2304.188 2710.504,2298.898 2702.100,2293.557 2695.500 C 2288.217 2688.900,2280.350 2676.594,2276.077 2668.152 C 2267.955 2652.109,2223.623 2606.296,2199.000 2588.501 C 2175.012 2571.164,2108.928 2532.552,2074.766 2515.911 C 2000.260 2479.621,1992.752 2476.840,1920.000 2458.607 C 1896.075 2452.610,1865.728 2444.058,1852.561 2439.602 L 1828.623 2431.500 1814.500 2398.500 C 1806.732 2380.350,1800.292 2363.138,1800.188 2360.250 C 1800.016 2355.447,1804.402 2354.998,1851.750 2354.974 C 1880.213 2354.960,1918.350 2353.665,1936.500 2352.097 C 1954.650 2350.528,1983.000 2348.446,1999.500 2347.469 C 2063.798 2343.664,2111.591 2336.029,2224.500 2311.528 C 2242.650 2307.589,2269.650 2302.240,2284.500 2299.642 C 2299.350 2297.043,2324.325 2291.478,2340.000 2287.274 C 2355.675 2283.071,2373.900 2278.341,2380.500 2276.762 C 2387.100 2275.183,2399.925 2271.334,2409.000 2268.209 C 2418.075 2265.084,2435.625 2260.249,2448.000 2257.465 C 2474.499 2251.502,2528.959 2233.619,2544.200 2225.876 C 2560.334 2217.678,2586.273 2208.990,2629.500 2197.306 C 2660.294 2188.982,2755.946 2152.022,2780.894 2138.806 C 2783.427 2137.465,2793.596 2132.831,2803.491 2128.510 C 2813.386 2124.189,2824.186 2118.184,2827.491 2115.165 C 2830.796 2112.147,2839.196 2106.818,2846.158 2103.325 C 2864.000 2094.370,2902.109 2059.253,2916.512 2038.494 C 2935.287 2011.433,2949.000 1976.815,2948.998 1956.484 C 2948.994 1932.484,2936.766 1907.913,2915.163 1888.500 C 2878.761 1855.787,2865.642 1845.501,2845.118 1833.582 C 2817.526 1817.559,2757.693 1793.700,2719.500 1783.491 C 2670.411 1770.370,2651.174 1764.874,2638.500 1760.349 C 2631.900 1757.993,2619.075 1754.448,2610.000 1752.472 C 2555.082 1740.515,2540.826 1737.193,2526.000 1732.898 C 2507.859 1727.644,2433.366 1708.764,2412.000 1704.006 C 2386.936 1698.424,2183.402 1687.065,2079.000 1685.420 C 2055.075 1685.043,2039.213 1684.255,2043.750 1683.668 C 2048.288 1683.082,2052.000 1681.122,2052.000 1679.313 C 2052.000 1675.281,2042.563 1660.075,1999.368 1594.500 C 1939.122 1503.040,1940.557 1505.873,1936.281 1470.000 C 1929.919 1416.628,1923.398 1368.540,1920.092 1350.618 C 1916.717 1332.322,1908.402 1230.076,1906.258 1180.500 C 1905.393 1160.513,1905.898 1152.503,1907.769 1156.500 C 1909.314 1159.800,1910.673 1165.306,1910.789 1168.736 C 1911.190 1180.601,1928.358 1202.092,1941.701 1207.430 C 1965.172 1216.822,1973.959 1211.777,2001.750 1172.956 L 2013.000 1157.241 2012.948 1080.370 C 2012.890 993.954,2009.862 955.927,2000.661 926.023 C 1993.735 903.515,1971.878 868.640,1953.977 851.533 C 1935.619 833.990,1906.202 826.710,1884.394 834.312 C 1875.189 837.521,1874.235 837.005,1853.890 817.812 C 1842.338 806.916,1831.205 798.000,1829.149 798.000 C 1827.093 798.000,1820.031 795.107,1813.456 791.572 C 1793.369 780.771,1770.573 776.725,1722.000 775.339 C 1679.149 774.116,1672.440 774.684,1636.500 782.585 M1792.015 805.370 C 1799.999 808.326,1814.849 817.468,1825.015 825.685 C 1835.182 833.903,1850.500 844.615,1859.056 849.490 C 1874.194 858.116,1874.678 858.813,1877.056 875.427 C 1878.400 884.817,1879.500 906.833,1879.500 924.350 C 1879.500 956.087,1879.466 956.235,1869.971 965.944 C 1862.799 973.277,1857.047 976.070,1846.721 977.234 C 1835.593 978.488,1833.000 977.890,1833.000 974.067 C 1833.000 966.697,1827.014 964.835,1822.623 970.839 C 1818.872 975.968,1817.689 975.643,1801.854 965.129 C 1783.056 952.648,1771.904 937.218,1766.676 916.457 C 1762.844 901.237,1759.093 898.322,1747.185 901.311 C 1740.155 903.075,1739.573 904.282,1741.303 913.506 C 1749.768 958.627,1794.767 999.189,1836.000 998.866 C 1845.075 998.795,1857.848 996.832,1864.385 994.503 C 1870.922 992.175,1876.997 990.997,1877.885 991.884 C 1878.773 992.772,1880.382 1039.624,1881.460 1095.999 C 1882.539 1152.375,1884.928 1217.400,1886.770 1240.500 C 1892.249 1309.202,1898.917 1373.545,1903.868 1405.500 C 1906.424 1422.000,1909.727 1447.650,1911.207 1462.500 C 1914.849 1499.040,1916.348 1504.887,1926.977 1524.000 C 1944.532 1555.571,2017.152 1666.714,2027.435 1677.750 L 2035.123 1686.000 1984.864 1686.000 C 1955.019 1686.000,1932.178 1687.299,1928.630 1689.198 C 1923.020 1692.200,1922.774 1691.695,1924.623 1680.948 C 1925.706 1674.652,1928.484 1661.880,1930.796 1652.567 C 1936.189 1630.845,1936.152 1618.084,1930.691 1615.989 C 1924.379 1613.566,1911.907 1624.616,1908.332 1635.797 C 1903.082 1652.221,1889.753 1721.083,1879.687 1783.790 C 1871.554 1834.456,1862.440 1850.155,1842.995 1846.999 C 1829.241 1844.767,1789.898 1824.866,1781.396 1815.839 L 1775.121 1809.178 1787.249 1788.230 C 1793.920 1776.708,1803.751 1754.056,1809.097 1737.891 C 1814.442 1721.726,1825.521 1688.925,1833.716 1665.000 C 1850.045 1617.327,1854.918 1597.617,1852.364 1589.573 C 1850.447 1583.532,1839.598 1579.161,1835.932 1582.952 C 1833.042 1585.940,1811.947 1642.825,1803.064 1671.588 L 1796.903 1691.533 1778.202 1693.419 C 1767.916 1694.456,1707.627 1694.898,1644.226 1694.402 L 1528.952 1693.500 1525.151 1677.000 C 1523.061 1667.925,1519.845 1650.375,1518.007 1638.000 C 1512.497 1600.926,1496.737 1560.000,1487.970 1560.000 C 1479.133 1560.000,1479.907 1574.957,1491.469 1627.610 C 1501.643 1673.939,1514.043 1737.492,1519.761 1772.611 C 1520.895 1779.573,1525.633 1786.567,1534.979 1795.073 C 1542.444 1801.866,1549.888 1809.922,1551.522 1812.975 C 1555.884 1821.126,1557.433 1832.378,1554.447 1834.224 C 1549.630 1837.201,1509.000 1838.580,1509.000 1835.767 C 1509.000 1834.245,1506.975 1833.000,1504.500 1833.000 C 1502.025 1833.000,1500.000 1831.641,1500.000 1829.979 C 1500.000 1828.053,1507.611 1827.665,1521.000 1828.910 C 1541.186 1830.786,1542.000 1830.608,1542.000 1824.309 C 1542.000 1818.038,1540.952 1817.795,1517.566 1818.629 C 1491.649 1819.553,1490.035 1820.489,1486.669 1836.561 C 1485.315 1843.027,1483.054 1844.807,1475.240 1845.561 L 1465.500 1846.500 1474.184 1852.379 C 1484.005 1859.029,1512.923 1859.831,1527.353 1853.854 C 1532.791 1851.601,1537.307 1851.433,1540.742 1853.355 C 1545.375 1855.948,1545.035 1856.839,1537.533 1861.754 C 1531.468 1865.728,1524.489 1867.058,1512.359 1866.550 C 1487.409 1865.506,1475.891 1861.387,1461.838 1848.482 C 1438.960 1827.472,1436.557 1815.631,1434.344 1713.000 L 1432.500 1627.500 1421.250 1626.569 L 1410.000 1625.638 1410.000 1659.874 L 1410.000 1694.111 1385.250 1696.037 C 1350.722 1698.725,1317.000 1698.471,1317.000 1695.523 C 1317.000 1694.161,1320.480 1689.776,1324.734 1685.780 C 1328.988 1681.784,1337.363 1670.457,1343.345 1660.608 C 1349.328 1650.760,1360.629 1634.239,1368.458 1623.895 C 1376.288 1613.550,1392.727 1589.880,1404.990 1571.293 C 1417.252 1552.707,1435.402 1527.045,1445.323 1514.268 L 1463.360 1491.035 1465.562 1463.268 C 1468.960 1420.413,1468.188 1309.921,1464.256 1276.500 C 1462.316 1260.000,1459.428 1235.744,1457.840 1222.597 C 1453.615 1187.622,1435.528 1117.215,1423.385 1088.475 C 1417.041 1073.461,1404.189 1051.940,1391.161 1034.518 C 1366.426 1001.437,1354.550 990.553,1347.823 994.796 C 1345.378 996.339,1336.429 1010.403,1327.938 1026.051 L 1312.500 1054.500 1312.500 1101.000 C 1312.500 1155.057,1317.588 1182.376,1333.627 1214.437 C 1347.256 1241.678,1356.948 1273.381,1356.815 1290.286 C 1356.562 1322.601,1336.003 1337.822,1312.207 1323.311 C 1303.519 1318.013,1302.798 1316.210,1301.121 1295.572 C 1300.134 1283.433,1297.332 1255.275,1294.894 1233.000 C 1281.751 1112.942,1281.224 1052.220,1293.109 1027.404 C 1301.356 1010.185,1325.671 983.946,1354.062 961.628 C 1367.503 951.063,1384.407 936.249,1391.628 928.709 C 1398.848 921.169,1406.078 915.000,1407.696 915.000 C 1409.313 915.000,1415.561 911.288,1421.580 906.750 C 1437.106 895.046,1442.370 891.866,1461.000 882.944 C 1470.075 878.597,1480.655 871.949,1484.510 868.169 C 1488.366 864.390,1497.816 858.926,1505.510 856.028 C 1513.205 853.131,1527.400 846.168,1537.055 840.557 C 1563.884 824.965,1603.423 810.181,1635.000 803.935 C 1673.911 796.237,1769.717 797.113,1792.015 805.370 M1923.947 855.367 C 1940.901 864.077,1960.529 889.807,1973.507 920.332 C 1983.780 944.496,1986.351 977.470,1985.385 1072.652 L 1984.500 1159.804 1973.250 1172.942 C 1967.063 1180.168,1962.000 1187.862,1962.000 1190.040 C 1962.000 1192.218,1960.400 1194.000,1958.443 1194.000 C 1954.404 1194.000,1941.000 1182.174,1941.000 1178.610 C 1941.000 1177.321,1937.697 1171.399,1933.660 1165.450 C 1916.801 1140.607,1913.400 1106.755,1918.446 1014.000 C 1919.827 988.608,1919.510 969.583,1917.595 963.000 C 1915.197 954.755,1914.483 962.968,1914.271 1001.250 C 1914.079 1035.737,1912.994 1050.000,1910.562 1050.000 C 1908.015 1050.000,1907.668 1031.902,1909.225 980.250 L 1911.326 910.500 1897.770 883.790 C 1890.314 869.100,1884.921 855.938,1885.784 854.540 C 1888.080 850.826,1916.298 851.437,1923.947 855.367 M1541.989 947.250 C 1541.973 989.063,1535.257 998.000,1495.951 1008.513 C 1483.850 1011.750,1480.413 1011.654,1473.577 1007.891 C 1466.821 1004.171,1455.589 987.159,1451.106 973.853 C 1450.338 971.575,1448.295 971.888,1444.734 974.828 C 1440.514 978.313,1439.884 981.820,1441.505 992.828 C 1444.719 1014.648,1450.984 1024.942,1464.292 1030.267 C 1479.956 1036.534,1489.353 1036.240,1513.701 1028.720 C 1529.329 1023.893,1537.558 1019.079,1549.267 1007.916 L 1564.500 993.392 1565.495 955.696 L 1566.489 918.000 1554.245 918.000 L 1542.000 918.000 1541.989 947.250 M1623.000 1024.361 C 1608.975 1027.816,1595.813 1031.703,1593.750 1032.999 C 1591.688 1034.294,1590.000 1040.043,1590.000 1045.773 C 1590.000 1070.093,1610.809 1099.519,1633.846 1107.777 C 1653.247 1114.731,1660.685 1114.382,1666.418 1106.250 C 1672.811 1097.183,1682.602 1064.944,1684.898 1045.401 C 1686.703 1030.049,1686.477 1029.401,1677.744 1024.885 C 1663.783 1017.665,1650.691 1017.540,1623.000 1024.361 M1632.000 1127.787 C 1624.575 1130.862,1613.775 1135.142,1608.000 1137.298 C 1602.225 1139.455,1589.917 1148.404,1580.648 1157.186 C 1565.178 1171.844,1563.127 1172.900,1555.646 1170.056 C 1541.015 1164.493,1537.062 1173.315,1549.114 1184.637 C 1555.607 1190.737,1558.159 1191.152,1578.364 1189.388 C 1599.067 1187.580,1601.568 1188.032,1617.000 1196.368 C 1631.017 1203.939,1633.516 1206.576,1633.609 1213.890 C 1633.845 1232.402,1645.462 1235.316,1661.365 1220.851 C 1668.632 1214.242,1670.536 1210.639,1668.595 1207.171 C 1667.146 1204.581,1664.741 1202.246,1663.251 1201.981 C 1661.760 1201.717,1660.920 1199.475,1661.383 1197.000 C 1661.847 1194.525,1659.559 1195.866,1656.299 1199.981 L 1650.372 1207.461 1636.824 1193.323 C 1623.527 1179.444,1620.941 1178.185,1598.250 1174.537 C 1592.063 1173.542,1587.000 1171.383,1587.000 1169.739 C 1587.000 1166.786,1620.600 1150.470,1633.185 1147.311 C 1640.268 1145.533,1644.265 1153.375,1648.574 1177.500 C 1650.353 1187.461,1651.130 1188.481,1653.148 1183.500 C 1654.485 1180.200,1655.673 1173.024,1655.789 1167.553 C 1656.183 1148.952,1667.724 1139.324,1676.685 1150.120 C 1678.565 1152.386,1687.843 1155.783,1697.302 1157.669 C 1730.926 1164.373,1731.330 1173.164,1697.739 1167.161 C 1675.170 1163.128,1674.298 1163.435,1668.305 1177.500 L 1664.471 1186.500 1671.826 1179.611 C 1678.798 1173.082,1680.638 1172.833,1707.090 1174.829 C 1734.805 1176.922,1734.951 1176.975,1728.167 1182.468 C 1723.274 1186.430,1716.372 1188.000,1703.845 1188.000 C 1686.351 1188.000,1678.583 1192.206,1686.366 1197.465 C 1693.880 1202.542,1745.368 1193.137,1748.030 1186.200 C 1751.001 1178.458,1746.050 1167.338,1734.722 1156.312 C 1719.010 1141.018,1705.007 1134.607,1687.009 1134.468 C 1677.412 1134.393,1667.297 1132.027,1660.109 1128.174 C 1646.415 1120.835,1648.709 1120.867,1632.000 1127.787 M1134.420 1235.387 C 1157.020 1245.879,1173.388 1270.032,1176.819 1297.951 L 1178.349 1310.403 1165.924 1313.491 C 1159.091 1315.190,1146.750 1318.315,1138.500 1320.436 C 1129.315 1322.797,1106.054 1324.213,1078.500 1324.089 C 1035.281 1323.893,1021.097 1321.796,990.000 1311.000 C 985.875 1309.568,974.738 1306.244,965.250 1303.614 C 946.525 1298.423,944.948 1295.605,952.545 1280.912 C 961.464 1263.665,1008.204 1235.166,1036.500 1229.721 C 1043.100 1228.451,1064.700 1227.752,1084.500 1228.168 C 1113.979 1228.787,1123.021 1230.095,1134.420 1235.387 M1366.800 1285.800 C 1365.732 1288.582,1364.184 1290.184,1363.359 1289.359 C 1362.534 1288.534,1362.732 1285.582,1363.800 1282.800 C 1364.868 1280.018,1366.416 1278.416,1367.241 1279.241 C 1368.066 1280.066,1367.868 1283.018,1366.800 1285.800 M1292.049 1308.563 C 1291.092 1310.956,1290.381 1310.245,1290.237 1306.750 C 1290.107 1303.588,1290.816 1301.816,1291.813 1302.813 C 1292.809 1303.809,1292.916 1306.397,1292.049 1308.563 M984.000 1324.689 C 1037.158 1338.924,1048.455 1340.789,1082.147 1340.895 C 1100.653 1340.953,1130.841 1338.901,1149.233 1336.336 C 1167.624 1333.771,1183.354 1332.354,1184.188 1333.188 C 1185.022 1334.022,1186.352 1340.508,1187.144 1347.602 C 1188.293 1357.886,1187.202 1362.253,1181.760 1369.151 C 1173.305 1379.867,1151.078 1389.840,1123.500 1395.294 C 1098.588 1400.220,1040.856 1400.521,1026.000 1395.801 C 1020.225 1393.967,1005.375 1389.575,993.000 1386.043 C 980.625 1382.510,964.941 1376.378,958.146 1372.416 C 944.640 1364.539,942.000 1357.870,942.000 1331.625 C 942.000 1313.816,942.866 1313.673,984.000 1324.689 M516.000 1389.000 C 516.000 1390.650,514.730 1392.000,513.177 1392.000 C 511.624 1392.000,509.520 1390.650,508.500 1389.000 C 507.480 1387.350,508.751 1386.000,511.323 1386.000 C 513.895 1386.000,516.000 1387.350,516.000 1389.000 M676.500 1392.000 C 675.480 1393.650,676.751 1395.000,679.323 1395.000 C 681.895 1395.000,684.000 1393.650,684.000 1392.000 C 684.000 1390.350,682.730 1389.000,681.177 1389.000 C 679.624 1389.000,677.520 1390.350,676.500 1392.000 M632.438 1394.049 C 634.603 1394.916,637.191 1394.809,638.188 1393.813 C 639.184 1392.816,637.413 1392.107,634.250 1392.237 C 630.755 1392.381,630.044 1393.092,632.438 1394.049 M617.960 1415.974 C 632.036 1425.007,633.001 1426.423,633.016 1438.063 C 633.024 1444.903,633.903 1463.663,634.968 1479.750 L 636.905 1509.000 618.452 1509.000 L 600.000 1509.000 600.000 1494.474 C 600.000 1486.485,599.238 1461.173,598.307 1438.224 C 597.102 1408.512,597.522 1397.914,599.767 1401.411 C 601.500 1404.112,609.687 1410.666,617.960 1415.974 M667.392 1446.395 C 664.589 1463.503,661.104 1478.783,659.648 1480.350 C 658.106 1482.010,657.000 1468.630,657.000 1448.320 C 657.000 1417.559,657.620 1413.298,662.250 1412.238 C 665.138 1411.577,668.623 1411.993,669.995 1413.163 C 671.367 1414.332,670.196 1429.287,667.392 1446.395 M505.800 1462.800 C 504.732 1465.582,503.184 1467.184,502.359 1466.359 C 501.534 1465.534,501.732 1462.582,502.800 1459.800 C 503.868 1457.018,505.416 1455.416,506.241 1456.241 C 507.066 1457.066,506.868 1460.018,505.800 1462.800 M660.029 1550.250 C 660.053 1564.597,663.176 1634.590,666.688 1699.500 L 667.500 1714.500 651.000 1713.621 C 631.314 1712.572,606.000 1706.841,606.000 1703.433 C 606.000 1702.095,608.279 1701.000,611.064 1701.000 C 620.259 1701.000,635.986 1687.711,642.438 1674.491 C 647.540 1664.036,648.468 1657.976,647.168 1643.633 C 644.324 1612.265,634.606 1604.502,597.502 1603.956 C 579.532 1603.692,574.971 1604.585,572.593 1608.834 C 570.992 1611.694,566.373 1617.739,562.328 1622.267 C 557.020 1628.208,555.536 1628.902,556.996 1624.758 C 558.395 1620.787,557.937 1619.685,555.510 1621.185 C 553.579 1622.378,552.000 1625.299,552.000 1627.677 C 552.000 1630.055,550.914 1632.000,549.587 1632.000 C 548.259 1632.000,546.840 1637.640,546.433 1644.534 C 546.027 1651.428,545.103 1658.025,544.380 1659.194 C 543.657 1660.363,545.076 1662.988,547.533 1665.027 C 549.990 1667.066,552.000 1670.916,552.000 1673.583 C 552.000 1679.773,578.238 1703.680,587.627 1706.045 C 597.660 1708.572,590.961 1711.829,564.113 1717.476 C 528.513 1724.965,531.003 1727.161,530.983 1688.250 C 530.973 1669.688,529.758 1647.075,528.282 1638.000 C 526.806 1628.925,524.620 1602.348,523.424 1578.941 L 521.251 1536.382 534.375 1535.215 C 541.594 1534.573,572.813 1533.812,603.750 1533.524 L 660.000 1533.000 660.029 1550.250 M623.507 1636.221 C 631.533 1644.247,629.412 1664.735,619.690 1673.097 C 613.462 1678.454,610.378 1679.343,606.049 1677.026 C 597.702 1672.559,591.000 1656.803,591.000 1641.649 L 591.000 1628.220 604.809 1629.776 C 612.404 1630.632,620.818 1633.533,623.507 1636.221 M575.065 1646.618 C 572.357 1656.767,572.789 1659.285,578.482 1666.523 C 582.067 1671.080,585.000 1677.375,585.000 1680.510 C 585.000 1685.272,584.016 1685.685,579.031 1683.017 C 571.992 1679.250,564.000 1664.907,564.000 1656.043 C 564.000 1649.405,572.166 1635.000,575.928 1635.000 C 577.159 1635.000,576.771 1640.228,575.065 1646.618 M561.550 1644.650 C 559.397 1646.803,558.000 1646.980,558.000 1645.100 C 558.000 1641.096,561.548 1637.548,563.550 1639.550 C 564.403 1640.403,563.503 1642.698,561.550 1644.650 M2280.000 1715.810 C 2307.225 1717.666,2346.375 1720.324,2367.000 1721.715 C 2399.905 1723.934,2419.020 1727.927,2523.000 1754.301 C 2693.720 1797.603,2776.762 1821.818,2793.000 1833.033 C 2797.125 1835.882,2803.875 1839.230,2808.000 1840.474 C 2812.125 1841.717,2817.203 1844.097,2819.283 1845.762 C 2823.658 1849.263,2836.940 1856.884,2855.528 1866.560 C 2871.478 1874.862,2886.000 1890.833,2886.000 1900.073 C 2886.000 1912.214,2868.992 1942.098,2854.034 1956.241 C 2828.237 1980.630,2782.191 2013.207,2762.571 2020.950 C 2755.382 2023.787,2744.775 2028.780,2739.000 2032.046 C 2696.080 2056.317,2645.006 2074.622,2578.670 2089.508 C 2567.213 2092.079,2546.288 2098.048,2532.170 2102.771 C 2506.769 2111.270,2477.519 2119.133,2413.500 2134.675 C 2395.350 2139.081,2373.750 2145.368,2365.500 2148.646 C 2348.837 2155.267,2311.309 2163.894,2230.500 2179.680 C 2200.800 2185.482,2154.225 2195.419,2127.000 2201.762 C 2059.698 2217.443,1958.544 2235.204,1893.590 2242.744 C 1834.580 2249.594,1721.237 2251.044,1534.500 2247.336 C 1326.907 2243.214,1188.987 2237.988,1089.000 2230.456 C 1078.275 2229.649,1048.575 2227.574,1023.000 2225.846 C 934.273 2219.853,898.415 2216.884,882.000 2214.173 C 872.925 2212.674,857.400 2210.588,847.500 2209.537 C 804.397 2204.963,670.589 2180.069,615.000 2166.281 C 602.625 2163.212,576.975 2155.012,558.000 2148.059 C 539.025 2141.106,518.775 2134.047,513.000 2132.373 C 489.147 2125.457,442.376 2104.965,392.810 2079.715 C 334.453 2049.985,331.475 2048.238,301.500 2026.130 C 275.659 2007.071,265.124 1996.002,249.301 1971.285 C 239.352 1955.744,237.000 1949.363,237.000 1937.912 C 237.000 1914.572,244.732 1897.535,268.500 1868.508 C 273.450 1862.463,281.830 1851.459,287.122 1844.054 C 295.230 1832.711,302.176 1827.950,331.244 1813.816 C 426.753 1767.373,483.023 1755.000,652.500 1743.177 C 756.051 1735.953,903.653 1730.140,993.000 1729.768 L 1057.500 1729.500 1058.401 1740.239 C 1059.298 1750.937,1059.241 1750.991,1043.401 1754.568 C 1012.120 1761.631,986.368 1782.828,982.223 1804.924 C 979.894 1817.334,988.384 1831.996,1004.237 1842.944 C 1025.871 1857.885,1034.543 1859.821,1082.153 1860.340 C 1119.535 1860.747,1128.699 1859.950,1138.137 1855.471 C 1152.799 1848.514,1165.747 1835.414,1168.377 1824.876 C 1169.527 1820.269,1172.380 1814.376,1174.718 1811.781 C 1178.404 1807.689,1178.206 1805.496,1173.230 1795.281 C 1161.017 1770.212,1137.014 1756.262,1100.099 1752.780 L 1082.697 1751.139 1083.599 1738.820 L 1084.500 1726.500 1141.500 1724.658 C 1172.850 1723.645,1245.944 1721.820,1303.930 1720.602 L 1409.360 1718.387 1411.443 1756.944 C 1414.834 1819.730,1423.723 1844.786,1451.203 1869.011 C 1473.409 1888.589,1486.441 1894.281,1508.316 1893.960 C 1531.527 1893.619,1557.005 1881.852,1569.945 1865.496 C 1576.871 1856.742,1578.968 1850.553,1580.197 1835.232 C 1582.040 1812.275,1578.632 1803.639,1557.413 1777.500 C 1545.800 1763.193,1541.907 1755.438,1538.443 1739.702 L 1534.085 1719.903 1585.292 1717.961 C 1613.457 1716.892,1669.913 1716.014,1710.750 1716.009 C 1795.202 1715.999,1787.528 1712.899,1781.786 1744.699 C 1779.157 1759.257,1775.416 1766.599,1761.250 1785.000 C 1731.141 1824.111,1728.572 1833.843,1741.773 1858.803 C 1752.127 1878.381,1757.242 1883.811,1771.500 1890.358 C 1790.552 1899.107,1815.612 1897.834,1838.618 1886.951 C 1867.252 1873.405,1887.569 1849.196,1900.260 1813.500 C 1902.838 1806.250,1909.662 1766.240,1912.507 1741.695 C 1913.642 1731.903,1915.796 1720.668,1917.293 1716.729 L 1920.016 1709.567 2075.258 1711.001 C 2160.641 1711.789,2252.775 1713.953,2280.000 1715.810 M1130.122 1783.567 C 1156.861 1794.739,1159.563 1808.950,1138.069 1825.363 L 1124.137 1836.000 1083.772 1836.000 C 1040.115 1836.000,1032.853 1834.162,1013.864 1818.310 L 1003.675 1809.804 1012.233 1798.584 C 1021.645 1786.243,1035.704 1779.000,1050.244 1779.000 L 1059.681 1779.000 1057.685 1792.311 C 1055.958 1803.830,1056.522 1806.068,1061.873 1808.932 C 1069.903 1813.230,1116.618 1811.707,1118.142 1807.098 C 1120.372 1800.360,1109.759 1794.000,1096.286 1794.000 C 1083.390 1794.000,1083.000 1793.723,1083.000 1784.573 L 1083.000 1775.145 1100.982 1777.025 C 1110.872 1778.058,1123.985 1781.002,1130.122 1783.567 M2008.500 1832.615 C 1990.644 1840.775,1972.314 1860.612,1968.450 1875.956 C 1958.857 1914.052,1995.992 1948.665,2046.000 1948.239 C 2071.235 1948.024,2087.705 1940.607,2109.292 1919.736 C 2129.749 1899.957,2133.030 1894.078,2132.894 1877.447 C 2132.712 1855.358,2121.501 1842.939,2092.554 1832.765 C 2070.218 1824.915,2025.525 1824.835,2008.500 1832.615 M1775.788 1841.502 C 1785.730 1848.703,1800.556 1855.409,1820.916 1861.912 C 1829.486 1864.650,1817.304 1868.906,1800.759 1868.954 C 1786.854 1868.995,1783.616 1867.734,1773.009 1858.151 C 1765.390 1851.268,1761.000 1844.688,1761.000 1840.151 C 1761.000 1831.142,1761.558 1831.193,1775.788 1841.502 M2089.691 1855.387 C 2099.359 1859.426,2112.000 1873.090,2112.000 1879.500 C 2112.000 1886.109,2100.335 1898.240,2081.227 1911.502 C 2064.091 1923.396,2060.971 1924.486,2044.500 1924.339 C 2014.512 1924.070,1992.000 1908.648,1992.000 1888.372 C 1992.000 1874.521,2009.706 1855.140,2025.849 1851.321 C 2041.063 1847.721,2076.791 1849.997,2089.691 1855.387 M2034.108 1862.764 C 2018.291 1869.177,2014.408 1874.249,2017.102 1884.981 C 2019.895 1896.109,2034.570 1903.054,2051.306 1901.168 C 2066.867 1899.414,2071.923 1895.164,2077.448 1879.191 C 2080.973 1868.999,2080.888 1866.827,2076.781 1862.250 C 2070.632 1855.397,2051.717 1855.625,2034.108 1862.764 M2918.939 1931.880 C 2927.873 1949.393,2926.921 1969.895,2916.060 1993.848 C 2904.657 2018.996,2865.347 2070.000,2857.367 2070.000 C 2855.161 2070.000,2842.762 2077.088,2829.814 2085.750 C 2816.865 2094.413,2803.623 2103.158,2800.386 2105.184 C 2788.560 2112.585,2751.762 2130.000,2747.948 2130.000 C 2745.791 2130.000,2728.542 2136.869,2709.618 2145.264 C 2690.693 2153.659,2647.375 2169.106,2613.355 2179.591 C 2579.335 2190.075,2533.950 2204.947,2512.500 2212.640 C 2453.301 2233.869,2395.828 2251.577,2362.500 2258.855 C 2346.000 2262.459,2307.525 2271.343,2277.000 2278.598 C 2246.475 2285.853,2207.325 2293.882,2190.000 2296.440 C 2172.675 2298.998,2156.526 2301.813,2154.113 2302.696 C 2147.783 2305.011,2079.084 2315.353,2025.000 2322.132 C 1896.700 2338.212,1594.754 2337.425,1383.000 2320.458 C 1352.475 2318.012,1314.675 2315.279,1299.000 2314.383 C 1106.764 2303.404,1033.223 2296.873,942.000 2282.677 C 921.375 2279.467,891.675 2274.982,876.000 2272.710 C 814.519 2263.798,687.556 2240.604,670.500 2235.168 C 660.600 2232.012,638.325 2225.963,621.000 2221.726 C 603.675 2217.489,575.325 2209.225,558.000 2203.362 C 540.675 2197.499,519.750 2190.860,511.500 2188.609 C 485.933 2181.633,401.769 2144.653,354.000 2119.407 C 323.282 2103.173,293.961 2080.604,273.196 2057.211 C 253.495 2035.018,232.707 2002.519,235.412 1998.143 C 236.405 1996.536,250.331 2008.397,266.359 2024.502 C 289.260 2047.513,300.639 2056.406,319.500 2066.031 C 332.700 2072.768,353.085 2083.750,364.800 2090.436 C 446.978 2137.342,574.660 2182.513,688.500 2204.953 C 843.569 2235.520,943.338 2247.771,1081.500 2253.212 C 1124.400 2254.902,1173.000 2257.482,1189.500 2258.946 C 1230.521 2262.587,1572.337 2269.510,1708.500 2269.458 C 1769.550 2269.434,1841.775 2267.740,1869.000 2265.693 C 1944.617 2260.005,2097.632 2237.129,2124.390 2227.510 C 2155.290 2216.402,2212.821 2203.529,2305.500 2186.985 C 2335.915 2181.555,2377.703 2169.847,2401.500 2160.088 C 2404.800 2158.734,2437.200 2150.567,2473.500 2141.938 C 2509.800 2133.309,2540.850 2125.231,2542.500 2123.986 C 2545.438 2121.770,2569.422 2114.785,2629.500 2098.649 C 2683.750 2084.079,2755.200 2053.677,2788.500 2030.995 C 2795.100 2026.500,2803.687 2021.824,2807.582 2020.604 C 2811.477 2019.383,2819.577 2013.972,2825.582 2008.578 C 2831.587 2003.184,2844.327 1993.309,2853.894 1986.633 C 2871.154 1974.589,2878.864 1966.063,2899.913 1935.750 C 2905.928 1927.088,2911.306 1920.000,2911.864 1920.000 C 2912.422 1920.000,2915.605 1925.346,2918.939 1931.880 M1550.157 2355.000 L 1563.478 2355.000 1561.625 2375.250 C 1560.606 2386.388,1558.243 2400.606,1556.374 2406.846 C 1553.856 2415.256,1553.845 2422.863,1556.335 2436.250 C 1561.031 2461.500,1559.762 2463.455,1539.377 2462.385 L 1522.500 2461.500 1522.322 2471.178 C 1522.223 2476.502,1521.323 2481.677,1520.321 2482.679 C 1519.318 2483.682,1521.217 2489.110,1524.540 2494.741 C 1531.009 2505.706,1539.843 2532.157,1537.739 2534.261 C 1535.756 2536.244,1514.979 2521.305,1510.170 2514.439 C 1507.799 2511.054,1500.480 2497.950,1493.906 2485.319 C 1482.735 2463.858,1482.177 2461.606,1485.377 2450.925 C 1487.586 2443.553,1490.200 2440.033,1492.742 2441.008 C 1494.909 2441.839,1499.993 2440.040,1504.039 2437.010 C 1511.369 2431.521,1511.390 2431.350,1509.729 2391.278 L 1508.062 2351.056 1522.450 2353.028 C 1530.363 2354.113,1542.831 2355.000,1550.157 2355.000 M1680.000 2357.823 C 1680.000 2359.376,1678.650 2361.480,1677.000 2362.500 C 1675.350 2363.520,1673.998 2375.412,1673.996 2388.927 C 1673.994 2402.442,1672.017 2439.825,1669.602 2472.000 C 1663.445 2554.030,1659.000 2651.750,1659.000 2705.068 C 1659.000 2738.555,1658.023 2750.722,1655.250 2751.755 C 1653.188 2752.523,1634.069 2753.418,1612.765 2753.744 L 1574.030 2754.336 1576.046 2643.918 C 1577.210 2580.185,1580.382 2506.864,1583.547 2470.500 C 1586.564 2435.850,1588.912 2395.690,1588.766 2381.255 L 1588.500 2355.010 1634.250 2355.005 C 1660.841 2355.002,1680.000 2356.182,1680.000 2357.823 M1775.554 2366.250 C 1778.676 2372.438,1782.247 2380.875,1783.489 2385.000 C 1784.732 2389.125,1793.475 2408.103,1802.919 2427.174 C 1819.041 2459.730,1820.003 2462.890,1818.673 2478.924 C 1817.894 2488.316,1816.007 2496.000,1814.480 2496.000 C 1808.953 2496.000,1792.193 2485.821,1777.911 2473.790 C 1764.090 2462.148,1749.314 2439.863,1722.023 2389.500 C 1716.659 2379.600,1708.806 2367.788,1704.573 2363.250 L 1696.877 2355.000 1733.378 2355.000 L 1769.878 2355.000 1775.554 2366.250 M1482.624 2439.252 C 1482.142 2444.889,1479.655 2458.184,1477.097 2468.797 C 1473.952 2481.843,1473.116 2493.460,1474.515 2504.657 C 1476.458 2520.208,1476.263 2520.953,1471.327 2516.860 C 1457.291 2505.218,1453.896 2473.072,1464.172 2449.099 C 1467.566 2441.180,1471.819 2432.923,1473.622 2430.750 C 1479.083 2424.170,1483.552 2428.391,1482.624 2439.252 M1739.106 2465.071 C 1748.457 2489.428,1746.107 2487.647,1793.816 2506.541 C 1825.250 2518.990,1830.853 2518.396,1832.440 2502.447 C 1832.957 2497.251,1834.610 2493.000,1836.113 2493.000 C 1844.720 2493.000,1852.485 2531.874,1844.824 2536.609 C 1843.077 2537.689,1836.664 2535.162,1830.574 2530.993 C 1816.169 2521.135,1785.308 2513.550,1720.500 2503.939 L 1696.500 2500.379 1696.919 2478.520 C 1697.150 2466.498,1697.969 2456.031,1698.740 2455.260 C 1702.781 2451.219,1709.795 2458.906,1711.551 2469.300 C 1713.648 2481.713,1723.776 2490.000,1736.851 2490.000 C 1745.238 2490.000,1744.782 2487.690,1731.000 2460.358 C 1724.400 2447.269,1719.009 2434.071,1719.020 2431.030 C 1719.051 2422.252,1729.400 2439.791,1739.106 2465.071 M1558.891 2484.750 C 1557.896 2488.463,1557.063 2492.678,1557.041 2494.117 C 1557.018 2495.557,1554.975 2495.054,1552.500 2493.000 C 1545.652 2487.317,1546.801 2478.000,1554.350 2478.000 C 1559.471 2478.000,1560.350 2479.306,1558.891 2484.750 M1738.500 2527.388 C 1785.736 2534.343,1806.558 2538.422,1814.100 2542.197 C 1822.827 2546.565,1742.605 2545.372,1719.000 2540.781 C 1694.134 2535.946,1692.000 2535.038,1692.000 2529.298 C 1692.000 2522.352,1694.963 2519.631,1700.783 2521.232 C 1703.377 2521.945,1720.350 2524.716,1738.500 2527.388 M1904.753 2529.153 C 1937.126 2539.781,1959.261 2553.232,1981.019 2575.500 C 2025.159 2620.674,2039.746 2664.111,2025.750 2708.698 C 2021.400 2722.554,2016.641 2729.148,1998.000 2747.146 C 1973.449 2770.849,1966.255 2775.114,1921.500 2792.492 C 1850.929 2819.895,1829.090 2822.994,1707.000 2822.929 C 1596.656 2822.870,1546.046 2818.997,1477.500 2805.368 C 1390.127 2787.995,1341.067 2766.510,1305.588 2730.083 C 1280.031 2703.842,1269.281 2684.426,1267.043 2660.465 C 1265.521 2644.159,1266.326 2639.296,1272.751 2625.977 C 1283.851 2602.968,1309.633 2574.924,1321.783 2572.645 C 1327.221 2571.625,1343.557 2566.805,1358.085 2561.934 C 1405.741 2545.956,1443.438 2537.342,1456.497 2539.447 C 1463.099 2540.511,1476.224 2541.633,1485.665 2541.941 C 1498.619 2542.363,1504.382 2544.051,1509.152 2548.820 L 1515.473 2555.139 1491.986 2561.286 C 1415.567 2581.287,1367.481 2595.276,1352.839 2601.765 C 1305.692 2622.660,1289.752 2661.654,1314.935 2694.491 C 1325.376 2708.105,1363.715 2733.638,1387.500 2742.819 C 1457.941 2770.008,1513.942 2777.130,1677.000 2779.635 C 1846.200 2782.234,1881.732 2778.034,1934.104 2749.245 C 1960.918 2734.506,1963.138 2732.406,1975.748 2709.857 C 1984.423 2694.345,1986.808 2686.432,1988.147 2668.725 C 1989.594 2649.599,1988.853 2644.737,1982.346 2630.649 C 1978.243 2621.767,1970.974 2610.641,1966.193 2605.925 C 1951.780 2591.707,1914.173 2569.147,1885.153 2557.310 L 1857.806 2546.155 1862.653 2534.608 C 1866.783 2524.769,1868.869 2523.057,1876.755 2523.031 C 1881.845 2523.014,1894.444 2525.769,1904.753 2529.153 M1838.188 2545.813 C 1837.191 2546.809,1834.603 2546.916,1832.438 2546.049 C 1830.044 2545.092,1830.755 2544.381,1834.250 2544.237 C 1837.413 2544.107,1839.184 2544.816,1838.188 2545.813 M1862.497 2573.874 C 1910.906 2589.686,1931.427 2600.497,1948.135 2618.991 C 1962.215 2634.576,1965.000 2642.056,1965.000 2664.292 C 1965.000 2687.588,1960.107 2698.476,1942.106 2715.238 C 1921.979 2733.979,1916.023 2737.485,1889.865 2745.989 C 1870.869 2752.165,1858.486 2753.702,1812.841 2755.548 C 1782.928 2756.758,1741.779 2756.786,1721.401 2755.611 L 1684.349 2753.474 1685.201 2692.987 C 1685.670 2659.719,1686.857 2617.196,1687.839 2598.491 L 1689.624 2564.482 1767.559 2566.401 C 1831.586 2567.977,1848.528 2569.311,1862.497 2573.874 M1554.146 2660.737 C 1553.929 2709.268,1552.967 2750.245,1552.007 2751.797 C 1550.039 2754.982,1525.004 2752.932,1482.000 2746.064 C 1451.963 2741.267,1412.557 2729.062,1380.000 2714.471 C 1315.830 2685.713,1309.771 2654.912,1362.000 2622.977 C 1375.186 2614.914,1411.954 2602.548,1435.532 2598.246 C 1445.414 2596.443,1474.425 2589.630,1500.000 2583.106 C 1525.575 2576.583,1548.309 2571.527,1550.520 2571.873 C 1553.786 2572.382,1554.467 2589.067,1554.146 2660.737 M3024.000 3048.000 L 3024.000 3072.000 3048.000 3072.000 L 3072.000 3072.000 3072.000 3048.000 L 3072.000 3024.000 3048.000 3024.000 L 3024.000 3024.000 3024.000 3048.000 " stroke="black" fill="none" fill-rule="evenodd"/></g></g>
      <g id="hand">
        <rect id="groupSizer" width="140" height="160" fill="none"/>
        <path d="M55.25,55.9,48.63,82.66s-27.58,40.19-26.86,16C23.31,47.27,55.25,55.9,55.25,55.9Z"
            fill="#f49f58" />
        <path
            d="M77.45,30.06C75.95,29.74,27.15,45,24.08,46.12S13.72,48,11.42,53.79s0,16.5,0,21.1-1.15,33.38-.77,37.6c.24,2.7,3.45,5.37,6.52,5.75s8.06-4.6,9.21-7.67,6.52-40.67,7.29-43.35,13-1.15,15.73-1.15,26.47,23.4,26.47,26.86-14.19,19.57-16.11,19.57-29.63,6.77-31.46,8.06c-3.84,2.69-6.93,9.81-5.75,16.88.77,4.6,6.14,6.14,10.36,5.76,3.62-.33,24.17-1.53,30.69-1.92,4.28-.25,12.66-3.84,15-5.37S97,121.7,98.12,119.78s15.08-12.56,17.26-16.69c3.45-6.52,14.39-48.34,13.24-50.07C123.39,45.17,83.76,31.37,77.45,30.06Z"
            fill="#ffc585" />
        <path
            d="M119.82,46.59c-7.44-4-18-8.3-26.85-11.51h0C81.87,48.19,69.38,60,56.92,71.77h0c7.89,7.16,19,18.8,19,21.15,0,1.58-3,5.82-6.39,9.95h0c1.15,0,8.42,8.43,21.74-4.39C111.74,78.73,119,66.42,120.74,56.26A17,17,0,0,0,119.82,46.59Z"
            fill="#ffc585" opacity="0.4" style="mix-blend-mode: multiply" />
        <path
            d="M14.1,70.29c-2.3,7.29-9.8,45.47-10,49.11-.21,4.32,1.83,7.15,5.75,6.91,3.39-.21,8.58-2.94,10.36-6.14,3.34-6,4.19-5.22,11.13-50.26Z"
            fill="#ffc585" />
        <path
            d="M14.1,70.29c-2.3,7.29-9.8,45.47-10,49.11-.21,4.32,1.83,7.15,5.75,6.91,3.39-.21,8.58-2.94,10.36-6.14,3.34-6,4.19-5.22,11.13-50.26Z"
            fill="#ffc585" opacity="0.4" style="mix-blend-mode: multiply" />
        <g>
            <path
                d="M115.22,36.89s-4.3,37.94-5.1,39.36S83.83,106.38,81.9,107.18,69.43,109.49,71.37,105s7.33-2.93,8.17-3.66S101.42,75.61,102,74.43s.74-30,.74-30Z"
                fill="#363f4f" />
            <path
                d="M113.07,39.08s-3.87,36-4.66,37.41S83.11,106.2,81.18,107s-11.75,2.49-9.81-2,7.33-2.93,8.17-3.66S101.42,75.61,102,74.43s.74-30,.74-30Z"
                fill="#4b5668" />
            <path
                d="M111.25,55.36c1-8.48,1.81-16.28,1.81-16.28l-10.31,5.4s-.08,15.28-.35,24C103.3,67.19,108.68,59.83,111.25,55.36Z"
                fill="#4b5668" opacity="0.4" style="mix-blend-mode: multiply" />
            <path
                d="M71.55,107.11c2.19-3.36,7.43-5.35,7.69-5.61-1.41.38-6.08-.56-7.86,3.53A1.73,1.73,0,0,0,71.55,107.11Z"
                fill="#4b5668" opacity="0.4" style="mix-blend-mode: multiply" />
            <path d="M33.23,86.72c10.08,3.3,24,15.06,29.31,25.8L58,117.38c-10.6-4-25.41-17.87-28-25.83Z"
                fill="#edbd15" />
            <path
                d="M46.16,94c-2.09,3-4.54,5.8-6.79,8.77-.24.32-.47.65-.7,1,5.75,5.83,13.22,11.38,19.3,13.65l4.57-4.85C59.32,106,52.93,99.13,46.16,94Z"
                fill="#edbd15" style="mix-blend-mode: multiply" />
            <path d="M3.79,149.09s-3.57,7.55-2.42,8.58c1.52,1.36,7.71-4.53,7.71-4.53Z" fill="#c6d0d5" />
            <path
                d="M7.95,150.39c-1.11,2.4-3.21,5.47-5.9,6.3a3.13,3.13,0,0,1-.73.13.78.78,0,0,0,.21.51c1.52,1.36,7.71-4.53,7.71-4.53Z"
                fill="#c7d1d6" style="mix-blend-mode: multiply" />
            <path
                d="M1.95,149.82c3.16-8.14,17.61-40.14,31.5-61.3,8.37-12.75,53.86-84,78.16-64.8,21.59,17-31.06,69.86-52.81,90.88C42,130.87,11.55,153.39,9.34,154.72S1.34,151.39,1.95,149.82Z"
                fill="#4b5668" />
            <path
                d="M49,113.63c-6.42,6.38-20.09,20-29.15,28.48C11,150.42,6.2,152.81,4.59,153.36c1.65,1.19,3.64,2,4.75,1.36,2.22-1.33,32.63-23.85,49.45-40.11C78,96.07,121.16,52.8,116.31,31.15c0,2.37-7.76,3.86-12,13.2C95.55,63.76,63.76,99,49,113.63Z"
                fill="#4b5668" opacity="0.4" style="mix-blend-mode: multiply" />
            <path
                d="M92.86,47.91c7.9,6.12,17.67,6.77,19.08,3.07,5.75-11.47,7-21.45-.34-27.26-8-6.33-18.36-2.79-28.91,5.24C80.46,32.85,84.33,41.31,92.86,47.91Z"
                fill="#69778b" />
            <path
                d="M83.79,28.14C94,20.69,103.86,17.61,111.6,23.72c7.17,5.66,6.15,15.26.79,26.34C106.53,58.36,80.56,40.72,83.79,28.14Z"
                fill="#edbd15" />
            <path
                d="M116.31,31.11c-.65,10.45-11.22,20.6-22,15.52,6.91,5.15,15.12,7.66,18.12,3.43C115.86,42.91,117.5,36.37,116.31,31.11Z"
                fill="#edbd15" style="mix-blend-mode: multiply" />
            <path
                d="M10.5,130.62c-4.17,8.76-7.28,15.93-8.55,19.21-.61,1.56,5.17,6.22,7.39,4.9,1-.59,7.45-5.31,15.83-11.79C20.75,141.85,11.74,135.18,10.5,130.62Z"
                fill="#edbd15" />
            <path d="M10.5,130.62c-1.89,4.89,10,12.92,14.67,12.31C20.75,141.85,11.74,135.18,10.5,130.62Z"
                fill="#feee28" />
            <path
                d="M2.51,151.41a8,8,0,0,0,.9,1c2.45-3.69,7.82-11.23,11.22-16a19.94,19.94,0,0,1-3-3.41C8.87,137.68,5,146,2.51,151.41Z"
                fill="#edbd15" style="mix-blend-mode: screen" />
            <path
                d="M20.4,140.73c-4.19,5-9,9.31-13.71,13.83a3.09,3.09,0,0,0,2.64.16c1-.59,7.45-5.31,15.83-11.79A18.38,18.38,0,0,1,20.4,140.73Z"
                fill="#edbd15" style="mix-blend-mode: multiply" />
            <path d="M33.23,86.72c4.3,8.5,19.27,22.52,29.31,25.8L58,117.38c-10.6-4-25.41-17.87-28-25.83Z"
                fill="#feee28" />
            <path d="M33.23,86.72c3.3,10,19.4,24.28,29.31,25.8L58,117.38c-10.6-4-25.41-17.87-28-25.83Z"
                fill="#edbd15" />
            <path
                d="M53.09,107.47a38.21,38.21,0,0,0,9.45,5.06L58,117.38a43,43,0,0,1-9.29-5.15C50.14,110.87,51.15,109.6,53.09,107.47Z"
                fill="#edbd15" style="mix-blend-mode: multiply" />
            <path
                d="M39,94.81c-.92-1-1.78-2.09-2.55-3.1-1.26,1.68-2.45,3.41-3.59,5.18.6.86,1.28,1.73,2,2.62A61.6,61.6,0,0,1,39,94.81Z"
                fill="#edbd15" style="mix-blend-mode: screen" />
            <path d="M3.45,153c1,.55-1.26,3.33-1.42,2.73S2.63,152.54,3.45,153Z" fill="#c7d1d6" opacity="0.7"
                style="mix-blend-mode: screen" />
            <path d="M107.61,75.33c.49-1.63-25.92,28.23-25.4,28.92S106.8,78,107.61,75.33Z" fill="#4b5668"
                opacity="0.7" style="mix-blend-mode: screen" />
            <path
                d="M101.93,22c-3.44-.3-9,3-8.18,4.61,2.2,4.21,12.06,2,12.88,0C107.76,23.75,103.74,22.19,101.93,22Z"
                fill="#edbd15" opacity="0.4" style="mix-blend-mode: screen" />
            <path
                d="M81,41.38c-5.59.22-35.49,37.16-38.3,46.24,3.74-1.84,11.19-13.24,18.86-22.54C70.83,53.89,80.15,44.46,81,41.38Z"
                fill="#4b5668" opacity="0.4" style="mix-blend-mode: screen" />
            <path d="M32.75,100.8c-3.63,2.63-15.13,19.8-17.94,28.88C18.78,125.16,31.85,103.88,32.75,100.8Z"
                fill="#4b5668" opacity="0.4" style="mix-blend-mode: screen" />
        </g>
        <path
            d="M43.35,65.72C43.74,64.29,71.25,36,73.6,31.06c-8.52,2.7-47.07,14.14-49.52,15.06C21,47.27,13.72,48,11.42,53.79s0,16.5,0,21.1-1.15,33.38-.77,37.6c.24,2.7,3.45,5.37,6.52,5.75s8.06-4.6,9.21-7.67,6.52-40.67,7.29-43.35C34.14,65.55,39,65.51,43.35,65.72Z"
            fill="#ffc585" />
        <path
            d="M69.51,111.93a10.24,10.24,0,0,1-4.45-3.18c-2.5,2.3-4.66,3.74-5.3,3.74-1.92,0-29.63,6.77-31.46,8.06-3.84,2.69-6.93,9.81-5.75,16.88.77,4.6,6.14,6.14,10.36,5.76,3.62-.33,24.17-1.53,30.69-1.92,4.28-.25,12.66-3.84,15-5.37S97,121.7,98.12,119.78C98.3,119.48,73.84,113.57,69.51,111.93Z"
            fill="#ffc585" />
        <path
            d="M27.53,124.77c2.69-2.69,15-2.3,15.35-.38s.38,10-.38,12.28-14.19,5-15.73,2.69C23.39,134.28,25.1,127.19,27.53,124.77Z"
            fill="#ffd5b8" />
        <path
            d="M19,116a81.46,81.46,0,0,0-.29-14.29c-.34-1.68-6.65-1.76-8-2.1-.15,6-.23,11.23-.08,12.84C10.89,115.19,17.27,117.77,19,116Z"
            fill="#ffd5b8" />
        <path
            d="M117,91.87c-8.53,11-35.2,38.27-45.36,42.58-9.4,4-40.57,9.5-49.11,3,.77,4.6,6.14,6.14,10.36,5.76,3.62-.33,24.17-1.53,30.69-1.92,4.28-.25,12.66-3.84,15-5.37S97,121.7,98.12,119.78s15.08-12.56,17.26-16.69c1.12-2.12,3-7.94,5.05-14.91C119.34,89.44,118,90.54,117,91.87Z"
            fill="#ffc585" opacity="0.4" style="mix-blend-mode: multiply" />
        <path
            d="M26.38,110.57c1.15-3.07,6.52-40.67,7.29-43.35.54-1.89,6.78-1.69,11.37-1.41.76,0-11.61-4.73-14-1.47-3.27,4.54-3.16,35.87-12,50.07a5.88,5.88,0,0,1-5.31,2.53,8.13,8.13,0,0,0,3.39,1.31C20.24,118.63,25.23,113.64,26.38,110.57Z"
            fill="#ffc585" opacity="0.4" style="mix-blend-mode: multiply" />
      </g>
    </svg>