<canvas id="myCanvas" width="768" height="614.4" style="position:absolute;z-index: 10;"></canvas><svg id="demo" version="1.1" width="768" height="614.4" xmlns="http://www.w3.org/2000/svg" style="position:relative;"><g class="theWords" stroke-linejoin="round"><g id="handwriting" transform="translate(153.6, 102.4 ) scale(0.1500000, 0.1500000)"><path d="M1877.986 497.555 C 1860.181 501.384,1831.961 513.783,1822.500 521.933 C 1799.331 541.891,1803.674 540.760,1775.706 534.122 C 1744.120 526.626,1718.934 523.180,1654.500 517.539 C 1590.140 511.904,1563.673 511.898,1507.500 517.505 C 1419.331 526.307,1382.903 533.982,1320.881 556.827 C 1305.691 562.422,1292.144 567.000,1290.778 567.000 C 1289.412 567.000,1285.853 562.868,1282.870 557.818 C 1275.521 545.377,1256.200 531.886,1237.987 526.477 C 1210.737 518.385,1157.085 514.819,1123.613 518.876 C 1080.470 524.104,1062.974 532.158,1033.703 560.262 C 1020.391 573.043,1007.667 586.875,1005.428 591.000 C 1003.188 595.125,995.989 606.865,989.431 617.088 C 966.483 652.860,933.028 743.606,920.993 802.729 C 917.324 820.753,910.485 854.400,905.796 877.500 C 894.934 931.005,890.994 967.979,891.023 1016.132 C 891.052 1066.468,894.837 1088.130,908.068 1113.698 C 922.221 1141.047,930.699 1150.733,948.282 1159.643 C 1000.144 1185.923,1078.250 1167.087,1112.231 1120.103 C 1132.612 1091.923,1149.003 1063.025,1156.075 1042.802 C 1159.688 1032.470,1164.913 1020.553,1167.686 1016.321 C 1170.460 1012.088,1173.611 1005.109,1174.690 1000.812 C 1178.279 986.510,1181.082 992.727,1183.001 1019.250 C 1185.471 1053.391,1197.663 1121.927,1207.684 1158.000 C 1220.270 1203.308,1233.709 1246.218,1236.422 1249.759 C 1237.796 1251.551,1240.903 1258.639,1243.327 1265.509 L 1247.734 1278.000 1097.117 1277.884 C 955.418 1277.775,895.971 1276.051,792.000 1269.037 C 680.095 1261.487,176.477 1262.677,32.250 1270.832 L 0.000 1272.656 0.000 1284.601 L 0.000 1296.547 51.750 1294.794 C 80.213 1293.830,201.375 1291.483,321.000 1289.578 C 539.594 1286.097,782.245 1289.083,831.000 1295.855 C 862.694 1300.257,982.775 1303.228,1115.250 1302.887 C 1183.313 1302.712,1239.000 1303.145,1239.000 1303.850 C 1239.000 1304.555,1235.060 1313.820,1230.246 1324.439 C 1225.431 1335.058,1218.676 1354.878,1215.236 1368.483 C 1211.795 1382.088,1207.813 1394.387,1206.386 1395.814 C 1204.926 1397.274,1184.273 1397.039,1159.173 1395.278 C 1134.633 1393.556,1050.417 1390.732,972.027 1389.003 C 893.637 1387.274,769.384 1383.754,695.909 1381.182 C 622.434 1378.609,511.059 1376.866,448.409 1377.309 C 340.598 1378.070,219.569 1374.799,96.573 1367.798 C 66.363 1366.078,32.276 1365.595,20.823 1366.723 L 0.000 1368.775 0.000 1384.888 L 0.000 1401.000 57.103 1401.000 L 114.207 1401.000 112.414 1416.750 C 111.428 1425.413,109.414 1438.575,107.939 1446.000 C 106.463 1453.425,103.887 1471.650,102.214 1486.500 C 97.927 1524.552,96.545 1535.924,91.475 1574.886 C 88.755 1595.789,87.000 1633.724,87.000 1671.636 L 87.000 1734.000 43.500 1734.000 L 0.000 1734.000 0.000 1752.449 L 0.000 1770.898 93.750 1768.925 C 145.313 1767.840,252.300 1765.488,331.500 1763.698 C 489.053 1760.138,594.526 1761.067,691.500 1766.867 C 763.384 1771.166,1058.378 1769.402,1219.500 1763.708 C 1293.553 1761.092,1341.562 1761.178,1429.500 1764.087 C 1519.108 1767.052,1555.375 1767.088,1599.000 1764.256 C 1638.895 1761.666,1665.465 1761.508,1693.500 1763.696 C 1765.876 1769.343,1979.616 1772.803,2362.396 1774.524 C 2655.646 1775.843,2743.824 1777.073,2745.600 1779.869 C 2746.870 1781.866,2747.929 1787.686,2747.954 1792.802 C 2747.979 1797.919,2749.467 1806.314,2751.261 1811.458 C 2756.815 1827.391,2795.481 1842.094,2868.028 1855.860 C 2896.507 1861.263,3019.843 1865.108,3052.506 1861.610 L 3072.000 1859.522 3072.000 1837.023 L 3072.000 1814.523 3062.603 1816.587 C 3043.928 1820.689,2912.838 1818.736,2880.995 1813.882 C 2850.871 1809.289,2802.000 1795.191,2802.000 1791.093 C 2802.000 1788.565,2886.135 1771.980,2932.409 1765.386 C 2971.279 1759.846,2979.363 1756.528,2983.310 1744.493 C 2984.932 1739.547,2986.536 1735.052,2986.874 1734.505 C 2987.212 1733.958,2992.883 1738.746,2999.476 1745.144 C 3011.388 1756.704,3016.497 1758.534,3065.250 1768.706 C 3071.804 1770.073,3072.000 1769.418,3072.000 1746.173 L 3072.000 1722.231 3059.250 1719.149 C 3052.238 1717.454,3041.100 1714.364,3034.500 1712.283 L 3022.500 1708.500 3022.500 1573.500 L 3022.500 1438.500 3036.000 1438.530 C 3043.425 1438.546,3054.563 1439.474,3060.750 1440.591 L 3072.000 1442.623 3072.000 1426.452 C 3072.000 1410.322,3071.972 1410.274,3060.750 1407.158 C 3054.563 1405.439,3046.800 1403.977,3043.500 1403.909 C 3021.697 1403.456,3010.519 1368.967,3019.744 1330.616 C 3027.471 1298.492,3026.967 1299.000,3051.106 1299.000 L 3072.000 1299.000 3072.000 1287.000 C 3072.000 1277.000,3071.000 1275.000,3066.000 1275.000 C 3058.612 1275.000,3058.612 1274.842,3066.041 1257.556 C 3071.798 1244.161,3072.045 1238.071,3071.291 1128.000 L 3070.500 1012.500 3045.000 1006.682 C 3023.883 1001.864,3007.977 1000.859,2952.459 1000.840 L 2885.418 1000.817 2879.776 1008.158 L 2874.133 1015.500 2874.067 1001.949 C 2873.850 957.869,2884.230 844.533,2888.980 839.114 C 2890.130 837.802,2909.843 839.431,2932.786 842.735 C 2982.081 849.833,3052.087 857.991,3063.750 857.996 C 3071.750 858.000,3072.000 857.501,3072.000 841.500 C 3072.000 830.334,3070.788 824.979,3068.250 824.935 C 3064.634 824.873,2971.608 816.585,2965.500 815.781 C 2953.938 814.259,2991.102 809.629,3027.750 808.025 L 3072.000 806.089 3072.000 782.545 L 3072.000 759.000 3039.750 759.098 C 3022.013 759.152,2998.725 760.376,2988.000 761.817 C 2921.109 770.807,2880.717 777.939,2866.451 783.276 C 2851.926 788.710,2849.822 790.601,2847.351 800.442 C 2841.299 824.542,2837.160 855.257,2828.881 937.500 C 2827.386 952.350,2826.126 991.577,2826.081 1024.671 C 2826.017 1072.296,2827.256 1091.688,2832.025 1117.671 C 2838.578 1153.372,2851.078 1194.104,2859.134 1206.000 C 2861.927 1210.125,2865.205 1216.875,2866.418 1221.000 C 2869.665 1232.042,2882.658 1254.251,2891.648 1264.123 L 2899.500 1272.746 2700.000 1271.957 C 2351.831 1270.580,1939.995 1275.963,1876.030 1282.726 C 1857.384 1284.698,1856.494 1286.781,1857.025 1327.188 C 1857.482 1361.940,1857.614 1360.814,1853.540 1356.740 C 1851.368 1354.568,1848.253 1354.259,1845.168 1355.910 C 1837.486 1360.022,1785.740 1372.893,1762.500 1376.473 C 1719.469 1383.103,1692.441 1385.942,1653.826 1387.889 C 1610.627 1390.067,1612.077 1390.580,1610.356 1372.500 L 1609.500 1363.500 1666.227 1361.495 C 1699.044 1360.335,1731.288 1357.559,1742.727 1354.910 C 1753.602 1352.391,1771.950 1348.721,1783.500 1346.754 C 1810.291 1342.191,1828.704 1333.620,1835.146 1322.714 C 1841.169 1312.518,1844.479 1316.029,1843.266 1331.324 C 1842.670 1338.836,1843.254 1340.856,1845.155 1337.851 C 1846.669 1335.458,1847.929 1326.971,1847.954 1318.992 C 1847.979 1311.012,1852.561 1286.037,1858.135 1263.492 C 1893.847 1119.061,1900.635 1084.649,1904.983 1026.000 C 1906.634 1003.725,1907.989 982.844,1907.993 979.597 C 1907.998 975.366,1916.707 982.523,1938.736 1004.863 C 1966.477 1032.994,1972.251 1037.323,1997.986 1049.287 C 2072.095 1083.737,2124.787 1081.960,2163.437 1043.705 C 2180.941 1026.381,2185.943 1016.711,2189.847 992.650 C 2202.613 913.976,2177.803 795.828,2124.089 679.500 C 2097.162 621.186,2094.518 616.653,2061.735 572.617 C 2039.329 542.520,2021.997 529.586,1979.148 510.987 C 1952.333 499.347,1946.788 498.032,1919.054 496.729 C 1902.249 495.940,1883.769 496.311,1877.986 497.555 M1962.000 550.037 C 1972.725 554.473,1982.850 559.768,1984.500 561.804 C 1986.150 563.840,1993.035 569.102,1999.800 573.498 C 2017.668 585.108,2061.000 639.084,2061.000 649.732 C 2061.000 651.554,2069.655 669.797,2080.234 690.272 C 2123.125 773.289,2159.654 928.445,2148.043 978.291 C 2142.448 1002.313,2134.976 1012.592,2116.565 1021.600 C 2086.575 1036.272,2050.725 1029.979,2003.349 1001.724 C 1947.700 968.534,1912.739 914.530,1902.007 845.180 C 1900.278 834.004,1894.103 811.729,1888.286 795.680 C 1882.468 779.631,1871.809 745.575,1864.597 720.000 C 1843.065 643.637,1839.576 632.017,1834.680 620.346 C 1825.514 598.500,1829.250 585.016,1851.375 560.095 C 1865.712 543.946,1879.554 539.714,1914.000 540.949 C 1936.501 541.756,1946.604 543.669,1962.000 550.037 M1632.000 562.256 C 1647.675 562.996,1664.550 564.214,1669.500 564.963 C 1680.746 566.665,1730.097 575.116,1751.750 579.049 C 1760.688 580.672,1771.826 582.000,1776.500 582.000 C 1783.762 582.000,1785.006 583.201,1785.043 590.250 C 1785.084 598.076,1791.572 624.776,1805.636 675.000 C 1809.101 687.375,1815.348 711.675,1819.519 729.000 C 1823.689 746.325,1833.684 781.425,1841.731 807.000 C 1849.778 832.575,1858.741 861.600,1861.649 871.500 C 1870.896 902.982,1870.833 933.722,1861.378 1002.000 C 1860.579 1007.775,1857.346 1032.075,1854.194 1056.000 C 1851.042 1079.925,1847.605 1103.550,1846.557 1108.500 C 1844.702 1117.255,1839.942 1138.372,1837.091 1150.500 C 1836.315 1153.800,1833.172 1170.000,1830.106 1186.500 C 1823.305 1223.101,1810.531 1277.456,1804.196 1296.750 C 1800.829 1307.005,1797.944 1311.000,1793.905 1311.000 C 1790.818 1311.000,1780.464 1313.044,1770.896 1315.543 C 1703.760 1333.077,1503.837 1339.388,1389.000 1327.599 C 1361.775 1324.804,1331.420 1322.288,1321.545 1322.009 L 1303.589 1321.500 1297.067 1293.000 C 1290.307 1263.463,1275.160 1214.543,1269.616 1204.343 C 1263.176 1192.495,1248.227 1140.426,1240.806 1104.000 C 1232.635 1063.887,1215.000 929.733,1215.000 907.686 C 1215.000 900.374,1217.166 884.516,1219.812 872.446 C 1222.459 860.376,1226.402 842.400,1228.575 832.500 C 1238.020 789.469,1250.346 746.931,1273.344 678.000 C 1280.776 655.725,1288.310 631.693,1290.086 624.596 C 1291.861 617.498,1294.931 611.209,1296.907 610.619 C 1298.883 610.029,1318.725 603.891,1341.000 596.978 C 1390.525 581.608,1404.924 578.215,1449.000 571.527 C 1467.975 568.647,1486.875 565.649,1491.000 564.864 C 1503.205 562.540,1566.039 559.443,1585.500 560.205 C 1595.400 560.593,1616.325 561.516,1632.000 562.256 M1218.106 569.588 C 1249.347 579.641,1249.996 580.482,1245.726 605.386 C 1243.745 616.934,1235.276 647.784,1226.905 673.941 C 1218.534 700.099,1209.248 730.275,1206.269 741.000 C 1198.283 769.757,1176.118 852.694,1168.587 882.000 C 1164.984 896.025,1160.644 910.200,1158.944 913.500 C 1157.245 916.800,1153.403 928.950,1150.407 940.500 C 1147.412 952.050,1137.670 977.025,1128.759 996.000 C 1119.848 1014.975,1110.499 1036.472,1107.982 1043.772 C 1105.466 1051.072,1101.052 1060.522,1098.173 1064.772 C 1095.294 1069.022,1089.155 1078.258,1084.530 1085.295 C 1075.175 1099.530,1046.477 1120.196,1029.527 1124.904 C 1004.252 1131.924,977.118 1127.090,960.206 1112.555 C 947.897 1101.977,941.980 1089.566,935.869 1061.513 C 931.567 1041.768,933.479 966.925,939.075 936.000 C 952.272 863.071,971.160 777.803,978.616 757.500 C 983.463 744.300,992.569 718.650,998.853 700.500 C 1011.061 665.234,1028.473 634.426,1053.933 603.040 C 1067.325 586.531,1072.888 582.246,1090.610 574.787 C 1119.516 562.622,1127.762 561.251,1165.500 562.333 C 1188.667 562.997,1204.342 565.159,1218.106 569.588 M1745.801 761.676 C 1719.056 770.396,1694.032 798.125,1686.017 827.924 C 1676.549 863.121,1699.039 914.489,1731.000 930.667 C 1766.453 948.612,1809.595 927.619,1831.010 882.000 C 1838.545 865.949,1840.146 858.786,1840.061 841.500 C 1839.995 827.925,1838.188 817.087,1834.953 810.847 C 1832.199 805.539,1828.933 796.315,1827.694 790.350 C 1825.626 780.400,1823.710 778.763,1804.470 770.505 C 1782.400 761.033,1758.710 757.468,1745.801 761.676 M1320.361 771.065 C 1301.881 774.940,1294.306 780.777,1280.958 801.430 C 1265.392 825.512,1263.187 840.931,1271.579 866.988 C 1281.104 896.564,1294.267 910.390,1320.478 918.351 C 1345.833 926.052,1361.595 924.688,1385.254 912.744 C 1406.426 902.056,1419.142 888.824,1425.456 870.910 C 1431.192 854.636,1432.447 829.197,1428.081 817.713 C 1424.376 807.968,1399.071 782.259,1387.082 776.059 C 1375.758 770.204,1337.964 767.375,1320.361 771.065 M1788.838 806.137 C 1811.774 827.686,1811.560 857.710,1788.290 882.948 C 1772.997 899.534,1753.880 904.584,1740.873 895.474 C 1737.319 892.985,1731.580 883.379,1728.118 874.127 C 1722.795 859.898,1722.270 854.893,1724.718 841.654 C 1732.356 800.334,1764.003 782.805,1788.838 806.137 M1369.852 809.741 C 1393.059 820.280,1400.356 840.635,1387.964 860.265 C 1378.814 874.760,1368.201 883.478,1354.004 888.164 C 1344.481 891.307,1341.683 890.809,1326.944 883.352 C 1307.416 873.472,1303.253 867.698,1300.493 846.667 C 1298.646 832.603,1299.259 829.727,1305.979 820.917 C 1318.589 804.383,1347.078 799.399,1369.852 809.741 M3028.500 1043.833 C 3067.546 1051.529,3069.000 1052.218,3069.000 1063.042 C 3069.000 1068.438,3067.124 1075.419,3064.831 1078.555 C 3060.917 1083.907,3055.716 1084.264,2980.081 1084.378 C 2890.230 1084.514,2877.910 1083.699,2875.517 1077.463 C 2874.605 1075.086,2874.228 1072.953,2874.679 1072.723 C 2875.131 1072.494,2880.225 1070.057,2886.000 1067.308 L 2896.500 1062.311 2887.114 1063.958 C 2876.024 1065.903,2874.219 1063.753,2876.173 1050.919 C 2877.321 1043.380,2879.323 1041.064,2885.566 1040.053 C 2901.436 1037.482,3010.976 1040.380,3028.500 1043.833 M1507.056 1050.075 C 1488.376 1052.730,1463.752 1061.447,1459.123 1067.043 C 1453.179 1074.230,1451.537 1094.408,1456.172 1103.311 C 1462.970 1116.368,1494.319 1140.184,1514.887 1147.916 C 1554.353 1162.753,1592.888 1152.230,1625.547 1117.699 C 1638.869 1103.612,1641.000 1099.699,1641.000 1089.321 C 1641.000 1074.991,1635.935 1062.635,1629.295 1060.765 C 1595.672 1051.299,1535.484 1046.035,1507.056 1050.075 M2959.500 1129.019 C 2989.200 1129.082,3025.313 1127.810,3039.750 1126.193 C 3071.056 1122.687,3070.181 1120.875,3057.010 1161.993 C 3047.862 1190.552,3031.862 1224.010,3019.324 1240.802 C 3011.230 1251.642,2982.031 1261.540,2967.934 1258.222 C 2946.869 1253.264,2930.664 1241.042,2915.780 1218.886 C 2895.789 1189.128,2880.080 1150.327,2880.023 1130.569 C 2880.000 1122.745,2880.172 1122.680,2892.750 1125.771 C 2899.763 1127.495,2929.800 1128.956,2959.500 1129.019 M2936.642 1305.473 C 2942.768 1309.298,2952.738 1338.586,2950.182 1345.247 C 2949.368 1347.368,2947.079 1359.768,2945.095 1372.802 L 2941.489 1396.500 2923.494 1398.541 C 2875.643 1403.969,2744.071 1407.018,2685.000 1404.069 C 2602.705 1399.960,2166.443 1394.351,2022.033 1395.545 L 1906.566 1396.500 1904.638 1387.500 C 1903.577 1382.550,1902.550 1364.759,1902.355 1347.964 C 1901.960 1313.965,1903.916 1309.574,1920.846 1306.460 C 1959.767 1299.300,2925.256 1298.362,2936.642 1305.473 M1326.000 1356.082 C 1348.275 1357.970,1375.455 1360.617,1386.400 1361.963 C 1397.346 1363.310,1433.932 1363.672,1467.704 1362.769 C 1511.276 1361.604,1529.707 1362.099,1531.176 1364.475 C 1534.394 1369.682,1525.020 1385.028,1517.370 1387.078 C 1506.999 1389.856,1466.463 1389.364,1423.186 1385.934 C 1350.938 1380.209,1250.778 1363.691,1250.769 1357.500 C 1250.763 1354.032,1267.020 1350.652,1278.000 1351.838 C 1282.125 1352.284,1303.725 1354.194,1326.000 1356.082 M1302.000 1380.269 C 1306.125 1381.537,1299.375 1381.780,1287.000 1380.807 C 1274.625 1379.834,1261.125 1378.000,1257.000 1376.731 C 1252.875 1375.463,1259.625 1375.220,1272.000 1376.193 C 1284.375 1377.166,1297.875 1379.000,1302.000 1380.269 M1864.048 1394.250 C 1864.847 1397.138,1867.668 1414.350,1870.317 1432.500 C 1872.966 1450.650,1878.527 1487.775,1882.675 1515.000 C 1886.823 1542.225,1892.137 1577.325,1894.483 1593.000 C 1898.348 1618.817,1905.751 1698.622,1906.285 1720.207 L 1906.500 1728.915 1866.000 1728.282 C 1843.725 1727.934,1785.675 1726.524,1737.000 1725.148 C 1688.325 1723.772,1631.625 1723.738,1611.000 1725.073 C 1590.375 1726.408,1491.360 1726.716,1390.967 1725.757 C 1231.855 1724.237,1208.210 1723.431,1206.691 1719.474 C 1202.274 1707.962,1226.228 1507.205,1241.084 1431.238 C 1247.465 1398.609,1251.094 1394.852,1274.054 1397.105 C 1283.649 1398.047,1293.827 1400.012,1296.672 1401.472 C 1299.516 1402.933,1311.666 1405.403,1323.672 1406.963 C 1335.677 1408.522,1359.675 1411.951,1377.000 1414.584 C 1394.325 1417.216,1433.361 1420.299,1463.748 1421.435 L 1518.995 1423.500 1524.265 1438.500 C 1531.737 1459.767,1531.352 1461.505,1517.042 1471.104 C 1497.846 1483.981,1485.070 1501.070,1476.737 1525.017 C 1470.292 1543.540,1469.467 1550.109,1470.751 1572.693 C 1472.659 1606.259,1481.867 1626.337,1503.934 1645.052 C 1525.076 1662.983,1540.560 1670.257,1565.985 1674.202 C 1611.703 1681.295,1658.401 1662.727,1680.367 1628.721 C 1697.613 1602.022,1698.768 1598.739,1700.288 1572.080 C 1702.131 1539.766,1696.506 1518.345,1681.611 1500.943 C 1675.775 1494.125,1671.000 1487.142,1671.000 1485.426 C 1671.000 1480.031,1652.228 1467.949,1633.231 1461.117 L 1614.961 1454.547 1618.449 1439.023 L 1621.937 1423.500 1654.719 1421.465 C 1706.622 1418.244,1769.519 1410.361,1794.000 1404.010 C 1856.826 1387.712,1862.038 1386.985,1864.048 1394.250 M1577.987 1404.750 C 1579.757 1411.763,1582.509 1420.601,1584.102 1424.391 C 1585.696 1428.181,1587.000 1433.946,1587.000 1437.202 C 1587.000 1443.067,1586.888 1443.065,1575.062 1437.032 C 1568.496 1433.682,1561.071 1426.971,1558.562 1422.120 C 1552.256 1409.925,1552.602 1395.805,1559.250 1394.068 C 1572.462 1390.615,1574.748 1391.918,1577.987 1404.750 M255.000 1405.528 C 280.575 1406.412,314.462 1407.940,330.304 1408.923 L 359.108 1410.710 354.965 1429.105 C 347.373 1462.817,342.244 1495.176,339.210 1528.500 C 337.557 1546.650,334.911 1575.000,333.330 1591.500 C 331.749 1608.000,328.898 1643.100,326.994 1669.500 C 325.091 1695.900,322.937 1720.538,322.209 1724.250 L 320.886 1731.000 239.193 1731.018 C 194.262 1731.028,146.363 1731.903,132.750 1732.963 L 108.000 1734.889 108.000 1694.647 C 108.000 1657.055,115.895 1552.052,123.086 1494.000 C 127.247 1460.413,134.963 1409.542,136.663 1404.487 C 137.733 1401.308,145.332 1400.832,173.257 1402.197 C 192.641 1403.145,229.425 1404.643,255.000 1405.528 M571.837 1414.297 C 573.451 1418.503,572.105 1434.293,562.356 1525.500 C 559.711 1550.250,556.636 1605.600,555.523 1648.500 L 553.500 1726.500 453.750 1727.290 L 354.000 1728.081 354.190 1715.290 C 354.431 1699.059,358.574 1648.353,362.834 1609.500 C 364.643 1593.000,367.394 1561.275,368.946 1539.000 C 372.476 1488.335,377.041 1446.190,381.212 1425.750 L 384.425 1410.000 477.307 1410.000 C 555.152 1410.000,570.455 1410.696,571.837 1414.297 M735.634 1416.085 C 776.408 1417.688,815.033 1419.000,821.468 1419.000 C 831.925 1419.000,833.052 1419.717,832.074 1425.750 C 831.472 1429.463,829.703 1461.525,828.143 1497.000 C 826.540 1533.418,821.320 1592.822,816.152 1633.444 C 811.119 1673.013,807.000 1711.095,807.000 1718.072 L 807.000 1730.757 782.250 1731.629 C 752.930 1732.661,648.219 1729.079,612.000 1725.805 L 586.500 1723.500 586.502 1698.000 C 586.504 1671.167,591.444 1591.707,598.684 1502.069 C 601.058 1472.682,603.000 1440.845,603.000 1431.319 C 603.000 1421.794,603.911 1413.089,605.024 1411.976 C 606.137 1410.863,619.299 1410.677,634.274 1411.562 C 649.248 1412.447,694.860 1414.482,735.634 1416.085 M996.000 1423.270 C 1044.675 1424.292,1098.535 1425.986,1115.690 1427.035 L 1146.879 1428.941 1144.883 1470.752 C 1143.785 1493.748,1140.264 1528.974,1137.058 1549.032 C 1128.817 1600.587,1122.262 1661.603,1121.340 1695.354 L 1120.552 1724.207 1090.526 1726.084 C 1074.012 1727.115,1009.538 1728.857,947.250 1729.955 L 834.000 1731.950 834.171 1718.725 C 834.266 1711.451,836.963 1685.250,840.166 1660.500 C 853.206 1559.736,855.073 1538.029,855.525 1482.000 C 855.784 1449.825,856.318 1422.825,856.712 1422.000 C 857.476 1420.398,860.480 1420.425,996.000 1423.270 M1194.946 1433.250 C 1195.660 1434.488,1193.163 1459.800,1189.396 1489.500 C 1185.629 1519.200,1179.545 1567.125,1175.877 1596.000 C 1172.208 1624.875,1168.373 1665.375,1167.353 1686.000 L 1165.500 1723.500 1154.289 1724.429 C 1143.523 1725.321,1143.131 1725.023,1144.396 1716.929 C 1145.121 1712.293,1146.501 1699.050,1147.465 1687.500 C 1148.428 1675.950,1150.418 1657.050,1151.887 1645.500 C 1162.053 1565.588,1164.722 1546.871,1168.952 1525.838 C 1172.301 1509.182,1173.335 1491.642,1172.441 1466.588 L 1171.172 1431.000 1182.409 1431.000 C 1188.589 1431.000,1194.231 1432.013,1194.946 1433.250 M2050.188 1439.250 C 2051.103 1443.788,2053.294 1469.775,2055.056 1497.000 C 2056.818 1524.225,2059.481 1554.600,2060.974 1564.500 C 2062.467 1574.400,2065.297 1598.025,2067.263 1617.000 C 2069.230 1635.975,2073.817 1669.388,2077.458 1691.250 L 2084.078 1731.000 2018.723 1731.000 L 1953.368 1731.000 1951.692 1718.250 C 1950.771 1711.238,1948.698 1690.650,1947.085 1672.500 C 1942.401 1619.774,1935.352 1562.817,1925.844 1500.888 C 1920.980 1469.202,1917.000 1440.514,1917.000 1437.138 C 1917.000 1431.141,1918.506 1431.000,1982.762 1431.000 L 2048.523 1431.000 2050.188 1439.250 M2310.018 1452.750 C 2310.037 1475.458,2297.855 1589.881,2290.455 1636.500 C 2288.098 1651.350,2284.606 1675.650,2282.695 1690.500 C 2280.784 1705.350,2278.080 1720.538,2276.685 1724.250 L 2274.149 1731.000 2191.899 1731.000 L 2109.650 1731.000 2108.022 1724.250 C 2104.075 1707.891,2089.416 1591.617,2081.831 1516.500 C 2078.666 1485.150,2075.208 1453.088,2074.148 1445.250 L 2072.220 1431.000 2191.110 1431.000 L 2310.000 1431.000 2310.018 1452.750 M2553.000 1435.611 C 2658.155 1437.517,2667.887 1438.373,2665.725 1445.533 C 2664.901 1448.265,2660.155 1483.575,2655.178 1524.000 C 2645.794 1600.240,2642.548 1674.374,2647.084 1708.862 C 2649.471 1727.007,2649.406 1727.248,2641.614 1729.203 C 2637.278 1730.292,2560.890 1731.041,2471.865 1730.869 L 2310.000 1730.556 2310.055 1710.528 C 2310.086 1699.513,2312.756 1668.225,2315.990 1641.000 C 2319.223 1613.775,2323.957 1569.225,2326.508 1542.000 C 2335.013 1451.258,2336.612 1437.055,2338.708 1433.664 C 2340.197 1431.254,2357.965 1430.816,2401.145 1432.125 C 2434.340 1433.131,2502.675 1434.700,2553.000 1435.611 M2938.429 1490.250 C 2936.553 1541.318,2940.899 1689.712,2944.654 1702.794 C 2946.316 1708.580,2944.449 1709.482,2921.481 1713.985 C 2885.607 1721.019,2809.918 1727.689,2740.247 1729.958 C 2687.420 1731.678,2679.775 1731.347,2678.211 1727.272 C 2673.982 1716.251,2672.624 1641.055,2675.705 1588.500 C 2679.946 1516.158,2684.812 1458.612,2687.494 1449.090 L 2689.581 1441.680 2739.041 1442.257 C 2766.243 1442.574,2807.400 1441.734,2830.500 1440.390 C 2853.600 1439.046,2887.774 1437.734,2906.443 1437.473 L 2940.385 1437.000 2938.429 1490.250 M1602.122 1491.387 C 1620.771 1494.940,1641.712 1508.467,1654.483 1525.211 C 1664.474 1538.310,1667.543 1563.895,1661.929 1587.296 C 1656.810 1608.634,1635.085 1630.823,1609.983 1640.351 C 1589.213 1648.235,1581.309 1648.550,1560.366 1642.331 C 1542.025 1636.884,1524.741 1622.411,1513.336 1602.950 C 1506.922 1592.004,1505.352 1585.565,1505.438 1570.557 C 1505.498 1560.255,1506.967 1546.551,1508.703 1540.103 C 1512.338 1526.603,1530.776 1494.787,1538.045 1489.472 C 1543.629 1485.389,1575.669 1486.347,1602.122 1491.387 M1135.813 1724.188 C 1132.763 1727.237,1130.247 1722.646,1132.749 1718.597 C 1134.639 1715.539,1135.346 1715.537,1136.362 1718.585 C 1137.057 1720.670,1136.809 1723.191,1135.813 1724.188 M2481.000 2133.213 C 2193.734 2135.429,2187.688 2135.745,2043.000 2156.096 C 2016.095 2159.880,1986.706 2160.836,1909.500 2160.436 C 1855.050 2160.154,1785.525 2161.408,1755.000 2163.223 C 1724.475 2165.038,1626.600 2166.864,1537.500 2167.281 C 1448.400 2167.699,1357.950 2169.507,1336.500 2171.300 C 1315.050 2173.093,1235.400 2176.006,1159.500 2177.772 C 1083.600 2179.538,997.200 2182.674,967.500 2184.741 C 930.106 2187.344,853.131 2188.204,717.188 2187.536 C 559.240 2186.760,503.251 2187.580,430.688 2191.730 C 336.212 2197.133,338.354 2197.167,133.500 2187.000 C 102.150 2185.444,59.288 2183.541,38.250 2182.770 L 0.000 2181.368 0.000 2197.380 L 0.000 2213.391 20.399 2215.440 C 31.618 2216.566,50.855 2217.280,63.149 2217.026 C 88.434 2216.504,145.047 2219.316,155.250 2221.602 C 161.557 2223.015,162.015 2224.734,162.222 2247.807 C 162.345 2261.388,163.420 2278.575,164.612 2286.000 L 166.779 2299.500 173.378 2289.000 C 178.868 2280.265,179.979 2274.098,179.989 2252.312 L 180.000 2226.125 218.250 2228.312 C 269.568 2231.247,373.094 2231.078,440.250 2227.949 L 495.000 2225.398 494.954 2272.949 C 494.929 2299.102,493.712 2322.389,492.250 2324.698 C 490.245 2327.864,486.015 2328.380,475.046 2326.797 C 422.462 2319.208,353.614 2312.948,290.566 2310.024 C 250.380 2308.160,180.375 2304.686,135.000 2302.305 C 89.625 2299.925,40.688 2297.982,26.250 2297.988 L 0.000 2298.000 0.000 2315.592 L 0.000 2333.184 13.919 2335.092 C 21.574 2336.142,38.112 2337.006,50.669 2337.012 C 63.226 2337.019,95.100 2339.028,121.500 2341.477 C 147.900 2343.925,187.050 2345.951,208.500 2345.978 C 289.542 2346.081,474.452 2360.450,478.474 2366.958 C 483.372 2374.884,422.982 2443.054,402.417 2452.813 C 396.562 2455.591,383.304 2464.518,372.957 2472.650 C 362.609 2480.782,341.196 2494.087,325.372 2502.217 C 309.548 2510.347,292.303 2520.228,287.051 2524.174 C 275.944 2532.519,210.900 2565.000,205.296 2565.000 C 203.207 2565.000,192.498 2569.775,181.498 2575.611 C 170.497 2581.446,149.123 2589.732,133.999 2594.023 C 118.874 2598.313,103.125 2603.471,99.000 2605.484 C 94.875 2607.496,86.818 2610.036,81.096 2611.127 C 75.374 2612.219,62.549 2616.327,52.596 2620.258 C 42.643 2624.188,26.738 2629.102,17.250 2631.179 L 0.000 2634.955 0.000 2654.241 L 0.000 2673.527 12.750 2671.396 C 19.763 2670.223,48.450 2662.164,76.500 2653.486 C 104.550 2644.808,132.010 2636.739,137.522 2635.556 C 143.034 2634.372,157.884 2628.324,170.522 2622.115 C 183.160 2615.907,208.350 2604.553,226.500 2596.884 C 244.650 2589.216,264.225 2580.392,270.000 2577.275 C 275.775 2574.159,296.720 2562.878,316.544 2552.206 C 336.369 2541.535,363.758 2525.197,377.410 2515.902 C 391.062 2506.606,404.009 2499.000,406.182 2499.000 C 408.355 2499.000,418.765 2491.195,429.316 2481.655 C 439.867 2472.115,452.161 2461.993,456.636 2459.161 C 463.887 2454.571,487.023 2428.460,497.361 2413.200 C 500.662 2408.327,501.018 2410.024,499.813 2424.891 C 498.420 2442.086,498.141 2442.536,474.952 2464.828 C 462.053 2477.228,446.775 2490.946,441.000 2495.312 C 435.225 2499.678,423.072 2510.056,413.993 2518.375 C 373.890 2555.119,333.440 2585.443,308.280 2597.622 C 300.639 2601.321,289.238 2608.484,282.944 2613.540 C 276.650 2618.596,256.262 2630.008,237.637 2638.900 C 219.012 2647.792,198.217 2658.575,191.425 2662.863 C 184.633 2667.151,164.096 2676.686,145.788 2684.054 C 127.480 2691.422,107.775 2700.275,102.000 2703.728 C 96.225 2707.181,71.250 2719.017,46.500 2730.031 L 1.500 2750.056 0.468 2778.278 C -0.698 2810.163,5.368 3047.252,7.734 3062.250 C 9.230 3071.733,9.679 3072.000,24.157 3072.000 L 39.042 3072.000 37.520 3051.750 C 35.531 3025.274,30.598 2928.677,28.520 2875.500 C 27.617 2852.400,26.120 2823.766,25.194 2811.869 C 23.540 2790.615,23.643 2790.204,31.132 2788.324 C 35.324 2787.272,40.325 2784.519,42.244 2782.206 C 48.881 2774.209,51.000 2778.081,51.026 2798.250 C 51.040 2809.388,52.277 2833.350,53.776 2851.500 C 55.275 2869.650,58.905 2926.688,61.844 2978.250 L 67.188 3072.000 86.358 3072.000 L 105.527 3072.000 103.905 3060.750 C 103.012 3054.563,101.487 3036.000,100.516 3019.500 C 99.545 3003.000,97.531 2973.975,96.040 2955.000 C 94.550 2936.025,92.543 2904.300,91.581 2884.500 C 90.620 2864.700,88.375 2828.563,86.593 2804.197 C 84.240 2772.011,84.258 2758.804,86.660 2755.910 C 90.404 2751.399,99.525 2747.260,143.377 2730.179 C 170.813 2719.492,188.994 2709.653,216.913 2690.386 C 221.539 2687.193,231.664 2682.692,239.413 2680.384 C 247.161 2678.077,260.925 2671.453,270.000 2665.665 C 279.075 2659.877,292.575 2652.226,300.000 2648.662 C 307.425 2645.098,317.083 2639.666,321.463 2636.591 C 325.843 2633.516,330.779 2631.000,332.431 2631.000 C 334.413 2631.000,334.885 2667.548,333.818 2738.250 C 332.500 2825.519,333.118 2854.163,337.133 2892.000 C 342.166 2939.421,350.998 3048.825,350.999 3063.750 C 351.000 3071.650,351.637 3072.000,366.000 3072.000 C 380.364 3072.000,381.000 3071.650,380.998 3063.750 C 380.993 3043.367,371.602 2897.009,368.874 2874.780 C 367.016 2859.649,366.473 2802.630,367.475 2727.780 L 369.110 2605.500 378.805 2597.142 L 388.500 2588.785 390.531 2602.597 C 391.647 2610.194,395.430 2667.955,398.937 2730.955 C 402.444 2793.955,405.851 2848.662,406.508 2852.527 C 407.166 2856.392,409.135 2875.967,410.885 2896.027 C 412.635 2916.087,416.096 2955.450,418.577 2983.500 C 421.057 3011.550,423.404 3042.600,423.793 3052.500 L 424.500 3070.500 443.250 3071.393 C 459.625 3072.173,462.001 3071.603,462.009 3066.893 C 462.014 3063.927,459.373 3037.200,456.142 3007.500 C 445.653 2911.100,441.093 2861.452,437.959 2809.500 C 436.267 2781.450,433.577 2740.275,431.982 2718.000 C 430.387 2695.725,428.173 2651.411,427.062 2619.525 C 425.083 2562.713,424.917 2561.581,418.771 2563.044 C 412.864 2564.451,412.827 2564.333,418.120 2561.019 C 425.502 2556.397,442.769 2541.490,471.711 2514.750 C 484.659 2502.788,496.741 2493.000,498.558 2493.000 C 500.942 2493.000,501.534 2545.865,500.682 2682.750 C 500.032 2787.113,500.692 2917.388,502.149 2972.250 L 504.799 3072.000 522.866 3072.000 L 540.932 3072.000 538.216 3011.250 C 536.722 2977.838,535.409 2821.575,535.298 2664.000 C 535.142 2442.164,534.224 2373.437,531.231 2359.500 C 529.105 2349.600,526.733 2314.163,525.961 2280.750 L 524.558 2220.000 557.295 2220.000 C 575.301 2220.000,618.637 2220.891,653.597 2221.980 L 717.162 2223.959 715.268 2407.230 C 714.059 2524.304,714.530 2610.546,716.574 2646.000 C 723.675 2769.215,728.972 2852.135,730.468 2863.500 C 731.809 2873.691,747.000 3063.207,747.000 3069.746 C 747.000 3070.986,755.857 3072.000,766.682 3072.000 L 786.363 3072.000 784.639 3051.750 C 783.690 3040.613,780.871 3005.175,778.373 2973.000 C 775.874 2940.825,771.925 2892.900,769.596 2866.500 C 758.220 2737.552,753.040 2624.524,753.019 2504.792 L 753.000 2398.085 765.750 2398.755 C 878.041 2404.659,1024.664 2408.947,1115.250 2408.976 C 1198.266 2409.002,1199.031 2409.194,1181.790 2425.689 C 1167.865 2439.010,1161.776 2450.611,1156.639 2473.606 C 1154.071 2485.098,1150.965 2498.550,1149.735 2503.500 C 1146.137 2517.988,1147.873 2562.074,1152.765 2580.458 C 1162.187 2615.862,1190.248 2635.518,1236.000 2638.764 C 1279.033 2641.817,1315.991 2632.226,1333.417 2613.484 C 1353.976 2591.371,1359.287 2583.760,1366.957 2565.418 C 1374.685 2546.938,1375.267 2542.683,1375.013 2506.500 C 1374.824 2479.406,1372.868 2458.803,1368.607 2439.013 C 1365.234 2423.345,1363.030 2409.970,1363.709 2409.291 C 1365.453 2407.547,1564.410 2409.007,1697.369 2411.739 C 1772.624 2413.286,1810.332 2415.132,1812.578 2417.378 C 1816.778 2421.578,1811.063 2441.773,1794.998 2479.500 C 1783.721 2505.982,1783.500 2507.220,1783.500 2544.000 C 1783.500 2578.289,1784.112 2582.484,1790.647 2592.997 C 1800.899 2609.488,1811.254 2618.585,1829.556 2627.180 C 1843.712 2633.828,1848.506 2634.556,1870.056 2633.334 C 1899.528 2631.662,1913.652 2625.074,1930.198 2605.280 C 1952.630 2578.443,1956.021 2541.024,1941.224 2483.574 C 1936.398 2464.833,1932.010 2444.775,1931.474 2439.000 C 1930.640 2430.013,1931.365 2428.591,1936.500 2429.133 C 1939.800 2429.482,2003.250 2432.518,2077.500 2435.881 C 2175.129 2440.303,2257.671 2441.996,2375.677 2441.998 L 2538.854 2442.000 2536.807 2517.750 C 2535.682 2559.413,2533.469 2622.525,2531.889 2658.000 C 2530.310 2693.475,2527.645 2785.275,2525.967 2862.000 C 2524.289 2938.725,2521.622 3014.325,2520.039 3030.000 C 2515.419 3075.768,2513.959 3072.000,2536.323 3072.000 C 2546.951 3072.000,2556.288 3070.961,2557.073 3069.691 C 2559.223 3066.211,2564.706 2940.247,2568.072 2817.000 C 2571.405 2694.942,2578.354 2518.251,2582.879 2440.500 C 2584.512 2412.450,2586.773 2341.913,2587.904 2283.750 L 2589.961 2178.000 2623.230 2177.878 C 2665.615 2177.722,2709.929 2175.435,2740.421 2171.829 C 2771.182 2168.191,2816.141 2168.183,2818.385 2171.814 C 2824.288 2181.365,2831.664 2310.276,2827.248 2326.718 C 2826.082 2331.061,2821.818 2333.775,2813.107 2335.718 C 2783.143 2342.402,2776.112 2388.745,2795.740 2450.185 C 2811.973 2501.001,2811.910 2500.213,2810.081 2629.314 C 2808.455 2744.095,2804.474 2815.027,2794.664 2904.000 C 2792.208 2926.275,2788.752 2972.050,2786.984 3005.723 C 2785.216 3039.395,2783.067 3068.083,2782.208 3069.473 C 2781.349 3070.863,2789.350 3072.000,2799.989 3072.000 L 2819.332 3072.000 2821.091 3062.250 C 2822.059 3056.888,2824.301 3025.500,2826.073 2992.500 C 2827.845 2959.500,2833.383 2900.775,2838.380 2862.000 C 2847.356 2792.349,2847.453 2790.090,2846.483 2674.361 C 2845.775 2590.015,2846.397 2558.940,2848.704 2563.361 C 2873.568 2611.010,2912.308 2668.347,2937.772 2695.186 C 2951.403 2709.554,2951.972 2710.841,2950.445 2723.865 C 2949.565 2731.364,2946.119 2769.225,2942.787 2808.000 C 2939.454 2846.775,2934.757 2900.775,2932.349 2928.000 C 2929.942 2955.225,2927.103 2987.963,2926.041 3000.750 L 2924.111 3024.000 2940.919 3024.000 C 2961.135 3024.000,2957.856 3037.350,2968.549 2911.500 C 2982.061 2752.479,2982.602 2746.528,2983.657 2745.408 C 2985.212 2743.755,3006.168 2756.958,3017.704 2766.857 C 3023.316 2771.674,3036.816 2779.699,3047.704 2784.691 C 3058.592 2789.683,3068.513 2794.350,3069.750 2795.061 C 3070.988 2795.772,3071.995 2785.812,3071.989 2772.927 L 3071.978 2749.500 3051.739 2739.083 C 3040.608 2733.354,3022.725 2720.484,3012.000 2710.484 C 3001.275 2700.483,2989.774 2690.320,2986.442 2687.900 C 2983.110 2685.480,2975.723 2677.425,2970.028 2670.000 C 2964.332 2662.575,2953.764 2650.425,2946.542 2643.000 C 2939.320 2635.575,2930.684 2624.100,2927.352 2617.500 C 2919.115 2601.187,2895.114 2561.878,2888.885 2554.500 C 2886.099 2551.200,2880.249 2538.991,2875.884 2527.369 C 2871.520 2515.748,2864.923 2502.488,2861.224 2497.904 C 2852.650 2487.276,2825.316 2435.978,2828.273 2436.066 C 2829.498 2436.102,2839.950 2448.461,2851.500 2463.530 C 2897.300 2523.287,2960.159 2585.542,2991.916 2602.597 C 3000.487 2607.200,3012.225 2614.570,3018.000 2618.974 C 3026.755 2625.651,3066.641 2646.000,3070.974 2646.000 C 3071.689 2646.000,3071.875 2636.888,3071.387 2625.750 L 3070.500 2605.500 3048.000 2593.500 C 3035.625 2586.900,3019.578 2577.450,3012.340 2572.500 C 3005.102 2567.550,2993.111 2559.564,2985.693 2554.752 C 2978.276 2549.941,2966.659 2539.816,2959.879 2532.252 C 2953.099 2524.689,2942.733 2513.775,2936.843 2508.000 C 2930.953 2502.225,2919.794 2489.153,2912.047 2478.952 C 2904.299 2468.750,2894.064 2457.275,2889.303 2453.452 C 2884.541 2449.628,2877.114 2439.750,2872.796 2431.500 C 2868.479 2423.250,2858.144 2407.902,2849.830 2397.393 C 2841.516 2386.885,2835.240 2377.760,2835.885 2377.115 C 2838.676 2374.324,2909.325 2360.954,2952.000 2355.141 C 2977.575 2351.657,3008.625 2347.291,3021.000 2345.439 C 3033.375 2343.587,3049.913 2341.475,3057.750 2340.746 L 3072.000 2339.421 3072.000 2317.153 C 3072.000 2295.589,3071.787 2294.936,3065.250 2296.479 C 3052.572 2299.471,3019.532 2304.102,2980.500 2308.358 C 2946.822 2312.030,2884.018 2323.415,2862.750 2329.704 C 2856.131 2331.661,2855.999 2331.212,2855.954 2306.600 C 2855.929 2292.795,2855.051 2256.863,2854.003 2226.750 L 2852.097 2172.000 2914.799 2171.990 C 2949.284 2171.985,2998.763 2171.098,3024.750 2170.020 L 3072.000 2168.061 3072.000 2149.030 L 3072.000 2130.000 2904.750 2130.618 C 2812.763 2130.957,2622.075 2132.125,2481.000 2133.213 M2280.750 2179.926 C 2291.567 2181.714,2292.000 2182.247,2292.000 2193.797 C 2292.000 2229.976,2323.296 2370.174,2335.830 2390.144 C 2344.437 2403.858,2344.449 2403.856,2262.750 2402.148 C 2178.492 2400.386,1930.757 2393.481,1930.080 2392.876 C 1928.569 2391.522,1946.094 2222.341,1948.801 2212.158 C 1950.390 2206.179,1953.095 2205.693,1995.993 2203.678 C 2021.022 2202.503,2052.300 2199.685,2065.500 2197.416 C 2096.766 2192.042,2199.797 2181.225,2230.500 2180.093 C 2243.700 2179.606,2257.875 2178.951,2262.000 2178.637 C 2266.125 2178.323,2274.563 2178.903,2280.750 2179.926 M2548.538 2247.750 C 2547.474 2286.113,2545.357 2333.025,2543.833 2352.000 C 2542.309 2370.975,2541.048 2390.213,2541.031 2394.750 L 2541.000 2403.000 2455.867 2403.000 C 2391.253 2403.000,2370.061 2402.096,2367.938 2399.250 C 2363.347 2393.093,2350.210 2349.864,2341.728 2313.000 C 2337.362 2294.025,2332.592 2273.775,2331.127 2268.000 C 2329.663 2262.225,2326.238 2242.650,2323.516 2224.500 C 2320.795 2206.350,2317.315 2189.156,2315.784 2186.291 C 2314.253 2183.426,2313.000 2180.388,2313.000 2179.541 C 2313.000 2178.693,2366.431 2178.000,2431.736 2178.000 L 2550.473 2178.000 2548.538 2247.750 M1833.755 2207.236 C 1832.116 2215.450,1821.000 2348.210,1821.000 2359.567 L 1821.000 2371.730 1653.750 2370.596 C 1561.763 2369.972,1457.475 2368.570,1422.000 2367.481 L 1357.500 2365.500 1355.578 2341.820 C 1354.521 2328.796,1352.685 2294.221,1351.499 2264.985 L 1349.343 2211.831 1393.922 2207.958 C 1426.784 2205.104,1461.365 2204.730,1525.500 2206.538 C 1573.350 2207.886,1623.300 2209.282,1636.500 2209.640 C 1649.700 2209.997,1686.825 2208.587,1719.000 2206.505 C 1792.315 2201.762,1834.793 2202.032,1833.755 2207.236 M1909.660 2210.522 C 1905.198 2224.651,1892.400 2358.691,1892.285 2392.500 C 1892.170 2426.037,1893.472 2437.099,1901.576 2471.466 C 1912.552 2518.012,1913.869 2552.161,1905.530 2573.923 C 1901.185 2585.262,1898.241 2588.235,1886.573 2593.071 C 1857.996 2604.914,1828.871 2591.229,1821.080 2562.297 C 1816.404 2544.931,1820.634 2519.425,1836.058 2472.000 C 1847.348 2437.285,1848.573 2430.155,1852.559 2376.000 C 1854.926 2343.825,1858.179 2310.075,1859.786 2301.000 C 1861.393 2291.925,1864.898 2266.998,1867.574 2245.606 C 1870.251 2224.215,1872.885 2205.990,1873.428 2205.106 C 1873.970 2204.223,1882.698 2203.960,1892.823 2204.522 C 1908.350 2205.385,1910.985 2206.324,1909.660 2210.522 M1312.483 2213.973 C 1314.601 2217.399,1317.934 2257.765,1324.483 2359.294 C 1327.030 2398.780,1330.626 2440.630,1332.473 2452.294 C 1334.320 2463.957,1335.900 2489.700,1335.984 2509.500 C 1336.114 2540.240,1335.200 2547.484,1329.724 2559.081 C 1317.402 2585.175,1299.890 2595.207,1263.099 2597.246 C 1235.509 2598.776,1204.068 2594.353,1197.772 2588.058 C 1195.627 2585.913,1191.590 2572.318,1188.800 2557.847 C 1184.079 2533.356,1184.067 2529.896,1188.635 2507.805 C 1194.749 2478.237,1202.969 2460.926,1222.730 2436.000 C 1231.233 2425.275,1239.848 2413.316,1241.875 2409.424 C 1247.190 2399.217,1246.288 2329.474,1240.394 2294.910 C 1235.755 2267.709,1230.503 2227.339,1230.162 2216.250 C 1230.015 2211.502,1233.859 2211.000,1270.323 2211.000 C 1293.722 2211.000,1311.417 2212.248,1312.483 2213.973 M1078.394 2217.826 C 1079.025 2219.847,1080.426 2255.110,1081.508 2296.188 L 1083.476 2370.876 983.488 2368.897 C 875.195 2366.754,816.687 2364.833,777.428 2362.132 L 752.356 2360.408 754.526 2295.454 C 755.719 2259.729,757.294 2229.488,758.025 2228.250 C 758.756 2227.013,781.756 2226.000,809.137 2226.000 C 836.517 2226.000,886.725 2223.974,920.710 2221.498 C 954.694 2219.021,996.675 2216.659,1014.000 2216.248 C 1031.325 2215.836,1052.643 2215.197,1061.373 2214.826 C 1071.783 2214.383,1077.641 2215.416,1078.394 2217.826 M1192.252 2244.750 C 1193.412 2261.663,1196.377 2290.350,1198.841 2308.500 C 1201.305 2326.650,1204.134 2348.798,1205.128 2357.717 L 1206.936 2373.935 1155.121 2372.120 C 1126.623 2371.123,1102.922 2369.900,1102.452 2369.403 C 1101.509 2368.405,1095.000 2242.163,1095.000 2224.865 L 1095.000 2214.000 1142.571 2214.000 L 1190.142 2214.000 1192.252 2244.750 M3024.000 3048.000 L 3024.000 3072.000 3048.000 3072.000 L 3072.000 3072.000 3072.000 3048.000 L 3072.000 3024.000 3048.000 3024.000 L 3024.000 3024.000 3024.000 3048.000 " stroke="black" fill="none" fill-rule="evenodd"/></g></g>
      <g id="hand">
        <rect id="groupSizer" width="140" height="160" fill="none"/>
        <path d="M55.25,55.9,48.63,82.66s-27.58,40.19-26.86,16C23.31,47.27,55.25,55.9,55.25,55.9Z"
            fill="#f49f58" />
        <path
            d="M77.45,30.06C75.95,29.74,27.15,45,24.08,46.12S13.72,48,11.42,53.79s0,16.5,0,21.1-1.15,33.38-.77,37.6c.24,2.7,3.45,5.37,6.52,5.75s8.06-4.6,9.21-7.67,6.52-40.67,7.29-43.35,13-1.15,15.73-1.15,26.47,23.4,26.47,26.86-14.19,19.57-16.11,19.57-29.63,6.77-31.46,8.06c-3.84,2.69-6.93,9.81-5.75,16.88.77,4.6,6.14,6.14,10.36,5.76,3.62-.33,24.17-1.53,30.69-1.92,4.28-.25,12.66-3.84,15-5.37S97,121.7,98.12,119.78s15.08-12.56,17.26-16.69c3.45-6.52,14.39-48.34,13.24-50.07C123.39,45.17,83.76,31.37,77.45,30.06Z"
            fill="#ffc585" />
        <path
            d="M119.82,46.59c-7.44-4-18-8.3-26.85-11.51h0C81.87,48.19,69.38,60,56.92,71.77h0c7.89,7.16,19,18.8,19,21.15,0,1.58-3,5.82-6.39,9.95h0c1.15,0,8.42,8.43,21.74-4.39C111.74,78.73,119,66.42,120.74,56.26A17,17,0,0,0,119.82,46.59Z"
            fill="#ffc585" opacity="0.4" style="mix-blend-mode: multiply" />
        <path
            d="M14.1,70.29c-2.3,7.29-9.8,45.47-10,49.11-.21,4.32,1.83,7.15,5.75,6.91,3.39-.21,8.58-2.94,10.36-6.14,3.34-6,4.19-5.22,11.13-50.26Z"
            fill="#ffc585" />
        <path
            d="M14.1,70.29c-2.3,7.29-9.8,45.47-10,49.11-.21,4.32,1.83,7.15,5.75,6.91,3.39-.21,8.58-2.94,10.36-6.14,3.34-6,4.19-5.22,11.13-50.26Z"
            fill="#ffc585" opacity="0.4" style="mix-blend-mode: multiply" />
        <g>
            <path
                d="M115.22,36.89s-4.3,37.94-5.1,39.36S83.83,106.38,81.9,107.18,69.43,109.49,71.37,105s7.33-2.93,8.17-3.66S101.42,75.61,102,74.43s.74-30,.74-30Z"
                fill="#363f4f" />
            <path
                d="M113.07,39.08s-3.87,36-4.66,37.41S83.11,106.2,81.18,107s-11.75,2.49-9.81-2,7.33-2.93,8.17-3.66S101.42,75.61,102,74.43s.74-30,.74-30Z"
                fill="#4b5668" />
            <path
                d="M111.25,55.36c1-8.48,1.81-16.28,1.81-16.28l-10.31,5.4s-.08,15.28-.35,24C103.3,67.19,108.68,59.83,111.25,55.36Z"
                fill="#4b5668" opacity="0.4" style="mix-blend-mode: multiply" />
            <path
                d="M71.55,107.11c2.19-3.36,7.43-5.35,7.69-5.61-1.41.38-6.08-.56-7.86,3.53A1.73,1.73,0,0,0,71.55,107.11Z"
                fill="#4b5668" opacity="0.4" style="mix-blend-mode: multiply" />
            <path d="M33.23,86.72c10.08,3.3,24,15.06,29.31,25.8L58,117.38c-10.6-4-25.41-17.87-28-25.83Z"
                fill="#edbd15" />
            <path
                d="M46.16,94c-2.09,3-4.54,5.8-6.79,8.77-.24.32-.47.65-.7,1,5.75,5.83,13.22,11.38,19.3,13.65l4.57-4.85C59.32,106,52.93,99.13,46.16,94Z"
                fill="#edbd15" style="mix-blend-mode: multiply" />
            <path d="M3.79,149.09s-3.57,7.55-2.42,8.58c1.52,1.36,7.71-4.53,7.71-4.53Z" fill="#c6d0d5" />
            <path
                d="M7.95,150.39c-1.11,2.4-3.21,5.47-5.9,6.3a3.13,3.13,0,0,1-.73.13.78.78,0,0,0,.21.51c1.52,1.36,7.71-4.53,7.71-4.53Z"
                fill="#c7d1d6" style="mix-blend-mode: multiply" />
            <path
                d="M1.95,149.82c3.16-8.14,17.61-40.14,31.5-61.3,8.37-12.75,53.86-84,78.16-64.8,21.59,17-31.06,69.86-52.81,90.88C42,130.87,11.55,153.39,9.34,154.72S1.34,151.39,1.95,149.82Z"
                fill="#4b5668" />
            <path
                d="M49,113.63c-6.42,6.38-20.09,20-29.15,28.48C11,150.42,6.2,152.81,4.59,153.36c1.65,1.19,3.64,2,4.75,1.36,2.22-1.33,32.63-23.85,49.45-40.11C78,96.07,121.16,52.8,116.31,31.15c0,2.37-7.76,3.86-12,13.2C95.55,63.76,63.76,99,49,113.63Z"
                fill="#4b5668" opacity="0.4" style="mix-blend-mode: multiply" />
            <path
                d="M92.86,47.91c7.9,6.12,17.67,6.77,19.08,3.07,5.75-11.47,7-21.45-.34-27.26-8-6.33-18.36-2.79-28.91,5.24C80.46,32.85,84.33,41.31,92.86,47.91Z"
                fill="#69778b" />
            <path
                d="M83.79,28.14C94,20.69,103.86,17.61,111.6,23.72c7.17,5.66,6.15,15.26.79,26.34C106.53,58.36,80.56,40.72,83.79,28.14Z"
                fill="#edbd15" />
            <path
                d="M116.31,31.11c-.65,10.45-11.22,20.6-22,15.52,6.91,5.15,15.12,7.66,18.12,3.43C115.86,42.91,117.5,36.37,116.31,31.11Z"
                fill="#edbd15" style="mix-blend-mode: multiply" />
            <path
                d="M10.5,130.62c-4.17,8.76-7.28,15.93-8.55,19.21-.61,1.56,5.17,6.22,7.39,4.9,1-.59,7.45-5.31,15.83-11.79C20.75,141.85,11.74,135.18,10.5,130.62Z"
                fill="#edbd15" />
            <path d="M10.5,130.62c-1.89,4.89,10,12.92,14.67,12.31C20.75,141.85,11.74,135.18,10.5,130.62Z"
                fill="#feee28" />
            <path
                d="M2.51,151.41a8,8,0,0,0,.9,1c2.45-3.69,7.82-11.23,11.22-16a19.94,19.94,0,0,1-3-3.41C8.87,137.68,5,146,2.51,151.41Z"
                fill="#edbd15" style="mix-blend-mode: screen" />
            <path
                d="M20.4,140.73c-4.19,5-9,9.31-13.71,13.83a3.09,3.09,0,0,0,2.64.16c1-.59,7.45-5.31,15.83-11.79A18.38,18.38,0,0,1,20.4,140.73Z"
                fill="#edbd15" style="mix-blend-mode: multiply" />
            <path d="M33.23,86.72c4.3,8.5,19.27,22.52,29.31,25.8L58,117.38c-10.6-4-25.41-17.87-28-25.83Z"
                fill="#feee28" />
            <path d="M33.23,86.72c3.3,10,19.4,24.28,29.31,25.8L58,117.38c-10.6-4-25.41-17.87-28-25.83Z"
                fill="#edbd15" />
            <path
                d="M53.09,107.47a38.21,38.21,0,0,0,9.45,5.06L58,117.38a43,43,0,0,1-9.29-5.15C50.14,110.87,51.15,109.6,53.09,107.47Z"
                fill="#edbd15" style="mix-blend-mode: multiply" />
            <path
                d="M39,94.81c-.92-1-1.78-2.09-2.55-3.1-1.26,1.68-2.45,3.41-3.59,5.18.6.86,1.28,1.73,2,2.62A61.6,61.6,0,0,1,39,94.81Z"
                fill="#edbd15" style="mix-blend-mode: screen" />
            <path d="M3.45,153c1,.55-1.26,3.33-1.42,2.73S2.63,152.54,3.45,153Z" fill="#c7d1d6" opacity="0.7"
                style="mix-blend-mode: screen" />
            <path d="M107.61,75.33c.49-1.63-25.92,28.23-25.4,28.92S106.8,78,107.61,75.33Z" fill="#4b5668"
                opacity="0.7" style="mix-blend-mode: screen" />
            <path
                d="M101.93,22c-3.44-.3-9,3-8.18,4.61,2.2,4.21,12.06,2,12.88,0C107.76,23.75,103.74,22.19,101.93,22Z"
                fill="#edbd15" opacity="0.4" style="mix-blend-mode: screen" />
            <path
                d="M81,41.38c-5.59.22-35.49,37.16-38.3,46.24,3.74-1.84,11.19-13.24,18.86-22.54C70.83,53.89,80.15,44.46,81,41.38Z"
                fill="#4b5668" opacity="0.4" style="mix-blend-mode: screen" />
            <path d="M32.75,100.8c-3.63,2.63-15.13,19.8-17.94,28.88C18.78,125.16,31.85,103.88,32.75,100.8Z"
                fill="#4b5668" opacity="0.4" style="mix-blend-mode: screen" />
        </g>
        <path
            d="M43.35,65.72C43.74,64.29,71.25,36,73.6,31.06c-8.52,2.7-47.07,14.14-49.52,15.06C21,47.27,13.72,48,11.42,53.79s0,16.5,0,21.1-1.15,33.38-.77,37.6c.24,2.7,3.45,5.37,6.52,5.75s8.06-4.6,9.21-7.67,6.52-40.67,7.29-43.35C34.14,65.55,39,65.51,43.35,65.72Z"
            fill="#ffc585" />
        <path
            d="M69.51,111.93a10.24,10.24,0,0,1-4.45-3.18c-2.5,2.3-4.66,3.74-5.3,3.74-1.92,0-29.63,6.77-31.46,8.06-3.84,2.69-6.93,9.81-5.75,16.88.77,4.6,6.14,6.14,10.36,5.76,3.62-.33,24.17-1.53,30.69-1.92,4.28-.25,12.66-3.84,15-5.37S97,121.7,98.12,119.78C98.3,119.48,73.84,113.57,69.51,111.93Z"
            fill="#ffc585" />
        <path
            d="M27.53,124.77c2.69-2.69,15-2.3,15.35-.38s.38,10-.38,12.28-14.19,5-15.73,2.69C23.39,134.28,25.1,127.19,27.53,124.77Z"
            fill="#ffd5b8" />
        <path
            d="M19,116a81.46,81.46,0,0,0-.29-14.29c-.34-1.68-6.65-1.76-8-2.1-.15,6-.23,11.23-.08,12.84C10.89,115.19,17.27,117.77,19,116Z"
            fill="#ffd5b8" />
        <path
            d="M117,91.87c-8.53,11-35.2,38.27-45.36,42.58-9.4,4-40.57,9.5-49.11,3,.77,4.6,6.14,6.14,10.36,5.76,3.62-.33,24.17-1.53,30.69-1.92,4.28-.25,12.66-3.84,15-5.37S97,121.7,98.12,119.78s15.08-12.56,17.26-16.69c1.12-2.12,3-7.94,5.05-14.91C119.34,89.44,118,90.54,117,91.87Z"
            fill="#ffc585" opacity="0.4" style="mix-blend-mode: multiply" />
        <path
            d="M26.38,110.57c1.15-3.07,6.52-40.67,7.29-43.35.54-1.89,6.78-1.69,11.37-1.41.76,0-11.61-4.73-14-1.47-3.27,4.54-3.16,35.87-12,50.07a5.88,5.88,0,0,1-5.31,2.53,8.13,8.13,0,0,0,3.39,1.31C20.24,118.63,25.23,113.64,26.38,110.57Z"
            fill="#ffc585" opacity="0.4" style="mix-blend-mode: multiply" />
      </g>
    </svg>