<canvas id="myCanvas" width="657.75" height="546" style="position:absolute;z-index: 10;"></canvas><svg id="demo" version="1.1" width="657.75" height="546" xmlns="http://www.w3.org/2000/svg" style="position:relative;"><g class="theWords" stroke-linejoin="round"><g id="handwriting" transform="translate(131.55, 91 ) scale(0.1500000, 0.1500000)"><path d="M2074.500 250.791 C 2048.955 256.813,2010.027 269.650,2005.650 273.496 C 2004.083 274.873,2001.097 276.000,1999.017 276.000 C 1992.707 276.000,1943.794 306.589,1915.307 328.349 C 1861.090 369.764,1828.661 411.240,1806.952 466.935 C 1800.055 484.631,1798.913 492.104,1798.772 520.500 C 1798.632 548.694,1799.848 557.432,1807.123 580.500 C 1811.806 595.350,1817.556 611.217,1819.901 615.760 C 1823.800 623.314,1823.580 624.811,1817.332 633.272 C 1811.393 641.314,1810.500 646.115,1810.500 670.011 C 1810.500 694.159,1811.497 699.398,1818.706 713.111 C 1823.219 721.697,1828.358 735.175,1830.126 743.062 C 1833.903 759.918,1840.276 768.000,1849.788 768.000 C 1859.164 768.000,1861.415 763.106,1855.906 754.698 C 1848.611 743.565,1846.738 718.895,1851.073 691.029 C 1853.238 677.115,1856.045 665.090,1857.312 664.307 C 1858.579 663.524,1860.537 669.323,1861.665 677.192 C 1862.793 685.061,1866.272 694.306,1869.398 697.736 C 1874.861 703.732,1874.891 704.884,1870.180 727.664 C 1861.912 767.646,1871.561 814.469,1894.708 846.688 L 1904.926 860.910 1897.691 865.651 C 1893.712 868.258,1882.114 871.570,1871.918 873.012 C 1847.003 876.533,1836.125 885.400,1836.046 902.250 C 1836.021 907.613,1835.495 912.000,1834.877 912.000 C 1834.260 912.000,1828.083 909.999,1821.152 907.554 C 1809.556 903.462,1807.670 903.558,1797.525 908.754 C 1791.461 911.860,1773.000 927.749,1756.500 944.064 C 1740.000 960.379,1712.325 985.103,1695.000 999.007 C 1629.928 1051.231,1615.397 1071.835,1627.668 1094.476 C 1635.517 1108.957,1647.862 1115.505,1668.894 1116.344 C 1688.856 1117.141,1692.243 1119.560,1680.736 1124.802 C 1675.109 1127.366,1672.333 1127.499,1671.580 1125.241 C 1669.789 1119.866,1655.247 1121.676,1642.582 1128.849 C 1633.606 1133.932,1629.870 1138.430,1627.446 1147.071 C 1625.374 1154.457,1619.876 1162.157,1612.011 1168.690 C 1605.293 1174.271,1598.028 1183.105,1595.867 1188.321 C 1592.394 1196.707,1592.555 1198.255,1597.263 1201.698 C 1601.898 1205.087,1604.654 1203.908,1618.556 1192.584 C 1627.338 1185.431,1659.269 1163.039,1689.512 1142.826 C 1753.047 1100.361,1767.817 1089.612,1792.378 1067.964 C 1836.357 1029.201,1850.224 999.866,1857.796 929.573 L 1861.235 897.646 1873.368 895.959 C 1880.040 895.031,1899.920 889.486,1917.544 883.636 C 1935.168 877.786,1952.381 873.000,1955.794 873.000 C 1965.504 873.000,1963.085 878.466,1951.173 883.443 C 1943.657 886.584,1940.876 889.349,1942.079 892.484 C 1943.088 895.114,1942.141 897.000,1939.810 897.000 C 1933.121 897.000,1920.000 909.066,1920.000 915.218 C 1920.000 922.381,1928.251 922.758,1948.773 916.532 C 1966.447 911.171,1984.563 910.766,1997.949 915.432 L 2007.794 918.864 2000.647 922.785 C 1996.716 924.941,1987.425 927.494,1980.000 928.458 C 1956.148 931.554,1930.689 936.405,1923.750 939.176 C 1914.974 942.680,1915.119 952.078,1924.040 957.923 C 1935.591 965.492,1939.454 978.591,1934.915 994.803 C 1932.801 1002.353,1928.230 1012.799,1924.758 1018.015 C 1921.285 1023.232,1916.798 1031.213,1914.786 1035.750 C 1912.775 1040.288,1909.833 1044.000,1908.249 1044.000 C 1906.666 1044.000,1900.936 1048.050,1895.517 1053.000 L 1885.663 1062.000 1893.231 1062.000 C 1897.394 1062.000,1902.221 1063.421,1903.959 1065.159 C 1910.103 1071.303,1932.613 1050.311,1943.317 1028.455 L 1953.133 1008.410 1966.567 1012.987 C 1978.525 1017.062,1980.000 1018.564,1980.000 1026.678 C 1980.000 1047.310,2012.956 1063.701,2052.000 1062.489 C 2086.962 1061.403,2123.922 1048.774,2123.977 1037.895 C 2123.995 1034.264,2127.755 1033.312,2141.739 1033.395 C 2155.763 1033.478,2161.479 1032.022,2169.032 1026.443 C 2179.899 1018.417,2180.384 1018.719,2191.625 1040.492 C 2202.353 1061.269,2215.854 1066.637,2231.597 1056.385 C 2234.793 1054.304,2233.364 1051.494,2225.096 1043.608 C 2211.596 1030.732,2198.401 1006.335,2190.029 978.773 C 2182.253 953.171,2171.576 942.031,2149.249 936.221 C 2111.243 926.332,2099.118 920.882,2104.081 915.919 C 2105.005 914.995,2120.254 915.766,2137.965 917.635 C 2159.487 919.905,2171.166 920.034,2173.176 918.024 C 2178.347 912.853,2165.784 900.011,2141.186 885.322 C 2128.454 877.720,2118.029 870.572,2118.019 869.439 C 2117.986 865.789,2139.693 870.458,2171.590 880.961 C 2218.927 896.547,2218.020 895.827,2228.533 926.176 C 2266.136 1034.731,2294.754 1088.869,2365.711 1185.677 C 2373.845 1196.775,2384.582 1211.591,2389.571 1218.602 C 2401.763 1235.736,2411.929 1241.362,2422.221 1236.673 C 2436.124 1230.339,2432.815 1218.892,2410.942 1197.657 C 2392.828 1180.070,2391.464 1177.730,2383.398 1150.418 C 2378.731 1134.613,2373.807 1120.999,2372.456 1120.164 C 2368.260 1117.571,2369.741 1109.776,2375.921 1101.919 C 2391.749 1081.797,2384.939 1060.012,2352.525 1027.085 C 2323.991 998.099,2283.696 960.105,2269.329 948.639 C 2259.334 940.663,2255.922 935.042,2250.251 917.213 C 2246.452 905.271,2240.534 890.872,2237.098 885.216 C 2231.050 875.260,2231.029 874.830,2236.438 871.716 C 2249.393 864.258,2266.299 846.607,2274.636 831.835 L 2283.573 816.000 2299.036 815.921 C 2324.345 815.793,2344.712 803.042,2367.698 772.939 C 2389.073 744.945,2393.504 710.448,2379.033 684.701 L 2372.622 673.293 2389.407 644.897 C 2398.638 629.278,2410.472 603.675,2415.705 588.000 C 2424.603 561.345,2425.227 556.684,2425.347 516.000 C 2425.470 474.446,2425.031 471.198,2415.541 443.401 C 2397.355 390.137,2364.967 345.725,2334.469 332.235 C 2306.940 320.057,2266.832 323.847,2262.869 339.000 C 2261.595 343.874,2259.391 344.408,2246.750 342.911 C 2222.579 340.049,2218.615 349.142,2234.068 372.000 L 2241.167 382.500 2232.833 389.223 C 2228.250 392.920,2215.725 399.483,2205.000 403.807 C 2183.791 412.357,2110.458 435.000,2103.977 435.000 C 2096.115 435.000,2017.919 465.256,1993.926 477.581 C 1938.614 505.996,1893.924 542.517,1873.017 576.390 C 1863.090 592.472,1852.175 603.000,1845.427 603.000 C 1841.751 603.000,1839.477 596.979,1832.966 570.000 C 1823.984 532.784,1823.008 516.677,1828.332 493.500 C 1843.829 426.028,1904.235 358.245,1990.500 311.528 C 2037.320 286.173,2063.024 278.661,2109.438 276.771 C 2142.842 275.411,2150.004 276.024,2169.362 281.904 C 2198.865 290.865,2218.010 300.898,2239.012 318.404 C 2257.847 334.102,2261.238 335.476,2263.918 328.493 C 2271.210 309.489,2233.417 275.704,2185.961 258.803 C 2167.583 252.258,2158.466 251.032,2122.500 250.268 C 2099.400 249.778,2077.800 250.013,2074.500 250.791 M596.183 296.496 L 583.500 307.992 561.565 306.647 C 541.655 305.426,538.934 305.956,532.095 312.380 C 527.951 316.273,519.864 328.396,514.124 339.319 C 502.753 360.959,495.731 366.000,476.961 366.000 C 447.282 366.000,432.787 384.862,436.417 418.758 L 438.375 437.042 423.937 442.362 C 392.862 453.812,375.035 471.439,375.011 490.736 C 375.005 496.034,378.915 505.881,384.183 513.835 C 392.449 526.314,393.062 528.797,390.327 538.704 C 388.655 544.757,385.303 551.912,382.878 554.605 C 380.452 557.297,377.587 563.027,376.512 567.338 C 374.903 573.785,376.233 576.447,384.008 582.338 C 409.678 601.790,423.096 615.972,421.270 621.723 C 414.069 644.412,447.946 685.178,469.505 679.767 C 475.604 678.236,477.257 680.243,484.748 698.275 C 489.368 709.399,497.796 725.661,503.475 734.413 C 513.920 750.511,538.440 777.000,542.897 777.000 C 547.728 777.000,579.000 798.951,579.000 802.342 C 579.000 804.256,574.613 809.926,569.250 814.942 C 562.066 821.661,552.549 825.849,533.088 830.855 C 492.205 841.372,456.310 856.428,427.108 875.307 C 396.700 894.966,342.805 940.842,323.600 963.414 C 316.395 971.883,307.125 982.634,303.000 987.304 C 287.087 1005.323,236.047 1080.792,210.814 1123.611 C 199.654 1142.548,189.000 1172.945,189.000 1185.844 C 189.000 1217.888,231.989 1230.042,285.595 1213.154 C 328.928 1199.502,355.296 1182.908,392.715 1145.740 L 417.000 1121.617 417.000 1184.809 L 417.000 1248.000 302.857 1248.000 L 188.714 1248.000 180.967 1256.250 C 174.090 1263.574,151.002 1294.379,131.410 1322.373 C 127.609 1327.803,120.051 1338.265,114.613 1345.623 L 104.725 1359.000 113.232 1359.000 C 120.793 1359.000,125.550 1353.661,156.000 1311.000 L 190.260 1263.000 518.880 1263.046 C 753.009 1263.079,880.279 1264.357,961.500 1267.490 C 1024.200 1269.909,1091.162 1271.914,1110.305 1271.944 L 1145.111 1272.000 1162.805 1297.390 C 1177.781 1318.878,1181.795 1322.796,1188.927 1322.890 C 1194.900 1322.968,1196.691 1321.908,1195.076 1319.250 C 1188.186 1307.906,1157.962 1266.725,1154.528 1264.003 C 1152.143 1262.112,1122.964 1259.961,1083.000 1258.730 C 977.310 1255.475,915.443 1252.443,913.421 1250.421 C 910.227 1247.227,903.503 1084.736,906.434 1081.576 C 909.539 1078.231,931.528 1100.751,982.521 1159.500 C 1022.215 1205.231,1043.387 1226.100,1062.000 1237.838 C 1073.203 1244.904,1078.818 1246.363,1095.000 1246.416 C 1112.213 1246.472,1116.166 1245.324,1128.705 1236.627 C 1147.684 1223.462,1149.822 1218.560,1148.432 1191.385 C 1147.392 1171.066,1145.516 1164.969,1131.697 1137.000 C 1113.745 1100.669,1093.296 1065.712,1074.000 1038.371 C 1066.575 1027.850,1058.491 1016.375,1056.036 1012.871 C 1040.074 990.093,994.263 935.023,980.703 922.310 C 949.252 892.824,902.127 861.361,860.090 841.782 C 842.150 833.426,802.001 822.000,790.581 822.000 C 787.029 822.000,780.293 818.003,775.613 813.118 L 767.103 804.236 776.913 798.868 C 788.153 792.718,817.772 769.715,826.152 760.628 C 837.292 748.548,863.941 711.327,868.909 700.909 C 873.252 691.802,876.095 689.833,888.854 687.097 C 920.926 680.219,933.000 664.823,933.000 630.806 C 933.000 606.927,936.322 602.047,954.836 598.728 C 976.865 594.779,993.112 580.233,992.946 564.609 C 992.916 561.799,989.049 552.533,984.354 544.017 C 978.875 534.081,976.728 527.094,978.362 524.517 C 979.762 522.308,980.929 515.351,980.954 509.059 C 980.989 500.314,979.055 495.895,972.750 490.310 C 968.213 486.291,959.438 478.412,953.250 472.802 L 942.000 462.600 942.000 435.204 C 942.000 418.296,940.365 403.895,937.731 397.590 C 932.939 386.121,911.918 369.442,898.992 366.852 C 894.313 365.914,889.811 362.976,888.988 360.323 C 880.256 332.181,863.104 311.946,848.106 312.095 C 842.823 312.148,835.879 314.173,832.677 316.595 C 823.017 323.902,812.295 321.719,795.368 309.000 C 777.951 295.913,771.292 294.677,754.963 301.500 C 739.651 307.898,727.973 307.101,711.000 298.500 C 692.659 289.206,691.941 289.215,679.275 298.875 C 665.391 309.465,656.925 308.799,641.154 295.875 C 623.232 281.190,612.912 281.332,596.183 296.496 M634.896 309.750 C 644.410 318.103,648.258 319.500,661.759 319.500 C 674.261 319.500,679.099 318.013,685.177 312.304 L 692.837 305.107 710.544 313.054 C 731.595 322.501,741.083 322.873,758.578 314.934 C 765.770 311.670,772.036 309.000,772.501 309.000 C 772.966 309.000,779.878 314.397,787.860 320.993 C 806.794 336.640,819.456 339.098,835.009 330.147 C 852.906 319.846,860.663 325.851,874.176 360.467 C 877.689 369.467,881.870 373.078,897.479 380.594 C 925.631 394.151,930.388 402.740,929.640 438.659 C 928.962 471.188,931.520 476.865,953.047 490.605 C 968.316 500.351,970.047 504.309,965.572 519.246 C 962.349 530.002,962.826 532.242,971.996 549.446 L 981.900 568.028 972.766 576.189 C 966.544 581.749,958.683 585.031,948.103 586.486 C 938.992 587.739,931.891 590.399,930.923 592.922 C 930.015 595.287,925.437 599.205,920.749 601.630 C 913.734 605.257,909.876 605.409,898.945 602.485 C 884.272 598.561,878.095 590.841,874.751 572.250 C 872.406 559.209,868.870 558.393,852.000 567.000 C 835.009 575.668,828.781 574.613,816.293 560.951 C 806.105 549.806,804.838 549.236,799.390 553.356 C 789.119 561.122,774.481 559.150,764.704 548.683 C 759.917 543.558,756.000 536.919,756.000 533.928 C 756.000 526.016,752.826 519.000,749.247 519.000 C 747.536 519.000,741.818 523.995,736.541 530.100 C 728.929 538.906,724.804 541.200,716.583 541.200 C 705.383 541.200,691.234 532.698,688.373 524.250 C 687.379 521.315,683.594 519.000,679.789 519.000 C 674.338 519.000,671.446 522.560,665.271 536.873 C 659.294 550.725,655.759 555.197,649.558 556.753 C 637.530 559.772,627.727 553.657,620.392 538.560 C 616.769 531.102,612.675 525.000,611.296 525.000 C 609.916 525.000,606.250 530.918,603.150 538.150 C 596.908 552.713,587.309 561.000,576.684 561.000 C 568.303 561.000,552.000 553.024,552.000 548.923 C 552.000 544.192,540.041 533.621,536.891 535.568 C 535.301 536.550,534.000 541.389,534.000 546.320 C 534.000 556.041,521.791 570.009,513.312 569.989 C 510.665 569.983,504.080 567.283,498.677 563.989 C 484.683 555.457,480.671 556.433,477.070 569.250 C 472.181 586.648,461.527 596.912,448.852 596.436 C 443.034 596.217,436.084 597.855,433.408 600.076 C 430.161 602.771,427.870 603.072,426.521 600.982 C 423.513 596.319,396.899 573.800,392.772 572.424 C 390.336 571.612,391.715 566.504,397.099 556.390 C 407.556 536.746,407.227 524.496,395.761 506.628 C 389.730 497.229,387.171 490.187,388.391 486.345 C 391.899 475.291,408.809 462.220,427.757 455.914 C 452.437 447.702,454.673 444.817,450.184 426.986 C 442.334 395.812,454.357 378.035,483.306 378.011 C 503.114 377.995,515.329 368.720,526.939 344.882 C 532.130 334.222,539.317 323.976,542.910 322.113 C 546.812 320.090,557.129 319.343,568.532 320.259 C 587.074 321.747,587.987 321.478,600.351 310.896 C 607.352 304.903,615.490 300.000,618.436 300.000 C 621.381 300.000,628.788 304.388,634.896 309.750 M2336.190 364.503 C 2355.184 380.761,2375.209 413.265,2387.299 447.460 C 2397.552 476.460,2398.281 480.866,2398.387 514.500 C 2398.491 547.601,2397.687 552.909,2388.407 580.413 C 2378.103 610.952,2353.649 660.000,2348.728 660.000 C 2347.228 660.000,2345.980 655.613,2345.956 650.250 C 2345.786 612.922,2302.977 519.020,2263.554 469.500 C 2258.300 462.900,2252.467 454.800,2250.592 451.500 C 2248.717 448.200,2247.141 447.138,2247.091 449.139 C 2246.958 454.470,2256.255 476.946,2274.750 516.000 C 2306.091 582.180,2319.000 618.811,2319.000 641.565 C 2319.000 651.514,2318.774 651.698,2309.250 649.517 C 2303.888 648.289,2292.892 646.313,2284.816 645.124 C 2273.155 643.409,2268.386 640.858,2261.647 632.732 C 2256.980 627.104,2253.125 621.716,2253.081 620.759 C 2253.036 619.801,2246.906 614.641,2239.457 609.291 C 2232.009 603.942,2226.638 598.395,2227.522 596.964 C 2229.716 593.414,2213.751 579.000,2207.624 579.000 C 2204.908 579.000,2198.989 577.082,2194.470 574.737 C 2184.195 569.407,2179.504 571.127,2175.060 581.854 C 2172.087 589.033,2169.497 590.478,2157.536 591.634 C 2137.811 593.539,2121.970 601.830,2104.088 619.610 L 2088.676 634.933 2066.818 633.217 C 2047.603 631.708,2044.389 630.581,2040.230 623.895 C 2037.629 619.712,2032.930 612.220,2029.790 607.245 C 2022.148 595.141,2005.494 583.544,1989.000 578.839 C 1974.593 574.730,1966.727 570.000,1974.300 570.000 C 1980.581 570.000,1985.840 564.075,1983.945 559.134 C 1980.332 549.721,1941.848 557.704,1925.820 571.191 C 1920.716 575.486,1914.244 579.000,1911.437 579.000 C 1908.631 579.000,1903.335 581.102,1899.668 583.670 C 1894.596 587.222,1893.000 587.407,1893.000 584.443 C 1893.000 578.271,1934.822 539.555,1957.687 524.560 C 2001.870 495.585,2051.842 473.283,2131.500 446.987 C 2157.900 438.273,2191.628 424.961,2206.450 417.406 C 2236.059 402.314,2262.000 379.967,2262.000 369.552 C 2262.000 365.948,2263.350 363.000,2265.000 363.000 C 2266.650 363.000,2268.000 367.050,2268.000 372.000 C 2268.000 376.950,2266.485 381.000,2264.633 381.000 C 2262.261 381.000,2262.338 382.292,2264.891 385.369 C 2266.885 387.771,2267.646 391.146,2266.581 392.869 C 2263.777 397.406,2270.090 396.713,2281.686 391.211 C 2287.238 388.576,2292.633 383.731,2293.677 380.443 C 2294.720 377.155,2298.173 368.590,2301.349 361.410 C 2306.872 348.924,2307.498 348.486,2315.729 351.355 C 2320.462 353.005,2329.670 358.922,2336.190 364.503 M713.480 554.894 C 721.191 554.835,730.875 552.858,735.000 550.500 C 745.344 544.587,745.709 544.703,752.782 556.147 C 760.775 569.080,773.262 574.328,790.440 571.973 C 801.530 570.453,805.106 571.300,812.111 577.100 C 825.309 588.030,838.261 588.981,858.750 580.525 C 862.277 579.069,864.000 579.732,864.000 582.545 C 864.000 584.847,866.470 591.577,869.490 597.499 L 874.979 608.267 853.740 610.401 C 809.981 614.799,807.432 614.704,799.368 608.360 C 774.391 588.713,733.721 591.465,712.613 614.229 C 705.330 622.083,703.845 622.404,674.641 622.451 C 644.284 622.500,644.237 622.488,633.635 612.490 C 619.813 599.454,611.446 596.419,589.076 596.327 C 575.355 596.270,567.545 597.996,558.485 603.088 C 547.304 609.372,543.880 609.777,516.201 608.091 C 499.637 607.082,483.310 604.771,479.919 602.957 C 473.786 599.674,473.792 599.614,481.090 590.940 C 485.125 586.145,489.011 580.484,489.725 578.361 C 490.693 575.485,492.105 575.346,495.262 577.817 C 507.790 587.621,528.233 583.229,539.025 568.415 L 545.090 560.090 551.545 566.545 C 556.453 571.453,561.643 573.000,573.197 573.000 C 589.951 573.000,598.956 569.499,606.448 560.073 L 611.395 553.847 622.302 563.424 C 639.807 578.793,656.470 575.573,672.107 553.800 L 681.873 540.201 690.667 547.601 C 697.333 553.210,702.852 554.974,713.480 554.894 M684.498 573.416 C 685.049 577.312,686.850 580.163,688.500 579.750 C 692.929 578.643,692.147 569.216,687.498 567.666 C 684.754 566.751,683.810 568.559,684.498 573.416 M1980.042 603.460 C 2016.855 623.178,2028.343 653.761,2011.456 687.086 C 2000.269 709.164,1984.519 718.565,1959.216 718.270 C 1926.052 717.882,1900.951 701.570,1890.286 673.475 C 1883.970 656.837,1885.931 642.123,1896.642 625.784 C 1903.183 615.805,1922.087 602.051,1933.500 598.967 C 1943.251 596.332,1971.897 599.097,1980.042 603.460 M448.500 612.000 C 449.534 613.673,447.290 614.980,443.427 614.954 C 437.854 614.917,437.380 614.340,441.000 612.000 C 446.582 608.393,446.270 608.393,448.500 612.000 M616.413 621.685 C 632.218 631.915,637.928 655.479,630.244 678.760 C 621.155 706.301,581.118 712.565,559.357 689.851 C 551.089 681.221,550.500 679.044,550.500 657.118 C 550.500 631.241,553.311 625.688,570.974 616.668 C 583.186 610.432,602.288 612.541,616.413 621.685 M784.016 621.398 C 810.064 638.207,806.306 685.540,777.828 699.325 C 746.682 714.403,713.990 693.259,714.005 658.047 C 714.012 640.732,722.431 626.922,738.000 618.684 C 754.156 610.136,767.812 610.942,784.016 621.398 M514.740 625.466 L 532.981 627.471 531.617 651.018 C 529.879 681.042,536.765 697.305,556.849 710.607 C 600.858 739.758,654.000 709.017,654.000 654.410 C 654.000 646.909,655.454 645.157,663.065 643.486 C 668.051 642.391,677.501 642.402,684.065 643.511 C 695.297 645.409,696.000 646.140,696.000 655.935 C 696.000 689.490,714.086 714.101,743.182 720.142 C 778.842 727.545,806.690 711.279,817.357 676.817 C 822.007 661.795,822.309 656.875,819.364 644.118 C 817.458 635.859,816.483 628.517,817.198 627.802 C 817.913 627.087,832.448 626.277,849.499 626.001 L 880.500 625.500 879.583 633.385 C 877.756 649.095,861.104 687.968,845.477 713.006 C 827.051 742.527,799.362 769.589,771.831 784.985 L 753.067 795.479 736.855 786.203 C 727.938 781.101,718.576 773.773,716.050 769.919 C 712.245 764.112,707.947 762.581,690.979 760.991 C 673.256 759.330,669.894 759.819,666.000 764.621 C 663.383 767.848,654.100 771.594,643.819 773.571 C 634.094 775.442,618.748 780.468,609.716 784.741 L 593.294 792.510 580.897 783.890 C 574.079 779.150,563.298 772.622,556.941 769.385 C 528.287 754.796,500.053 709.912,483.002 651.845 C 478.051 634.985,474.000 620.616,474.000 619.914 C 474.000 619.212,479.063 619.723,485.250 621.049 C 491.438 622.376,504.708 624.363,514.740 625.466 M2209.851 625.206 C 2236.102 637.430,2254.175 669.759,2246.967 691.600 C 2241.192 709.099,2229.865 723.877,2213.853 734.803 C 2200.020 744.243,2196.968 745.075,2175.659 745.219 C 2156.424 745.348,2150.232 744.115,2139.116 737.937 C 2104.884 718.915,2096.909 674.036,2121.981 641.514 C 2139.915 618.250,2179.238 610.952,2209.851 625.206 M911.932 630.000 C 913.569 627.525,914.929 624.488,914.954 623.250 C 914.979 622.013,916.350 621.000,918.000 621.000 C 922.363 621.000,921.673 640.581,916.909 651.983 C 912.535 662.452,902.474 670.512,889.812 673.690 C 880.967 675.910,881.016 676.001,884.756 664.198 C 886.271 659.414,889.874 647.600,892.762 637.945 L 898.013 620.389 903.485 627.445 C 908.140 633.448,909.399 633.829,911.932 630.000 M465.606 642.000 C 476.660 663.992,476.487 667.247,464.394 664.829 C 445.803 661.111,430.389 638.040,440.045 628.384 C 448.497 619.931,456.714 624.308,465.606 642.000 M1836.444 663.071 C 1835.966 684.313,1830.200 693.838,1830.132 673.500 C 1830.079 657.703,1832.721 643.721,1835.275 646.275 C 1836.108 647.108,1836.634 654.666,1836.444 663.071 M582.000 657.000 C 574.044 664.956,574.434 670.707,583.550 679.823 C 591.739 688.012,601.232 687.551,608.250 678.624 C 621.982 661.155,597.781 641.219,582.000 657.000 M744.177 656.823 C 734.474 666.526,736.324 676.852,748.954 683.498 C 758.349 688.442,772.972 682.718,774.753 673.399 C 778.295 654.876,757.434 643.566,744.177 656.823 M2079.526 690.750 C 2081.189 716.194,2090.834 734.376,2111.710 751.422 C 2132.990 768.797,2153.613 775.263,2181.409 773.274 C 2223.345 770.274,2260.739 740.817,2272.949 701.164 C 2275.756 692.050,2279.503 685.054,2281.276 685.619 C 2283.049 686.184,2292.198 688.158,2301.606 690.006 C 2314.100 692.460,2319.209 694.934,2320.558 699.183 C 2321.842 703.227,2325.133 705.000,2331.355 705.000 C 2338.733 705.000,2341.070 706.828,2344.653 715.404 C 2357.305 745.684,2341.353 777.080,2303.350 796.696 C 2285.707 805.803,2284.903 805.778,2287.306 796.206 C 2288.457 791.619,2288.060 788.842,2286.342 789.456 C 2282.546 790.813,2253.000 824.647,2253.000 827.636 C 2253.000 830.938,2216.285 859.876,2209.350 862.041 C 2204.937 863.418,2201.842 861.314,2196.752 853.479 C 2185.574 836.271,2157.884 816.634,2134.500 809.330 C 2117.793 804.112,2106.141 802.773,2077.500 802.782 C 2017.540 802.799,1978.927 811.888,1937.349 835.771 C 1925.651 842.491,1922.405 843.241,1918.618 840.098 C 1910.151 833.071,1895.722 804.375,1889.580 782.348 C 1883.883 761.917,1880.987 722.013,1884.917 718.083 C 1885.882 717.118,1892.526 721.126,1899.682 726.990 C 1915.761 740.166,1923.798 743.300,1947.816 745.761 C 1973.919 748.435,1997.962 742.976,2012.296 731.121 C 2026.493 719.379,2039.782 699.374,2043.737 683.789 L 2046.730 672.000 2062.515 672.000 L 2078.301 672.000 2079.526 690.750 M681.000 691.500 C 681.000 697.357,682.533 699.000,688.000 699.000 C 697.847 699.000,699.826 695.885,694.042 689.493 C 686.992 681.704,681.000 682.626,681.000 691.500 M2360.615 697.036 C 2365.656 703.110,2368.421 720.000,2364.375 720.000 C 2362.519 720.000,2361.000 717.908,2361.000 715.351 C 2361.000 712.794,2358.940 706.719,2356.423 701.851 C 2351.768 692.849,2354.518 689.690,2360.615 697.036 M667.377 732.200 C 664.458 736.922,667.695 738.818,674.817 736.558 C 678.266 735.463,680.313 733.315,679.367 731.784 C 677.035 728.011,669.811 728.261,667.377 732.200 M2026.592 755.851 C 2023.256 761.248,2027.712 769.906,2035.699 773.545 C 2046.467 778.451,2062.749 777.822,2068.286 772.286 C 2076.903 763.668,2072.659 758.263,2056.681 757.509 C 2051.631 757.271,2043.241 756.080,2038.036 754.862 C 2032.200 753.497,2027.812 753.877,2026.592 755.851 M709.538 789.013 C 733.908 797.398,753.337 810.624,772.847 832.111 C 791.820 853.007,796.654 861.144,800.644 878.902 C 803.278 890.627,802.891 891.942,794.633 899.300 C 789.778 903.626,786.482 908.928,787.308 911.083 C 788.270 913.589,786.385 915.000,782.073 915.000 C 773.937 915.000,762.000 922.853,762.000 928.205 C 762.000 930.331,759.300 934.514,756.000 937.500 C 752.700 940.486,750.000 945.421,750.000 948.465 C 750.000 952.077,747.825 954.000,743.737 954.000 C 740.292 954.000,724.630 960.376,708.932 968.169 C 669.900 987.546,650.518 988.889,611.741 974.907 C 595.784 969.153,582.799 962.529,580.192 958.814 C 577.756 955.341,570.235 944.063,563.480 933.750 C 556.724 923.438,549.380 915.000,547.160 915.000 C 542.138 915.000,544.043 893.865,551.123 871.031 C 557.402 850.779,580.858 819.138,598.685 806.872 C 631.793 784.094,675.006 777.132,709.538 789.013 M610.170 826.278 C 607.441 833.391,611.302 840.574,617.241 839.431 C 620.562 838.791,622.500 835.684,622.500 831.000 C 622.500 822.448,613.031 818.822,610.170 826.278 M2134.500 833.908 C 2151.949 841.946,2166.000 851.325,2166.000 854.933 C 2166.000 856.321,2158.913 855.570,2150.250 853.264 C 2125.383 846.644,2108.308 847.673,2098.938 856.357 C 2085.675 868.648,2088.602 877.466,2110.420 890.951 C 2116.239 894.547,2121.000 898.137,2121.000 898.928 C 2121.000 899.720,2115.263 899.511,2108.250 898.464 C 2090.461 895.808,2079.000 900.649,2079.000 910.821 C 2079.000 918.515,2078.560 918.720,2066.250 916.760 C 2059.238 915.644,2047.763 913.940,2040.750 912.975 C 2033.738 912.010,2028.000 910.142,2028.000 908.824 C 2028.000 901.540,2017.551 897.000,2000.786 897.000 C 1991.004 897.000,1983.000 896.182,1983.000 895.182 C 1983.000 894.182,1986.375 890.709,1990.500 887.464 C 1998.496 881.174,2000.528 868.977,1994.250 864.946 C 1988.063 860.974,1958.046 852.104,1950.000 851.871 C 1937.443 851.508,1972.089 837.171,2001.000 830.767 C 2021.351 826.259,2035.890 825.308,2073.000 826.058 C 2114.007 826.887,2121.272 827.814,2134.500 833.908 M694.821 841.745 C 692.135 848.746,692.334 849.000,700.500 849.000 C 708.689 849.000,709.992 846.192,704.400 840.600 C 699.561 835.761,697.000 836.068,694.821 841.745 M826.975 844.310 C 853.851 852.198,895.114 873.650,930.000 897.869 C 957.648 917.063,995.554 955.254,1024.052 992.629 C 1070.311 1053.297,1069.164 1051.274,1059.096 1054.469 C 1053.990 1056.090,986.306 1028.872,964.500 1016.429 C 961.200 1014.546,951.750 1009.677,943.500 1005.609 C 917.384 992.731,910.420 985.850,902.833 965.427 C 888.042 925.612,877.908 914.900,842.214 901.343 L 818.104 892.187 813.979 875.843 C 811.710 866.855,807.437 856.125,804.484 852.000 C 791.592 833.992,791.699 833.955,826.975 844.310 M541.953 858.289 C 538.035 867.205,533.890 880.876,532.743 888.668 C 530.878 901.333,530.087 902.480,525.281 899.479 C 517.543 894.647,507.594 898.197,490.500 911.892 C 482.250 918.501,471.450 926.050,466.500 928.668 C 461.550 931.286,453.450 940.188,448.500 948.451 C 427.170 984.057,413.729 1004.043,405.888 1011.811 C 393.118 1024.464,326.123 1044.000,295.502 1044.000 L 278.661 1044.000 284.080 1034.802 C 291.697 1021.876,323.655 982.897,346.500 958.669 C 360.467 943.857,407.470 904.915,426.569 892.333 C 455.330 873.385,495.125 854.870,523.500 847.235 C 536.700 843.683,547.855 841.069,548.289 841.427 C 548.723 841.785,545.872 849.373,541.953 858.289 M741.000 854.823 C 741.000 862.901,746.675 865.611,752.143 860.143 C 757.611 854.675,754.901 849.000,746.823 849.000 C 743.059 849.000,741.000 851.059,741.000 854.823 M634.054 862.581 C 632.077 867.733,637.230 872.870,644.459 872.954 C 650.412 873.023,647.443 859.741,641.241 858.559 C 638.348 858.008,635.114 859.818,634.054 862.581 M685.007 877.702 C 684.015 880.288,684.823 884.000,686.804 885.952 C 689.581 888.689,691.364 888.199,694.606 883.808 C 696.917 880.677,698.096 876.965,697.227 875.558 C 694.612 871.327,686.937 872.674,685.007 877.702 M574.667 896.729 C 571.776 901.408,576.522 909.442,581.132 907.672 C 583.530 906.753,586.055 906.000,586.745 906.000 C 587.435 906.000,588.000 903.300,588.000 900.000 C 588.000 893.800,577.995 891.346,574.667 896.729 M626.917 904.600 C 623.536 908.674,623.554 909.870,627.031 912.019 C 632.165 915.192,642.815 909.946,641.184 905.047 C 639.336 899.496,631.360 899.246,626.917 904.600 M739.723 905.002 C 736.960 912.201,742.639 916.865,748.373 912.106 C 750.918 909.993,753.000 906.406,753.000 904.133 C 753.000 898.271,742.030 898.989,739.723 905.002 M519.000 915.325 C 519.000 918.678,492.115 944.909,488.617 944.968 C 486.036 945.012,478.862 936.133,480.322 934.701 C 480.970 934.067,488.250 928.782,496.500 922.957 C 512.058 911.973,519.000 909.618,519.000 915.325 M828.000 929.222 C 828.000 938.087,836.283 938.112,837.541 929.250 C 838.223 924.453,840.844 922.230,846.602 921.565 C 863.369 919.630,877.552 934.856,889.393 967.503 C 893.480 978.769,900.576 991.962,905.162 996.820 C 913.497 1005.649,990.796 1045.094,1030.126 1060.587 C 1045.982 1066.834,1053.735 1068.304,1063.652 1066.944 C 1076.219 1065.222,1076.771 1065.508,1085.087 1078.062 C 1089.781 1085.150,1102.805 1109.081,1114.029 1131.244 C 1130.667 1164.097,1134.701 1174.861,1135.867 1189.520 C 1136.792 1201.154,1135.906 1210.147,1133.357 1215.000 C 1125.436 1230.077,1095.732 1237.692,1075.237 1229.900 C 1060.801 1224.411,1032.439 1197.080,991.518 1149.224 C 969.544 1123.526,942.326 1093.557,931.033 1082.627 C 912.435 1064.627,875.181 1037.858,861.787 1032.872 C 849.660 1028.357,833.237 1011.713,823.199 993.762 C 817.303 983.220,806.522 967.280,799.240 958.340 C 784.024 939.659,782.776 936.197,793.877 943.471 C 800.077 947.534,802.259 947.817,804.121 944.804 C 807.187 939.843,822.000 948.909,822.000 955.746 C 822.000 958.281,823.350 959.520,825.000 958.500 C 830.213 955.278,828.266 945.776,820.500 936.547 C 813.187 927.856,811.138 920.862,814.823 917.177 C 818.332 913.668,828.000 922.505,828.000 929.222 M705.000 927.000 C 705.000 931.000,707.000 933.000,711.000 933.000 C 715.000 933.000,717.000 931.000,717.000 927.000 C 717.000 923.000,715.000 921.000,711.000 921.000 C 707.000 921.000,705.000 923.000,705.000 927.000 M1825.057 931.508 C 1834.994 935.660,1835.709 936.787,1834.102 945.758 C 1827.477 982.754,1815.082 1015.311,1801.460 1031.500 C 1797.272 1036.478,1782.911 1049.090,1769.547 1059.525 C 1756.184 1069.961,1739.699 1083.048,1732.915 1088.606 L 1720.580 1098.712 1689.040 1097.391 C 1671.693 1096.664,1654.463 1094.432,1650.750 1092.429 C 1638.586 1085.869,1642.012 1075.259,1662.750 1055.261 C 1673.063 1045.316,1684.875 1035.050,1689.000 1032.446 C 1701.987 1024.249,1734.239 995.915,1770.498 960.848 C 1789.747 942.232,1807.469 927.000,1809.882 927.000 C 1812.294 927.000,1819.123 929.029,1825.057 931.508 M658.236 934.107 C 655.984 939.975,659.052 945.000,664.886 945.000 C 667.831 945.000,669.082 942.719,668.459 938.485 C 667.295 930.574,660.679 927.741,658.236 934.107 M802.300 936.287 C 808.827 942.378,800.584 942.100,792.908 935.970 C 784.561 929.305,784.555 929.272,792.000 931.465 C 796.125 932.680,800.760 934.850,802.300 936.287 M2088.000 939.739 C 2095.159 943.267,2094.864 943.477,2081.512 944.371 C 2063.788 945.557,2047.771 941.482,2046.618 935.493 C 2045.852 931.518,2048.178 931.230,2063.113 933.455 C 2072.676 934.879,2083.875 937.707,2088.000 939.739 M551.894 938.803 C 558.176 950.540,556.091 951.970,535.500 950.047 C 524.775 949.045,516.000 948.740,516.000 949.368 C 516.000 949.995,515.181 952.645,514.179 955.255 C 513.072 958.141,513.953 960.010,516.429 960.026 C 520.740 960.053,533.132 994.868,529.959 998.041 C 528.959 999.041,527.166 997.317,525.974 994.211 C 524.782 991.104,518.675 981.237,512.403 972.284 C 506.131 963.331,501.035 954.542,501.077 952.753 C 501.119 950.964,506.182 945.837,512.327 941.361 C 526.383 931.122,547.068 929.785,551.894 938.803 M585.000 940.500 C 585.000 942.975,587.025 945.000,589.500 945.000 C 591.975 945.000,594.000 942.975,594.000 940.500 C 594.000 938.025,591.975 936.000,589.500 936.000 C 587.025 936.000,585.000 938.025,585.000 940.500 M484.100 958.208 C 497.509 974.572,522.000 1010.881,522.000 1014.397 C 522.000 1015.829,519.203 1017.000,515.784 1017.000 C 508.293 1017.000,487.447 1028.830,465.000 1045.819 C 448.614 1058.221,436.601 1071.423,411.146 1105.004 C 382.840 1142.348,329.645 1184.976,297.606 1195.991 C 257.407 1209.810,232.030 1211.341,212.294 1201.135 C 203.372 1196.521,203.246 1196.130,204.870 1178.212 C 206.666 1158.405,214.664 1140.558,237.452 1105.500 C 244.960 1093.950,254.591 1078.930,258.854 1072.122 L 266.606 1059.743 296.053 1057.672 C 345.822 1054.171,398.819 1037.389,417.261 1019.291 C 423.544 1013.125,434.367 998.275,441.313 986.291 C 460.349 953.446,466.167 945.043,469.889 945.020 C 471.752 945.009,478.148 950.944,484.100 958.208 M2003.399 949.118 C 2017.146 956.106,2077.751 961.121,2102.341 957.306 C 2133.812 952.423,2139.000 952.837,2139.000 960.231 C 2139.000 963.658,2134.895 970.566,2129.878 975.583 C 2120.778 984.683,2120.691 984.702,2093.128 983.296 C 2074.399 982.340,2051.489 978.182,2022.000 970.385 C 1998.075 964.060,1972.539 958.798,1965.253 958.692 C 1957.694 958.582,1951.484 956.938,1950.790 954.861 C 1949.434 950.802,1956.907 948.579,1977.000 947.065 C 1984.425 946.506,1991.580 945.812,1992.899 945.524 C 1994.218 945.236,1998.943 946.853,2003.399 949.118 M795.000 970.929 C 795.000 973.854,785.738 979.669,784.821 977.321 C 784.644 976.869,782.138 972.003,779.250 966.507 C 771.459 951.677,772.802 949.788,784.500 959.122 C 790.275 963.730,795.000 969.043,795.000 970.929 M2166.000 985.601 C 2166.000 999.535,2164.908 1002.386,2157.030 1009.014 C 2145.988 1018.305,2118.955 1024.304,2098.855 1021.924 C 2080.568 1019.758,2039.429 1010.185,1999.500 998.803 C 1983.000 994.100,1966.800 989.846,1963.500 989.350 C 1959.442 988.740,1957.187 985.731,1956.534 980.053 L 1955.568 971.658 1967.034 977.475 C 1992.733 990.511,2078.571 1006.648,2107.029 1003.793 C 2116.671 1002.825,2130.491 999.410,2137.741 996.202 C 2149.263 991.106,2151.381 988.662,2154.551 976.808 C 2159.450 958.492,2166.000 963.523,2166.000 985.601 M757.500 969.000 C 758.639 970.843,753.791 971.982,744.927 971.954 C 734.506 971.921,731.750 971.101,735.000 969.000 C 740.903 965.185,755.142 965.185,757.500 969.000 M570.000 972.000 C 570.000 973.650,566.705 975.000,562.677 975.000 C 558.649 975.000,554.520 973.650,553.500 972.000 C 552.418 970.250,555.469 969.000,560.823 969.000 C 565.870 969.000,570.000 970.350,570.000 972.000 M584.266 999.509 C 587.987 1006.361,590.583 1012.417,590.034 1012.966 C 588.428 1014.572,564.000 992.805,564.000 989.766 C 564.000 988.245,567.038 987.011,570.750 987.025 C 575.568 987.042,579.436 990.615,584.266 999.509 M631.500 994.092 L 649.500 998.142 640.500 1001.834 C 623.288 1008.895,614.021 1008.953,605.249 1002.053 C 594.125 993.303,594.125 985.589,605.250 988.146 C 609.788 989.189,621.600 991.865,631.500 994.092 M796.305 990.315 C 793.565 994.749,753.700 1013.280,709.701 1030.573 C 669.360 1046.428,662.569 1046.736,634.703 1033.979 C 617.326 1026.023,613.147 1020.097,624.750 1019.865 C 628.463 1019.790,635.479 1018.032,640.342 1015.957 C 648.014 1012.684,649.901 1012.901,654.592 1017.592 C 657.567 1020.567,660.000 1024.206,660.000 1025.679 C 660.000 1032.727,669.704 1031.158,677.041 1022.923 C 681.414 1018.015,687.469 1014.000,690.496 1014.000 C 696.673 1014.000,698.058 1006.233,692.250 1004.163 C 690.188 1003.428,695.250 1002.875,703.500 1002.934 C 721.799 1003.065,765.143 996.745,781.500 991.560 C 797.382 986.526,798.716 986.414,796.305 990.315 M2324.250 1030.103 C 2358.777 1065.229,2361.000 1068.209,2361.000 1079.378 C 2361.000 1086.285,2359.115 1092.830,2356.500 1095.000 C 2351.454 1099.188,2350.369 1117.638,2355.000 1120.500 C 2356.650 1121.520,2358.000 1123.704,2358.000 1125.354 C 2358.000 1138.273,2314.770 1070.232,2290.739 1019.489 C 2283.183 1003.533,2277.000 989.648,2277.000 988.634 C 2277.000 983.905,2290.393 995.659,2324.250 1030.103 M672.000 996.000 C 672.000 997.650,670.650 999.000,669.000 999.000 C 667.350 999.000,666.000 997.650,666.000 996.000 C 666.000 994.350,667.350 993.000,669.000 993.000 C 670.650 993.000,672.000 994.350,672.000 996.000 M575.919 1023.302 C 580.195 1028.175,604.935 1041.835,620.267 1047.789 C 633.563 1052.952,643.669 1054.474,664.500 1054.451 C 689.642 1054.424,693.047 1053.651,713.990 1043.211 C 726.359 1037.045,738.509 1031.993,740.990 1031.984 C 743.470 1031.975,759.982 1024.599,777.681 1015.594 L 809.863 999.219 819.017 1012.524 C 827.935 1025.487,842.155 1036.997,869.887 1053.699 L 883.500 1061.898 862.250 1061.949 C 850.563 1061.977,840.390 1062.610,839.644 1063.356 C 838.898 1064.102,839.940 1086.040,841.960 1112.106 C 843.979 1138.173,845.715 1180.098,845.816 1205.273 L 846.000 1251.046 662.250 1250.273 L 478.500 1249.500 477.704 1161.000 C 477.266 1112.325,476.260 1070.719,475.469 1068.543 C 474.553 1066.025,471.569 1065.272,467.265 1066.473 C 461.768 1068.005,462.468 1066.634,471.000 1059.159 C 483.593 1048.124,510.566 1032.000,516.432 1032.000 C 524.166 1032.000,542.478 1014.207,544.576 1004.652 L 546.618 995.357 560.478 1008.429 C 568.101 1015.618,575.050 1022.311,575.919 1023.302 M663.000 999.000 C 663.000 1002.759,659.816 1002.759,654.000 999.000 C 650.361 996.648,650.792 996.083,656.250 996.046 C 659.963 996.021,663.000 997.350,663.000 999.000 M2049.000 1034.952 L 2071.500 1040.740 2042.192 1039.979 C 2016.038 1039.300,2012.164 1038.471,2006.192 1032.281 L 1999.500 1025.344 2013.000 1027.254 C 2020.425 1028.305,2036.625 1031.769,2049.000 1034.952 M1861.066 1085.912 C 1849.277 1098.335,1831.445 1118.757,1821.440 1131.293 C 1811.434 1143.829,1777.411 1179.301,1745.832 1210.118 C 1707.479 1247.546,1688.979 1267.619,1690.114 1270.575 C 1692.151 1275.884,1696.165 1276.160,1704.947 1271.591 C 1713.145 1267.327,1739.922 1245.331,1758.941 1227.238 L 1773.381 1213.500 1772.546 1233.000 C 1771.618 1254.655,1773.540 1260.000,1782.251 1260.000 C 1790.266 1260.000,1793.373 1250.453,1795.794 1218.384 C 1797.694 1193.214,1798.420 1190.981,1807.488 1182.427 C 1819.862 1170.757,1860.489 1118.188,1882.359 1085.551 C 1886.394 1079.529,1891.298 1074.067,1893.257 1073.414 C 1895.305 1072.732,1893.776 1070.334,1889.660 1067.775 C 1882.716 1063.457,1881.854 1064.003,1861.066 1085.912 M2238.482 1076.100 C 2233.583 1085.252,2233.793 1086.549,2245.369 1118.700 C 2283.154 1223.644,2289.321 1242.053,2287.616 1244.812 C 2286.368 1246.832,2250.374 1247.860,2183.372 1247.789 C 2074.070 1247.672,2069.814 1248.235,2074.250 1262.212 C 2075.987 1267.685,2080.027 1268.228,2132.308 1270.013 C 2163.214 1271.068,2271.188 1272.833,2372.250 1273.936 L 2556.000 1275.940 2556.000 1262.004 L 2556.000 1248.067 2433.849 1247.284 L 2311.698 1246.500 2300.043 1210.500 C 2282.388 1155.966,2276.962 1142.017,2258.732 1104.292 C 2243.441 1072.649,2241.657 1070.166,2238.482 1076.100 M891.510 1080.852 C 892.615 1082.626,893.608 1099.697,893.716 1118.789 C 893.824 1137.880,894.769 1175.438,895.817 1202.250 L 897.722 1251.000 879.776 1251.000 L 861.830 1251.000 859.931 1200.750 C 858.887 1173.113,857.180 1133.625,856.138 1113.000 L 854.242 1075.500 871.871 1076.564 C 881.567 1077.149,890.404 1079.078,891.510 1080.852 M462.959 1165.500 L 463.500 1249.500 447.750 1250.407 L 432.000 1251.314 432.000 1176.328 C 432.000 1105.203,432.329 1100.785,438.391 1090.511 C 443.743 1081.440,446.217 1079.826,453.601 1080.589 L 462.419 1081.500 462.959 1165.500 M1422.000 1264.103 L 1422.000 1278.000 1511.859 1278.000 C 1607.549 1278.000,1617.000 1276.777,1617.000 1264.390 C 1617.000 1258.521,1614.981 1257.518,1599.750 1255.819 C 1590.263 1254.761,1546.388 1253.066,1502.250 1252.051 L 1422.000 1250.207 1422.000 1264.103 M1921.500 1660.822 C 1909.950 1663.352,1899.218 1666.678,1897.650 1668.211 C 1896.083 1669.745,1892.445 1671.000,1889.566 1671.000 C 1873.927 1671.000,1821.022 1701.391,1795.987 1724.755 C 1783.240 1736.651,1765.693 1768.267,1768.205 1774.813 C 1771.201 1782.621,1776.316 1779.049,1782.615 1764.750 C 1796.587 1733.035,1845.668 1697.674,1896.000 1683.060 C 1926.067 1674.330,1939.140 1671.140,1940.259 1672.259 C 1941.719 1673.719,1928.542 1681.474,1917.000 1685.950 C 1889.621 1696.566,1854.705 1724.030,1805.072 1773.988 C 1759.429 1819.931,1749.588 1833.000,1760.636 1833.000 C 1766.283 1833.000,1793.081 1808.920,1818.000 1781.454 C 1850.312 1745.839,1867.471 1731.004,1897.500 1712.719 C 1928.343 1693.938,1955.166 1683.976,1981.500 1681.523 C 1993.050 1680.447,2009.158 1677.639,2017.295 1675.283 C 2037.128 1669.541,2093.500 1669.676,2116.620 1675.520 C 2140.722 1681.613,2170.884 1694.401,2185.500 1704.722 C 2192.100 1709.383,2200.544 1715.337,2204.265 1717.953 C 2209.712 1721.783,2211.904 1721.984,2215.515 1718.988 C 2227.268 1709.233,2213.458 1693.851,2176.626 1675.671 C 2141.591 1658.378,2121.303 1655.078,2064.000 1657.354 C 2008.320 1659.565,2009.972 1659.560,1971.000 1657.631 C 1951.683 1656.675,1935.734 1657.703,1921.500 1660.822 M541.500 1678.827 C 509.645 1686.485,472.940 1698.626,456.000 1707.108 C 415.653 1727.308,352.505 1776.788,336.817 1800.494 L 329.301 1811.852 331.476 1868.374 L 333.651 1924.896 319.076 1936.901 C 311.059 1943.504,299.100 1952.067,292.500 1955.930 C 277.747 1964.567,271.314 1971.772,263.653 1988.243 C 256.805 2002.965,258.117 2017.511,267.730 2033.444 C 275.412 2046.178,302.010 2068.236,327.771 2083.237 C 343.700 2092.513,347.228 2095.816,344.596 2098.987 C 342.764 2101.194,339.453 2103.000,337.237 2103.000 C 330.182 2103.000,312.491 2120.923,308.947 2131.660 C 301.961 2152.827,315.178 2176.487,335.873 2179.861 C 344.926 2181.337,347.481 2183.661,353.123 2195.547 C 370.103 2231.317,402.402 2279.473,422.772 2299.387 C 431.147 2307.575,438.000 2316.411,438.000 2319.023 C 438.000 2321.796,430.200 2327.874,419.250 2333.632 C 408.938 2339.056,384.300 2354.855,364.500 2368.741 C 344.700 2382.627,323.472 2397.362,317.326 2401.484 C 303.507 2410.753,298.735 2418.168,293.833 2437.982 L 290.003 2453.464 274.728 2451.887 C 259.525 2450.318,259.335 2450.406,233.977 2470.793 C 202.896 2495.780,155.482 2542.595,100.582 2602.500 C 77.900 2627.250,56.115 2650.473,52.171 2654.106 C 46.345 2659.473,45.000 2663.690,45.000 2676.588 L 45.000 2692.465 75.750 2660.758 C 92.663 2643.320,127.336 2606.878,152.802 2579.776 C 209.470 2519.467,209.440 2519.497,236.129 2496.764 C 266.565 2470.839,267.413 2470.502,285.969 2476.960 C 294.511 2479.933,307.124 2485.770,313.998 2489.932 C 329.170 2499.120,347.931 2521.974,347.971 2531.319 C 348.030 2545.079,268.697 2628.793,197.068 2690.555 L 182.635 2703.000 197.126 2703.000 C 209.844 2703.000,213.435 2701.440,226.472 2690.250 C 256.617 2664.376,331.565 2587.736,359.370 2554.351 C 368.307 2543.620,369.163 2540.897,368.428 2525.541 C 367.714 2510.626,368.513 2507.836,375.058 2502.391 C 383.585 2495.297,392.303 2494.444,403.614 2499.598 C 410.240 2502.617,411.233 2504.587,409.781 2511.844 C 408.830 2516.600,409.438 2523.081,411.131 2526.246 C 415.019 2533.510,429.000 2534.128,429.000 2527.035 C 429.000 2522.415,429.381 2522.415,434.486 2527.035 C 437.504 2529.766,443.006 2532.000,446.714 2532.000 C 453.328 2532.000,481.950 2552.087,493.215 2564.634 C 496.358 2568.136,500.200 2571.000,501.752 2571.000 C 503.304 2571.000,508.521 2573.811,513.345 2577.246 C 535.147 2592.770,603.874 2611.900,625.952 2608.589 C 640.627 2606.388,683.737 2589.567,708.938 2576.208 C 735.580 2562.085,756.535 2535.545,770.921 2497.707 C 773.477 2490.984,774.743 2490.431,781.607 2493.041 C 790.882 2496.567,800.250 2492.549,803.550 2483.628 C 805.470 2478.440,807.098 2479.756,815.859 2493.575 C 835.707 2524.879,850.107 2545.681,859.936 2557.242 C 867.588 2566.243,869.141 2569.920,866.592 2572.992 C 864.762 2575.196,861.588 2577.000,859.537 2577.000 C 852.506 2577.000,840.000 2589.387,840.000 2596.350 C 840.000 2604.326,843.060 2607.215,866.979 2621.821 C 876.598 2627.694,894.375 2639.367,906.484 2647.759 C 918.593 2656.152,938.625 2668.181,951.000 2674.491 C 963.375 2680.802,979.809 2689.872,987.519 2694.647 C 999.155 2701.853,1004.201 2703.174,1017.197 2702.415 L 1032.856 2701.500 1009.162 2686.095 C 996.130 2677.623,973.899 2664.640,959.760 2657.244 C 938.963 2646.365,886.729 2611.653,874.848 2600.816 C 873.380 2599.476,878.176 2591.280,885.597 2582.448 C 892.967 2573.677,906.897 2554.350,916.554 2539.500 C 926.210 2524.650,934.646 2511.827,935.301 2511.005 C 935.955 2510.182,938.441 2512.207,940.825 2515.505 C 955.840 2536.271,1043.847 2618.708,1062.523 2629.500 C 1065.378 2631.150,1081.955 2642.963,1099.361 2655.750 C 1116.767 2668.538,1131.681 2679.000,1132.504 2679.000 C 1133.327 2679.000,1134.000 2673.755,1134.000 2667.345 C 1134.000 2657.934,1132.411 2654.654,1125.750 2650.311 C 1121.213 2647.353,1099.275 2631.368,1077.000 2614.789 C 1029.177 2579.196,999.352 2551.729,956.431 2503.750 C 948.210 2494.561,943.752 2492.000,935.976 2492.000 C 925.393 2492.000,919.149 2497.731,903.835 2521.500 C 899.582 2528.100,895.157 2534.175,894.001 2535.000 C 892.844 2535.825,890.252 2539.625,888.240 2543.444 C 885.174 2549.262,883.835 2549.768,879.975 2546.565 C 876.088 2543.338,858.193 2518.637,847.507 2501.747 C 821.518 2460.670,795.183 2427.572,783.507 2421.313 C 779.212 2419.010,773.714 2415.143,771.291 2412.720 C 767.792 2409.221,761.592 2408.688,741.192 2410.131 C 727.062 2411.130,710.775 2410.748,705.000 2409.281 C 695.266 2406.809,695.813 2406.587,712.500 2406.247 C 751.674 2405.448,798.000 2393.586,798.000 2384.353 C 798.000 2377.873,807.788 2383.534,818.570 2396.250 C 838.373 2419.605,879.736 2469.469,891.982 2484.750 C 898.263 2492.588,904.565 2499.000,905.987 2499.000 C 910.967 2499.000,918.329 2489.184,916.643 2484.790 C 914.862 2480.149,899.817 2460.932,867.000 2421.379 C 856.275 2408.452,842.100 2391.316,835.500 2383.299 C 817.471 2361.397,810.217 2355.306,797.700 2351.556 C 788.892 2348.917,784.214 2349.012,777.059 2351.975 C 771.971 2354.083,767.107 2355.107,766.251 2354.251 C 765.394 2353.394,768.882 2351.234,774.002 2349.449 C 780.181 2347.295,783.006 2344.510,782.405 2341.163 C 781.809 2337.842,784.544 2335.087,790.427 2333.086 C 808.842 2326.821,843.331 2303.076,858.643 2286.122 C 867.364 2276.465,880.575 2259.066,888.000 2247.458 C 897.602 2232.445,903.343 2226.301,907.884 2226.176 C 911.395 2226.079,919.495 2223.754,925.884 2221.008 C 932.273 2218.263,943.575 2215.900,951.000 2215.758 L 964.500 2215.500 973.714 2188.857 C 981.940 2165.071,984.743 2160.567,999.848 2146.857 C 1016.988 2131.300,1039.852 2096.423,1036.483 2090.972 C 1035.473 2089.338,1024.196 2088.000,1011.423 2088.000 C 997.361 2088.000,986.780 2086.580,984.600 2084.400 C 982.620 2082.420,981.000 2075.198,981.000 2068.350 C 981.000 2049.540,995.407 2031.483,1025.979 2011.976 C 1037.630 2004.542,1041.046 1995.981,1033.516 1993.091 C 1030.807 1992.051,1018.357 1993.610,1005.851 1996.555 C 972.059 2004.513,968.142 2000.018,980.970 1968.000 C 998.476 1924.308,1005.000 1899.176,1005.000 1875.431 C 1005.000 1853.599,1003.682 1848.597,987.121 1807.552 C 977.288 1783.182,968.851 1762.851,968.371 1762.371 C 967.892 1761.892,955.083 1754.163,939.906 1745.195 C 890.754 1716.150,799.864 1689.000,751.781 1689.000 C 720.906 1689.000,704.143 1695.750,666.731 1723.248 C 661.343 1727.207,654.483 1729.780,651.435 1728.983 C 648.311 1728.166,640.404 1717.205,633.240 1703.760 C 626.271 1690.681,618.056 1678.635,614.982 1676.990 C 606.902 1672.666,562.512 1673.776,541.500 1678.827 M607.435 1704.750 C 616.143 1722.750,633.110 1743.149,643.491 1748.100 C 653.140 1752.701,654.551 1752.663,666.034 1747.485 C 672.771 1744.447,679.232 1740.507,680.392 1738.730 C 687.719 1727.503,717.061 1713.750,739.252 1711.142 C 771.596 1707.341,854.945 1729.357,920.120 1758.917 C 950.302 1772.606,947.082 1768.704,963.927 1812.000 C 985.703 1867.970,987.031 1875.414,980.628 1905.602 C 978.774 1914.346,971.349 1936.658,964.128 1955.184 C 945.290 2003.516,946.746 2019.000,970.126 2019.000 C 979.853 2019.000,982.819 2024.018,976.934 2030.520 C 974.374 2033.349,968.707 2043.468,964.339 2053.008 C 951.582 2080.874,959.353 2101.603,985.444 2109.307 C 992.900 2111.509,999.000 2114.194,999.000 2115.273 C 999.000 2116.353,991.913 2126.004,983.250 2136.718 C 974.588 2147.433,965.965 2158.742,964.089 2161.850 C 961.076 2166.841,960.441 2166.100,958.647 2155.500 C 955.145 2134.797,949.574 2122.772,941.349 2118.155 C 934.207 2114.146,932.284 2114.230,922.317 2118.983 C 909.643 2125.027,909.800 2127.481,920.833 2095.784 C 924.225 2086.041,927.000 2075.735,927.000 2072.882 C 927.000 2070.030,921.503 2063.152,914.785 2057.598 C 883.983 2032.135,876.802 2023.768,874.624 2010.802 C 870.972 1989.068,860.210 1983.039,798.000 1967.880 C 783.975 1964.463,767.775 1959.379,762.000 1956.583 C 751.017 1951.266,750.058 1949.111,732.827 1891.078 C 730.309 1882.596,725.222 1871.861,721.523 1867.222 C 714.862 1858.867,714.720 1858.838,706.632 1864.138 C 702.140 1867.081,688.565 1879.454,676.463 1891.634 C 656.390 1911.839,630.789 1930.953,617.108 1935.951 C 607.375 1939.506,554.175 1946.909,518.825 1949.626 C 479.611 1952.640,474.816 1954.504,429.000 1984.548 C 398.398 2004.616,364.530 2038.266,350.059 2062.980 C 346.477 2069.099,316.706 2052.448,297.363 2033.507 C 283.620 2020.050,282.000 2017.111,282.000 2005.636 C 282.000 1990.792,289.390 1979.580,304.379 1971.683 C 319.095 1963.929,341.363 1944.240,348.530 1932.642 C 354.495 1922.991,354.714 1920.259,352.275 1885.945 C 350.850 1865.900,349.643 1841.195,349.592 1831.045 C 349.501 1812.700,349.599 1812.488,366.000 1795.523 C 407.051 1753.064,459.725 1722.275,518.646 1706.300 C 549.524 1697.929,562.171 1695.818,584.109 1695.375 C 602.279 1695.009,602.830 1695.230,607.435 1704.750 M2226.750 1718.910 C 2217.457 1722.898,2218.278 1725.442,2228.250 1723.562 C 2253.301 1718.838,2295.412 1737.978,2325.760 1767.881 C 2348.594 1790.380,2361.818 1812.526,2368.629 1839.671 C 2374.666 1863.732,2372.890 1874.160,2362.304 1876.817 C 2350.025 1879.899,2354.220 1888.338,2368.525 1889.331 C 2403.976 1891.790,2426.553 1922.426,2423.249 1963.589 C 2421.680 1983.140,2413.908 2002.422,2399.102 2023.500 C 2388.675 2038.345,2352.589 2076.000,2348.791 2076.000 C 2347.256 2076.000,2345.992 2072.963,2345.982 2069.250 C 2345.973 2065.538,2341.931 2047.650,2337.000 2029.500 C 2331.941 2010.876,2328.028 1988.985,2328.018 1979.250 C 2327.999 1961.482,2326.284 1959.496,2315.803 1965.106 C 2305.471 1970.635,2308.743 2002.698,2326.464 2069.590 C 2329.245 2080.089,2330.391 2089.710,2329.010 2090.969 C 2327.630 2092.229,2318.776 2096.092,2309.337 2099.555 C 2299.897 2103.018,2284.937 2109.935,2276.094 2114.926 C 2267.250 2119.916,2259.297 2124.000,2258.420 2124.000 C 2257.544 2124.000,2255.955 2116.591,2254.891 2107.536 C 2247.815 2047.330,2193.466 2006.805,2136.120 2018.975 C 2103.889 2025.814,2073.955 2051.581,2060.914 2083.711 C 2055.523 2096.995,2053.203 2099.841,2049.336 2097.912 C 2046.676 2096.585,2034.713 2095.704,2022.750 2095.953 C 2006.103 2096.300,2001.000 2095.441,2001.000 2092.292 C 2001.000 2083.159,1985.731 2055.845,1974.964 2045.716 C 1958.337 2030.075,1944.905 2022.997,1924.189 2018.960 C 1869.361 2008.276,1815.076 2048.269,1806.806 2105.439 L 1804.500 2121.379 1779.265 2100.055 C 1765.385 2088.326,1752.237 2079.418,1750.045 2080.259 C 1743.431 2082.797,1741.950 2068.254,1745.968 2040.224 C 1748.035 2025.803,1749.190 2008.383,1748.535 2001.512 C 1747.366 1989.255,1747.542 1988.987,1757.922 1987.265 C 1816.698 1977.512,1890.976 1934.084,1925.161 1889.484 C 1948.944 1858.456,1957.817 1835.663,1945.929 1836.136 C 1944.043 1836.212,1935.750 1847.076,1927.500 1860.280 C 1913.783 1882.232,1885.791 1911.983,1864.067 1927.697 C 1834.335 1949.204,1793.957 1965.734,1747.731 1975.324 C 1718.633 1981.361,1705.697 1989.000,1724.573 1989.000 C 1729.563 1989.000,1734.437 1990.280,1735.403 1991.844 C 1737.391 1995.060,1731.604 2046.844,1728.241 2055.935 C 1726.256 2061.301,1724.622 2060.470,1711.044 2047.182 C 1681.800 2018.564,1658.959 1980.528,1650.013 1945.550 C 1642.727 1917.061,1642.458 1899.523,1648.870 1871.092 C 1659.818 1822.556,1679.262 1801.432,1711.086 1803.499 L 1726.500 1804.500 1726.500 1792.541 C 1726.500 1779.150,1719.586 1774.958,1710.527 1782.857 C 1707.762 1785.268,1700.597 1788.117,1694.604 1789.190 C 1669.689 1793.647,1646.117 1820.342,1634.725 1857.000 C 1627.238 1881.090,1626.537 1922.241,1633.143 1949.911 C 1641.722 1985.851,1666.505 2026.497,1701.255 2061.623 C 1727.546 2088.198,1732.793 2100.733,1721.794 2110.686 C 1714.294 2117.474,1707.000 2133.892,1707.000 2143.986 C 1707.000 2164.035,1732.944 2190.000,1752.976 2190.000 C 1758.879 2190.000,1762.780 2192.895,1768.135 2201.250 C 1777.795 2216.321,1791.786 2228.888,1813.500 2241.995 C 1833.296 2253.945,1862.589 2264.974,1874.720 2265.046 C 1889.399 2265.133,1891.348 2268.984,1883.226 2281.855 C 1879.184 2288.260,1874.940 2296.454,1873.795 2300.063 C 1871.843 2306.220,1870.425 2306.519,1850.916 2304.883 C 1826.159 2302.808,1806.259 2308.979,1797.389 2321.484 C 1793.893 2326.413,1790.268 2339.899,1787.978 2356.500 L 1784.253 2383.500 1767.376 2396.946 C 1725.400 2430.391,1676.883 2473.249,1664.761 2487.594 C 1638.759 2518.366,1617.174 2558.451,1608.543 2592.000 L 1602.754 2614.500 1495.877 2615.288 L 1389.000 2616.076 1389.000 2623.046 L 1389.000 2630.016 1608.750 2632.013 C 1782.241 2633.590,1831.026 2634.871,1840.500 2638.099 C 1858.620 2644.274,2043.378 2650.615,2112.461 2647.433 C 2142.732 2646.038,2176.275 2644.727,2187.000 2644.518 C 2197.900 2644.306,2211.623 2641.903,2218.116 2639.069 C 2228.509 2634.534,2245.422 2634.000,2378.616 2634.004 C 2523.436 2634.008,2555.127 2635.654,2583.438 2644.639 C 2587.852 2646.040,2589.000 2644.840,2589.000 2638.823 C 2589.000 2632.121,2586.650 2630.468,2568.750 2624.577 C 2552.283 2619.158,2539.698 2617.685,2501.377 2616.695 L 2454.253 2615.477 2460.386 2608.989 C 2468.625 2600.271,2467.001 2575.095,2456.896 2554.905 C 2446.940 2535.012,2415.740 2500.731,2385.083 2476.002 C 2371.104 2464.726,2347.263 2443.688,2332.104 2429.250 C 2304.767 2403.215,2292.477 2396.326,2296.613 2409.355 C 2302.535 2428.014,2272.515 2391.643,2256.702 2361.000 C 2245.192 2338.696,2230.120 2318.922,2221.442 2314.740 C 2216.461 2312.340,2201.948 2309.430,2189.192 2308.274 L 2166.000 2306.172 2166.000 2296.282 C 2166.000 2290.842,2164.683 2282.928,2163.074 2278.695 C 2161.465 2274.463,2161.128 2270.995,2162.324 2270.989 C 2177.395 2270.909,2221.289 2260.534,2235.930 2253.589 C 2254.208 2244.921,2282.313 2220.546,2292.819 2204.250 C 2297.328 2197.256,2300.198 2196.000,2311.666 2196.000 C 2337.868 2196.000,2357.437 2182.852,2365.578 2159.778 C 2370.924 2144.627,2369.386 2134.124,2359.108 2115.599 C 2350.093 2099.351,2350.916 2097.658,2384.203 2064.000 C 2436.441 2011.179,2453.479 1960.614,2433.798 1916.816 C 2426.463 1900.495,2408.206 1881.961,2397.049 1879.511 C 2389.097 1877.764,2388.713 1876.820,2387.354 1855.632 C 2384.138 1805.527,2344.335 1751.632,2291.575 1725.946 C 2274.035 1717.406,2239.092 1713.613,2226.750 1718.910 M1951.657 1748.745 C 1947.001 1756.280,1966.641 1847.788,1976.102 1862.641 C 1991.864 1887.385,2025.367 1910.276,2064.693 1923.170 C 2096.818 1933.702,2158.332 1945.383,2197.820 1948.448 C 2221.878 1950.316,2225.371 1949.965,2227.080 1945.514 C 2230.156 1937.498,2227.227 1935.725,2207.255 1933.514 C 2184.693 1931.016,2125.332 1921.324,2104.500 1916.736 C 2088.462 1913.204,2047.226 1898.317,2032.674 1890.806 C 2018.895 1883.693,1992.013 1856.805,1986.973 1845.093 C 1977.392 1822.832,1970.825 1801.155,1967.914 1782.186 C 1963.051 1750.491,1961.751 1746.000,1957.439 1746.000 C 1955.192 1746.000,1952.591 1747.235,1951.657 1748.745 M711.201 1898.030 C 712.881 1902.446,716.945 1916.099,720.233 1928.368 C 723.521 1940.638,729.535 1955.035,733.598 1960.361 C 741.666 1970.939,765.302 1981.142,802.500 1990.103 C 833.160 1997.490,849.927 2006.558,853.154 2017.500 C 859.578 2039.282,862.672 2043.979,877.209 2054.013 L 892.500 2064.567 870.000 2062.613 C 857.625 2061.538,842.373 2059.878,836.107 2058.923 L 824.715 2057.188 825.355 2039.448 C 826.334 2012.324,826.271 2012.295,762.520 2010.622 C 732.930 2009.846,702.602 2010.128,695.125 2011.249 C 677.602 2013.877,666.000 2024.896,666.000 2038.909 C 666.000 2050.452,665.109 2050.623,623.489 2047.105 L 601.072 2045.210 602.355 2029.737 C 603.264 2018.774,602.399 2013.236,599.385 2010.734 C 597.046 2008.793,579.690 2005.602,560.816 2003.643 C 523.242 1999.744,472.269 2003.126,457.116 2010.524 C 448.507 2014.727,441.622 2029.274,441.228 2044.091 C 441.002 2052.592,440.852 2052.661,426.750 2050.728 C 418.913 2049.654,406.763 2047.997,399.750 2047.047 C 392.738 2046.096,387.000 2044.409,387.000 2043.297 C 387.000 2039.833,414.765 2014.524,430.500 2003.643 C 473.488 1973.918,474.581 1973.511,518.881 1970.719 C 576.753 1967.073,612.598 1960.873,630.999 1951.327 C 649.764 1941.593,684.737 1913.567,695.141 1899.927 C 704.312 1887.902,707.220 1887.559,711.201 1898.030 M579.779 2027.579 C 581.032 2028.832,580.907 2043.467,579.500 2060.101 C 578.094 2076.735,577.589 2094.745,578.378 2100.123 L 579.813 2109.902 532.157 2107.832 C 505.945 2106.694,480.113 2104.991,474.750 2104.048 L 465.000 2102.332 465.000 2065.350 L 465.000 2028.368 479.250 2026.448 C 487.088 2025.392,494.850 2023.969,496.500 2023.286 C 501.491 2021.220,577.329 2025.129,579.779 2027.579 M767.250 2030.617 L 804.000 2031.000 803.979 2057.250 C 803.967 2071.688,803.097 2092.613,802.045 2103.750 L 800.132 2124.000 747.316 2123.954 C 718.267 2123.929,692.625 2122.721,690.334 2121.270 C 687.305 2119.352,685.763 2108.798,684.684 2082.612 C 682.644 2033.066,683.174 2031.535,702.768 2030.406 C 711.421 2029.908,721.200 2029.665,724.500 2029.867 C 727.800 2030.069,747.038 2030.407,767.250 2030.617 M1943.868 2042.934 C 1970.577 2056.416,1988.811 2085.123,1988.934 2113.884 C 1989.040 2138.627,1975.024 2165.230,1952.379 2183.265 C 1920.446 2208.698,1867.998 2207.721,1844.081 2181.248 C 1829.791 2165.431,1826.477 2158.684,1822.348 2137.000 C 1814.373 2095.125,1832.846 2055.966,1867.541 2041.195 C 1896.412 2028.903,1917.003 2029.372,1943.868 2042.934 M2192.579 2042.175 C 2233.239 2062.737,2252.298 2115.149,2233.115 2153.646 C 2224.119 2171.698,2201.843 2191.095,2184.610 2195.881 C 2170.133 2199.902,2147.960 2199.832,2131.606 2195.714 C 2105.547 2189.152,2073.771 2151.523,2068.515 2121.000 C 2067.328 2114.108,2068.787 2104.503,2072.761 2093.048 C 2091.028 2040.396,2144.319 2017.769,2192.579 2042.175 M518.250 2067.240 C 512.140 2070.799,511.064 2087.864,516.600 2093.400 C 521.798 2098.598,529.321 2097.828,535.035 2091.514 C 541.549 2084.316,541.336 2075.139,534.514 2068.965 C 528.215 2063.265,525.559 2062.983,518.250 2067.240 M422.250 2071.934 L 441.000 2073.868 441.000 2094.365 C 441.000 2112.317,441.838 2115.408,447.750 2119.263 C 459.425 2126.876,479.872 2129.841,534.000 2131.770 C 576.440 2133.283,587.545 2132.841,591.952 2129.464 C 596.317 2126.118,597.755 2119.397,599.166 2095.753 L 600.928 2066.221 626.714 2067.796 C 664.295 2070.093,663.000 2068.943,663.000 2099.989 C 663.000 2143.006,666.713 2144.819,755.032 2144.928 L 812.565 2145.000 818.782 2137.095 C 823.897 2130.593,825.000 2124.929,825.000 2105.157 L 825.000 2081.123 863.183 2083.245 C 884.184 2084.412,901.847 2085.847,902.434 2086.434 C 903.021 2087.021,900.937 2093.351,897.803 2100.501 C 894.670 2107.650,890.323 2119.941,888.145 2127.813 C 884.573 2140.722,884.712 2142.709,889.557 2148.063 C 897.406 2156.736,904.652 2155.367,913.703 2143.500 C 923.509 2130.644,931.346 2130.099,937.423 2141.851 C 943.791 2154.165,943.621 2178.000,937.166 2178.000 C 933.279 2178.000,932.713 2180.029,934.275 2188.355 C 936.165 2198.428,935.886 2198.799,924.062 2201.983 C 916.029 2204.146,908.431 2204.296,901.656 2202.426 C 890.604 2199.374,888.059 2200.359,887.894 2207.750 C 887.783 2212.737,871.579 2240.118,856.676 2260.500 C 845.210 2276.183,816.713 2300.506,799.641 2309.183 C 790.722 2313.715,785.458 2318.615,784.224 2323.533 C 782.007 2332.366,774.000 2333.604,774.000 2325.113 C 774.000 2313.786,761.858 2286.914,751.019 2274.251 C 738.437 2259.553,709.556 2244.307,678.788 2236.124 C 649.615 2228.364,591.002 2228.949,562.500 2237.284 C 523.569 2248.669,491.610 2266.498,466.957 2290.581 L 455.415 2301.857 444.876 2290.179 C 418.823 2261.307,399.628 2233.706,379.598 2196.315 C 364.909 2168.895,364.068 2167.972,348.557 2162.284 C 321.531 2152.372,320.587 2132.953,346.518 2120.354 C 363.768 2111.974,377.148 2091.619,371.878 2081.773 C 366.908 2072.486,375.903 2066.365,391.500 2068.419 C 398.100 2069.289,411.938 2070.870,422.250 2071.934 M724.714 2071.714 C 717.604 2078.825,719.612 2094.160,728.058 2097.259 C 738.341 2101.031,750.584 2089.935,749.414 2077.903 C 748.627 2069.804,747.201 2068.374,739.126 2067.588 C 733.334 2067.024,727.827 2068.601,724.714 2071.714 M2134.364 2086.364 C 2128.455 2092.272,2127.000 2096.775,2127.000 2109.151 C 2127.000 2136.230,2145.208 2151.252,2165.383 2140.819 C 2181.248 2132.615,2183.613 2096.230,2169.048 2084.436 C 2159.285 2076.530,2143.310 2077.418,2134.364 2086.364 M1890.784 2086.588 C 1875.965 2096.968,1876.362 2130.306,1891.422 2140.173 C 1912.188 2153.779,1938.000 2138.166,1938.000 2112.000 C 1938.000 2100.784,1931.042 2086.426,1924.366 2083.864 C 1915.510 2080.465,1897.432 2081.932,1890.784 2086.588 M2162.400 2094.600 C 2168.533 2100.733,2166.837 2122.313,2159.716 2128.757 C 2153.509 2134.374,2153.343 2134.341,2146.216 2126.055 C 2138.542 2117.133,2137.020 2106.305,2142.106 2096.803 C 2145.577 2090.316,2156.889 2089.089,2162.400 2094.600 M1921.330 2100.668 C 1926.968 2108.717,1927.330 2118.161,1922.250 2124.624 C 1911.392 2138.437,1891.829 2130.070,1892.348 2111.834 C 1892.835 2094.702,1911.984 2087.324,1921.330 2100.668 M1790.537 2132.894 C 1802.362 2142.870,1808.904 2151.673,1816.173 2167.394 C 1826.040 2188.733,1835.289 2198.287,1857.000 2209.565 C 1864.884 2213.661,1874.315 2215.029,1894.855 2215.055 C 1918.788 2215.086,1924.363 2214.037,1939.430 2206.666 C 1969.103 2192.148,1996.792 2156.706,2003.433 2124.742 C 2005.597 2114.327,2006.743 2113.331,2019.175 2111.059 C 2035.097 2108.151,2048.986 2112.392,2049.029 2120.176 C 2049.077 2128.787,2062.637 2155.453,2075.907 2173.028 C 2097.090 2201.085,2121.057 2213.908,2153.431 2214.506 C 2164.601 2214.712,2179.087 2213.138,2185.620 2211.007 C 2210.081 2203.030,2237.515 2178.579,2247.899 2155.500 C 2251.980 2146.432,2257.843 2140.783,2271.899 2132.378 C 2289.759 2121.698,2315.771 2110.771,2318.007 2113.007 C 2319.370 2114.370,2312.240 2132.029,2300.245 2157.000 C 2271.940 2215.924,2237.574 2243.624,2182.500 2251.906 C 2153.228 2256.307,2155.896 2257.087,2144.006 2240.654 C 2137.796 2232.071,2113.850 2217.868,2101.500 2215.441 C 2094.900 2214.145,2075.325 2212.277,2058.000 2211.292 L 2026.500 2209.500 2025.000 2190.027 C 2023.810 2174.572,2022.415 2170.348,2018.241 2169.555 C 2011.872 2168.346,2010.595 2171.357,2007.727 2194.350 L 2005.500 2212.201 1981.500 2215.651 C 1956.260 2219.280,1928.777 2231.002,1911.579 2245.473 C 1902.618 2253.013,1901.576 2253.187,1884.221 2250.040 C 1856.468 2245.008,1830.034 2233.595,1807.299 2216.830 C 1791.003 2204.814,1783.440 2195.281,1780.310 2182.812 C 1778.651 2176.203,1776.667 2174.990,1767.425 2174.934 C 1749.478 2174.826,1731.487 2164.899,1726.169 2152.170 C 1720.671 2139.012,1722.608 2129.119,1732.647 2119.080 C 1741.977 2109.751,1745.141 2111.724,1747.647 2128.435 C 1750.067 2144.574,1756.080 2153.993,1760.920 2149.228 C 1763.286 2146.899,1763.365 2142.139,1761.196 2132.728 C 1759.519 2125.452,1758.114 2116.342,1758.073 2112.483 L 1758.000 2105.467 1766.331 2112.483 C 1770.912 2116.342,1781.805 2125.527,1790.537 2132.894 M2343.514 2125.965 C 2347.374 2129.458,2349.000 2135.188,2349.000 2145.298 C 2349.000 2163.116,2340.491 2174.193,2323.948 2177.909 C 2313.067 2180.354,2312.485 2180.126,2313.932 2174.002 C 2316.257 2164.171,2334.567 2121.000,2336.413 2121.000 C 2337.301 2121.000,2340.496 2123.234,2343.514 2125.965 M595.050 2161.505 L 578.011 2196.009 589.755 2206.380 C 606.884 2221.505,621.000 2220.064,621.000 2203.190 C 621.000 2200.815,617.625 2197.334,613.500 2195.454 C 603.530 2190.911,604.022 2185.219,616.485 2160.932 C 622.252 2149.694,626.977 2138.860,626.985 2136.856 C 626.998 2133.620,618.102 2127.000,613.741 2127.000 C 612.832 2127.000,604.421 2142.527,595.050 2161.505 M2010.000 2237.427 C 2010.000 2248.493,2016.687 2257.529,2023.066 2255.082 C 2026.549 2253.745,2028.000 2249.523,2028.000 2240.724 L 2028.000 2228.260 2063.622 2229.531 C 2094.236 2230.622,2101.296 2231.856,2113.835 2238.309 C 2122.290 2242.660,2131.850 2250.798,2136.568 2257.659 C 2144.136 2268.666,2155.254 2305.545,2152.397 2310.166 C 2151.702 2311.291,2145.579 2313.100,2138.791 2314.185 C 2120.770 2317.067,2103.245 2326.964,2099.713 2336.256 C 2095.527 2347.264,2098.722 2357.547,2107.583 2361.584 C 2117.177 2365.955,2116.951 2367.401,2105.299 2376.186 C 2077.493 2397.151,2042.888 2409.048,2010.060 2408.929 C 1991.125 2408.861,1948.387 2399.587,1943.227 2394.427 C 1941.833 2393.033,1944.136 2389.635,1948.346 2386.877 C 1967.034 2374.632,1947.007 2341.318,1908.000 2319.760 C 1897.275 2313.833,1888.086 2308.686,1887.580 2308.322 C 1884.713 2306.259,1900.844 2279.537,1911.735 2268.306 C 1935.872 2243.417,1963.387 2231.540,2001.750 2229.449 C 2008.899 2229.060,2010.000 2230.125,2010.000 2237.427 M677.213 2257.487 C 699.823 2264.284,720.793 2275.471,731.554 2286.477 C 741.126 2296.268,751.574 2318.777,749.473 2325.081 C 748.688 2327.437,737.925 2328.751,716.956 2329.051 L 685.612 2329.500 683.862 2340.000 C 682.899 2345.775,680.375 2353.702,678.254 2357.617 C 676.132 2361.531,675.127 2368.387,676.020 2372.852 C 677.171 2378.603,675.946 2382.425,671.822 2385.956 C 668.620 2388.698,666.000 2392.208,666.000 2393.756 C 666.000 2398.751,675.250 2406.000,681.623 2406.000 C 687.421 2406.000,687.302 2406.516,679.763 2414.055 C 674.357 2419.461,672.003 2424.640,672.604 2429.805 C 673.490 2437.410,673.843 2437.510,702.750 2438.359 C 738.751 2439.415,741.605 2444.243,711.750 2453.582 C 665.634 2468.006,631.025 2473.089,577.500 2473.300 C 533.391 2473.473,523.550 2472.616,504.668 2466.958 C 457.370 2452.785,449.225 2443.944,473.748 2433.395 C 498.014 2422.955,520.943 2421.909,544.351 2430.173 C 562.647 2436.632,564.498 2436.788,569.028 2432.258 C 573.558 2427.727,573.540 2426.772,568.788 2419.519 C 565.962 2415.206,561.705 2410.931,559.328 2410.019 C 555.896 2408.702,556.551 2406.523,562.503 2399.450 C 570.791 2389.600,571.328 2386.227,567.136 2370.348 C 565.561 2364.382,563.496 2355.730,562.547 2351.122 C 561.598 2346.513,558.499 2341.917,555.661 2340.907 C 552.822 2339.897,547.760 2335.780,544.410 2331.757 C 538.675 2324.869,536.374 2324.415,504.908 2323.971 C 486.530 2323.712,470.550 2322.554,469.396 2321.399 C 468.242 2320.243,470.493 2315.370,474.399 2310.569 C 494.986 2285.266,548.128 2257.879,586.500 2252.798 C 611.733 2249.456,658.549 2251.876,677.213 2257.487 M1890.359 2331.888 C 1907.886 2340.234,1922.341 2350.659,1919.845 2353.155 C 1918.984 2354.016,1909.531 2351.544,1898.839 2347.663 C 1862.610 2334.513,1826.492 2334.852,1824.541 2348.361 C 1823.628 2354.688,1824.599 2355.000,1845.233 2355.000 C 1872.574 2355.000,1911.000 2367.484,1911.000 2376.367 C 1911.000 2380.897,1897.087 2379.253,1882.500 2373.000 C 1862.460 2364.410,1841.955 2364.968,1833.148 2374.343 C 1829.354 2378.381,1826.250 2385.416,1826.250 2389.976 C 1826.250 2399.478,1833.212 2405.198,1853.150 2412.078 L 1866.417 2416.656 1845.071 2431.241 C 1823.388 2446.057,1798.826 2454.026,1792.952 2448.152 C 1791.107 2446.307,1791.368 2437.926,1793.676 2424.884 C 1795.661 2413.673,1799.195 2389.860,1801.530 2371.967 C 1803.865 2354.074,1806.619 2336.774,1807.651 2333.523 C 1810.554 2324.378,1820.269 2321.889,1848.359 2323.093 C 1868.312 2323.949,1877.904 2325.958,1890.359 2331.888 M2216.284 2331.650 C 2218.508 2333.496,2221.800 2337.818,2223.600 2341.253 C 2226.815 2347.390,2226.762 2347.402,2220.600 2341.933 C 2215.349 2337.273,2208.797 2336.295,2180.413 2335.933 C 2161.761 2335.695,2142.450 2336.601,2137.500 2337.947 C 2129.331 2340.169,2128.929 2339.958,2133.139 2335.666 C 2142.610 2326.011,2205.810 2322.958,2216.284 2331.650 M489.000 2348.973 C 504.893 2351.184,504.543 2351.282,479.495 2351.634 C 449.328 2352.059,444.000 2353.524,444.000 2361.395 C 444.000 2369.526,455.468 2372.996,482.445 2373.026 C 495.125 2373.040,512.868 2373.937,521.874 2375.018 C 548.201 2378.178,531.564 2381.550,488.464 2381.789 C 458.089 2381.958,449.479 2382.949,445.714 2386.714 C 435.354 2397.075,442.496 2403.573,466.979 2406.062 C 478.265 2407.209,485.475 2408.341,483.000 2408.576 C 480.525 2408.812,469.990 2413.031,459.588 2417.951 C 439.943 2427.245,424.043 2438.699,381.155 2474.450 L 355.810 2495.577 346.024 2486.985 C 340.642 2482.259,330.040 2474.760,322.464 2470.320 C 307.561 2461.587,307.282 2460.174,315.316 2434.148 C 318.719 2423.122,346.656 2402.148,409.500 2363.436 C 443.871 2342.264,442.533 2342.507,489.000 2348.973 M748.500 2351.828 C 759.613 2354.127,759.004 2354.335,740.250 2354.655 C 728.520 2354.855,720.000 2353.738,720.000 2352.000 C 720.000 2348.447,731.811 2348.376,748.500 2351.828 M2243.816 2373.569 C 2250.951 2385.631,2263.531 2404.668,2271.771 2415.874 C 2280.010 2427.080,2285.935 2437.065,2284.937 2438.063 C 2283.939 2439.061,2277.723 2436.305,2271.125 2431.939 C 2264.527 2427.573,2258.484 2424.000,2257.696 2424.000 C 2256.909 2424.000,2249.621 2420.083,2241.502 2415.296 C 2233.383 2410.509,2218.474 2403.578,2208.370 2399.894 C 2180.255 2389.643,2183.556 2385.445,2223.000 2381.290 C 2227.242 2380.843,2230.500 2378.583,2230.500 2376.089 C 2230.500 2368.151,2216.376 2364.090,2188.607 2364.044 C 2162.982 2364.002,2161.963 2363.753,2166.999 2358.750 C 2171.390 2354.387,2177.093 2353.606,2200.744 2354.129 C 2221.035 2354.578,2228.612 2353.799,2227.139 2351.416 C 2226.003 2349.577,2226.371 2348.875,2227.957 2349.856 C 2229.544 2350.836,2236.680 2361.507,2243.816 2373.569 M754.247 2375.591 C 755.128 2377.016,748.795 2379.029,740.174 2380.065 C 710.688 2383.607,699.079 2381.506,726.000 2377.500 C 733.425 2376.395,740.063 2374.931,740.750 2374.246 C 743.013 2371.990,752.613 2372.947,754.247 2375.591 M779.514 2376.092 C 776.371 2377.927,771.936 2377.963,767.514 2376.191 C 761.379 2373.733,762.004 2373.368,772.500 2373.281 C 781.650 2373.206,783.316 2373.874,779.514 2376.092 M1874.763 2385.794 C 1888.687 2392.898,1885.781 2397.000,1866.823 2397.000 C 1847.070 2397.000,1833.756 2390.619,1842.000 2385.103 C 1848.208 2380.949,1866.002 2381.324,1874.763 2385.794 M2163.000 2388.000 C 2160.525 2389.599,2155.800 2390.834,2152.500 2390.743 L 2146.500 2390.578 2152.500 2388.000 C 2155.800 2386.582,2160.525 2385.347,2163.000 2385.257 C 2167.000 2385.110,2167.000 2385.415,2163.000 2388.000 M2119.470 2402.822 C 2121.003 2411.897,2122.981 2414.860,2127.984 2415.572 C 2146.059 2418.146,2127.414 2449.424,2105.737 2452.890 C 2099.351 2453.911,2091.735 2456.561,2088.813 2458.778 C 2084.021 2462.414,2084.473 2462.819,2093.427 2462.905 C 2098.887 2462.957,2102.643 2464.151,2101.773 2465.558 C 2100.903 2466.966,2086.986 2468.958,2070.846 2469.987 C 2054.706 2471.015,2036.100 2472.591,2029.500 2473.488 C 2017.836 2475.074,2017.248 2474.718,2008.500 2460.810 C 1996.755 2442.135,1986.608 2438.423,1953.437 2440.668 C 1932.386 2442.092,1927.464 2441.540,1922.687 2437.217 C 1916.172 2431.321,1915.240 2418.554,1920.772 2410.988 C 1924.304 2406.158,1925.692 2406.294,1942.522 2413.113 C 1985.917 2430.697,2039.840 2429.739,2080.366 2410.666 C 2091.990 2405.195,2104.200 2398.575,2107.500 2395.955 C 2116.166 2389.074,2117.253 2389.698,2119.470 2402.822 M1777.577 2423.250 C 1775.027 2440.524,1766.199 2455.703,1755.460 2461.278 C 1746.412 2465.976,1706.056 2507.202,1667.250 2551.391 C 1642.722 2579.322,1635.725 2592.000,1644.837 2592.000 C 1649.273 2592.000,1675.805 2565.049,1705.380 2530.500 C 1727.045 2505.190,1761.394 2470.961,1771.500 2464.608 C 1775.516 2462.084,1784.723 2461.308,1799.343 2462.262 C 1819.968 2463.608,1821.079 2464.045,1819.268 2470.094 C 1815.822 2481.604,1784.699 2519.758,1759.839 2542.948 C 1721.544 2578.669,1682.397 2603.564,1651.987 2611.535 C 1638.686 2615.021,1635.547 2614.978,1629.750 2611.228 C 1621.719 2606.033,1621.859 2607.839,1627.700 2584.933 C 1634.233 2559.315,1654.691 2524.656,1681.500 2493.789 C 1694.921 2478.336,1773.052 2409.050,1777.091 2409.020 C 1778.515 2409.009,1778.734 2415.413,1777.577 2423.250 M2172.758 2422.648 C 2173.604 2430.155,2175.071 2437.071,2176.019 2438.019 C 2179.654 2441.654,2187.002 2435.873,2187.046 2429.344 C 2187.139 2415.503,2190.531 2414.478,2210.436 2422.279 C 2220.655 2426.284,2239.147 2435.711,2251.529 2443.228 C 2263.911 2450.746,2277.292 2457.712,2281.265 2458.709 C 2285.533 2459.780,2290.037 2464.262,2292.274 2469.662 C 2299.118 2486.184,2318.152 2506.976,2354.092 2537.189 C 2402.827 2578.159,2409.000 2581.720,2409.000 2568.864 C 2409.000 2564.195,2403.073 2558.044,2377.812 2536.500 C 2327.151 2493.294,2317.751 2483.750,2304.096 2461.655 C 2299.062 2453.510,2298.350 2449.951,2300.830 2445.318 C 2302.573 2442.060,2304.000 2436.602,2304.000 2433.189 C 2304.000 2428.030,2305.899 2429.090,2315.250 2439.468 C 2321.438 2446.335,2342.025 2464.410,2361.000 2479.637 C 2406.879 2516.452,2430.305 2542.362,2442.372 2569.641 C 2450.475 2587.961,2447.230 2596.192,2429.850 2601.399 C 2413.780 2606.214,2385.612 2601.659,2355.383 2589.357 C 2322.056 2575.794,2306.261 2565.522,2247.442 2519.158 C 2224.444 2501.030,2218.577 2497.753,2212.970 2499.904 C 2209.486 2501.242,2208.000 2505.410,2208.000 2513.850 C 2208.000 2520.470,2204.562 2540.551,2200.359 2558.472 L 2192.718 2591.057 2132.109 2593.020 C 2057.372 2595.442,1906.329 2595.097,1884.000 2592.453 L 1867.500 2590.500 1867.500 2574.642 C 1867.500 2564.100,1866.057 2557.892,1863.193 2556.121 C 1859.713 2553.969,1859.607 2552.589,1862.636 2548.938 C 1864.699 2546.452,1865.963 2539.262,1865.444 2532.959 C 1864.664 2523.495,1863.253 2521.324,1857.339 2520.488 C 1846.886 2519.010,1844.939 2524.496,1845.497 2553.851 C 1845.772 2568.345,1844.679 2581.521,1843.068 2583.132 C 1841.163 2585.037,1834.555 2585.002,1824.160 2583.030 C 1801.700 2578.771,1797.652 2579.177,1793.970 2586.057 C 1790.113 2593.264,1797.875 2608.921,1806.693 2611.720 C 1820.666 2616.155,1804.446 2617.432,1744.287 2616.634 L 1678.994 2615.767 1699.391 2603.848 C 1755.439 2571.095,1821.400 2505.932,1837.297 2467.610 C 1840.009 2461.070,1844.540 2453.146,1847.364 2450.000 C 1852.249 2444.560,1883.640 2428.494,1885.401 2430.533 C 1885.861 2431.065,1888.517 2435.982,1891.305 2441.461 C 1894.092 2446.940,1901.014 2454.160,1906.686 2457.507 C 1914.591 2462.172,1917.000 2465.584,1917.000 2472.119 C 1917.000 2482.926,1921.439 2485.709,1929.882 2480.194 C 1934.965 2476.874,1938.240 2476.621,1944.000 2479.102 C 1948.125 2480.880,1952.175 2483.074,1953.000 2483.978 C 1962.494 2494.384,1998.273 2497.688,2035.500 2491.595 C 2052.000 2488.895,2073.863 2486.672,2084.084 2486.655 C 2103.226 2486.624,2118.000 2479.621,2118.000 2470.579 C 2118.000 2468.386,2122.604 2463.876,2128.232 2460.556 C 2134.951 2456.591,2140.868 2449.279,2145.465 2439.259 C 2149.315 2430.867,2154.189 2424.000,2156.297 2424.000 C 2158.404 2424.000,2161.666 2420.625,2163.546 2416.500 C 2168.524 2405.574,2171.021 2407.241,2172.758 2422.648 M764.954 2445.750 C 764.929 2446.163,762.995 2452.575,760.655 2460.000 L 756.401 2473.500 756.201 2459.250 C 756.049 2448.494,757.103 2445.000,760.500 2445.000 C 762.975 2445.000,764.980 2445.338,764.954 2445.750 M479.755 2483.761 C 498.578 2490.194,530.942 2495.174,564.000 2496.726 L 580.500 2497.500 562.500 2507.770 C 552.600 2513.419,540.066 2521.856,534.646 2526.520 C 523.661 2535.973,517.495 2537.222,514.922 2530.517 C 511.455 2521.483,494.147 2514.023,476.625 2514.011 C 460.239 2514.000,459.697 2513.737,457.931 2504.904 C 456.930 2499.901,452.374 2492.485,447.806 2488.423 C 440.472 2481.902,437.656 2481.251,423.750 2482.864 C 414.121 2483.981,408.000 2483.537,408.000 2481.720 C 408.000 2480.085,413.662 2473.932,420.582 2468.046 L 433.164 2457.344 446.832 2467.262 C 454.349 2472.717,469.165 2480.142,479.755 2483.761 M1983.896 2462.770 C 1993.727 2466.508,1996.187 2473.600,1987.920 2474.374 C 1979.855 2475.129,1956.000 2466.443,1956.000 2462.752 C 1956.000 2459.185,1974.498 2459.197,1983.896 2462.770 M716.459 2481.567 C 715.766 2486.313,711.753 2489.432,701.986 2492.817 C 687.727 2497.758,663.032 2515.749,662.954 2521.252 C 662.929 2523.038,661.682 2526.438,660.183 2528.806 C 657.982 2532.285,655.036 2530.923,644.846 2521.718 C 637.910 2515.451,626.300 2507.699,619.046 2504.490 C 603.883 2497.783,604.435 2493.101,620.427 2492.774 C 626.517 2492.649,649.050 2488.775,670.500 2484.165 C 719.800 2473.570,717.608 2473.694,716.459 2481.567 M745.626 2506.437 C 731.275 2536.680,717.841 2549.395,682.054 2566.606 C 646.994 2583.468,630.235 2589.000,614.206 2589.000 C 601.194 2589.000,570.615 2581.814,556.500 2575.440 C 551.550 2573.204,542.279 2569.268,535.899 2566.694 L 524.297 2562.013 535.899 2550.154 L 547.500 2538.296 589.895 2537.525 L 632.289 2536.755 643.249 2546.377 C 649.277 2551.670,656.561 2556.000,659.437 2556.000 C 667.907 2556.000,677.383 2547.640,679.418 2538.373 C 682.283 2525.331,693.698 2516.468,711.194 2513.702 C 729.524 2510.804,746.229 2499.107,750.812 2485.960 C 752.595 2480.846,754.583 2478.249,755.230 2480.190 C 755.877 2482.131,751.555 2493.942,745.626 2506.437 M436.500 2502.000 C 437.520 2503.650,436.170 2505.000,433.500 2505.000 C 430.830 2505.000,429.480 2503.650,430.500 2502.000 C 431.520 2500.350,432.870 2499.000,433.500 2499.000 C 434.130 2499.000,435.480 2500.350,436.500 2502.000 M597.807 2518.968 C 595.776 2519.790,591.726 2519.840,588.807 2519.079 C 585.888 2518.318,587.550 2517.646,592.500 2517.585 C 597.450 2517.524,599.838 2518.146,597.807 2518.968 M2281.041 2569.136 C 2294.710 2578.908,2302.887 2586.538,2300.541 2587.331 C 2298.318 2588.082,2277.875 2589.103,2255.111 2589.599 C 2215.012 2590.472,2213.769 2590.313,2215.194 2584.500 C 2216.003 2581.200,2217.532 2571.075,2218.593 2562.000 C 2219.653 2552.925,2221.862 2541.101,2223.502 2535.724 L 2226.482 2525.948 2241.991 2539.128 C 2250.521 2546.377,2268.093 2559.881,2281.041 2569.136 M2328.245 2598.501 C 2337.454 2602.876,2350.617 2608.142,2357.495 2610.203 C 2364.373 2612.264,2370.001 2614.749,2370.002 2615.725 C 2370.004 2616.701,2347.056 2617.500,2319.007 2617.500 C 2269.682 2617.500,2256.420 2615.444,2278.737 2611.258 C 2285.575 2609.975,2290.548 2606.886,2292.433 2602.749 C 2295.061 2596.979,2306.001 2589.141,2310.000 2590.162 C 2310.825 2590.373,2319.035 2594.125,2328.245 2598.501 M2239.350 2609.534 C 2237.783 2610.928,2228.400 2614.950,2218.500 2618.472 C 2204.650 2623.399,2188.227 2625.577,2147.271 2627.917 C 2086.151 2631.409,1869.374 2628.937,1855.015 2624.585 C 1849.799 2623.004,1844.779 2619.750,1843.859 2617.355 C 1842.415 2613.589,1861.363 2612.949,1983.844 2612.626 C 2101.195 2612.315,2218.054 2609.974,2237.850 2607.536 C 2240.445 2607.216,2241.050 2608.022,2239.350 2609.534 " stroke="black" fill="none" fill-rule="evenodd"/></g></g>
      <g id="hand">
        <rect id="groupSizer" width="140" height="160" fill="none"/>
        <path d="M55.25,55.9,48.63,82.66s-27.58,40.19-26.86,16C23.31,47.27,55.25,55.9,55.25,55.9Z"
            fill="#f49f58" />
        <path
            d="M77.45,30.06C75.95,29.74,27.15,45,24.08,46.12S13.72,48,11.42,53.79s0,16.5,0,21.1-1.15,33.38-.77,37.6c.24,2.7,3.45,5.37,6.52,5.75s8.06-4.6,9.21-7.67,6.52-40.67,7.29-43.35,13-1.15,15.73-1.15,26.47,23.4,26.47,26.86-14.19,19.57-16.11,19.57-29.63,6.77-31.46,8.06c-3.84,2.69-6.93,9.81-5.75,16.88.77,4.6,6.14,6.14,10.36,5.76,3.62-.33,24.17-1.53,30.69-1.92,4.28-.25,12.66-3.84,15-5.37S97,121.7,98.12,119.78s15.08-12.56,17.26-16.69c3.45-6.52,14.39-48.34,13.24-50.07C123.39,45.17,83.76,31.37,77.45,30.06Z"
            fill="#ffc585" />
        <path
            d="M119.82,46.59c-7.44-4-18-8.3-26.85-11.51h0C81.87,48.19,69.38,60,56.92,71.77h0c7.89,7.16,19,18.8,19,21.15,0,1.58-3,5.82-6.39,9.95h0c1.15,0,8.42,8.43,21.74-4.39C111.74,78.73,119,66.42,120.74,56.26A17,17,0,0,0,119.82,46.59Z"
            fill="#ffc585" opacity="0.4" style="mix-blend-mode: multiply" />
        <path
            d="M14.1,70.29c-2.3,7.29-9.8,45.47-10,49.11-.21,4.32,1.83,7.15,5.75,6.91,3.39-.21,8.58-2.94,10.36-6.14,3.34-6,4.19-5.22,11.13-50.26Z"
            fill="#ffc585" />
        <path
            d="M14.1,70.29c-2.3,7.29-9.8,45.47-10,49.11-.21,4.32,1.83,7.15,5.75,6.91,3.39-.21,8.58-2.94,10.36-6.14,3.34-6,4.19-5.22,11.13-50.26Z"
            fill="#ffc585" opacity="0.4" style="mix-blend-mode: multiply" />
        <g>
            <path
                d="M115.22,36.89s-4.3,37.94-5.1,39.36S83.83,106.38,81.9,107.18,69.43,109.49,71.37,105s7.33-2.93,8.17-3.66S101.42,75.61,102,74.43s.74-30,.74-30Z"
                fill="#363f4f" />
            <path
                d="M113.07,39.08s-3.87,36-4.66,37.41S83.11,106.2,81.18,107s-11.75,2.49-9.81-2,7.33-2.93,8.17-3.66S101.42,75.61,102,74.43s.74-30,.74-30Z"
                fill="#4b5668" />
            <path
                d="M111.25,55.36c1-8.48,1.81-16.28,1.81-16.28l-10.31,5.4s-.08,15.28-.35,24C103.3,67.19,108.68,59.83,111.25,55.36Z"
                fill="#4b5668" opacity="0.4" style="mix-blend-mode: multiply" />
            <path
                d="M71.55,107.11c2.19-3.36,7.43-5.35,7.69-5.61-1.41.38-6.08-.56-7.86,3.53A1.73,1.73,0,0,0,71.55,107.11Z"
                fill="#4b5668" opacity="0.4" style="mix-blend-mode: multiply" />
            <path d="M33.23,86.72c10.08,3.3,24,15.06,29.31,25.8L58,117.38c-10.6-4-25.41-17.87-28-25.83Z"
                fill="#edbd15" />
            <path
                d="M46.16,94c-2.09,3-4.54,5.8-6.79,8.77-.24.32-.47.65-.7,1,5.75,5.83,13.22,11.38,19.3,13.65l4.57-4.85C59.32,106,52.93,99.13,46.16,94Z"
                fill="#edbd15" style="mix-blend-mode: multiply" />
            <path d="M3.79,149.09s-3.57,7.55-2.42,8.58c1.52,1.36,7.71-4.53,7.71-4.53Z" fill="#c6d0d5" />
            <path
                d="M7.95,150.39c-1.11,2.4-3.21,5.47-5.9,6.3a3.13,3.13,0,0,1-.73.13.78.78,0,0,0,.21.51c1.52,1.36,7.71-4.53,7.71-4.53Z"
                fill="#c7d1d6" style="mix-blend-mode: multiply" />
            <path
                d="M1.95,149.82c3.16-8.14,17.61-40.14,31.5-61.3,8.37-12.75,53.86-84,78.16-64.8,21.59,17-31.06,69.86-52.81,90.88C42,130.87,11.55,153.39,9.34,154.72S1.34,151.39,1.95,149.82Z"
                fill="#4b5668" />
            <path
                d="M49,113.63c-6.42,6.38-20.09,20-29.15,28.48C11,150.42,6.2,152.81,4.59,153.36c1.65,1.19,3.64,2,4.75,1.36,2.22-1.33,32.63-23.85,49.45-40.11C78,96.07,121.16,52.8,116.31,31.15c0,2.37-7.76,3.86-12,13.2C95.55,63.76,63.76,99,49,113.63Z"
                fill="#4b5668" opacity="0.4" style="mix-blend-mode: multiply" />
            <path
                d="M92.86,47.91c7.9,6.12,17.67,6.77,19.08,3.07,5.75-11.47,7-21.45-.34-27.26-8-6.33-18.36-2.79-28.91,5.24C80.46,32.85,84.33,41.31,92.86,47.91Z"
                fill="#69778b" />
            <path
                d="M83.79,28.14C94,20.69,103.86,17.61,111.6,23.72c7.17,5.66,6.15,15.26.79,26.34C106.53,58.36,80.56,40.72,83.79,28.14Z"
                fill="#edbd15" />
            <path
                d="M116.31,31.11c-.65,10.45-11.22,20.6-22,15.52,6.91,5.15,15.12,7.66,18.12,3.43C115.86,42.91,117.5,36.37,116.31,31.11Z"
                fill="#edbd15" style="mix-blend-mode: multiply" />
            <path
                d="M10.5,130.62c-4.17,8.76-7.28,15.93-8.55,19.21-.61,1.56,5.17,6.22,7.39,4.9,1-.59,7.45-5.31,15.83-11.79C20.75,141.85,11.74,135.18,10.5,130.62Z"
                fill="#edbd15" />
            <path d="M10.5,130.62c-1.89,4.89,10,12.92,14.67,12.31C20.75,141.85,11.74,135.18,10.5,130.62Z"
                fill="#feee28" />
            <path
                d="M2.51,151.41a8,8,0,0,0,.9,1c2.45-3.69,7.82-11.23,11.22-16a19.94,19.94,0,0,1-3-3.41C8.87,137.68,5,146,2.51,151.41Z"
                fill="#edbd15" style="mix-blend-mode: screen" />
            <path
                d="M20.4,140.73c-4.19,5-9,9.31-13.71,13.83a3.09,3.09,0,0,0,2.64.16c1-.59,7.45-5.31,15.83-11.79A18.38,18.38,0,0,1,20.4,140.73Z"
                fill="#edbd15" style="mix-blend-mode: multiply" />
            <path d="M33.23,86.72c4.3,8.5,19.27,22.52,29.31,25.8L58,117.38c-10.6-4-25.41-17.87-28-25.83Z"
                fill="#feee28" />
            <path d="M33.23,86.72c3.3,10,19.4,24.28,29.31,25.8L58,117.38c-10.6-4-25.41-17.87-28-25.83Z"
                fill="#edbd15" />
            <path
                d="M53.09,107.47a38.21,38.21,0,0,0,9.45,5.06L58,117.38a43,43,0,0,1-9.29-5.15C50.14,110.87,51.15,109.6,53.09,107.47Z"
                fill="#edbd15" style="mix-blend-mode: multiply" />
            <path
                d="M39,94.81c-.92-1-1.78-2.09-2.55-3.1-1.26,1.68-2.45,3.41-3.59,5.18.6.86,1.28,1.73,2,2.62A61.6,61.6,0,0,1,39,94.81Z"
                fill="#edbd15" style="mix-blend-mode: screen" />
            <path d="M3.45,153c1,.55-1.26,3.33-1.42,2.73S2.63,152.54,3.45,153Z" fill="#c7d1d6" opacity="0.7"
                style="mix-blend-mode: screen" />
            <path d="M107.61,75.33c.49-1.63-25.92,28.23-25.4,28.92S106.8,78,107.61,75.33Z" fill="#4b5668"
                opacity="0.7" style="mix-blend-mode: screen" />
            <path
                d="M101.93,22c-3.44-.3-9,3-8.18,4.61,2.2,4.21,12.06,2,12.88,0C107.76,23.75,103.74,22.19,101.93,22Z"
                fill="#edbd15" opacity="0.4" style="mix-blend-mode: screen" />
            <path
                d="M81,41.38c-5.59.22-35.49,37.16-38.3,46.24,3.74-1.84,11.19-13.24,18.86-22.54C70.83,53.89,80.15,44.46,81,41.38Z"
                fill="#4b5668" opacity="0.4" style="mix-blend-mode: screen" />
            <path d="M32.75,100.8c-3.63,2.63-15.13,19.8-17.94,28.88C18.78,125.16,31.85,103.88,32.75,100.8Z"
                fill="#4b5668" opacity="0.4" style="mix-blend-mode: screen" />
        </g>
        <path
            d="M43.35,65.72C43.74,64.29,71.25,36,73.6,31.06c-8.52,2.7-47.07,14.14-49.52,15.06C21,47.27,13.72,48,11.42,53.79s0,16.5,0,21.1-1.15,33.38-.77,37.6c.24,2.7,3.45,5.37,6.52,5.75s8.06-4.6,9.21-7.67,6.52-40.67,7.29-43.35C34.14,65.55,39,65.51,43.35,65.72Z"
            fill="#ffc585" />
        <path
            d="M69.51,111.93a10.24,10.24,0,0,1-4.45-3.18c-2.5,2.3-4.66,3.74-5.3,3.74-1.92,0-29.63,6.77-31.46,8.06-3.84,2.69-6.93,9.81-5.75,16.88.77,4.6,6.14,6.14,10.36,5.76,3.62-.33,24.17-1.53,30.69-1.92,4.28-.25,12.66-3.84,15-5.37S97,121.7,98.12,119.78C98.3,119.48,73.84,113.57,69.51,111.93Z"
            fill="#ffc585" />
        <path
            d="M27.53,124.77c2.69-2.69,15-2.3,15.35-.38s.38,10-.38,12.28-14.19,5-15.73,2.69C23.39,134.28,25.1,127.19,27.53,124.77Z"
            fill="#ffd5b8" />
        <path
            d="M19,116a81.46,81.46,0,0,0-.29-14.29c-.34-1.68-6.65-1.76-8-2.1-.15,6-.23,11.23-.08,12.84C10.89,115.19,17.27,117.77,19,116Z"
            fill="#ffd5b8" />
        <path
            d="M117,91.87c-8.53,11-35.2,38.27-45.36,42.58-9.4,4-40.57,9.5-49.11,3,.77,4.6,6.14,6.14,10.36,5.76,3.62-.33,24.17-1.53,30.69-1.92,4.28-.25,12.66-3.84,15-5.37S97,121.7,98.12,119.78s15.08-12.56,17.26-16.69c1.12-2.12,3-7.94,5.05-14.91C119.34,89.44,118,90.54,117,91.87Z"
            fill="#ffc585" opacity="0.4" style="mix-blend-mode: multiply" />
        <path
            d="M26.38,110.57c1.15-3.07,6.52-40.67,7.29-43.35.54-1.89,6.78-1.69,11.37-1.41.76,0-11.61-4.73-14-1.47-3.27,4.54-3.16,35.87-12,50.07a5.88,5.88,0,0,1-5.31,2.53,8.13,8.13,0,0,0,3.39,1.31C20.24,118.63,25.23,113.64,26.38,110.57Z"
            fill="#ffc585" opacity="0.4" style="mix-blend-mode: multiply" />
      </g>
    </svg>