<canvas id="myCanvas" width="640.5" height="552" style="position:absolute;z-index: 10;"></canvas><svg id="demo" version="1.1" width="640.5" height="552" xmlns="http://www.w3.org/2000/svg" style="position:relative;"><g class="theWords" stroke-linejoin="round"><g id="handwriting" transform="translate(128.1, 92 ) scale(0.1500000, 0.1500000)"><path d="M169.539 183.750 C 172.079 198.765,172.315 789.444,169.823 896.250 C 168.043 972.551,168.152 1011.000,170.147 1011.000 C 173.128 1011.000,311.310 874.609,353.596 829.929 L 375.692 806.582 373.992 615.541 C 373.058 510.468,370.953 405.600,369.314 382.500 C 367.676 359.400,366.119 303.713,365.855 258.750 C 365.433 187.067,364.800 177.000,360.717 177.000 C 356.554 177.000,356.278 188.864,358.111 288.750 C 359.239 350.213,361.403 427.500,362.920 460.500 C 364.437 493.500,365.751 584.132,365.839 661.905 L 366.000 803.311 352.725 819.405 C 345.424 828.257,308.152 866.375,269.898 904.112 L 200.346 972.724 202.583 574.862 C 204.647 207.544,204.442 177.000,199.910 177.000 C 195.403 177.000,194.999 197.606,194.988 428.250 C 194.981 566.438,194.091 747.675,193.010 831.000 C 191.279 964.476,190.477 982.935,186.273 986.155 C 183.648 988.165,180.317 989.852,178.871 989.905 C 177.365 989.959,177.365 939.682,178.871 872.250 C 183.760 653.271,179.288 177.000,172.341 177.000 C 169.913 177.000,168.836 179.594,169.539 183.750 M854.954 198.750 C 854.929 210.713,852.945 249.971,850.545 285.992 C 845.549 360.983,841.058 526.193,838.449 731.011 L 836.647 872.522 858.081 885.511 C 869.869 892.655,885.811 901.939,893.507 906.141 C 901.203 910.344,918.259 919.646,931.408 926.812 C 944.558 933.979,960.005 942.475,965.735 945.694 C 992.885 960.943,1005.351 966.507,1009.123 965.060 C 1012.449 963.783,1013.608 942.167,1015.212 851.492 C 1016.301 789.896,1018.516 713.850,1020.134 682.500 C 1023.544 616.405,1024.813 483.481,1023.750 303.750 C 1023.072 189.098,1022.535 177.000,1018.129 177.000 C 1013.671 177.000,1013.435 189.556,1015.341 324.750 C 1016.596 413.709,1016.101 523.830,1014.099 601.500 C 1012.269 672.450,1009.593 780.218,1008.152 840.984 C 1006.710 901.751,1004.930 952.070,1004.195 952.805 C 1003.460 953.540,1000.458 953.220,997.524 952.094 C 992.465 950.153,992.296 941.500,994.270 784.773 C 995.415 693.873,997.600 553.350,999.126 472.500 C 1003.386 246.726,1003.002 177.000,997.500 177.000 C 993.558 177.000,992.974 197.178,992.786 339.750 C 992.669 429.263,991.948 510.600,991.185 520.500 C 990.422 530.400,988.762 629.244,987.496 740.153 C 986.230 851.062,984.392 942.608,983.412 943.588 C 981.931 945.069,945.068 926.472,922.520 912.868 C 919.209 910.870,914.475 908.279,912.000 907.110 C 909.525 905.941,893.663 896.966,876.750 887.165 L 846.000 869.345 846.073 783.423 C 846.179 660.001,851.386 416.066,854.869 371.400 C 860.058 304.851,862.430 177.000,858.475 177.000 C 856.165 177.000,854.985 184.292,854.954 198.750 M1890.000 192.382 C 1862.371 195.574,1812.257 211.275,1783.500 225.750 C 1737.045 249.132,1681.501 294.154,1673.502 314.911 C 1669.938 324.158,1676.617 330.000,1690.752 330.000 C 1701.670 330.000,1704.000 333.746,1704.000 351.303 C 1704.000 362.033,1703.382 362.966,1697.250 361.490 C 1692.852 360.431,1687.561 362.246,1682.063 366.699 C 1672.119 374.754,1668.545 393.209,1674.645 405.000 C 1678.621 412.687,1701.183 425.655,1710.964 425.876 C 1713.969 425.944,1725.002 434.616,1735.480 445.146 C 1755.898 465.665,1777.413 479.342,1801.500 487.118 C 1812.767 490.755,1876.771 504.000,1883.079 504.000 C 1883.585 504.000,1884.000 509.776,1884.000 516.835 L 1884.000 529.671 1858.860 533.099 C 1822.044 538.119,1792.207 551.472,1773.420 571.336 C 1757.668 587.992,1753.064 598.173,1756.454 608.855 C 1758.310 614.704,1757.624 615.011,1746.625 613.252 C 1732.321 610.965,1723.357 615.187,1720.788 625.421 C 1719.027 632.437,1717.593 633.000,1701.477 633.000 C 1680.391 633.000,1657.535 640.295,1651.464 648.962 C 1643.290 660.631,1646.187 695.779,1663.377 793.500 C 1676.353 867.267,1683.000 907.062,1683.000 910.990 C 1683.000 912.732,1673.305 914.913,1661.250 915.881 C 1622.563 918.987,1596.000 933.705,1596.000 952.034 C 1596.000 966.185,1609.077 979.048,1632.388 987.827 C 1662.210 999.056,1687.139 1002.676,1726.500 1001.492 L 1759.500 1000.500 1761.697 1066.500 C 1762.906 1102.800,1764.596 1135.448,1765.454 1139.050 C 1767.064 1145.811,1769.884 1147.197,1788.335 1150.296 L 1799.170 1152.116 1801.276 1199.308 C 1802.434 1225.264,1802.283 1249.426,1800.941 1253.002 C 1798.526 1259.435,1798.234 1259.376,1773.124 1247.360 C 1740.762 1231.874,1708.813 1221.000,1695.675 1221.000 C 1676.904 1221.000,1659.069 1246.322,1659.017 1273.047 C 1658.976 1294.051,1680.479 1316.253,1709.594 1325.266 C 1734.490 1332.974,1786.847 1332.294,1809.343 1323.972 C 1836.573 1313.897,1867.728 1294.325,1871.608 1284.856 C 1874.099 1278.775,1874.228 1266.289,1872.084 1239.000 C 1870.462 1218.375,1869.106 1190.444,1869.068 1176.931 L 1869.000 1152.362 1880.250 1151.431 L 1891.500 1150.500 1891.500 1120.500 C 1891.500 1104.000,1890.349 1071.938,1888.943 1049.250 L 1886.385 1008.000 1898.274 1008.000 C 1904.813 1008.000,1916.355 1008.849,1923.925 1009.886 L 1937.687 1011.773 1938.593 1078.742 C 1939.252 1127.420,1940.528 1146.739,1943.264 1149.470 C 1945.334 1151.536,1953.424 1153.964,1961.243 1154.864 L 1975.458 1156.500 1975.650 1228.500 C 1975.809 1288.287,1976.651 1302.028,1980.614 1309.507 C 1990.232 1327.661,2002.024 1334.034,2046.000 1344.843 C 2086.401 1354.773,2118.286 1357.852,2130.089 1352.963 C 2143.692 1347.329,2151.991 1331.429,2151.800 1311.369 C 2151.283 1257.138,2126.190 1242.886,2064.000 1261.500 C 2050.218 1265.625,2038.372 1269.000,2037.675 1269.000 C 2036.977 1269.000,2036.878 1243.688,2037.453 1212.750 L 2038.500 1156.500 2056.500 1153.498 L 2074.500 1150.495 2076.487 1135.498 C 2077.580 1127.249,2078.593 1093.018,2078.737 1059.429 C 2078.982 1002.474,2079.354 998.508,2084.250 1000.583 C 2115.996 1014.038,2163.957 1017.977,2195.959 1009.758 C 2218.051 1004.085,2226.788 999.164,2233.815 988.441 C 2237.799 982.361,2238.071 979.427,2235.275 972.732 C 2230.880 962.207,2213.291 950.736,2198.505 948.753 C 2187.378 947.261,2187.000 946.823,2187.000 935.417 C 2187.000 915.457,2193.046 837.435,2197.532 799.500 C 2199.873 779.700,2202.698 745.903,2203.809 724.395 L 2205.829 685.291 2196.184 675.645 C 2190.879 670.340,2185.630 665.817,2184.519 665.593 C 2183.409 665.370,2166.351 664.357,2146.613 663.343 L 2110.726 661.500 2108.717 651.627 C 2106.046 638.505,2098.365 630.528,2086.204 628.246 L 2076.231 626.376 2076.443 607.938 C 2076.560 597.797,2075.285 586.125,2073.610 582.000 C 2069.073 570.826,2049.263 553.557,2034.405 547.825 C 2017.164 541.173,1982.609 534.000,1967.804 534.000 L 1956.000 534.000 1956.000 519.057 C 1956.000 502.432,1953.358 504.204,1987.500 497.926 C 2029.316 490.238,2085.167 465.459,2106.284 445.228 C 2110.627 441.067,2123.098 434.987,2133.997 431.717 C 2158.320 424.420,2173.555 411.251,2176.629 394.867 C 2180.487 374.302,2165.904 362.183,2126.075 352.856 C 2073.934 340.647,2015.343 305.259,2000.060 276.746 C 1991.812 261.359,1983.190 256.412,1978.328 264.279 C 1977.213 266.082,1977.957 280.068,1979.981 295.358 C 1983.941 325.273,1981.713 336.103,1971.644 335.892 C 1964.418 335.741,1951.623 324.292,1945.781 312.750 C 1939.871 301.075,1929.006 299.134,1928.989 309.750 C 1928.970 320.795,1918.032 336.000,1910.105 336.000 C 1900.206 336.000,1887.627 321.633,1886.465 309.000 C 1885.734 301.042,1884.127 298.500,1879.827 298.500 C 1870.477 298.500,1867.119 307.133,1871.625 319.592 C 1873.784 325.563,1875.022 330.978,1874.375 331.625 C 1873.728 332.272,1869.216 331.718,1864.349 330.393 C 1854.423 327.692,1854.520 328.321,1857.948 289.110 C 1859.894 266.849,1859.593 264.593,1854.495 263.260 C 1851.130 262.380,1841.899 266.511,1831.280 273.649 C 1809.823 288.073,1786.771 297.679,1754.147 305.793 C 1730.989 311.552,1699.680 314.680,1696.548 311.548 C 1692.642 307.642,1746.309 262.886,1768.500 251.542 C 1773.450 249.011,1785.600 242.774,1795.500 237.681 C 1841.272 214.135,1892.187 204.045,1965.365 204.018 C 2005.310 204.003,2016.528 205.090,2041.334 211.383 C 2106.884 228.011,2135.978 255.496,2147.840 312.000 C 2151.803 330.877,2153.525 334.500,2158.532 334.500 C 2163.685 334.500,2164.415 332.685,2163.879 321.211 C 2162.817 298.503,2151.458 266.808,2138.186 249.522 C 2119.332 224.966,2087.461 205.720,2049.525 195.985 C 2028.250 190.525,1926.047 188.217,1890.000 192.382 M1523.000 194.000 C 1520.160 196.840,1520.916 263.935,1524.111 292.500 C 1530.199 346.941,1538.314 1027.662,1532.939 1033.055 C 1532.081 1033.917,1492.256 1035.433,1444.439 1036.426 C 1396.623 1037.419,1350.413 1038.951,1341.750 1039.831 C 1327.493 1041.280,1326.000 1042.125,1326.000 1048.748 L 1326.000 1056.064 1429.139 1054.055 L 1532.278 1052.045 1534.487 1091.774 C 1535.763 1114.706,1535.552 1132.648,1533.989 1134.211 C 1532.500 1135.700,1485.431 1137.274,1429.391 1137.709 L 1327.500 1138.500 1326.537 1145.286 L 1325.573 1152.072 1440.537 1151.286 L 1555.500 1150.500 1556.459 1143.750 C 1556.986 1140.038,1555.973 1137.000,1554.209 1137.000 C 1552.079 1137.000,1551.000 1122.479,1551.000 1093.821 C 1551.000 1058.207,1551.788 1050.339,1555.500 1048.915 C 1557.975 1047.965,1560.000 1045.892,1560.000 1044.308 C 1560.000 1042.725,1557.975 1039.404,1555.500 1036.929 C 1551.627 1033.055,1550.969 1011.617,1550.777 882.964 C 1550.392 625.142,1545.818 363.395,1540.746 309.000 C 1538.208 281.775,1536.102 245.933,1536.066 229.350 C 1536.023 209.982,1534.713 197.913,1532.400 195.600 C 1528.322 191.522,1525.892 191.108,1523.000 194.000 M2360.581 194.250 C 2360.350 195.488,2359.967 274.125,2359.729 369.000 C 2359.490 463.875,2358.421 623.850,2357.352 724.500 C 2355.211 926.175,2356.991 964.500,2368.500 964.500 C 2375.380 964.500,2375.075 975.695,2371.524 853.500 C 2370.067 803.391,2370.730 724.008,2373.378 631.500 C 2377.496 487.642,2377.987 280.826,2374.349 222.750 C 2372.623 195.193,2371.830 192.000,2366.711 192.000 C 2363.570 192.000,2360.811 193.013,2360.581 194.250 M2333.047 206.250 C 2332.328 207.488,2330.218 272.625,2328.358 351.000 C 2326.499 429.375,2323.295 547.500,2321.238 613.500 C 2316.807 755.735,2316.507 858.356,2320.215 963.480 L 2322.931 1040.461 2315.715 1041.480 C 2310.904 1042.160,2308.179 1044.759,2307.537 1049.282 C 2306.759 1054.763,2308.342 1056.418,2315.787 1057.907 L 2325.000 1059.750 2325.000 1095.375 C 2325.000 1128.560,2324.604 1131.000,2319.214 1131.000 C 2311.465 1131.000,2303.821 1139.043,2306.050 1144.852 C 2307.633 1148.978,2316.046 1149.316,2377.173 1147.710 C 2415.303 1146.709,2464.463 1145.097,2486.419 1144.128 L 2526.337 1142.367 2525.419 1134.434 C 2524.646 1127.756,2523.075 1126.538,2515.500 1126.743 C 2510.550 1126.876,2469.905 1127.958,2425.179 1129.145 L 2343.857 1131.305 2341.929 1117.234 C 2340.868 1109.495,2340.000 1092.551,2340.000 1079.581 L 2340.000 1056.000 2433.199 1056.000 L 2526.399 1056.000 2525.449 1047.750 L 2524.500 1039.500 2432.554 1040.671 L 2340.609 1041.842 2338.934 1016.671 C 2334.054 943.353,2331.721 801.262,2334.186 727.500 C 2340.606 535.374,2346.000 325.061,2346.000 266.843 C 2346.000 206.637,2345.756 204.000,2340.177 204.000 C 2336.974 204.000,2333.766 205.013,2333.047 206.250 M576.281 243.653 C 531.800 250.325,483.448 291.800,469.578 335.180 C 461.971 358.972,463.739 364.302,479.619 365.441 L 492.739 366.381 490.733 378.941 C 481.598 436.125,488.280 466.425,516.751 496.927 L 525.550 506.353 515.525 509.508 C 510.011 511.243,499.971 514.084,493.212 515.822 C 435.797 530.587,412.439 611.150,410.251 801.957 L 409.500 867.414 401.317 869.068 C 387.634 871.835,386.924 874.820,389.989 916.716 C 391.549 938.047,392.864 975.566,392.912 1000.091 L 393.000 1044.681 405.750 1042.961 C 412.763 1042.014,434.984 1040.341,455.131 1039.242 L 491.761 1037.243 492.631 1014.372 L 493.500 991.500 512.250 990.607 L 531.000 989.714 531.000 998.519 C 531.000 1021.938,524.758 1165.931,521.568 1216.092 C 518.260 1268.129,518.374 1272.911,522.985 1275.492 C 525.743 1277.035,528.000 1281.606,528.000 1285.649 C 528.000 1292.401,526.839 1293.010,513.750 1293.125 C 493.821 1293.299,473.253 1301.508,459.188 1314.901 C 446.326 1327.149,440.340 1344.532,446.765 1350.974 C 451.628 1355.849,529.236 1357.414,550.207 1353.061 C 559.190 1351.196,568.330 1347.535,570.519 1344.926 C 572.744 1342.275,575.823 1326.137,577.500 1308.341 C 580.296 1278.665,580.959 1276.435,587.250 1275.541 C 593.563 1274.645,594.011 1273.091,594.173 1251.541 C 594.268 1238.869,595.351 1223.100,596.579 1216.500 C 598.422 1206.599,599.197 1210.273,601.010 1237.500 C 603.473 1274.506,607.654 1304.693,612.332 1319.250 C 618.884 1339.636,637.706 1328.325,659.507 1290.899 C 678.250 1258.724,678.286 1256.170,660.416 1225.916 L 645.214 1200.178 683.226 1199.339 L 721.238 1198.500 725.166 1179.000 C 727.326 1168.275,733.210 1147.350,738.241 1132.500 C 753.944 1086.151,754.054 1087.574,729.238 1015.771 C 724.157 1001.070,720.000 987.232,720.000 985.021 C 720.000 981.901,727.466 981.000,753.312 981.000 L 786.624 981.000 784.618 956.250 C 783.514 942.638,779.999 903.451,776.806 869.170 C 769.616 791.978,769.561 796.012,777.830 793.936 C 788.769 791.191,807.983 772.909,815.275 758.308 C 820.886 747.074,821.997 739.927,821.983 715.171 C 821.973 698.852,820.693 678.075,819.138 669.000 C 805.856 591.494,792.956 558.701,766.088 534.146 C 748.005 517.619,715.370 498.000,705.962 498.000 C 696.653 498.000,695.683 494.871,702.169 485.763 C 705.464 481.135,710.168 472.545,712.621 466.674 C 715.817 459.024,718.981 455.972,723.790 455.900 C 732.078 455.777,743.117 446.888,746.613 437.522 C 749.824 428.918,745.877 417.379,737.781 411.709 C 731.918 407.602,731.932 407.447,738.949 399.107 C 745.105 391.792,746.098 387.314,746.380 365.591 C 746.659 344.124,745.579 338.293,738.875 325.054 C 727.064 301.727,704.164 280.539,672.000 263.180 C 637.775 244.708,608.738 238.784,576.281 243.653 M601.677 257.714 C 600.755 259.206,592.293 264.944,582.874 270.464 C 530.197 301.335,498.248 321.172,496.407 324.151 C 495.438 325.718,492.666 327.000,490.246 327.000 C 483.323 327.000,491.683 313.165,510.528 293.436 C 529.276 273.809,536.586 268.854,558.349 261.026 C 574.841 255.094,604.707 252.811,601.677 257.714 M1494.000 272.393 C 1494.000 282.200,1496.230 318.412,1498.956 352.862 C 1504.748 426.067,1505.267 627.671,1499.890 715.500 C 1498.072 745.200,1497.015 814.050,1497.542 868.500 L 1498.500 967.500 1505.250 968.459 L 1512.000 969.417 1512.260 894.959 C 1512.403 854.006,1513.416 793.500,1514.510 760.500 C 1518.124 651.518,1516.843 359.389,1512.536 310.500 C 1508.358 263.083,1506.876 257.094,1498.928 255.530 C 1494.801 254.718,1494.000 257.459,1494.000 272.393 M660.000 271.955 C 685.397 285.092,689.203 287.528,703.500 299.801 C 723.360 316.848,731.972 332.077,731.987 350.173 C 731.999 364.762,731.339 366.188,722.441 370.789 C 696.183 384.367,636.642 360.879,622.667 331.429 C 620.100 326.019,618.000 316.060,618.000 309.297 C 618.000 299.053,617.011 297.000,612.077 297.000 C 608.599 297.000,604.328 300.531,601.730 305.555 C 596.362 315.935,580.807 329.930,563.108 340.302 C 549.199 348.454,511.845 355.256,490.822 353.466 L 479.480 352.500 499.990 337.021 C 511.271 328.508,535.350 312.857,553.500 302.242 C 571.650 291.626,595.243 277.380,605.929 270.584 C 628.172 256.437,630.095 256.485,660.000 271.955 M1840.875 300.375 C 1839.844 305.531,1839.000 313.609,1839.000 318.324 C 1839.000 325.586,1836.732 328.048,1824.186 334.406 C 1812.840 340.155,1796.333 356.158,1792.457 365.165 C 1791.764 366.775,1751.517 351.385,1738.196 344.415 C 1717.310 333.488,1717.513 328.252,1738.927 325.576 C 1757.944 323.200,1800.013 309.220,1821.000 298.302 C 1839.808 288.518,1843.176 288.869,1840.875 300.375 M2018.851 320.250 C 2023.024 323.963,2027.465 327.000,2028.719 327.000 C 2029.974 327.000,2031.000 328.421,2031.000 330.157 C 2031.000 332.078,2024.885 332.959,2015.382 332.407 L 1999.763 331.500 1998.812 316.722 L 1997.861 301.944 2004.562 307.722 C 2008.247 310.900,2014.678 316.538,2018.851 320.250 M609.000 331.132 C 609.000 339.176,629.306 360.963,645.931 370.756 C 655.518 376.403,672.104 383.220,682.789 385.904 C 693.474 388.588,701.830 391.140,701.358 391.575 C 700.886 392.010,691.197 393.799,679.827 395.550 C 659.685 398.652,659.006 398.545,653.359 391.367 C 648.406 385.070,645.059 384.000,630.305 384.000 C 615.803 384.000,611.927 385.191,606.043 391.454 C 598.709 399.261,579.723 404.765,576.421 400.042 C 569.617 390.308,556.239 384.000,542.398 384.000 C 525.475 384.000,517.288 387.469,507.858 398.635 L 501.216 406.500 501.108 399.578 C 501.049 395.772,502.437 386.950,504.194 379.974 L 507.387 367.291 529.026 363.848 C 552.766 360.071,575.820 349.496,593.232 334.395 C 604.367 324.739,609.000 323.780,609.000 331.132 M1953.655 343.538 C 1961.441 348.467,1967.853 353.465,1967.905 354.644 C 1968.271 362.928,1917.801 369.185,1905.237 362.414 C 1893.560 356.121,1893.993 351.000,1906.203 351.000 C 1913.869 351.000,1919.685 348.474,1926.703 342.094 C 1932.091 337.196,1937.175 333.500,1938.000 333.882 C 1938.825 334.264,1945.870 338.609,1953.655 343.538 M1872.306 351.862 C 1892.417 365.399,1894.421 387.339,1877.326 406.809 C 1854.626 432.663,1813.617 422.161,1807.376 388.897 C 1801.332 356.675,1843.623 332.553,1872.306 351.862 M2046.701 355.252 C 2066.320 368.107,2062.327 400.831,2039.022 418.186 C 2032.758 422.851,2026.304 424.459,2014.304 424.342 C 2000.589 424.208,1996.652 422.831,1988.984 415.485 C 1973.651 400.795,1970.666 375.699,1982.619 361.972 C 1996.986 345.473,2026.977 342.329,2046.701 355.252 M1770.750 375.019 C 1787.169 380.525,1791.012 383.010,1791.066 388.155 C 1791.295 410.212,1815.694 434.463,1840.467 437.255 C 1868.352 440.398,1890.738 425.121,1901.132 395.855 L 1906.408 381.000 1932.312 381.000 L 1958.215 381.000 1959.825 390.919 C 1962.647 408.312,1970.049 421.970,1981.308 430.557 C 2001.676 446.093,2036.863 443.543,2054.928 425.223 C 2070.320 409.614,2074.146 399.816,2074.244 375.759 C 2074.318 357.683,2075.106 354.251,2078.917 355.397 C 2081.438 356.156,2094.300 360.085,2107.500 364.130 C 2120.700 368.174,2135.718 372.345,2140.873 373.397 C 2146.029 374.450,2153.304 378.566,2157.041 382.544 C 2163.564 389.487,2163.632 390.088,2158.755 397.532 C 2152.049 407.766,2138.331 415.860,2123.736 418.194 C 2117.235 419.234,2109.391 422.609,2106.306 425.694 C 2103.221 428.779,2092.777 436.595,2083.098 443.063 C 2010.790 491.380,1904.901 502.666,1808.190 472.364 C 1778.736 463.135,1773.872 460.027,1744.117 431.433 C 1724.790 412.860,1717.874 408.000,1710.771 408.000 C 1691.983 408.000,1677.689 385.659,1691.685 378.169 C 1698.447 374.549,1702.895 378.668,1704.463 390.000 C 1705.254 395.723,1707.277 397.500,1713.000 397.500 C 1720.229 397.500,1720.532 396.714,1721.381 375.766 L 1722.262 354.032 1736.381 361.130 C 1744.146 365.035,1759.613 371.285,1770.750 375.019 M575.250 365.068 C 569.418 366.592,568.611 369.358,572.746 373.650 C 574.256 375.218,575.944 379.790,576.496 383.811 C 577.454 390.784,577.743 390.878,582.750 385.847 C 588.812 379.755,589.941 362.820,584.250 363.348 C 582.188 363.539,578.138 364.313,575.250 365.068 M1846.825 378.446 C 1842.822 384.161,1842.700 386.157,1846.046 391.196 C 1851.763 399.806,1855.775 400.225,1863.032 392.968 C 1868.810 387.190,1869.014 385.918,1865.111 380.030 C 1859.128 371.003,1852.444 370.424,1846.825 378.446 M2004.202 377.622 C 1997.290 390.538,2001.397 405.000,2011.978 405.000 C 2018.941 405.000,2019.268 404.202,2018.407 389.278 C 2017.416 372.096,2010.290 366.248,2004.202 377.622 M2130.350 387.285 C 2125.464 401.300,2125.997 402.477,2136.750 401.440 C 2145.714 400.576,2146.500 399.653,2146.500 390.000 C 2146.500 381.567,2145.240 379.320,2140.100 378.587 C 2135.224 377.892,2132.903 379.963,2130.350 387.285 M730.500 387.000 C 729.480 388.650,725.688 389.979,722.073 389.954 C 716.729 389.917,716.342 389.364,720.000 387.000 C 725.910 383.180,732.861 383.180,730.500 387.000 M646.913 404.077 C 647.930 408.128,647.235 414.792,645.370 418.885 C 642.353 425.507,640.415 426.227,627.797 425.414 C 615.322 424.610,613.260 423.487,610.672 416.092 C 606.893 405.289,611.255 398.035,622.821 395.890 C 636.889 393.281,644.885 395.998,646.913 404.077 M560.317 403.198 C 563.861 410.978,562.021 423.153,556.763 426.704 C 552.801 429.380,530.324 429.704,523.745 427.179 C 518.018 424.981,517.189 405.011,522.600 399.600 C 524.580 397.620,533.138 396.000,541.618 396.000 C 554.981 396.000,557.474 396.960,560.317 403.198 M706.451 424.500 C 706.346 463.554,687.177 494.666,652.880 511.445 C 622.756 526.184,570.413 523.180,547.067 505.373 C 541.750 501.318,536.186 498.000,534.702 498.000 C 529.739 498.000,512.224 473.475,506.580 458.621 C 500.692 443.126,499.169 426.000,503.679 426.000 C 505.153 426.000,507.078 427.875,507.957 430.167 C 510.811 437.605,535.363 444.927,550.061 442.723 C 561.152 441.059,564.745 438.747,571.595 428.863 C 578.245 419.267,581.601 417.022,589.158 417.116 C 596.322 417.204,599.899 419.448,604.500 426.741 C 616.915 446.418,652.244 442.522,657.686 420.876 C 659.653 413.055,661.923 410.958,669.803 409.685 C 708.098 403.497,706.510 402.855,706.451 424.500 M500.049 420.563 C 499.092 422.956,498.381 422.245,498.237 418.750 C 498.107 415.588,498.816 413.816,499.813 414.813 C 500.809 415.809,500.916 418.397,500.049 420.563 M734.387 429.988 C 733.270 437.416,724.245 443.512,720.404 439.433 C 718.886 437.820,718.313 432.205,719.132 426.956 C 720.520 418.058,721.117 417.638,727.948 420.750 C 732.743 422.935,734.968 426.127,734.387 429.988 M1893.000 439.296 C 1893.000 445.402,1909.084 456.066,1921.278 458.045 C 1938.859 460.898,1971.182 441.335,1957.538 436.099 C 1955.139 435.179,1949.580 437.255,1945.184 440.713 C 1934.846 448.844,1917.322 448.977,1907.181 441.000 C 1898.203 433.937,1893.000 433.312,1893.000 439.296 M640.880 454.054 C 636.071 465.564,622.536 476.231,607.460 480.394 C 592.318 484.575,574.056 478.771,562.977 466.258 C 553.826 455.921,547.871 453.546,544.554 458.912 C 541.992 463.058,551.356 480.000,556.210 480.000 C 558.440 480.000,561.869 481.932,563.829 484.293 C 569.335 490.929,594.657 495.257,610.574 492.283 C 632.750 488.140,660.097 461.562,655.232 448.883 C 652.158 440.872,645.365 443.320,640.880 454.054 M574.497 450.006 C 572.153 453.798,586.412 459.421,592.474 457.095 C 599.014 454.585,598.036 450.977,590.250 448.891 C 580.583 446.300,576.613 446.581,574.497 450.006 M1941.042 523.500 C 1941.070 533.400,1942.371 543.525,1943.935 546.000 C 1946.021 549.301,1954.998 550.994,1977.639 552.355 C 2003.137 553.887,2011.934 555.782,2028.261 563.260 C 2056.663 576.268,2061.000 582.953,2061.000 613.721 L 2061.000 638.632 2074.736 640.692 C 2094.015 643.583,2095.196 647.479,2092.075 697.906 L 2089.500 739.500 2053.500 739.303 C 2033.700 739.195,1999.950 737.421,1978.500 735.362 C 1957.050 733.303,1894.950 730.880,1840.500 729.978 C 1786.050 729.076,1740.597 727.474,1739.494 726.419 C 1737.852 724.848,1735.462 646.790,1736.656 633.750 C 1736.890 631.202,1742.802 630.000,1755.094 630.000 C 1775.235 630.000,1779.345 626.227,1773.404 613.189 C 1766.414 597.847,1782.791 577.282,1814.998 560.957 C 1822.422 557.194,1843.305 551.588,1861.405 548.500 C 1879.506 545.412,1895.509 541.691,1896.969 540.231 C 1898.429 538.771,1900.035 530.360,1900.538 521.539 C 1901.042 512.717,1901.577 505.474,1901.727 505.442 C 1901.877 505.411,1910.773 505.411,1921.496 505.442 L 1940.993 505.500 1941.042 523.500 M707.145 511.801 C 739.078 522.480,770.050 550.229,784.774 581.355 C 799.997 613.532,814.580 711.148,808.781 742.056 C 806.428 754.600,792.423 772.076,779.276 778.874 C 774.417 781.387,770.119 783.005,769.724 782.471 C 769.328 781.937,767.530 749.943,765.726 711.374 C 762.536 643.143,760.301 630.499,752.763 638.037 C 750.446 640.354,750.551 658.019,753.129 700.138 C 755.803 743.804,755.861 760.053,753.355 763.073 C 751.496 765.312,749.644 773.074,749.238 780.322 L 748.500 793.500 729.344 794.404 L 710.189 795.307 712.362 785.404 C 715.786 769.804,715.735 767.229,711.979 765.899 C 710.042 765.213,705.325 771.481,701.496 779.826 L 694.535 795.000 676.947 795.000 C 661.355 795.000,659.609 794.404,661.565 789.750 C 662.779 786.863,664.430 781.463,665.236 777.750 C 667.806 765.898,658.036 770.039,652.850 783.000 C 648.060 794.971,648.008 795.000,631.489 795.000 L 614.929 795.000 616.848 783.000 C 619.408 766.991,613.246 766.973,606.527 782.969 C 601.574 794.763,601.269 794.939,585.750 794.969 C 577.088 794.986,570.000 794.352,570.000 793.561 C 570.000 792.769,572.207 786.606,574.904 779.865 C 578.322 771.323,578.856 766.656,576.666 764.466 C 572.520 760.320,567.000 763.945,567.000 770.811 C 567.000 773.812,565.051 780.933,562.668 786.635 C 558.449 796.732,557.854 797.021,539.954 797.667 L 521.572 798.330 522.536 788.415 C 523.201 781.579,522.232 778.500,519.416 778.500 C 514.387 778.500,505.153 800.500,508.850 803.677 C 510.307 804.929,566.850 805.112,634.500 804.082 C 702.150 803.052,757.719 802.274,757.986 802.354 C 758.553 802.524,766.872 893.375,769.538 928.500 C 770.539 941.700,772.013 955.999,772.814 960.276 L 774.268 968.051 722.384 970.069 C 619.729 974.060,526.128 978.110,506.613 979.406 L 486.725 980.726 484.498 821.863 L 482.271 663.000 475.885 662.998 L 469.500 662.996 470.374 752.566 L 471.249 842.137 448.295 845.839 C 435.671 847.876,424.228 848.408,422.867 847.021 C 420.456 844.566,423.798 727.564,427.651 679.500 C 431.079 636.738,442.561 587.449,454.708 563.349 C 471.661 529.714,517.468 513.634,559.773 526.468 C 567.873 528.925,579.653 530.950,585.952 530.968 C 595.474 530.995,597.129 531.885,595.771 536.250 C 594.872 539.138,595.280 543.320,596.678 545.545 C 600.406 551.480,610.500 548.496,610.500 541.459 C 610.500 533.285,614.391 531.100,629.042 531.046 C 637.797 531.014,648.212 527.472,663.542 519.313 C 675.619 512.885,687.140 507.485,689.145 507.313 C 691.150 507.141,699.250 509.160,707.145 511.801 M1719.000 664.113 L 1719.000 680.225 1701.070 682.254 C 1690.114 683.493,1682.176 686.005,1680.661 688.712 C 1677.354 694.621,1681.640 734.233,1690.376 778.500 C 1694.284 798.300,1698.403 823.275,1699.531 834.000 C 1703.019 867.177,1712.749 919.646,1717.678 931.862 C 1720.261 938.263,1724.408 947.948,1726.892 953.385 C 1729.377 958.822,1730.749 964.897,1729.942 966.885 C 1729.103 968.951,1728.372 968.326,1728.237 965.427 C 1728.107 962.637,1726.809 959.618,1725.353 958.718 C 1721.182 956.141,1707.000 968.818,1707.000 975.124 C 1707.000 982.958,1700.382 979.842,1693.971 968.989 C 1689.376 961.211,1689.256 959.181,1692.957 951.834 C 1702.340 933.201,1701.155 912.496,1686.122 832.500 C 1668.617 739.345,1659.146 668.763,1662.856 659.098 C 1665.284 652.770,1680.234 648.608,1701.750 648.271 L 1719.000 648.000 1719.000 664.113 M2155.475 679.578 C 2193.298 682.423,2193.780 683.668,2185.645 757.500 C 2183.282 778.950,2179.017 829.861,2176.167 870.636 C 2171.163 942.232,2171.175 945.191,2176.493 956.986 C 2183.716 973.002,2180.234 976.985,2162.393 973.118 C 2153.745 971.243,2149.715 968.871,2150.153 965.911 C 2150.512 963.485,2152.112 955.425,2153.709 948.000 C 2159.915 919.139,2163.672 816.252,2160.218 769.728 C 2158.392 745.122,2155.566 723.386,2153.938 721.425 C 2152.310 719.464,2141.275 716.958,2129.415 715.855 C 2117.555 714.753,2107.432 713.432,2106.920 712.920 C 2106.408 712.408,2106.857 703.681,2107.918 693.527 L 2109.848 675.065 2120.674 676.420 C 2126.628 677.165,2142.289 678.587,2155.475 679.578 M1326.000 688.105 C 1326.000 697.898,1335.719 698.843,1415.399 696.799 C 1479.952 695.143,1488.691 693.563,1481.461 684.851 C 1479.014 681.902,1460.440 681.000,1402.133 681.000 L 1326.000 681.000 1326.000 688.105 M2389.437 691.175 C 2384.624 694.694,2384.346 696.098,2387.670 700.102 C 2391.128 704.268,2399.802 704.655,2458.057 703.242 L 2524.500 701.629 2525.449 694.315 L 2526.399 687.000 2460.773 687.000 C 2409.441 687.000,2393.903 687.909,2389.437 691.175 M1721.390 717.877 C 1722.204 736.516,1722.925 738.500,1729.835 741.127 C 1733.991 742.707,1741.883 744.000,1747.374 744.000 C 1753.711 744.000,1758.023 745.734,1759.179 748.745 C 1762.060 756.253,1761.296 927.000,1758.381 927.000 C 1751.365 927.000,1728.191 914.258,1726.901 909.691 C 1726.095 906.836,1721.920 880.200,1717.623 850.500 C 1713.326 820.800,1707.155 782.325,1703.908 765.000 C 1700.662 747.675,1697.157 725.854,1696.120 716.509 C 1694.326 700.341,1694.580 699.450,1701.367 698.116 C 1719.094 694.631,1720.432 695.952,1721.390 717.877 M2136.438 731.967 L 2144.376 732.000 2146.589 776.250 C 2147.897 802.400,2147.403 845.042,2145.382 880.500 C 2141.742 944.355,2140.709 947.898,2125.677 948.071 C 2120.697 948.129,2101.576 955.172,2080.500 964.713 C 2078.607 965.570,2077.445 954.163,2077.351 933.786 C 2077.269 916.029,2076.046 869.438,2074.632 830.250 L 2072.063 759.000 2080.864 759.000 C 2093.447 759.000,2102.446 751.506,2104.776 739.085 C 2106.731 728.661,2107.112 728.396,2117.645 730.139 C 2123.615 731.126,2132.072 731.949,2136.438 731.967 M1995.000 752.716 L 2059.500 757.605 2060.304 828.580 L 2061.108 899.555 2045.304 901.337 C 1948.588 912.243,1882.462 911.811,1799.696 899.733 L 1776.892 896.405 1775.353 831.453 C 1774.507 795.729,1774.443 761.529,1775.212 755.454 L 1776.609 744.408 1853.554 746.118 C 1895.874 747.058,1959.525 750.027,1995.000 752.716 M471.000 877.821 C 471.000 895.551,470.446 897.406,465.750 895.404 C 456.590 891.499,426.000 889.995,426.000 893.449 C 426.000 895.193,430.388 897.164,435.750 897.830 C 445.230 899.006,445.185 899.053,434.107 899.520 L 422.714 900.000 423.607 881.250 L 424.500 862.500 436.500 860.676 C 443.100 859.672,453.563 858.660,459.750 858.426 L 471.000 858.000 471.000 877.821 M411.610 896.563 L 412.500 913.500 441.750 912.453 L 471.000 911.407 471.000 924.742 C 471.000 959.010,474.958 993.000,478.949 993.000 C 481.896 993.000,483.000 997.859,483.000 1010.823 C 483.000 1020.626,481.988 1029.240,480.750 1029.966 C 479.513 1030.692,461.102 1031.784,439.838 1032.393 L 401.176 1033.500 401.776 1005.387 C 402.107 989.925,400.766 956.596,398.796 931.323 C 396.826 906.051,395.984 883.369,396.924 880.919 C 397.976 878.177,400.955 877.073,404.676 878.046 C 409.686 879.356,410.871 882.521,411.610 896.563 M1793.614 916.614 C 1794.234 917.234,1793.951 919.800,1792.986 922.316 C 1790.654 928.393,1777.913 923.919,1776.453 916.512 C 1775.575 912.057,1776.783 911.546,1783.947 913.344 C 1788.644 914.523,1792.995 915.995,1793.614 916.614 M1822.500 924.000 C 1822.500 928.160,1820.830 931.366,1818.750 931.200 C 1816.688 931.035,1812.300 930.698,1809.000 930.450 C 1804.677 930.126,1803.000 927.850,1803.000 922.310 C 1803.000 915.441,1804.041 914.720,1812.750 915.560 C 1820.899 916.346,1822.500 917.731,1822.500 924.000 M2061.000 1025.625 L 2061.000 1136.250 2051.625 1138.125 C 2039.576 1140.535,1978.922 1140.500,1964.250 1138.074 L 1953.000 1136.215 1953.000 1071.275 C 1953.000 1018.961,1952.142 1005.109,1948.585 1000.032 C 1944.767 994.581,1939.884 993.436,1912.497 991.569 C 1889.238 989.984,1879.653 990.383,1876.412 993.073 C 1870.909 997.640,1870.538 1033.348,1875.377 1092.773 C 1877.234 1115.583,1878.041 1134.959,1877.169 1135.831 C 1876.297 1136.703,1854.593 1136.456,1828.937 1135.282 L 1782.290 1133.149 1780.686 1125.324 C 1777.985 1112.143,1772.644 1001.846,1774.435 996.206 C 1775.359 993.294,1779.427 989.402,1783.475 987.557 C 1796.496 981.625,1797.141 960.141,1784.674 947.674 C 1776.199 939.199,1779.133 937.714,1796.244 941.819 C 1804.256 943.741,1816.141 945.116,1822.656 944.874 C 1829.170 944.633,1850.025 945.575,1869.000 946.967 C 1942.819 952.386,2010.630 947.260,2040.872 933.975 C 2056.091 927.289,2055.086 919.126,2039.212 920.494 C 2032.607 921.063,2028.000 920.132,2028.000 918.230 C 2028.000 916.315,2034.717 915.000,2044.500 915.000 L 2061.000 915.000 2061.000 1025.625 M2016.060 922.572 C 2020.765 928.241,2020.179 928.737,2006.250 930.887 C 1993.976 932.781,1993.515 932.380,1998.106 923.803 C 2001.825 916.853,2010.803 916.238,2016.060 922.572 M1857.000 928.699 C 1857.000 935.329,1855.854 936.267,1848.750 935.449 C 1842.843 934.770,1840.228 932.583,1839.541 927.750 C 1838.726 922.008,1839.958 921.000,1847.791 921.000 C 1855.677 921.000,1857.000 922.106,1857.000 928.699 M1984.500 928.750 C 1984.500 937.295,1966.407 938.704,1964.217 930.329 C 1962.987 925.627,1964.357 924.078,1970.575 923.141 C 1982.150 921.396,1984.500 922.343,1984.500 928.750 M1914.000 929.823 C 1914.000 938.128,1911.879 938.581,1889.250 935.112 C 1875.915 933.068,1869.000 930.641,1869.000 928.004 C 1869.000 925.021,1874.739 924.000,1891.500 924.000 C 1911.772 924.000,1914.000 924.577,1914.000 929.823 M1950.000 931.500 C 1950.000 938.071,1948.700 939.000,1939.500 939.000 C 1931.318 939.000,1929.000 937.786,1929.000 933.500 C 1929.000 925.957,1931.575 924.000,1941.500 924.000 C 1948.567 924.000,1950.000 925.265,1950.000 931.500 M1682.905 936.750 C 1682.852 938.813,1680.827 943.121,1678.405 946.323 C 1675.982 949.526,1674.000 955.681,1674.000 960.000 C 1674.000 964.319,1675.982 970.474,1678.405 973.677 C 1685.580 983.164,1683.776 984.922,1668.950 982.890 C 1649.620 980.240,1614.636 963.731,1612.220 956.117 C 1608.330 943.862,1631.587 933.958,1665.750 933.321 C 1677.767 933.097,1682.971 934.138,1682.905 936.750 M1758.669 946.201 C 1767.649 951.240,1772.320 956.241,1774.231 962.863 C 1777.770 975.127,1772.980 980.064,1754.123 983.587 C 1739.103 986.393,1734.084 984.155,1741.533 977.973 C 1746.627 973.745,1747.399 958.071,1743.074 946.695 C 1739.396 937.021,1742.157 936.933,1758.669 946.201 M2133.000 971.535 C 2133.000 985.230,2141.935 990.713,2166.733 992.235 C 2186.149 993.426,2189.261 992.849,2195.546 986.892 C 2200.916 981.804,2202.183 978.165,2200.871 971.607 C 2198.876 961.632,2199.628 961.308,2209.606 967.845 C 2220.992 975.305,2219.051 983.362,2204.250 990.081 C 2177.330 1002.300,2088.877 995.685,2091.595 981.656 C 2092.715 975.871,2116.432 963.000,2125.972 963.000 C 2131.696 963.000,2133.000 964.584,2133.000 971.535 M714.842 998.250 C 717.456 1006.088,725.053 1028.208,731.723 1047.406 L 743.851 1082.311 739.295 1099.906 C 736.790 1109.583,730.748 1130.475,725.870 1146.333 C 720.991 1162.190,717.000 1177.888,717.000 1181.215 C 717.000 1192.821,710.805 1194.238,661.810 1193.844 C 623.779 1193.539,615.000 1192.678,615.000 1189.252 C 615.000 1186.933,622.324 1167.140,631.276 1145.268 C 668.798 1053.590,669.646 1050.761,661.616 1044.096 C 659.205 1042.095,656.346 1037.543,655.263 1033.979 C 654.180 1030.416,648.802 1018.461,643.312 1007.414 L 633.331 987.329 645.915 986.189 C 652.837 985.561,670.107 984.812,684.294 984.524 L 710.089 984.000 714.842 998.250 M599.147 1019.250 C 593.253 1130.907,585.086 1253.776,583.095 1260.750 C 581.809 1265.254,577.727 1266.000,554.356 1266.000 L 527.116 1266.000 529.053 1235.250 C 530.118 1218.338,532.313 1168.725,533.930 1125.000 C 535.547 1081.275,537.695 1033.079,538.704 1017.897 L 540.538 990.295 556.019 989.202 C 564.534 988.602,578.104 987.860,586.175 987.555 L 600.850 987.000 599.147 1019.250 M640.943 1020.750 L 657.937 1054.500 648.644 1080.000 C 632.622 1123.963,607.429 1184.771,603.687 1188.513 C 601.714 1190.486,599.383 1191.383,598.506 1190.506 C 597.630 1189.630,599.009 1156.645,601.571 1117.206 C 604.134 1077.768,607.050 1032.338,608.052 1016.250 C 609.805 988.079,610.132 987.000,616.911 987.000 C 622.872 987.000,626.552 992.168,640.943 1020.750 M1852.030 1173.750 C 1853.051 1185.713,1854.782 1214.598,1855.875 1237.940 L 1857.863 1280.380 1844.682 1288.850 C 1817.124 1306.557,1791.709 1314.823,1760.250 1316.313 C 1739.527 1317.294,1731.000 1316.700,1731.000 1314.274 C 1731.000 1310.174,1749.686 1272.927,1755.880 1264.681 C 1760.143 1259.006,1760.789 1259.130,1782.012 1269.689 C 1793.980 1275.644,1805.572 1279.825,1807.772 1278.981 C 1814.863 1276.260,1816.055 1265.542,1815.644 1208.250 L 1815.239 1152.000 1832.706 1152.000 L 1850.172 1152.000 1852.030 1173.750 M2022.690 1218.750 L 2023.500 1282.500 2037.000 1282.474 C 2044.425 1282.459,2054.092 1281.451,2058.482 1280.234 L 2066.463 1278.020 2068.598 1303.644 C 2069.771 1317.737,2069.949 1330.051,2068.992 1331.008 C 2066.133 1333.867,2018.339 1323.164,2008.560 1317.475 C 1994.141 1309.086,1992.357 1298.828,1992.169 1223.250 L 1992.000 1155.000 2006.940 1155.000 L 2021.881 1155.000 2022.690 1218.750 M2389.500 1171.554 C 2336.700 1173.569,2277.532 1176.237,2258.015 1177.483 C 2225.414 1179.565,2222.284 1180.288,2219.505 1186.387 C 2217.027 1191.827,2218.160 1195.416,2225.782 1206.263 C 2230.898 1213.543,2244.177 1232.827,2255.292 1249.115 C 2266.406 1265.403,2279.550 1284.463,2284.500 1291.471 C 2289.450 1298.480,2304.755 1320.590,2318.511 1340.607 C 2341.123 1373.508,2344.387 1377.000,2352.537 1377.000 L 2361.552 1377.000 2356.026 1368.303 C 2352.987 1363.520,2338.600 1342.257,2324.056 1321.053 C 2309.512 1299.849,2284.874 1263.922,2269.306 1241.216 C 2253.738 1218.509,2241.000 1198.787,2241.000 1197.389 C 2241.000 1194.721,2272.283 1192.690,2386.500 1187.943 C 2424.450 1186.366,2471.363 1184.181,2490.750 1183.087 C 2525.186 1181.146,2526.000 1180.937,2526.000 1174.050 C 2526.000 1165.747,2536.589 1165.940,2389.500 1171.554 M1533.000 1176.102 C 1502.475 1177.275,1452.525 1178.416,1422.000 1178.638 C 1391.475 1178.861,1357.388 1179.903,1346.250 1180.955 C 1327.523 1182.724,1326.000 1183.399,1326.000 1189.934 C 1326.000 1195.660,1327.565 1196.986,1334.250 1196.928 C 1397.302 1196.379,1604.369 1190.652,1608.492 1189.344 C 1617.927 1186.349,1614.726 1192.090,1592.250 1218.472 C 1565.379 1250.014,1520.549 1304.943,1504.500 1325.990 C 1497.900 1334.646,1485.971 1349.664,1477.990 1359.364 L 1463.481 1377.000 1474.051 1377.000 C 1483.789 1377.000,1486.228 1374.928,1505.060 1350.661 C 1538.635 1307.396,1568.540 1270.702,1604.249 1228.956 C 1630.157 1198.667,1637.825 1187.757,1637.249 1182.000 C 1636.521 1174.712,1635.820 1174.493,1612.500 1174.235 C 1599.300 1174.090,1563.525 1174.930,1533.000 1176.102 M649.941 1231.800 L 663.060 1256.101 656.982 1269.842 C 649.226 1287.375,627.198 1315.398,623.824 1312.024 C 621.766 1309.966,612.000 1228.425,612.000 1213.300 C 612.000 1208.901,619.178 1206.355,629.661 1207.035 C 635.366 1207.406,639.487 1212.438,649.941 1231.800 M1710.000 1241.887 C 1710.000 1249.217,1698.661 1280.055,1692.450 1289.619 L 1687.826 1296.739 1680.913 1288.702 C 1673.028 1279.535,1672.210 1270.091,1678.083 1256.035 C 1683.852 1242.228,1691.043 1236.000,1701.214 1236.000 C 1707.944 1236.000,1710.000 1237.378,1710.000 1241.887 M1737.000 1250.970 C 1740.814 1253.410,1739.443 1257.859,1728.000 1280.174 C 1719.937 1295.898,1712.386 1306.891,1709.250 1307.470 C 1702.135 1308.785,1702.639 1304.081,1711.506 1286.428 C 1715.634 1278.209,1719.857 1266.200,1720.889 1259.742 C 1722.825 1247.637,1727.667 1245.001,1737.000 1250.970 M2126.550 1275.208 C 2141.508 1291.264,2137.589 1341.000,2121.366 1341.000 C 2116.659 1341.000,2115.609 1337.504,2113.930 1316.250 C 2112.854 1302.638,2111.128 1286.438,2110.095 1280.250 C 2108.422 1270.236,2108.905 1269.000,2114.491 1269.000 C 2117.942 1269.000,2123.369 1271.793,2126.550 1275.208 M2095.308 1290.750 C 2096.351 1301.063,2097.976 1316.025,2098.918 1324.000 C 2100.562 1337.907,2100.343 1338.459,2093.566 1337.500 C 2086.912 1336.558,2086.319 1334.710,2083.394 1305.785 C 2081.252 1284.609,2081.252 1274.668,2083.394 1273.772 C 2091.663 1270.315,2093.506 1272.942,2095.308 1290.750 M564.000 1287.238 C 564.000 1296.090,563.591 1296.389,554.250 1294.388 C 542.217 1291.810,542.900 1292.530,544.969 1284.619 C 546.249 1279.724,548.953 1278.000,555.350 1278.000 C 563.011 1278.000,564.000 1279.057,564.000 1287.238 M564.000 1321.229 L 564.000 1337.458 543.750 1340.858 C 518.684 1345.066,461.447 1343.885,459.870 1339.128 C 458.015 1333.532,474.449 1316.511,487.376 1310.639 C 496.691 1306.408,506.971 1305.117,531.750 1305.066 L 564.000 1305.000 564.000 1321.229 M214.146 1676.250 C 217.122 1811.426,221.571 1967.821,223.341 1999.500 C 224.171 2014.350,225.599 2066.325,226.513 2115.000 C 228.123 2200.649,233.081 2301.014,240.147 2391.000 C 242.026 2414.925,244.449 2474.215,245.532 2522.755 C 246.864 2582.508,248.563 2611.363,250.791 2612.102 C 259.538 2615.005,260.063 2501.256,251.888 2374.500 C 246.680 2293.751,239.094 2111.687,240.877 2110.241 C 241.219 2109.963,275.653 2108.331,317.395 2106.615 C 393.143 2103.500,402.000 2101.984,402.000 2092.133 C 402.000 2086.965,401.623 2086.969,343.500 2092.651 C 264.917 2100.334,250.740 2102.010,245.681 2104.212 C 241.450 2106.055,240.633 2101.634,238.977 2067.905 C 237.940 2046.782,236.338 1995.750,235.418 1954.500 C 232.860 1839.819,225.217 1614.442,223.287 1596.750 C 222.015 1585.090,220.332 1581.000,216.808 1581.000 C 212.518 1581.000,212.255 1590.391,214.146 1676.250 M874.485 1585.461 C 872.519 1588.399,862.510 1590.916,845.166 1592.835 C 818.111 1595.829,813.000 1597.309,813.000 1602.148 C 813.000 1603.817,825.549 1604.175,844.154 1603.037 L 875.309 1601.130 877.535 1663.476 L 879.762 1725.821 938.631 1723.696 C 983.900 1722.061,999.162 1720.498,1004.692 1716.926 L 1011.884 1712.282 1010.218 1652.433 C 1008.213 1580.389,1008.480 1580.986,978.285 1581.026 C 967.403 1581.040,941.625 1583.054,921.000 1585.500 C 900.375 1587.946,883.163 1589.960,882.750 1589.974 C 882.338 1589.988,882.000 1587.975,882.000 1585.500 C 882.000 1579.744,878.323 1579.724,874.485 1585.461 M997.108 1649.392 C 998.543 1679.582,999.002 1704.998,998.128 1705.872 C 996.094 1707.906,894.501 1714.501,892.716 1712.716 C 890.568 1710.568,884.802 1604.199,886.728 1602.259 C 888.672 1600.302,971.349 1593.472,985.500 1594.100 L 994.500 1594.500 997.108 1649.392 M802.317 1681.500 C 803.674 1734.735,803.426 1767.000,801.661 1767.000 C 800.101 1767.000,793.911 1763.094,787.904 1758.321 C 772.426 1746.021,744.858 1740.323,686.244 1737.309 C 655.370 1735.722,634.323 1733.343,631.670 1731.141 C 628.658 1728.641,620.265 1728.148,603.926 1729.510 C 577.835 1731.686,564.743 1728.431,544.595 1714.758 C 525.101 1701.529,501.000 1665.526,501.000 1649.634 C 501.000 1642.832,497.032 1642.396,490.905 1648.524 C 486.873 1652.556,486.878 1654.508,490.955 1666.473 C 493.471 1673.857,498.775 1684.309,502.741 1689.699 C 506.707 1695.090,512.045 1703.980,514.603 1709.456 C 517.626 1715.929,523.144 1721.047,530.376 1724.086 C 541.486 1728.755,541.490 1728.764,534.000 1731.586 C 525.278 1734.872,502.922 1732.159,492.040 1726.495 C 480.496 1720.486,471.673 1709.661,466.601 1695.287 C 459.461 1675.049,461.299 1650.000,469.924 1650.000 C 476.047 1650.000,481.379 1634.725,476.366 1631.545 C 470.392 1627.754,468.689 1628.412,462.890 1636.748 C 459.926 1641.009,453.527 1649.247,448.670 1655.054 C 440.744 1664.532,440.360 1665.904,444.920 1668.455 C 448.321 1670.358,450.000 1675.115,450.000 1682.844 C 450.000 1689.853,453.512 1701.066,458.935 1711.377 C 467.631 1727.907,467.691 1728.310,461.185 1726.370 C 450.668 1723.235,431.138 1711.254,423.893 1703.495 C 407.943 1686.410,402.920 1654.267,414.000 1640.181 C 420.759 1631.589,421.896 1622.952,416.250 1623.095 C 405.025 1623.381,393.000 1644.436,393.000 1663.806 C 393.000 1691.028,407.442 1713.657,435.773 1730.827 L 451.878 1740.588 427.441 1765.301 C 414.001 1778.893,398.629 1797.661,393.282 1807.007 C 385.886 1819.935,381.906 1824.000,376.647 1824.000 C 365.509 1824.000,361.999 1831.583,360.574 1858.719 L 359.248 1884.000 344.427 1884.000 C 325.207 1884.000,319.774 1887.195,313.861 1901.973 C 304.945 1924.255,309.844 1947.851,326.404 1962.391 C 335.494 1970.372,338.614 1971.372,351.716 1970.497 L 366.659 1969.500 374.580 1989.000 C 401.642 2055.628,455.604 2097.538,533.250 2112.232 C 554.831 2116.316,554.488 2115.415,547.801 2150.483 C 545.488 2162.609,541.047 2175.388,537.896 2178.983 C 534.754 2182.567,524.901 2196.638,516.000 2210.250 C 502.053 2231.580,496.664 2237.602,494.520 2234.250 C 494.257 2233.838,493.244 2211.915,492.270 2185.533 C 490.703 2143.059,489.899 2137.452,485.250 2136.564 C 481.024 2135.756,480.000 2137.700,480.000 2146.528 L 480.000 2157.495 467.250 2156.738 C 460.238 2156.322,415.488 2156.211,367.807 2156.491 L 281.114 2157.000 283.440 2247.750 C 284.720 2297.663,286.607 2360.775,287.633 2388.000 L 289.500 2437.500 336.750 2436.380 L 384.000 2435.259 384.041 2443.880 C 384.063 2448.621,384.818 2455.238,385.717 2458.584 C 387.031 2463.474,385.199 2465.446,376.380 2468.635 C 353.440 2476.930,325.497 2516.972,321.991 2546.575 L 320.325 2560.642 379.913 2560.002 C 435.353 2559.406,458.790 2557.907,471.750 2554.127 C 475.687 2552.979,477.000 2549.405,477.000 2539.832 C 477.000 2499.002,444.907 2463.000,408.510 2463.000 L 393.780 2463.000 392.163 2448.750 C 391.273 2440.913,390.916 2434.119,391.369 2433.654 C 391.822 2433.189,415.083 2431.055,443.061 2428.912 C 471.038 2426.769,495.718 2423.910,497.905 2422.559 C 501.041 2420.621,501.445 2412.436,499.818 2383.801 C 497.296 2339.408,494.733 2324.411,489.366 2322.622 C 485.970 2321.490,485.449 2329.285,486.377 2367.376 L 487.500 2413.500 460.500 2415.499 C 445.650 2416.599,407.601 2419.637,375.946 2422.249 C 344.291 2424.862,314.400 2427.000,309.521 2427.000 L 300.651 2427.000 298.736 2370.750 C 297.683 2339.813,294.836 2280.863,292.410 2239.751 C 289.984 2198.638,288.337 2164.741,288.749 2164.423 C 289.162 2164.105,297.600 2164.891,307.500 2166.169 C 317.400 2167.448,359.508 2168.608,401.073 2168.747 C 442.638 2168.886,477.258 2170.013,478.007 2171.250 C 478.755 2172.488,479.848 2185.650,480.434 2200.500 L 481.500 2227.500 471.963 2228.424 C 463.636 2229.231,461.201 2231.704,452.760 2247.924 C 447.443 2258.141,440.934 2268.140,438.296 2270.144 C 434.041 2273.377,434.516 2274.645,442.500 2281.378 C 452.648 2289.936,496.560 2313.000,502.706 2313.000 C 513.260 2313.000,521.244 2305.805,526.304 2291.735 C 533.823 2270.826,537.000 2270.852,537.000 2291.823 C 537.000 2301.820,537.261 2311.013,537.580 2312.250 C 537.899 2313.488,534.197 2315.186,529.354 2316.025 L 520.548 2317.551 531.377 2323.940 C 539.352 2328.645,542.711 2333.020,544.121 2340.537 C 548.606 2364.443,577.013 2414.460,603.986 2445.945 L 618.931 2463.389 610.622 2489.445 C 606.052 2503.775,598.583 2526.300,594.024 2539.500 C 589.464 2552.700,580.632 2582.063,574.396 2604.750 C 568.161 2627.438,562.031 2646.000,560.774 2646.000 C 559.518 2646.000,555.764 2641.613,552.434 2636.250 C 546.393 2626.523,528.327 2610.327,511.749 2599.775 C 491.286 2586.751,465.000 2596.784,465.000 2617.618 C 465.000 2629.422,469.770 2635.568,506.431 2671.005 C 554.427 2717.396,559.044 2721.000,570.494 2721.000 C 579.768 2721.000,581.081 2719.912,584.077 2709.750 C 590.399 2688.304,653.544 2504.456,655.134 2502.866 C 656.012 2501.988,665.420 2508.184,676.041 2516.635 C 686.661 2525.086,696.852 2532.000,698.688 2532.000 C 700.523 2532.000,714.265 2520.188,729.225 2505.750 C 744.185 2491.313,757.602 2479.076,759.041 2478.557 C 760.479 2478.039,762.519 2482.764,763.574 2489.057 C 769.412 2523.892,779.239 2535.650,795.491 2527.246 C 808.451 2520.544,813.924 2506.872,815.401 2477.516 C 817.162 2442.516,806.925 2379.000,799.524 2379.000 C 797.296 2379.000,781.529 2394.073,764.487 2412.496 C 747.444 2430.918,726.525 2453.530,717.999 2462.745 C 709.474 2471.959,701.460 2478.460,700.192 2477.192 C 695.857 2472.857,699.298 2446.520,709.887 2403.000 C 728.171 2327.850,728.218 2325.763,713.679 2235.395 C 710.396 2214.987,708.181 2197.819,708.756 2197.244 C 709.680 2196.320,720.780 2210.201,751.347 2250.503 C 760.010 2261.926,760.088 2262.348,755.097 2270.797 C 747.245 2284.090,748.817 2294.783,761.255 2312.684 C 778.565 2337.596,777.992 2337.575,809.485 2314.391 C 844.820 2288.378,845.670 2285.484,824.962 2261.676 L 809.218 2243.575 811.443 2114.257 C 813.586 1989.739,813.923 1984.262,820.520 1966.719 C 824.289 1956.699,828.336 1939.475,829.515 1928.444 C 831.637 1908.582,831.770 1908.343,843.389 1903.694 C 858.681 1897.576,860.489 1897.732,867.124 1905.750 C 880.653 1922.099,875.849 1956.665,859.476 1960.774 C 855.121 1961.867,848.067 1961.171,843.801 1959.227 C 837.672 1956.435,835.525 1956.512,833.571 1959.596 C 824.321 1974.195,855.803 1981.475,874.684 1969.103 C 882.071 1964.264,891.000 1945.043,891.000 1933.984 C 891.000 1930.192,888.904 1920.031,886.342 1911.404 C 882.894 1899.794,879.286 1894.261,872.450 1890.104 C 867.372 1887.016,861.705 1884.941,859.858 1885.494 C 841.567 1890.967,840.000 1890.519,840.000 1879.807 C 840.000 1872.495,837.927 1867.902,832.864 1864.000 C 826.198 1858.862,825.885 1857.315,828.111 1840.500 C 829.421 1830.600,830.608 1813.434,830.747 1802.354 C 830.974 1784.250,830.124 1781.210,822.355 1772.354 L 813.709 1762.500 811.746 1693.500 C 809.530 1615.659,807.825 1596.000,803.288 1596.000 C 801.111 1596.000,800.812 1622.415,802.317 1681.500 M2234.838 1605.103 C 2231.111 1607.408,2230.528 1640.666,2230.699 1841.143 C 2230.852 2020.033,2231.804 2078.701,2234.777 2092.500 C 2237.659 2105.880,2239.018 2165.372,2240.069 2324.278 C 2241.307 2511.230,2242.062 2538.633,2246.090 2542.662 C 2248.624 2545.195,2252.227 2546.758,2254.098 2546.134 C 2258.794 2544.569,2260.403 2211.622,2256.094 2132.985 C 2254.331 2100.802,2251.548 2049.502,2249.910 2018.985 C 2246.518 1955.769,2245.922 1748.033,2248.894 1664.592 C 2250.798 1611.137,2250.628 1608.547,2245.031 1605.552 C 2241.477 1603.650,2237.472 1603.473,2234.838 1605.103 M2287.576 1616.250 C 2283.787 1625.875,2282.758 2476.752,2286.500 2505.882 C 2290.093 2533.861,2295.178 2541.736,2304.744 2534.134 C 2308.722 2530.972,2308.843 2527.189,2305.675 2505.000 C 2302.162 2480.394,2301.499 2230.069,2303.716 1766.311 C 2304.109 1684.257,2303.578 1615.745,2302.538 1614.061 C 2299.490 1609.129,2289.822 1610.544,2287.576 1616.250 M2485.925 1616.250 C 2485.112 1619.138,2483.622 1648.500,2482.615 1681.500 C 2481.607 1714.500,2479.447 1767.825,2477.814 1800.000 C 2476.181 1832.175,2473.525 1933.425,2471.911 2025.000 C 2470.297 2116.575,2467.663 2220.525,2466.057 2256.000 C 2464.451 2291.475,2462.768 2368.129,2462.318 2426.343 C 2461.612 2517.746,2462.114 2532.581,2466.000 2535.089 C 2468.475 2536.686,2472.525 2537.639,2475.000 2537.208 C 2478.907 2536.527,2479.753 2514.992,2481.417 2373.743 C 2482.471 2284.269,2484.228 2208.734,2485.320 2205.887 C 2486.412 2203.041,2488.581 2126.414,2490.139 2035.606 C 2491.697 1944.798,2494.939 1834.050,2497.343 1789.500 C 2505.153 1644.775,2505.645 1627.925,2502.315 1619.250 C 2498.712 1609.863,2488.263 1607.951,2485.925 1616.250 M1486.406 1618.500 C 1485.633 1620.975,1484.275 1625.266,1483.389 1628.036 C 1482.502 1630.805,1483.129 1658.143,1484.780 1688.786 C 1492.634 1834.521,1494.277 1888.574,1497.045 2092.500 C 1500.382 2338.252,1505.294 2534.370,1508.497 2549.714 C 1511.002 2561.717,1518.952 2568.248,1524.411 2562.789 C 1527.178 2560.022,1527.165 2546.735,1524.352 2503.996 C 1522.354 2473.627,1519.483 2353.766,1517.973 2237.639 C 1513.308 1878.838,1505.666 1625.795,1499.254 1617.750 C 1495.165 1612.620,1488.114 1613.031,1486.406 1618.500 M1600.366 1617.217 C 1599.272 1618.987,1599.185 1655.774,1600.172 1698.967 C 1601.160 1742.160,1602.691 1851.075,1603.574 1941.000 C 1604.458 2030.925,1606.439 2132.175,1607.975 2166.000 C 1609.512 2199.825,1611.517 2256.525,1612.431 2292.000 C 1615.589 2414.578,1623.485 2548.892,1628.270 2561.409 C 1629.091 2563.558,1632.629 2564.908,1636.132 2564.409 C 1643.577 2563.346,1643.415 2570.450,1638.443 2463.000 C 1626.921 2213.991,1620.139 1988.673,1619.797 1843.500 C 1619.452 1696.671,1616.424 1620.371,1610.801 1616.813 C 1605.140 1613.231,1602.773 1613.323,1600.366 1617.217 M1645.269 1713.484 C 1646.450 1766.843,1648.638 1838.175,1650.130 1872.000 C 1651.622 1905.825,1652.878 1953.873,1652.921 1978.774 C 1652.965 2003.675,1654.944 2052.950,1657.320 2088.274 C 1663.338 2177.740,1664.918 2231.967,1666.575 2405.759 C 1667.368 2488.951,1668.434 2557.434,1668.944 2557.944 C 1669.454 2558.454,1673.162 2559.237,1677.185 2559.685 L 1684.500 2560.500 1683.742 2392.500 C 1683.290 2292.429,1681.113 2188.716,1678.358 2136.000 C 1675.813 2087.325,1672.442 2002.950,1670.866 1948.500 C 1669.289 1894.050,1666.708 1827.225,1665.129 1800.000 C 1663.550 1772.775,1662.066 1724.175,1661.830 1692.000 C 1661.345 1625.727,1660.284 1618.936,1650.187 1617.484 L 1643.120 1616.467 1645.269 1713.484 M704.782 1752.019 C 728.588 1753.694,748.692 1755.692,749.460 1756.460 C 750.227 1757.227,749.147 1759.913,747.060 1762.428 C 740.025 1770.904,748.352 1775.160,776.328 1777.386 C 811.300 1780.169,815.753 1781.470,817.767 1789.498 C 819.364 1795.859,813.788 1854.125,811.343 1856.630 C 807.783 1860.277,767.200 1850.673,757.062 1843.784 C 750.762 1839.503,743.002 1836.000,739.817 1836.000 C 736.633 1836.000,728.152 1832.557,720.972 1828.349 C 700.932 1816.605,693.811 1825.947,711.750 1840.445 L 721.500 1848.325 700.979 1846.284 C 661.780 1842.385,658.287 1842.993,654.311 1854.398 C 649.032 1869.540,641.635 1948.650,644.735 1956.804 C 651.460 1974.492,675.457 1980.000,745.792 1980.000 L 798.288 1980.000 788.642 1994.250 C 770.566 2020.953,732.496 2055.415,705.336 2069.661 C 632.026 2108.114,533.404 2109.396,466.500 2072.765 C 439.421 2057.939,408.585 2025.369,395.054 1997.303 C 388.904 1984.544,383.056 1970.032,382.061 1965.053 L 380.250 1956.000 434.721 1956.000 C 506.100 1956.000,507.616 1955.417,513.910 1925.557 C 523.576 1879.701,525.293 1851.082,518.843 1843.311 C 514.901 1838.561,449.548 1806.000,443.957 1806.000 C 438.925 1806.000,440.685 1812.778,447.639 1820.180 L 454.278 1827.247 428.889 1825.211 C 414.925 1824.092,403.042 1822.790,402.481 1822.319 C 400.146 1820.356,426.314 1785.447,439.858 1772.457 C 469.868 1743.676,456.983 1746.217,565.500 1747.680 C 618.300 1748.391,680.977 1750.344,704.782 1752.019 M771.000 1764.000 C 771.000 1765.650,770.405 1767.000,769.677 1767.000 C 768.949 1767.000,767.520 1765.650,766.500 1764.000 C 765.480 1762.350,766.076 1761.000,767.823 1761.000 C 769.570 1761.000,771.000 1762.350,771.000 1764.000 M1961.141 1793.032 C 1950.928 1800.298,1946.214 1801.292,1911.676 1803.467 C 1849.856 1807.359,1845.706 1808.633,1803.667 1836.649 C 1764.144 1862.988,1742.181 1897.124,1737.492 1939.500 L 1735.500 1957.500 1723.659 1957.500 C 1713.549 1957.500,1710.807 1958.991,1704.909 1967.694 C 1694.828 1982.567,1695.656 1998.121,1707.229 2011.303 C 1713.130 2018.023,1720.288 2022.533,1727.078 2023.806 C 1736.394 2025.554,1738.635 2027.847,1745.337 2042.486 C 1754.324 2062.116,1763.527 2076.176,1775.211 2088.127 C 1788.068 2101.277,1832.359 2126.766,1851.750 2132.173 C 1869.839 2137.218,1871.668 2139.718,1864.352 2149.396 C 1858.448 2157.204,1840.431 2214.976,1833.912 2247.000 C 1830.187 2265.301,1828.757 2286.475,1828.846 2322.000 C 1828.993 2380.818,1831.579 2389.111,1854.428 2404.046 L 1868.892 2413.500 1868.946 2469.520 L 1869.000 2525.540 1877.127 2535.199 C 1891.713 2552.533,1927.693 2564.487,1940.625 2556.295 C 1948.970 2551.009,1945.235 2537.969,1931.227 2523.484 L 1917.704 2509.500 1914.269 2443.500 C 1912.379 2407.200,1910.556 2372.100,1910.218 2365.500 L 1909.604 2353.500 1924.536 2349.802 C 1947.306 2344.164,1990.725 2341.510,1993.254 2345.602 C 1994.454 2347.544,1993.465 2349.000,1990.944 2349.000 C 1988.518 2349.000,1982.963 2353.244,1978.598 2358.430 C 1971.077 2367.369,1970.577 2367.531,1969.008 2361.530 C 1967.311 2355.042,1958.215 2350.277,1953.311 2353.308 C 1951.802 2354.240,1951.270 2365.465,1952.129 2378.252 C 1952.988 2391.038,1952.154 2427.734,1950.276 2459.797 L 1946.861 2518.094 1956.016 2526.456 C 1966.631 2536.152,1990.337 2544.059,2002.065 2541.817 C 2010.178 2540.267,2019.000 2530.952,2019.000 2523.937 C 2019.000 2518.641,2001.173 2499.000,1996.366 2499.000 C 1990.120 2499.000,1989.449 2495.736,1992.050 2478.000 C 1993.382 2468.925,1995.348 2455.085,1996.420 2447.243 C 1998.280 2433.644,1998.672 2433.155,2004.935 2436.647 C 2009.361 2439.116,2028.116 2440.339,2062.500 2440.404 C 2111.266 2440.496,2114.223 2440.159,2130.000 2432.712 C 2159.184 2418.938,2174.910 2395.649,2166.120 2379.225 C 2160.502 2368.727,2135.277 2344.092,2124.000 2338.089 C 2115.153 2333.380,2106.149 2332.445,2066.799 2332.150 C 2008.314 2331.711,2007.032 2331.154,2006.906 2306.144 C 2006.644 2253.954,1993.386 2186.552,1976.738 2152.771 C 1971.932 2143.020,1968.000 2134.751,1968.000 2134.396 C 1968.000 2134.041,1972.073 2132.935,1977.051 2131.940 C 1992.750 2128.800,2036.819 2105.104,2054.042 2090.542 C 2072.189 2075.198,2093.124 2049.162,2097.663 2036.290 C 2099.846 2030.103,2103.631 2027.264,2113.029 2024.766 C 2141.084 2017.309,2153.943 2001.129,2149.718 1978.606 C 2147.523 1966.908,2143.191 1962.730,2127.778 1957.445 L 2116.500 1953.578 2114.548 1932.178 C 2111.961 1903.824,2100.940 1881.705,2076.969 1856.760 C 2060.302 1839.415,2057.995 1835.593,2057.956 1825.260 C 2057.898 1809.943,2052.780 1800.275,2040.263 1791.840 C 2031.445 1785.898,2026.326 1785.000,2001.271 1785.000 C 1974.808 1785.000,1971.498 1785.662,1961.141 1793.032 M2029.350 1806.477 C 2037.769 1810.314,2043.534 1825.484,2040.825 1836.677 C 2038.314 1847.055,2025.818 1862.389,2015.095 1868.253 C 2007.208 1872.566,1998.023 1873.474,1963.500 1873.356 C 1926.246 1873.228,1919.720 1872.423,1905.750 1866.236 C 1889.000 1858.818,1884.244 1851.893,1898.250 1855.317 C 1934.763 1864.243,1972.096 1864.128,1990.137 1855.034 C 2006.664 1846.704,2016.000 1835.840,2016.000 1824.939 C 2016.000 1817.000,2014.793 1815.000,2010.000 1815.000 C 2006.700 1815.000,2002.988 1814.739,2001.750 1814.420 C 2000.513 1814.101,1998.825 1817.738,1998.000 1822.502 C 1995.864 1834.834,1982.421 1841.623,1955.726 1843.851 C 1939.707 1845.188,1927.988 1844.317,1913.764 1840.732 C 1891.066 1835.010,1879.975 1837.382,1874.636 1849.100 C 1869.204 1861.023,1876.736 1871.960,1897.501 1882.298 C 1915.110 1891.066,1916.507 1891.262,1962.000 1891.380 C 2005.374 1891.492,2009.402 1891.019,2021.925 1884.345 C 2029.309 1880.409,2039.075 1873.202,2043.628 1868.328 L 2051.906 1859.466 2060.579 1866.483 C 2080.321 1882.455,2096.627 1914.109,2096.868 1936.929 C 2097.004 1949.733,2093.931 1953.000,2081.755 1953.000 C 2077.148 1953.000,2076.000 1950.847,2076.000 1942.203 C 2076.000 1915.768,2058.138 1899.224,2027.063 1896.877 C 1995.695 1894.507,1975.867 1907.221,1962.733 1938.126 L 1954.500 1957.500 1935.000 1956.000 L 1915.500 1954.500 1915.015 1941.732 C 1914.454 1926.940,1907.017 1912.749,1895.218 1903.954 C 1885.005 1896.341,1852.364 1893.465,1839.002 1898.999 C 1824.595 1904.967,1810.532 1923.050,1804.413 1943.476 L 1798.864 1962.000 1776.522 1962.000 L 1754.179 1962.000 1755.763 1942.258 C 1759.066 1901.109,1790.210 1861.463,1839.000 1836.298 C 1861.160 1824.869,1862.215 1824.649,1908.781 1821.804 C 1952.764 1819.116,1956.841 1818.360,1967.245 1810.957 C 1976.860 1804.116,1981.465 1803.000,2000.073 1803.000 C 2011.978 1803.000,2025.152 1804.565,2029.350 1806.477 M376.714 1846.714 C 375.611 1851.111,374.033 1854.033,373.208 1853.208 C 372.383 1852.383,372.611 1848.111,373.714 1843.714 C 374.818 1839.318,376.396 1836.396,377.221 1837.221 C 378.046 1838.046,377.818 1842.318,376.714 1846.714 M472.500 1843.052 L 508.500 1846.500 508.128 1867.500 C 507.597 1897.482,498.916 1934.298,491.435 1938.303 C 488.171 1940.049,461.099 1942.227,431.277 1943.141 L 377.053 1944.802 379.085 1918.366 C 381.099 1892.169,386.658 1863.155,392.712 1847.250 C 395.728 1839.324,396.649 1839.012,416.176 1839.302 C 427.354 1839.468,452.700 1841.155,472.500 1843.052 M720.464 1861.258 C 742.484 1863.600,770.963 1866.415,783.750 1867.514 L 807.000 1869.512 806.701 1910.506 C 806.536 1933.053,805.454 1954.875,804.296 1959.000 L 802.191 1966.500 755.845 1965.424 C 698.028 1964.081,666.442 1960.775,661.416 1955.542 C 658.325 1952.323,658.129 1942.639,660.453 1908.000 C 662.058 1884.075,663.920 1862.813,664.591 1860.750 C 666.137 1856.001,671.491 1856.050,720.464 1861.258 M2375.112 1864.274 C 2367.198 1866.402,2356.566 1872.048,2351.485 1876.821 C 2340.150 1887.469,2324.982 1918.291,2325.068 1930.500 C 2325.227 1952.944,2347.810 1980.817,2369.069 1984.805 C 2425.981 1995.481,2463.510 1916.011,2420.501 1875.893 C 2414.686 1870.469,2393.504 1859.447,2390.346 1860.202 C 2389.881 1860.314,2383.025 1862.146,2375.112 1864.274 M542.562 1874.119 C 538.196 1874.789,532.563 1877.625,530.044 1880.419 C 525.772 1885.159,527.611 1885.537,557.482 1886.054 C 575.092 1886.359,600.899 1888.041,614.830 1889.793 C 634.533 1892.270,640.670 1892.152,642.455 1889.264 C 645.905 1883.681,641.328 1880.758,622.019 1876.215 C 605.862 1872.414,561.307 1871.238,542.562 1874.119 M826.821 1876.745 C 825.819 1879.355,825.000 1884.835,825.000 1888.922 C 825.000 1893.010,823.912 1895.681,822.581 1894.859 C 819.201 1892.770,821.989 1872.000,825.649 1872.000 C 827.295 1872.000,827.822 1874.135,826.821 1876.745 M2408.836 1891.330 C 2429.886 1913.049,2422.574 1950.333,2394.859 1962.592 C 2382.975 1967.849,2379.504 1968.202,2369.406 1965.176 C 2338.556 1955.933,2338.759 1908.716,2369.739 1887.839 C 2384.672 1877.775,2396.742 1878.853,2408.836 1891.330 M444.750 1890.945 C 442.688 1895.590,441.000 1907.377,441.000 1917.138 C 441.000 1933.844,441.468 1935.003,448.967 1936.885 C 454.835 1938.358,457.996 1937.432,460.967 1933.369 C 466.499 1925.803,466.352 1891.857,460.767 1887.222 C 454.863 1882.322,453.206 1886.524,455.520 1900.526 C 457.948 1915.208,456.566 1932.000,452.931 1932.000 C 451.453 1932.000,449.851 1920.863,449.371 1907.250 C 448.574 1884.591,448.183 1883.213,444.750 1890.945 M358.833 1926.000 C 362.746 1957.701,361.730 1960.268,346.500 1957.142 C 334.123 1954.601,332.971 1953.662,328.194 1942.230 C 322.614 1928.875,322.881 1910.933,328.785 1902.503 C 332.540 1897.143,335.911 1895.869,344.443 1896.586 L 355.315 1897.500 358.833 1926.000 M707.503 1913.250 C 705.661 1917.788,704.007 1927.575,703.827 1935.000 L 703.500 1948.500 717.750 1949.414 C 730.182 1950.212,732.000 1949.584,732.000 1944.490 C 732.000 1940.763,729.286 1937.969,724.500 1936.768 C 716.534 1934.769,715.067 1929.218,720.046 1919.914 C 721.818 1916.603,724.954 1914.938,727.546 1915.933 C 730.616 1917.111,732.000 1915.678,732.000 1911.321 C 732.000 1906.089,730.179 1905.000,721.426 1905.000 C 712.702 1905.000,710.266 1906.444,707.503 1913.250 M1882.214 1917.416 C 1893.868 1922.726,1898.917 1936.575,1895.935 1955.050 C 1891.221 1984.254,1882.457 1992.923,1857.690 1992.884 C 1835.771 1992.849,1822.186 1986.229,1819.567 1974.304 C 1815.373 1955.211,1827.104 1926.649,1842.695 1917.992 C 1851.260 1913.236,1872.365 1912.928,1882.214 1917.416 M2041.355 1918.246 C 2055.180 1924.023,2059.114 1932.427,2056.659 1950.940 C 2054.437 1967.683,2051.241 1975.216,2042.102 1985.250 C 2036.739 1991.139,2032.992 1992.000,2012.744 1992.000 C 1990.509 1992.000,1989.207 1991.612,1981.767 1982.770 C 1973.116 1972.490,1972.577 1968.746,1977.295 1951.752 C 1986.111 1920.000,2012.509 1906.193,2041.355 1918.246 M1872.578 1953.750 C 1873.498 1966.476,1877.101 1969.266,1882.192 1961.196 C 1885.977 1955.195,1881.816 1941.000,1876.270 1941.000 C 1872.696 1941.000,1871.863 1943.875,1872.578 1953.750 M1845.569 1955.018 C 1846.906 1970.844,1854.000 1971.881,1854.000 1956.250 C 1854.000 1947.150,1852.796 1944.000,1849.319 1944.000 C 1845.758 1944.000,1844.861 1946.637,1845.569 1955.018 M2007.750 1949.104 C 2001.787 1951.324,2003.376 1955.844,2011.406 1959.503 C 2015.533 1961.384,2017.935 1964.343,2016.830 1966.189 C 2015.717 1968.048,2016.866 1967.867,2019.450 1965.776 C 2021.981 1963.728,2024.715 1962.715,2025.526 1963.526 C 2026.337 1964.337,2027.000 1961.149,2027.000 1956.442 C 2027.000 1949.263,2025.751 1947.870,2019.250 1947.796 C 2014.988 1947.747,2009.813 1948.336,2007.750 1949.104 M2096.937 1979.250 C 2096.848 1990.764,2084.675 2023.961,2074.848 2039.484 C 2052.658 2074.539,2007.963 2104.550,1957.556 2118.241 C 1898.870 2134.181,1823.868 2113.010,1784.187 2069.303 C 1767.223 2050.616,1757.433 2028.278,1755.721 2004.342 L 1754.259 1983.917 1768.548 1981.959 C 1795.405 1978.277,1800.965 1979.385,1807.500 1989.719 C 1815.843 2002.911,1829.998 2010.297,1850.499 2012.156 C 1875.191 2014.395,1892.582 2006.401,1903.481 1987.803 C 1912.211 1972.907,1912.956 1972.665,1940.121 1975.929 C 1954.022 1977.599,1956.643 1979.105,1963.924 1989.611 C 1972.551 2002.061,1984.594 2010.000,1994.851 2010.000 C 2001.052 2010.000,2002.529 2014.524,1999.179 2023.255 C 1996.494 2030.253,1980.946 2029.373,1977.000 2022.000 C 1973.376 2015.228,1962.607 2013.928,1960.283 2019.983 C 1955.119 2033.440,1976.924 2050.665,1994.638 2047.122 C 2006.734 2044.703,2018.660 2033.451,2020.877 2022.364 C 2022.289 2015.303,2024.606 2013.179,2032.516 2011.695 C 2044.594 2009.429,2056.653 2000.307,2062.490 1989.019 C 2069.403 1975.650,2075.655 1971.000,2086.714 1971.000 C 2095.950 1971.000,2096.994 1971.842,2096.937 1979.250 M2128.212 1977.918 C 2135.741 1983.424,2133.253 1995.319,2123.420 2000.820 C 2112.838 2006.740,2110.848 2004.142,2113.322 1987.639 C 2115.453 1973.432,2118.952 1971.147,2128.212 1977.918 M1736.391 1992.750 C 1737.164 2005.122,1736.521 2007.000,1731.508 2007.000 C 1724.940 2007.000,1720.681 2002.587,1717.619 1992.606 C 1714.965 1983.956,1720.816 1976.402,1729.237 1977.605 C 1734.430 1978.347,1735.652 1980.935,1736.391 1992.750 M551.127 1984.873 C 549.957 1986.043,549.000 1992.892,549.000 2000.094 C 549.000 2015.271,556.036 2020.844,563.067 2011.237 C 569.397 2002.591,567.007 1984.716,559.377 1983.623 C 556.009 1983.141,552.296 1983.704,551.127 1984.873 M1920.001 1985.051 C 1920.003 1994.793,1929.803 2035.642,1932.545 2037.337 C 1943.687 2044.223,1946.718 2028.747,1939.956 1999.500 C 1936.926 1986.394,1935.447 1984.380,1928.244 1983.551 C 1923.710 1983.029,1920.000 1983.704,1920.001 1985.051 M800.354 2125.487 C 799.884 2192.305,798.578 2246.980,797.452 2246.987 C 796.326 2246.994,794.468 2243.963,793.322 2240.250 C 792.177 2236.538,786.349 2226.789,780.370 2218.587 L 769.500 2203.674 768.000 2139.087 C 766.729 2084.343,765.814 2074.500,762.000 2074.500 C 758.212 2074.500,757.370 2082.449,756.677 2124.750 C 756.225 2152.388,754.875 2174.916,753.677 2174.814 C 752.480 2174.712,746.987 2168.446,741.470 2160.890 C 732.387 2148.448,731.810 2146.461,735.352 2139.843 C 737.503 2135.824,741.678 2131.242,744.631 2129.662 C 747.584 2128.082,750.000 2124.811,750.000 2122.394 C 750.000 2117.189,748.522 2116.974,740.872 2121.069 C 736.803 2123.246,733.415 2123.061,729.206 2120.432 C 721.407 2115.562,717.899 2119.328,724.286 2125.714 C 727.036 2128.464,728.492 2131.508,727.522 2132.478 C 725.772 2134.228,711.000 2118.781,711.000 2115.202 C 711.000 2114.176,706.955 2108.908,702.011 2103.495 L 693.021 2093.653 706.810 2087.554 C 714.394 2084.199,726.876 2077.241,734.549 2072.091 C 750.935 2061.093,787.569 2024.100,793.810 2012.250 C 796.199 2007.713,798.841 2004.000,799.681 2004.000 C 800.521 2004.000,800.824 2058.669,800.354 2125.487 M586.714 2023.714 C 577.522 2032.906,583.119 2054.040,594.738 2054.012 C 602.092 2053.995,609.750 2044.608,609.750 2035.609 C 609.750 2020.720,596.533 2013.896,586.714 2023.714 M681.162 2102.250 C 682.056 2114.687,687.516 2157.952,692.804 2194.500 C 696.385 2219.250,701.859 2257.050,704.969 2278.500 C 708.133 2300.320,709.486 2318.654,708.042 2320.120 C 706.570 2321.613,677.164 2321.291,639.675 2319.370 C 603.493 2317.517,568.759 2316.000,562.487 2316.000 L 551.084 2316.000 552.969 2280.750 C 554.005 2261.363,556.291 2223.225,558.049 2196.000 C 559.807 2168.775,561.528 2139.750,561.873 2131.500 L 562.500 2116.500 584.687 2115.610 L 606.874 2114.720 601.549 2123.110 C 598.620 2127.724,593.023 2134.949,589.112 2139.164 C 578.984 2150.079,580.224 2155.786,594.750 2165.101 C 604.903 2171.612,611.970 2173.521,629.447 2174.476 C 649.092 2175.550,652.160 2174.956,658.697 2168.815 C 667.885 2160.183,667.830 2156.959,658.202 2139.577 C 647.846 2120.884,642.300 2115.000,635.035 2115.000 C 624.868 2115.000,631.589 2111.674,653.043 2106.087 C 677.302 2099.770,680.948 2099.273,681.162 2102.250 M627.601 2121.750 C 634.098 2126.882,648.000 2149.842,648.000 2155.440 C 648.000 2162.657,608.938 2161.840,599.789 2154.432 L 592.914 2148.865 605.926 2133.432 C 620.152 2116.561,620.675 2116.280,627.601 2121.750 M719.186 2151.422 C 772.149 2230.717,783.855 2247.000,787.898 2247.000 C 790.349 2247.000,791.520 2248.350,790.500 2250.000 C 789.480 2251.650,785.472 2253.000,781.592 2253.000 C 774.781 2253.000,753.667 2230.508,723.396 2191.005 C 716.185 2181.595,711.775 2178.302,707.994 2179.502 C 701.645 2181.517,700.001 2176.325,697.098 2145.088 C 695.631 2129.301,696.013 2123.510,698.467 2124.344 C 700.340 2124.980,709.663 2137.165,719.186 2151.422 M2093.837 2132.468 C 2069.646 2147.827,2058.157 2179.208,2068.053 2202.893 C 2085.542 2244.751,2151.245 2243.374,2171.894 2200.718 C 2184.988 2173.669,2174.916 2145.475,2147.230 2131.678 C 2126.568 2121.382,2110.934 2121.613,2093.837 2132.468 M1929.000 2145.000 C 1918.096 2148.492,1896.658 2148.492,1894.500 2145.000 C 1893.323 2143.095,1900.649 2142.109,1914.573 2142.299 C 1930.130 2142.511,1934.321 2143.296,1929.000 2145.000 M2139.091 2148.411 C 2145.365 2151.938,2152.883 2159.251,2155.798 2164.664 C 2170.410 2191.796,2136.441 2224.542,2104.589 2214.029 C 2083.439 2207.049,2076.736 2179.967,2091.275 2160.238 C 2105.068 2141.521,2120.181 2137.783,2139.091 2148.411 M1961.636 2162.320 C 1963.202 2165.246,1966.623 2175.896,1969.237 2185.986 C 1973.206 2201.302,1973.348 2205.572,1970.094 2211.842 C 1966.853 2218.089,1967.041 2225.336,1971.210 2254.926 C 1973.966 2274.492,1976.974 2298.263,1977.894 2307.750 L 1979.566 2325.000 1968.533 2325.067 C 1962.465 2325.104,1941.975 2327.687,1923.000 2330.807 C 1904.025 2333.927,1888.003 2335.988,1887.395 2335.385 C 1885.135 2333.146,1885.589 2232.700,1887.955 2211.515 C 1890.378 2189.817,1890.321 2189.542,1883.657 2190.515 C 1873.760 2191.959,1872.061 2201.647,1869.416 2271.717 C 1868.124 2305.936,1866.239 2334.761,1865.227 2335.773 C 1861.057 2339.943,1859.415 2312.918,1860.791 2262.747 C 1862.086 2215.514,1863.163 2206.671,1870.330 2184.454 C 1877.690 2161.635,1878.991 2159.573,1884.955 2161.276 C 1900.910 2165.831,1907.849 2165.944,1929.000 2161.994 C 1959.399 2156.317,1958.418 2156.307,1961.636 2162.320 M542.106 2217.869 C 540.378 2236.367,535.102 2249.075,514.679 2283.924 C 507.333 2296.459,505.584 2297.762,498.472 2296.006 C 490.748 2294.098,459.536 2278.449,455.513 2274.467 C 451.961 2270.951,465.038 2247.993,473.029 2243.717 C 480.148 2239.907,481.182 2240.123,485.268 2246.278 C 487.723 2249.975,491.410 2253.000,493.461 2253.000 C 500.604 2253.000,513.070 2240.443,526.430 2219.789 C 533.827 2208.355,540.776 2199.000,541.873 2199.000 C 542.970 2199.000,543.075 2207.491,542.106 2217.869 M813.658 2269.225 C 818.145 2274.848,822.195 2280.860,822.658 2282.584 C 823.449 2285.529,784.661 2316.000,780.124 2316.000 C 778.970 2316.000,774.845 2309.210,770.959 2300.911 C 764.550 2287.230,764.329 2285.386,768.580 2281.134 C 773.005 2276.709,800.771 2259.476,804.000 2259.151 C 804.825 2259.068,809.171 2263.601,813.658 2269.225 M1845.968 2334.000 C 1847.067 2351.571,1846.729 2360.199,1845.086 2356.500 C 1842.594 2350.889,1840.711 2301.524,1843.092 2304.250 C 1843.693 2304.938,1844.987 2318.325,1845.968 2334.000 M1749.508 2318.978 C 1728.448 2323.959,1716.000 2345.469,1716.000 2376.881 C 1716.000 2406.076,1729.666 2421.000,1756.401 2421.000 C 1775.295 2421.000,1788.673 2414.180,1798.995 2399.286 C 1806.256 2388.808,1807.500 2384.090,1807.500 2367.023 C 1807.500 2349.748,1806.358 2345.536,1799.095 2336.013 C 1785.205 2317.803,1772.674 2313.498,1749.508 2318.978 M636.750 2333.205 C 706.587 2334.876,707.999 2335.034,707.964 2341.205 C 707.945 2344.667,703.756 2365.050,698.655 2386.500 C 693.554 2407.950,687.414 2436.207,685.010 2449.293 C 680.872 2471.822,680.945 2473.497,686.371 2480.793 C 697.065 2495.173,703.147 2492.876,731.640 2463.697 C 746.025 2448.966,765.049 2428.571,773.917 2418.376 C 782.894 2408.055,791.181 2400.981,792.615 2402.415 C 794.031 2403.831,796.632 2417.705,798.393 2433.245 C 804.450 2486.674,797.679 2523.965,784.342 2510.628 C 781.781 2508.067,778.352 2496.640,776.724 2485.235 C 773.968 2465.941,774.187 2464.214,779.881 2460.384 C 787.453 2455.291,788.035 2444.995,780.750 2445.013 C 777.863 2445.019,762.000 2457.894,745.500 2473.622 C 704.440 2512.762,697.210 2518.286,692.390 2514.205 C 690.251 2512.393,682.088 2506.144,674.250 2500.318 C 666.413 2494.492,660.000 2487.980,660.000 2485.846 C 660.000 2483.713,663.514 2470.802,667.809 2457.156 C 672.399 2442.574,674.940 2428.949,673.972 2424.110 C 673.066 2419.581,673.849 2414.351,675.713 2412.488 C 681.382 2406.818,676.419 2405.618,667.196 2410.428 C 662.413 2412.922,656.475 2414.978,654.000 2414.995 C 647.406 2415.043,630.351 2432.056,628.165 2440.768 C 626.334 2448.064,626.107 2448.124,620.240 2442.889 C 603.932 2428.339,575.292 2382.841,562.229 2350.733 C 553.609 2329.546,553.345 2326.705,560.250 2329.429 C 563.138 2330.568,597.563 2332.267,636.750 2333.205 M1780.800 2344.200 C 1788.674 2352.074,1791.000 2356.897,1791.000 2365.349 C 1791.000 2387.986,1777.004 2403.000,1755.902 2403.000 C 1737.885 2403.000,1732.580 2394.469,1734.873 2369.184 C 1736.318 2353.243,1737.897 2349.366,1745.828 2342.280 C 1758.333 2331.106,1768.251 2331.651,1780.800 2344.200 M2109.662 2353.679 C 2148.105 2366.777,2136.863 2389.815,2086.201 2401.757 C 2049.806 2410.335,1996.845 2402.658,1988.807 2387.639 C 1981.601 2374.174,1999.180 2362.168,2021.272 2365.467 C 2031.362 2366.974,2034.355 2366.390,2035.522 2362.687 C 2036.335 2360.109,2037.633 2355.975,2038.406 2353.500 C 2040.397 2347.125,2090.801 2347.252,2109.662 2353.679 M1897.528 2449.160 C 1898.739 2478.222,1898.702 2502.000,1897.445 2502.000 C 1896.189 2502.000,1893.368 2499.638,1891.176 2496.750 C 1888.148 2492.761,1887.168 2475.582,1887.095 2425.250 C 1886.947 2322.444,1892.809 2335.877,1897.528 2449.160 M1867.500 2391.000 C 1868.520 2392.650,1868.004 2394.000,1866.354 2394.000 C 1864.704 2394.000,1862.520 2392.650,1861.500 2391.000 C 1860.480 2389.350,1860.996 2388.000,1862.646 2388.000 C 1864.296 2388.000,1866.480 2389.350,1867.500 2391.000 M2147.017 2398.131 C 2140.292 2408.395,2113.185 2420.873,2093.818 2422.620 L 2077.500 2424.092 2098.023 2417.982 C 2123.227 2410.478,2132.387 2405.832,2141.762 2395.797 C 2150.479 2386.465,2153.718 2387.904,2147.017 2398.131 M1985.906 2414.073 C 1985.958 2416.038,1984.828 2418.370,1983.395 2419.256 C 1981.962 2420.141,1979.885 2429.333,1978.778 2439.683 C 1975.993 2465.737,1970.611 2493.000,1968.254 2493.000 C 1966.109 2493.000,1967.136 2441.004,1969.779 2415.771 L 1971.427 2400.042 1978.619 2405.271 C 1982.575 2408.147,1985.854 2412.108,1985.906 2414.073 M659.191 2435.921 C 658.312 2442.478,654.221 2456.990,650.101 2468.171 C 645.980 2479.352,632.172 2519.550,619.416 2557.500 C 569.904 2704.802,569.348 2706.318,565.157 2705.396 C 559.299 2704.108,483.424 2628.063,481.291 2621.342 C 478.629 2612.955,485.586 2606.246,494.599 2608.508 C 509.722 2612.303,536.233 2637.155,552.467 2662.753 C 565.984 2684.068,569.263 2681.056,580.334 2637.159 C 584.681 2619.922,591.441 2596.297,595.356 2584.659 C 599.271 2573.022,608.225 2544.600,615.255 2521.500 C 628.439 2478.171,641.934 2442.627,649.696 2430.780 C 656.726 2420.051,661.009 2422.370,659.191 2435.921 M428.399 2479.232 C 444.560 2487.675,459.197 2508.228,462.875 2527.641 C 465.990 2544.085,463.702 2544.971,411.962 2547.349 C 336.907 2550.799,330.000 2550.650,330.000 2545.586 C 330.000 2528.200,358.974 2486.812,376.500 2479.163 C 388.508 2473.922,418.311 2473.962,428.399 2479.232 M1995.000 2523.061 C 1995.000 2527.057,1993.074 2526.791,1981.203 2521.158 C 1975.592 2518.495,1971.000 2514.418,1971.000 2512.097 C 1971.000 2508.789,1973.590 2509.200,1983.000 2514.000 C 1989.600 2517.367,1995.000 2521.445,1995.000 2523.061 M1902.206 2524.213 C 1906.921 2528.180,1912.516 2532.045,1914.639 2532.802 C 1916.763 2533.559,1917.733 2535.018,1916.795 2536.044 C 1914.418 2538.646,1889.056 2525.336,1887.650 2520.750 C 1885.801 2514.720,1892.943 2516.419,1902.206 2524.213 " stroke="black" fill="none" fill-rule="evenodd"/></g></g>
      <g id="hand">
        <rect id="groupSizer" width="140" height="160" fill="none"/>
        <path d="M55.25,55.9,48.63,82.66s-27.58,40.19-26.86,16C23.31,47.27,55.25,55.9,55.25,55.9Z"
            fill="#f49f58" />
        <path
            d="M77.45,30.06C75.95,29.74,27.15,45,24.08,46.12S13.72,48,11.42,53.79s0,16.5,0,21.1-1.15,33.38-.77,37.6c.24,2.7,3.45,5.37,6.52,5.75s8.06-4.6,9.21-7.67,6.52-40.67,7.29-43.35,13-1.15,15.73-1.15,26.47,23.4,26.47,26.86-14.19,19.57-16.11,19.57-29.63,6.77-31.46,8.06c-3.84,2.69-6.93,9.81-5.75,16.88.77,4.6,6.14,6.14,10.36,5.76,3.62-.33,24.17-1.53,30.69-1.92,4.28-.25,12.66-3.84,15-5.37S97,121.7,98.12,119.78s15.08-12.56,17.26-16.69c3.45-6.52,14.39-48.34,13.24-50.07C123.39,45.17,83.76,31.37,77.45,30.06Z"
            fill="#ffc585" />
        <path
            d="M119.82,46.59c-7.44-4-18-8.3-26.85-11.51h0C81.87,48.19,69.38,60,56.92,71.77h0c7.89,7.16,19,18.8,19,21.15,0,1.58-3,5.82-6.39,9.95h0c1.15,0,8.42,8.43,21.74-4.39C111.74,78.73,119,66.42,120.74,56.26A17,17,0,0,0,119.82,46.59Z"
            fill="#ffc585" opacity="0.4" style="mix-blend-mode: multiply" />
        <path
            d="M14.1,70.29c-2.3,7.29-9.8,45.47-10,49.11-.21,4.32,1.83,7.15,5.75,6.91,3.39-.21,8.58-2.94,10.36-6.14,3.34-6,4.19-5.22,11.13-50.26Z"
            fill="#ffc585" />
        <path
            d="M14.1,70.29c-2.3,7.29-9.8,45.47-10,49.11-.21,4.32,1.83,7.15,5.75,6.91,3.39-.21,8.58-2.94,10.36-6.14,3.34-6,4.19-5.22,11.13-50.26Z"
            fill="#ffc585" opacity="0.4" style="mix-blend-mode: multiply" />
        <g>
            <path
                d="M115.22,36.89s-4.3,37.94-5.1,39.36S83.83,106.38,81.9,107.18,69.43,109.49,71.37,105s7.33-2.93,8.17-3.66S101.42,75.61,102,74.43s.74-30,.74-30Z"
                fill="#363f4f" />
            <path
                d="M113.07,39.08s-3.87,36-4.66,37.41S83.11,106.2,81.18,107s-11.75,2.49-9.81-2,7.33-2.93,8.17-3.66S101.42,75.61,102,74.43s.74-30,.74-30Z"
                fill="#4b5668" />
            <path
                d="M111.25,55.36c1-8.48,1.81-16.28,1.81-16.28l-10.31,5.4s-.08,15.28-.35,24C103.3,67.19,108.68,59.83,111.25,55.36Z"
                fill="#4b5668" opacity="0.4" style="mix-blend-mode: multiply" />
            <path
                d="M71.55,107.11c2.19-3.36,7.43-5.35,7.69-5.61-1.41.38-6.08-.56-7.86,3.53A1.73,1.73,0,0,0,71.55,107.11Z"
                fill="#4b5668" opacity="0.4" style="mix-blend-mode: multiply" />
            <path d="M33.23,86.72c10.08,3.3,24,15.06,29.31,25.8L58,117.38c-10.6-4-25.41-17.87-28-25.83Z"
                fill="#edbd15" />
            <path
                d="M46.16,94c-2.09,3-4.54,5.8-6.79,8.77-.24.32-.47.65-.7,1,5.75,5.83,13.22,11.38,19.3,13.65l4.57-4.85C59.32,106,52.93,99.13,46.16,94Z"
                fill="#edbd15" style="mix-blend-mode: multiply" />
            <path d="M3.79,149.09s-3.57,7.55-2.42,8.58c1.52,1.36,7.71-4.53,7.71-4.53Z" fill="#c6d0d5" />
            <path
                d="M7.95,150.39c-1.11,2.4-3.21,5.47-5.9,6.3a3.13,3.13,0,0,1-.73.13.78.78,0,0,0,.21.51c1.52,1.36,7.71-4.53,7.71-4.53Z"
                fill="#c7d1d6" style="mix-blend-mode: multiply" />
            <path
                d="M1.95,149.82c3.16-8.14,17.61-40.14,31.5-61.3,8.37-12.75,53.86-84,78.16-64.8,21.59,17-31.06,69.86-52.81,90.88C42,130.87,11.55,153.39,9.34,154.72S1.34,151.39,1.95,149.82Z"
                fill="#4b5668" />
            <path
                d="M49,113.63c-6.42,6.38-20.09,20-29.15,28.48C11,150.42,6.2,152.81,4.59,153.36c1.65,1.19,3.64,2,4.75,1.36,2.22-1.33,32.63-23.85,49.45-40.11C78,96.07,121.16,52.8,116.31,31.15c0,2.37-7.76,3.86-12,13.2C95.55,63.76,63.76,99,49,113.63Z"
                fill="#4b5668" opacity="0.4" style="mix-blend-mode: multiply" />
            <path
                d="M92.86,47.91c7.9,6.12,17.67,6.77,19.08,3.07,5.75-11.47,7-21.45-.34-27.26-8-6.33-18.36-2.79-28.91,5.24C80.46,32.85,84.33,41.31,92.86,47.91Z"
                fill="#69778b" />
            <path
                d="M83.79,28.14C94,20.69,103.86,17.61,111.6,23.72c7.17,5.66,6.15,15.26.79,26.34C106.53,58.36,80.56,40.72,83.79,28.14Z"
                fill="#edbd15" />
            <path
                d="M116.31,31.11c-.65,10.45-11.22,20.6-22,15.52,6.91,5.15,15.12,7.66,18.12,3.43C115.86,42.91,117.5,36.37,116.31,31.11Z"
                fill="#edbd15" style="mix-blend-mode: multiply" />
            <path
                d="M10.5,130.62c-4.17,8.76-7.28,15.93-8.55,19.21-.61,1.56,5.17,6.22,7.39,4.9,1-.59,7.45-5.31,15.83-11.79C20.75,141.85,11.74,135.18,10.5,130.62Z"
                fill="#edbd15" />
            <path d="M10.5,130.62c-1.89,4.89,10,12.92,14.67,12.31C20.75,141.85,11.74,135.18,10.5,130.62Z"
                fill="#feee28" />
            <path
                d="M2.51,151.41a8,8,0,0,0,.9,1c2.45-3.69,7.82-11.23,11.22-16a19.94,19.94,0,0,1-3-3.41C8.87,137.68,5,146,2.51,151.41Z"
                fill="#edbd15" style="mix-blend-mode: screen" />
            <path
                d="M20.4,140.73c-4.19,5-9,9.31-13.71,13.83a3.09,3.09,0,0,0,2.64.16c1-.59,7.45-5.31,15.83-11.79A18.38,18.38,0,0,1,20.4,140.73Z"
                fill="#edbd15" style="mix-blend-mode: multiply" />
            <path d="M33.23,86.72c4.3,8.5,19.27,22.52,29.31,25.8L58,117.38c-10.6-4-25.41-17.87-28-25.83Z"
                fill="#feee28" />
            <path d="M33.23,86.72c3.3,10,19.4,24.28,29.31,25.8L58,117.38c-10.6-4-25.41-17.87-28-25.83Z"
                fill="#edbd15" />
            <path
                d="M53.09,107.47a38.21,38.21,0,0,0,9.45,5.06L58,117.38a43,43,0,0,1-9.29-5.15C50.14,110.87,51.15,109.6,53.09,107.47Z"
                fill="#edbd15" style="mix-blend-mode: multiply" />
            <path
                d="M39,94.81c-.92-1-1.78-2.09-2.55-3.1-1.26,1.68-2.45,3.41-3.59,5.18.6.86,1.28,1.73,2,2.62A61.6,61.6,0,0,1,39,94.81Z"
                fill="#edbd15" style="mix-blend-mode: screen" />
            <path d="M3.45,153c1,.55-1.26,3.33-1.42,2.73S2.63,152.54,3.45,153Z" fill="#c7d1d6" opacity="0.7"
                style="mix-blend-mode: screen" />
            <path d="M107.61,75.33c.49-1.63-25.92,28.23-25.4,28.92S106.8,78,107.61,75.33Z" fill="#4b5668"
                opacity="0.7" style="mix-blend-mode: screen" />
            <path
                d="M101.93,22c-3.44-.3-9,3-8.18,4.61,2.2,4.21,12.06,2,12.88,0C107.76,23.75,103.74,22.19,101.93,22Z"
                fill="#edbd15" opacity="0.4" style="mix-blend-mode: screen" />
            <path
                d="M81,41.38c-5.59.22-35.49,37.16-38.3,46.24,3.74-1.84,11.19-13.24,18.86-22.54C70.83,53.89,80.15,44.46,81,41.38Z"
                fill="#4b5668" opacity="0.4" style="mix-blend-mode: screen" />
            <path d="M32.75,100.8c-3.63,2.63-15.13,19.8-17.94,28.88C18.78,125.16,31.85,103.88,32.75,100.8Z"
                fill="#4b5668" opacity="0.4" style="mix-blend-mode: screen" />
        </g>
        <path
            d="M43.35,65.72C43.74,64.29,71.25,36,73.6,31.06c-8.52,2.7-47.07,14.14-49.52,15.06C21,47.27,13.72,48,11.42,53.79s0,16.5,0,21.1-1.15,33.38-.77,37.6c.24,2.7,3.45,5.37,6.52,5.75s8.06-4.6,9.21-7.67,6.52-40.67,7.29-43.35C34.14,65.55,39,65.51,43.35,65.72Z"
            fill="#ffc585" />
        <path
            d="M69.51,111.93a10.24,10.24,0,0,1-4.45-3.18c-2.5,2.3-4.66,3.74-5.3,3.74-1.92,0-29.63,6.77-31.46,8.06-3.84,2.69-6.93,9.81-5.75,16.88.77,4.6,6.14,6.14,10.36,5.76,3.62-.33,24.17-1.53,30.69-1.92,4.28-.25,12.66-3.84,15-5.37S97,121.7,98.12,119.78C98.3,119.48,73.84,113.57,69.51,111.93Z"
            fill="#ffc585" />
        <path
            d="M27.53,124.77c2.69-2.69,15-2.3,15.35-.38s.38,10-.38,12.28-14.19,5-15.73,2.69C23.39,134.28,25.1,127.19,27.53,124.77Z"
            fill="#ffd5b8" />
        <path
            d="M19,116a81.46,81.46,0,0,0-.29-14.29c-.34-1.68-6.65-1.76-8-2.1-.15,6-.23,11.23-.08,12.84C10.89,115.19,17.27,117.77,19,116Z"
            fill="#ffd5b8" />
        <path
            d="M117,91.87c-8.53,11-35.2,38.27-45.36,42.58-9.4,4-40.57,9.5-49.11,3,.77,4.6,6.14,6.14,10.36,5.76,3.62-.33,24.17-1.53,30.69-1.92,4.28-.25,12.66-3.84,15-5.37S97,121.7,98.12,119.78s15.08-12.56,17.26-16.69c1.12-2.12,3-7.94,5.05-14.91C119.34,89.44,118,90.54,117,91.87Z"
            fill="#ffc585" opacity="0.4" style="mix-blend-mode: multiply" />
        <path
            d="M26.38,110.57c1.15-3.07,6.52-40.67,7.29-43.35.54-1.89,6.78-1.69,11.37-1.41.76,0-11.61-4.73-14-1.47-3.27,4.54-3.16,35.87-12,50.07a5.88,5.88,0,0,1-5.31,2.53,8.13,8.13,0,0,0,3.39,1.31C20.24,118.63,25.23,113.64,26.38,110.57Z"
            fill="#ffc585" opacity="0.4" style="mix-blend-mode: multiply" />
      </g>
    </svg>