<canvas id="myCanvas" width="768" height="614.4" style="position:absolute;z-index: 10;"></canvas><svg id="demo" version="1.1" width="768" height="614.4" xmlns="http://www.w3.org/2000/svg" style="position:relative;"><g class="theWords" stroke-linejoin="round"><g id="handwriting" transform="translate(153.6, 102.4 ) scale(0.1500000, 0.1500000)"><path d="M1249.025 8.603 C 1235.320 18.530,1208.813 50.816,1198.605 70.015 C 1194.753 77.260,1186.961 90.457,1181.290 99.344 C 1156.663 137.934,1147.790 155.215,1134.857 189.777 C 1121.350 225.875,1121.114 227.118,1121.031 262.810 L 1120.946 299.120 1063.723 300.905 C 1004.213 302.763,952.942 308.345,915.789 317.013 C 903.848 319.799,893.495 321.495,892.781 320.781 C 892.067 320.067,889.246 308.012,886.512 293.992 C 869.814 208.356,859.872 180.761,824.251 121.168 C 812.066 100.782,785.620 73.814,758.222 53.836 C 735.140 37.004,657.277 33.402,630.167 47.911 C 627.047 49.580,620.334 59.274,615.248 69.452 C 606.167 87.625,606.002 88.747,606.098 131.729 C 606.247 198.191,613.057 239.156,637.326 319.585 C 662.909 404.365,663.188 408.181,649.174 481.500 C 645.073 502.950,639.812 530.625,637.481 543.000 C 626.798 599.718,622.497 657.776,622.813 741.000 C 623.129 824.591,626.015 857.336,637.881 912.000 C 648.990 963.172,668.437 1022.543,684.304 1053.728 L 696.123 1076.957 688.811 1091.387 C 681.097 1106.610,662.436 1158.188,655.486 1183.500 C 653.220 1191.750,647.826 1210.650,643.498 1225.500 C 631.324 1267.273,621.633 1306.309,614.848 1340.901 C 611.439 1358.280,606.097 1385.325,602.976 1401.000 C 599.855 1416.675,593.822 1448.400,589.568 1471.500 C 585.315 1494.600,581.077 1517.270,580.151 1521.878 L 578.467 1530.257 480.483 1528.300 L 382.500 1526.343 374.546 1534.922 C 370.171 1539.640,361.784 1555.207,355.907 1569.516 C 343.816 1598.957,340.721 1610.796,301.527 1777.500 C 297.192 1795.938,287.955 1855.385,281.948 1903.496 C 278.151 1933.915,275.620 1945.387,263.747 1986.000 C 253.536 2020.928,225.040 2102.135,215.899 2122.356 C 212.205 2130.528,204.107 2151.453,197.903 2168.856 C 191.700 2186.260,179.844 2216.700,171.558 2236.500 C 163.271 2256.300,152.819 2284.650,148.331 2299.500 C 143.843 2314.350,139.737 2325.150,139.207 2323.500 C 138.029 2319.832,132.812 2257.318,128.943 2200.500 C 127.370 2177.400,124.604 2147.025,122.798 2133.000 C 120.991 2118.975,117.644 2089.275,115.359 2067.000 C 108.249 1997.661,99.444 1919.420,96.286 1897.500 C 87.235 1834.684,72.810 1695.784,70.427 1648.500 C 69.512 1630.350,67.525 1524.059,66.013 1412.298 C 64.121 1272.554,62.209 1207.127,59.890 1202.794 C 53.627 1191.091,26.682 1184.549,6.750 1189.891 C 0.644 1191.527,0.000 1193.527,0.000 1210.850 C 0.000 1229.340,0.262 1230.000,7.594 1230.000 C 11.771 1230.000,15.788 1231.688,16.521 1233.750 C 17.255 1235.813,19.951 1334.025,22.513 1452.000 C 27.544 1683.687,32.605 1764.174,50.770 1901.375 C 52.454 1914.094,55.817 1939.350,58.244 1957.500 C 60.671 1975.650,64.133 2004.675,65.937 2022.000 C 67.740 2039.325,70.513 2062.275,72.097 2073.000 C 76.320 2101.578,86.401 2216.493,89.994 2277.000 C 91.709 2305.875,94.498 2347.725,96.192 2370.000 C 101.538 2440.280,104.591 2499.054,105.238 2544.115 L 105.863 2587.730 88.812 2613.115 C 79.433 2627.077,67.918 2643.900,63.223 2650.500 C 58.528 2657.100,48.014 2675.325,39.859 2691.000 C 31.704 2706.675,21.087 2725.799,16.266 2733.499 L 7.500 2747.497 6.571 2373.499 C 6.059 2167.799,4.592 1960.350,3.310 1912.500 C 1.812 1856.612,0.803 2007.295,0.489 2333.862 L 0.000 2842.224 13.881 2819.862 C 21.515 2807.563,33.333 2786.700,40.143 2773.500 C 55.546 2743.643,84.185 2697.000,87.113 2697.000 C 88.314 2697.000,92.741 2689.728,96.949 2680.839 C 101.158 2671.951,112.110 2656.722,121.288 2646.997 L 137.974 2629.316 195.737 2627.908 C 282.158 2625.801,683.463 2626.644,699.000 2628.964 C 706.425 2630.073,772.973 2631.863,846.885 2632.941 C 965.724 2634.674,981.566 2635.456,983.821 2639.700 C 985.223 2642.340,992.683 2665.425,1000.399 2691.000 C 1014.951 2739.239,1025.619 2768.659,1035.377 2787.469 C 1038.507 2793.501,1042.968 2803.823,1045.291 2810.406 L 1049.513 2822.375 996.507 2824.265 C 923.224 2826.877,737.376 2835.003,715.500 2836.550 C 701.391 2837.548,201.374 2842.874,33.750 2843.811 L 0.000 2844.000 0.000 2866.562 L 0.000 2889.124 261.750 2887.398 C 597.752 2885.182,772.395 2880.783,974.844 2869.435 C 1018.483 2866.989,1055.166 2866.003,1056.362 2867.244 C 1058.649 2869.618,1065.143 2955.189,1063.273 2958.311 C 1062.677 2959.307,849.184 2960.936,588.844 2961.933 C 328.505 2962.929,112.800 2964.373,109.500 2965.142 C 106.200 2965.912,80.213 2966.644,51.750 2966.770 L 0.000 2967.000 0.000 3019.500 L 0.000 3072.000 13.298 3072.000 C 28.940 3072.000,28.776 3072.328,31.664 3035.250 L 33.710 3009.000 66.628 3009.000 L 99.546 3009.000 98.523 3040.503 L 97.500 3072.007 119.250 3072.003 L 141.000 3072.000 141.375 3054.000 C 141.581 3044.100,142.088 3034.650,142.500 3033.000 C 142.913 3031.350,143.419 3025.275,143.625 3019.500 L 144.000 3009.000 206.326 3009.000 L 268.652 3009.000 267.486 3040.500 L 266.319 3072.000 372.410 3071.701 C 430.759 3071.536,475.125 3070.343,471.000 3069.049 C 466.875 3067.755,431.315 3067.433,391.978 3068.334 C 332.356 3069.700,320.009 3069.268,317.773 3065.736 C 316.299 3063.406,315.071 3049.688,315.046 3035.250 L 315.000 3009.000 344.706 3009.000 L 374.413 3009.000 370.206 3022.977 C 363.393 3045.617,364.519 3052.820,375.750 3058.433 C 391.531 3066.320,408.663 3067.389,424.202 3061.454 C 446.733 3052.850,454.563 3034.334,445.434 3011.250 C 443.492 3006.340,447.940 3006.000,514.179 3006.000 L 585.000 3006.000 585.000 3039.000 L 585.000 3072.000 609.356 3072.000 L 633.712 3072.000 632.606 3039.750 L 631.500 3007.500 675.750 3006.670 L 720.000 3005.840 720.000 3038.920 L 720.000 3072.000 744.000 3072.000 L 768.000 3072.000 768.000 3038.810 L 768.000 3005.620 777.750 3006.560 L 787.500 3007.500 786.394 3039.750 L 785.288 3072.000 803.644 3072.000 L 822.000 3072.000 822.000 3040.500 L 822.000 3009.000 844.500 3009.000 L 867.000 3009.000 867.000 3040.500 L 867.000 3072.000 889.500 3072.000 L 912.000 3072.000 912.000 3040.500 L 912.000 3009.000 922.262 3009.000 C 933.733 3009.000,934.142 3009.920,937.625 3043.500 C 940.718 3073.325,939.452 3072.000,964.863 3072.000 L 987.322 3072.000 985.245 3039.168 L 983.167 3006.335 1023.840 3005.418 L 1064.512 3004.500 1066.616 3038.250 L 1068.719 3072.000 1090.839 3072.000 L 1112.959 3072.000 1111.443 3026.250 C 1108.050 2923.799,1107.021 2901.856,1105.179 2892.643 L 1103.250 2883.000 1206.719 2883.000 L 1310.187 2883.000 1312.044 2919.750 C 1313.066 2939.963,1314.784 2982.488,1315.863 3014.250 L 1317.826 3072.000 1342.165 3072.000 L 1366.504 3072.000 1363.023 2994.750 C 1361.109 2952.263,1358.103 2893.875,1356.345 2865.000 C 1354.586 2836.125,1351.754 2786.175,1350.052 2754.000 C 1348.349 2721.825,1346.190 2683.688,1345.253 2669.250 L 1343.550 2643.000 1397.775 2642.400 C 1427.599 2642.070,1457.063 2641.733,1463.250 2641.650 L 1474.500 2641.500 1476.390 2664.000 C 1484.014 2754.758,1492.088 2898.703,1495.867 3011.250 L 1497.907 3072.000 1519.953 3072.000 L 1542.000 3072.000 1542.000 3057.164 C 1542.000 3040.157,1536.915 2931.915,1534.488 2897.250 L 1532.860 2874.000 1582.498 2874.000 L 1632.137 2874.000 1630.092 2973.000 L 1628.047 3072.000 1650.833 3072.000 L 1673.620 3072.000 1674.830 3062.250 L 1676.040 3052.500 1676.520 3062.250 L 1677.000 3072.000 1699.110 3072.000 L 1721.220 3072.000 1722.762 3058.313 C 1724.757 3040.619,1734.305 3030.000,1748.220 3030.000 C 1763.864 3030.000,1769.138 3034.520,1776.250 3054.024 L 1782.804 3072.000 1804.959 3072.000 L 1827.114 3072.000 1825.208 3064.405 L 1823.302 3056.810 1860.401 3057.655 C 1896.705 3058.482,1897.495 3058.645,1897.262 3065.250 C 1897.035 3071.683,1898.102 3072.000,1919.989 3072.000 C 1940.688 3072.000,1943.659 3071.250,1950.095 3064.399 C 1956.901 3057.155,1958.579 3056.838,1985.833 3057.649 C 2009.998 3058.368,2014.582 3059.294,2015.410 3063.620 C 2016.253 3068.027,2013.122 3068.884,1992.945 3069.767 C 1980.050 3070.331,1995.150 3071.011,2026.500 3071.279 C 2077.948 3071.718,2082.550 3071.352,2073.750 3067.527 C 2068.388 3065.197,2064.000 3062.672,2064.000 3061.916 C 2064.000 3060.010,2172.434 3058.516,2311.500 3058.507 L 2428.500 3058.500 2429.459 3065.250 C 2430.778 3074.542,2448.000 3075.238,2448.000 3066.000 C 2448.000 3060.991,2450.000 3060.000,2460.106 3060.000 C 2471.281 3060.000,2471.965 3060.461,2469.000 3066.000 C 2465.930 3071.736,2466.719 3072.000,2486.894 3072.000 C 2506.000 3072.000,2508.000 3071.431,2508.000 3066.000 C 2508.000 3057.826,2519.993 3057.826,2522.131 3066.000 C 2523.551 3071.432,2526.223 3072.000,2550.350 3072.000 C 2572.231 3072.000,2577.000 3071.181,2577.000 3067.426 C 2577.000 3060.851,2589.595 3056.995,2610.945 3057.033 C 2639.979 3057.085,2652.000 3059.825,2652.000 3066.393 C 2652.000 3071.454,2654.630 3072.000,2679.000 3072.000 C 2704.000 3072.000,2706.000 3071.556,2706.000 3066.000 C 2706.000 3060.190,2708.000 3060.000,2769.000 3060.000 L 2832.000 3060.000 2832.000 3042.000 L 2832.000 3024.000 2854.500 3024.000 L 2877.000 3024.000 2876.974 3012.750 C 2876.895 2979.214,2870.273 2916.328,2864.802 2897.163 C 2861.400 2885.248,2856.074 2866.050,2852.965 2854.500 C 2849.856 2842.950,2842.900 2821.159,2837.506 2806.075 C 2828.362 2780.502,2827.940 2777.664,2831.263 2764.075 C 2833.223 2756.059,2838.324 2733.300,2842.598 2713.500 C 2849.780 2680.226,2860.258 2642.855,2874.324 2600.345 C 2877.446 2590.909,2880.000 2581.026,2880.000 2578.383 C 2880.000 2572.421,2910.596 2463.601,2920.876 2433.000 C 2925.033 2420.625,2931.567 2398.350,2935.396 2383.500 C 2939.225 2368.650,2945.766 2345.025,2949.932 2331.000 C 2961.450 2292.228,2972.999 2246.501,2973.008 2239.636 C 2973.013 2236.261,2976.923 2217.975,2981.699 2199.000 C 2986.474 2180.025,2991.901 2154.375,2993.759 2142.000 C 2997.506 2117.047,3007.313 2072.794,3013.703 2052.000 C 3015.985 2044.575,3021.894 2020.275,3026.833 1998.000 C 3036.358 1955.049,3043.593 1924.595,3053.560 1885.500 C 3066.727 1833.852,3072.000 1800.476,3072.000 1768.779 C 3072.000 1751.300,3071.203 1737.000,3070.229 1737.000 C 3069.255 1737.000,3063.221 1740.713,3056.819 1745.250 C 3042.966 1755.069,3038.704 1764.591,3025.598 1815.000 C 3020.236 1835.625,3011.630 1868.700,3006.474 1888.500 C 2995.376 1931.120,2976.889 2014.239,2971.416 2046.120 C 2969.281 2058.562,2965.393 2076.112,2962.776 2085.120 C 2957.320 2103.902,2946.587 2149.498,2933.851 2208.000 C 2924.504 2250.934,2923.107 2256.541,2912.919 2292.000 C 2909.363 2304.375,2904.059 2324.625,2901.132 2337.000 C 2889.018 2388.213,2869.958 2455.989,2854.308 2503.500 C 2846.963 2525.801,2830.469 2587.759,2809.585 2671.500 L 2796.867 2722.500 2784.048 2697.000 C 2776.997 2682.975,2766.677 2663.196,2761.114 2653.047 C 2751.938 2636.304,2751.000 2632.299,2751.000 2609.852 C 2751.000 2526.125,2759.022 2433.497,2779.697 2278.500 C 2786.628 2226.536,2805.521 2118.659,2810.620 2101.931 C 2812.201 2096.744,2814.316 2087.100,2815.320 2080.500 C 2820.507 2046.388,2839.652 1940.964,2845.828 1912.500 C 2861.510 1840.226,2912.834 1629.523,2917.547 1618.068 C 2919.682 1612.881,2924.951 1592.631,2929.257 1573.068 C 2933.562 1553.506,2938.972 1532.100,2941.278 1525.500 C 2947.631 1507.313,2956.800 1475.015,2965.548 1440.000 C 2987.931 1350.411,2998.993 1310.536,3015.482 1260.000 C 3025.443 1229.475,3033.860 1204.211,3034.188 1203.858 C 3034.516 1203.504,3034.872 1208.229,3034.978 1214.358 C 3036.606 1308.486,3042.686 1528.323,3045.007 1576.992 C 3048.244 1644.859,3053.827 1673.483,3065.968 1684.471 L 3072.000 1689.930 3072.000 1420.666 L 3072.000 1151.403 3044.714 1152.452 C 3018.588 1153.455,3017.115 1153.883,3010.064 1162.500 C 2995.969 1179.727,2985.279 1206.440,2971.648 1258.500 C 2969.487 1266.750,2962.066 1289.700,2955.155 1309.500 C 2948.244 1329.300,2937.387 1365.075,2931.028 1389.000 C 2924.670 1412.925,2914.764 1449.375,2909.015 1470.000 C 2898.872 1506.391,2894.280 1525.359,2878.878 1594.500 C 2874.835 1612.650,2870.103 1631.550,2868.362 1636.500 C 2866.622 1641.450,2859.747 1664.400,2853.083 1687.500 C 2842.380 1724.606,2835.733 1754.068,2813.823 1861.500 C 2810.795 1876.350,2804.290 1904.732,2799.368 1924.572 C 2794.447 1944.412,2788.243 1973.437,2785.581 1989.072 C 2782.920 2004.707,2778.670 2027.625,2776.137 2040.000 C 2770.296 2068.533,2761.292 2118.656,2754.041 2163.000 C 2750.938 2181.975,2746.374 2209.650,2743.898 2224.500 C 2732.183 2294.771,2730.292 2306.490,2728.450 2320.276 L 2726.475 2335.052 2714.563 2305.276 C 2708.012 2288.899,2700.151 2268.075,2697.094 2259.000 C 2689.804 2237.359,2679.238 2213.634,2674.381 2208.000 C 2672.248 2205.525,2660.748 2184.600,2648.826 2161.500 C 2636.904 2138.400,2624.199 2116.125,2620.593 2112.000 C 2616.987 2107.875,2604.691 2089.836,2593.268 2071.913 C 2581.846 2053.990,2566.823 2032.146,2559.884 2023.370 C 2546.038 2005.859,2526.061 1967.785,2511.154 1930.500 C 2495.531 1891.425,2481.547 1853.134,2479.380 1843.500 C 2478.266 1838.550,2472.138 1821.000,2465.761 1804.500 C 2459.385 1788.000,2450.749 1759.650,2446.572 1741.500 C 2442.394 1723.350,2435.046 1697.025,2430.243 1683.000 C 2418.660 1649.174,2401.019 1591.946,2396.806 1574.525 C 2394.419 1564.654,2391.528 1559.908,2386.963 1558.366 C 2374.782 1554.250,2191.517 1553.523,2079.000 1557.144 C 1926.682 1562.046,1674.044 1564.244,1670.497 1560.697 C 1667.903 1558.103,1663.883 1527.870,1655.645 1449.000 C 1652.015 1414.253,1648.026 1405.091,1634.465 1400.364 L 1625.375 1397.195 1627.937 1338.348 C 1631.899 1247.377,1631.482 1240.419,1621.449 1229.947 C 1606.629 1214.478,1573.135 1213.255,1557.837 1227.624 C 1548.081 1236.788,1545.605 1248.070,1543.818 1291.500 C 1540.522 1371.628,1538.447 1392.000,1533.581 1392.000 C 1529.674 1392.000,1529.324 1386.013,1530.992 1347.750 C 1532.054 1323.413,1533.830 1292.824,1534.941 1279.776 C 1536.444 1262.116,1536.071 1256.602,1533.480 1258.203 C 1531.337 1259.528,1529.978 1269.218,1529.941 1283.427 C 1529.909 1296.117,1527.898 1324.050,1525.471 1345.500 C 1523.045 1366.950,1520.856 1387.200,1520.608 1390.500 C 1520.359 1393.800,1519.333 1389.750,1518.328 1381.500 C 1517.322 1373.250,1517.175 1339.500,1518.000 1306.500 C 1518.825 1273.500,1518.372 1243.686,1516.994 1240.246 C 1515.616 1236.806,1510.459 1231.611,1505.533 1228.702 C 1493.588 1221.645,1479.752 1224.445,1467.533 1236.392 C 1458.999 1244.735,1457.960 1247.640,1457.617 1264.106 C 1457.406 1274.223,1456.394 1307.475,1455.367 1338.000 L 1453.500 1393.500 1441.500 1394.300 C 1421.056 1395.662,1416.823 1397.610,1410.306 1408.655 C 1403.113 1420.846,1398.069 1465.453,1398.026 1517.250 C 1398.002 1545.991,1397.608 1548.000,1392.000 1548.000 C 1386.150 1548.000,1386.000 1545.998,1385.994 1467.750 C 1385.988 1392.562,1384.493 1368.689,1373.827 1273.500 C 1367.005 1212.614,1355.798 1141.721,1345.848 1096.500 C 1329.769 1023.434,1329.965 1026.860,1340.652 1005.689 C 1357.937 971.449,1369.152 936.690,1378.218 889.260 C 1401.429 767.831,1408.556 661.581,1401.142 547.500 C 1398.453 506.124,1396.073 489.711,1382.432 418.500 C 1376.727 388.720,1375.581 373.170,1375.799 328.500 C 1375.943 298.800,1377.562 265.050,1379.396 253.500 C 1385.431 215.482,1389.765 140.368,1388.217 100.594 C 1386.405 54.038,1378.710 25.006,1364.136 9.750 L 1354.823 0.000 1307.862 0.000 C 1260.925 0.000,1260.894 0.005,1249.025 8.603 M1323.894 39.283 C 1339.210 51.907,1344.220 65.411,1346.051 99.000 C 1347.629 127.936,1340.283 227.581,1335.288 244.996 C 1330.804 260.632,1325.259 341.554,1327.432 359.643 C 1328.546 368.914,1334.046 399.450,1339.654 427.500 C 1358.068 519.610,1360.526 544.670,1360.250 637.500 C 1359.931 744.735,1353.724 799.629,1331.586 891.000 C 1309.709 981.290,1274.936 1050.473,1227.628 1097.829 C 1217.008 1108.459,1204.960 1122.234,1200.854 1128.438 C 1191.990 1141.833,1130.559 1183.136,1101.000 1195.576 C 1070.647 1208.349,1034.549 1220.332,1023.000 1221.467 L 1012.500 1222.500 1009.861 1180.002 C 1008.410 1156.628,1008.030 1134.291,1009.015 1130.363 C 1010.001 1126.435,1019.595 1112.068,1030.335 1098.436 C 1053.138 1069.493,1058.310 1055.335,1051.784 1039.716 C 1048.810 1032.599,1044.673 1028.454,1038.948 1026.857 C 1034.301 1025.561,1007.489 1024.500,979.364 1024.500 C 923.178 1024.500,915.019 1026.670,908.700 1043.290 C 904.171 1055.201,907.717 1063.999,923.374 1079.698 C 956.451 1112.866,962.144 1127.936,965.054 1190.036 L 966.906 1229.573 949.138 1223.036 C 939.366 1219.441,923.975 1212.312,914.935 1207.192 C 905.896 1202.073,893.747 1196.333,887.938 1194.437 C 882.130 1192.541,870.655 1185.423,862.438 1178.619 C 854.222 1171.816,840.075 1161.137,831.000 1154.888 C 812.473 1142.131,764.923 1096.672,751.377 1078.765 C 731.977 1053.120,709.241 1008.043,696.451 969.867 C 676.267 909.624,670.492 856.964,670.526 733.500 C 670.554 633.099,674.351 584.617,688.855 499.500 C 703.858 411.456,704.724 399.643,697.779 377.784 C 686.466 342.175,658.114 219.442,654.965 192.443 C 653.266 177.881,653.612 176.485,658.676 177.461 C 662.282 178.155,669.669 189.156,679.530 208.518 C 687.929 225.008,702.010 251.325,710.821 267.000 C 738.147 315.613,739.743 318.808,749.787 345.000 C 762.417 377.935,765.278 381.000,783.388 381.000 C 796.543 381.000,798.282 380.156,802.688 371.636 C 808.686 360.038,806.586 346.648,796.421 331.669 C 792.339 325.654,789.000 320.054,789.000 319.223 C 789.000 318.392,784.039 310.014,777.974 300.606 C 771.910 291.198,759.385 267.253,750.139 247.396 C 740.894 227.539,730.485 207.289,727.008 202.396 C 723.531 197.503,718.543 188.359,715.923 182.075 C 710.063 168.019,700.612 155.686,691.998 150.856 C 684.109 146.433,667.589 145.938,660.180 149.904 C 655.502 152.407,654.500 151.270,652.910 141.654 C 647.716 110.234,653.700 86.253,668.105 80.761 C 677.624 77.131,696.467 79.104,718.500 86.035 C 740.205 92.864,749.356 100.362,781.823 137.924 C 796.629 155.053,820.693 201.768,823.755 219.327 C 824.731 224.922,827.467 234.668,829.835 240.986 C 832.203 247.303,838.098 276.829,842.935 306.601 C 852.190 363.554,855.553 372.000,868.978 372.000 C 872.855 372.000,888.724 368.622,904.242 364.493 C 949.559 352.435,1006.875 346.671,1086.166 346.197 C 1125.033 345.965,1159.873 344.810,1163.588 343.631 C 1175.081 339.983,1175.899 331.053,1168.137 293.929 C 1162.059 264.851,1161.388 256.534,1163.823 240.417 C 1166.574 222.211,1184.365 179.600,1190.904 175.560 C 1192.607 174.507,1194.000 171.352,1194.000 168.549 C 1194.000 154.279,1248.073 71.467,1273.203 47.250 C 1295.121 26.128,1305.884 24.437,1323.894 39.283 M1270.676 147.750 C 1261.845 156.605,1251.895 182.021,1239.848 226.500 C 1238.954 229.800,1235.202 238.575,1231.511 246.000 C 1218.044 273.085,1197.106 341.586,1197.037 358.785 C 1196.987 371.286,1205.106 378.000,1220.272 378.000 C 1233.558 378.000,1241.189 372.702,1243.263 362.040 C 1254.361 304.986,1256.734 296.945,1276.625 249.000 C 1280.390 239.925,1286.235 223.424,1289.613 212.332 C 1292.990 201.240,1298.004 188.730,1300.754 184.533 C 1306.495 175.772,1305.480 150.307,1299.083 142.600 C 1292.827 135.063,1281.233 137.165,1270.676 147.750 M1215.304 593.282 C 1176.225 597.746,1152.845 652.067,1169.910 698.753 C 1180.839 728.654,1193.426 736.206,1229.594 734.564 C 1257.151 733.312,1261.772 730.407,1273.433 707.006 C 1283.331 687.144,1284.148 647.725,1275.075 627.738 C 1263.515 602.270,1242.528 590.172,1215.304 593.282 M768.000 597.526 C 743.785 604.410,736.883 619.503,736.687 666.000 C 736.564 695.198,737.536 702.660,743.015 714.553 C 751.045 731.985,762.415 736.241,796.378 734.526 C 818.657 733.401,820.002 732.910,829.656 722.375 C 851.017 699.067,854.106 659.745,837.461 623.036 C 829.952 606.475,827.188 603.326,816.350 598.990 C 802.610 593.492,784.155 592.934,768.000 597.526 M1269.000 649.677 C 1269.000 652.249,1267.650 653.520,1266.000 652.500 C 1264.350 651.480,1263.000 649.376,1263.000 647.823 C 1263.000 646.270,1264.350 645.000,1266.000 645.000 C 1267.650 645.000,1269.000 647.105,1269.000 649.677 M1306.783 1140.154 C 1308.368 1160.610,1307.806 1167.673,1304.009 1175.015 C 1295.825 1190.842,1219.455 1236.576,1180.500 1248.977 C 1165.422 1253.778,1156.300 1256.090,1091.030 1271.658 L 1055.560 1280.118 1051.021 1273.191 C 1044.873 1263.807,1047.231 1261.230,1067.305 1255.398 C 1090.009 1248.802,1203.011 1191.462,1205.358 1185.347 C 1206.365 1182.722,1220.843 1167.058,1237.531 1150.537 C 1254.219 1134.017,1274.539 1111.884,1282.686 1101.354 L 1297.500 1082.208 1301.147 1098.354 C 1303.154 1107.234,1305.690 1126.044,1306.783 1140.154 M760.556 1151.447 C 777.025 1167.643,797.925 1185.620,807.000 1191.396 C 816.075 1197.172,829.575 1205.694,837.000 1210.333 C 844.425 1214.973,853.200 1221.175,856.500 1224.116 C 859.800 1227.057,881.400 1239.121,904.500 1250.926 C 962.265 1280.444,962.772 1284.303,907.454 1273.393 C 850.921 1262.244,798.979 1245.161,741.000 1218.649 C 717.075 1207.709,696.907 1198.331,696.182 1197.810 C 695.456 1197.289,697.986 1187.106,701.803 1175.182 C 711.228 1145.734,723.220 1122.000,728.673 1122.000 C 729.739 1122.000,744.086 1135.251,760.556 1151.447 M1319.925 1238.250 C 1321.873 1249.388,1326.152 1276.050,1329.435 1297.500 C 1332.718 1318.950,1336.212 1341.225,1337.199 1347.000 C 1338.187 1352.775,1339.109 1400.700,1339.248 1453.500 L 1339.500 1549.500 1164.000 1548.928 C 988.930 1548.358,896.760 1545.909,735.000 1537.531 C 687.975 1535.095,643.788 1533.079,636.807 1533.051 L 624.115 1533.000 625.726 1518.750 C 629.962 1481.283,638.229 1438.470,649.622 1395.000 C 652.001 1385.925,657.415 1361.625,661.655 1341.000 C 669.923 1300.777,676.493 1271.396,681.311 1253.098 C 684.947 1239.290,682.741 1238.828,736.831 1264.712 C 781.907 1286.283,813.100 1296.178,893.906 1314.539 C 907.879 1317.714,919.880 1320.880,920.574 1321.574 C 921.269 1322.269,918.474 1327.261,914.363 1332.668 C 888.478 1366.720,864.484 1446.956,869.261 1483.488 C 871.409 1499.910,877.179 1507.620,891.658 1513.413 C 902.773 1517.861,912.947 1518.021,997.229 1515.078 C 1119.591 1510.806,1140.238 1507.583,1146.296 1491.804 C 1151.807 1477.449,1145.090 1428.349,1132.175 1388.590 C 1124.100 1363.728,1104.069 1327.542,1093.895 1319.436 C 1085.825 1313.006,1083.836 1313.689,1148.660 1300.647 C 1177.347 1294.875,1203.672 1288.298,1207.160 1286.031 C 1210.647 1283.765,1218.523 1280.263,1224.663 1278.251 C 1242.031 1272.558,1299.706 1236.780,1307.467 1226.884 C 1311.300 1221.998,1314.873 1218.000,1315.409 1218.000 C 1315.945 1218.000,1317.978 1227.113,1319.925 1238.250 M1534.500 1248.000 C 1533.480 1249.650,1534.076 1251.000,1535.823 1251.000 C 1537.570 1251.000,1539.000 1249.650,1539.000 1248.000 C 1539.000 1246.350,1538.405 1245.000,1537.677 1245.000 C 1536.949 1245.000,1535.520 1246.350,1534.500 1248.000 M1589.224 1314.632 C 1588.637 1325.010,1588.151 1317.300,1588.145 1297.500 C 1588.139 1277.700,1588.620 1269.210,1589.213 1278.632 C 1589.807 1288.055,1589.812 1304.255,1589.224 1314.632 M1015.281 1292.010 C 1017.381 1297.485,1012.503 1301.882,1004.250 1301.954 C 998.163 1302.007,997.863 1300.729,1002.106 1292.803 C 1005.921 1285.673,1012.693 1285.266,1015.281 1292.010 M1568.188 1306.813 C 1567.191 1307.809,1564.603 1307.916,1562.438 1307.049 C 1560.044 1306.092,1560.755 1305.381,1564.250 1305.237 C 1567.413 1305.107,1569.184 1305.816,1568.188 1306.813 M966.079 1419.000 C 964.265 1437.975,961.429 1458.563,959.775 1464.750 L 956.769 1476.000 935.884 1476.000 L 915.000 1476.000 915.060 1464.750 C 915.276 1424.597,927.841 1389.591,955.175 1353.000 L 967.500 1336.500 968.439 1360.500 C 968.955 1373.700,967.893 1400.025,966.079 1419.000 M1059.296 1349.210 C 1072.198 1360.065,1093.216 1404.971,1099.275 1434.624 C 1106.740 1471.159,1108.211 1468.803,1076.539 1471.051 C 1061.436 1472.123,1039.640 1473.000,1028.105 1473.000 L 1007.132 1473.000 1009.045 1452.750 C 1010.097 1441.613,1010.967 1417.974,1010.979 1400.221 C 1010.998 1371.223,1011.634 1367.411,1017.236 1362.721 C 1020.666 1359.849,1025.426 1353.788,1027.813 1349.250 C 1033.616 1338.222,1046.219 1338.205,1059.296 1349.210 M1572.000 1442.523 L 1612.500 1447.770 1616.792 1511.859 C 1624.209 1622.620,1614.520 1651.212,1564.425 1666.408 C 1520.627 1679.693,1456.797 1663.302,1447.956 1636.500 C 1444.650 1626.478,1444.076 1445.539,1447.334 1440.269 C 1450.483 1435.174,1525.785 1436.535,1572.000 1442.523 M594.000 1519.500 C 594.000 1521.975,592.692 1524.000,591.094 1524.000 C 589.496 1524.000,588.965 1521.975,589.915 1519.500 C 590.865 1517.025,592.172 1515.000,592.821 1515.000 C 593.469 1515.000,594.000 1517.025,594.000 1519.500 M967.929 1533.430 C 983.631 1534.926,1004.154 1534.914,1015.929 1533.401 C 1033.566 1531.136,1029.654 1530.763,988.500 1530.787 C 942.152 1530.815,941.444 1530.906,967.929 1533.430 M531.000 1573.434 C 569.775 1574.276,624.450 1576.301,652.500 1577.934 C 840.772 1588.894,953.434 1592.361,1195.500 1594.642 C 1306.050 1595.683,1396.914 1596.942,1397.420 1597.438 C 1397.926 1597.934,1399.417 1608.951,1400.734 1621.920 C 1403.455 1648.727,1412.475 1671.235,1423.658 1679.123 C 1446.601 1695.305,1446.498 1693.303,1424.917 1703.601 C 1403.850 1713.653,1375.752 1735.836,1367.043 1749.291 C 1364.042 1753.928,1360.319 1766.671,1358.770 1777.609 C 1356.489 1793.720,1356.843 1799.369,1360.633 1807.357 C 1364.467 1815.437,1382.822 1830.738,1399.742 1839.960 C 1410.004 1845.552,1467.310 1854.703,1519.308 1859.053 C 1589.455 1864.920,1625.342 1862.321,1651.774 1849.458 C 1673.961 1838.660,1678.028 1832.952,1679.451 1810.604 C 1681.162 1783.730,1674.376 1765.244,1655.915 1746.490 C 1641.408 1731.752,1603.769 1710.000,1592.774 1710.000 C 1585.179 1710.000,1582.495 1704.330,1589.060 1702.154 C 1631.641 1688.039,1645.676 1672.471,1659.073 1624.500 L 1664.100 1606.500 1693.800 1605.535 C 1710.135 1605.004,1738.624 1605.471,1757.109 1606.572 L 1790.718 1608.574 1792.670 1622.537 C 1793.743 1630.217,1797.707 1655.400,1801.477 1678.500 C 1809.912 1730.172,1815.826 1771.629,1823.945 1836.000 C 1833.206 1909.429,1847.768 2000.755,1852.764 2016.750 C 1853.666 2019.638,1853.301 2022.161,1851.952 2022.357 C 1850.603 2022.554,1798.875 2023.566,1737.000 2024.607 C 1611.757 2026.714,1608.170 2027.297,1597.411 2047.276 C 1592.457 2056.475,1592.181 2064.940,1593.806 2158.005 C 1595.718 2267.586,1596.143 2270.324,1612.976 2281.655 C 1621.661 2287.500,1628.052 2288.208,1689.476 2290.128 C 1726.339 2291.280,1765.950 2293.495,1777.500 2295.051 C 1789.050 2296.607,1838.325 2298.778,1887.000 2299.876 C 1969.326 2301.731,1978.325 2301.412,2016.000 2295.295 C 2053.023 2289.283,2057.208 2287.954,2064.750 2279.812 C 2069.579 2274.598,2072.995 2267.504,2072.988 2262.703 C 2072.955 2239.403,2018.292 2061.442,1999.794 2024.411 C 1999.632 2024.087,1972.571 2023.074,1939.658 2022.161 L 1879.817 2020.500 1872.968 1978.500 C 1869.201 1955.400,1863.970 1923.675,1861.345 1908.000 C 1858.720 1892.325,1855.410 1872.075,1853.991 1863.000 C 1852.571 1853.925,1847.839 1824.225,1843.474 1797.000 C 1839.110 1769.775,1833.666 1731.975,1831.377 1713.000 C 1829.088 1694.025,1825.861 1669.050,1824.206 1657.500 C 1822.551 1645.950,1821.152 1629.633,1821.098 1621.239 L 1821.000 1605.979 1960.993 1603.989 C 2037.989 1602.895,2158.717 1602.000,2229.277 1602.000 L 2357.569 1602.000 2363.480 1617.799 C 2366.731 1626.488,2370.992 1639.651,2372.949 1647.049 C 2374.906 1654.447,2380.314 1672.650,2384.967 1687.500 C 2389.620 1702.350,2396.383 1725.975,2399.996 1740.000 C 2403.609 1754.025,2411.301 1779.000,2417.090 1795.500 C 2422.879 1812.000,2433.989 1844.769,2441.778 1868.320 C 2449.567 1891.871,2457.528 1912.728,2459.470 1914.670 C 2461.411 1916.611,2463.000 1919.340,2463.000 1920.734 C 2463.000 1922.128,2470.965 1943.278,2480.699 1967.735 C 2492.144 1996.488,2503.295 2018.967,2512.254 2031.350 C 2519.875 2041.883,2534.333 2062.650,2544.382 2077.500 C 2554.431 2092.350,2567.007 2110.575,2572.328 2118.000 C 2577.650 2125.425,2589.111 2145.000,2597.798 2161.500 C 2606.485 2178.000,2616.645 2195.550,2620.375 2200.500 C 2627.985 2210.596,2643.996 2241.547,2647.535 2253.000 C 2648.809 2257.125,2656.998 2275.495,2665.733 2293.821 C 2679.548 2322.809,2691.000 2355.881,2691.000 2366.793 C 2691.000 2370.180,2562.711 2369.428,2431.500 2365.272 C 2403.450 2364.383,2266.425 2362.474,2127.000 2361.028 C 1987.575 2359.582,1764.150 2356.847,1630.500 2354.950 C 1468.647 2352.652,1358.948 2352.450,1302.000 2354.345 C 1254.975 2355.910,1179.375 2357.428,1134.000 2357.719 C 1036.777 2358.341,772.732 2362.703,586.500 2366.763 C 513.900 2368.345,390.098 2370.562,311.385 2371.689 L 168.271 2373.738 174.145 2362.216 C 177.376 2355.879,184.819 2335.126,190.686 2316.097 C 210.400 2252.154,213.746 2242.608,226.475 2214.000 C 260.623 2137.254,269.973 2111.536,309.367 1986.000 C 319.062 1955.108,324.644 1926.318,330.019 1879.500 C 339.464 1797.222,361.984 1693.086,386.936 1616.297 C 402.193 1569.347,403.370 1568.257,436.500 1570.371 C 449.700 1571.213,492.225 1572.592,531.000 1573.434 M1527.908 1732.823 C 1551.994 1738.204,1588.736 1752.447,1605.511 1762.908 C 1617.323 1770.273,1630.081 1785.468,1633.261 1795.956 C 1634.618 1800.433,1633.032 1804.954,1628.086 1810.703 L 1620.955 1818.994 1577.728 1818.400 C 1493.170 1817.238,1397.925 1801.488,1398.015 1788.681 C 1398.051 1783.654,1412.260 1764.198,1422.000 1755.841 C 1451.798 1730.274,1484.590 1723.147,1527.908 1732.823 M1924.061 2069.290 C 1924.840 2070.550,1923.186 2081.671,1920.387 2094.004 C 1915.957 2113.514,1914.253 2116.794,1907.269 2119.250 C 1892.354 2124.496,1885.156 2118.103,1881.347 2096.227 C 1876.920 2070.807,1876.943 2070.621,1884.750 2069.117 C 1896.704 2066.815,1922.602 2066.929,1924.061 2069.290 M1977.840 2085.750 C 1981.952 2096.063,1989.693 2119.350,1995.041 2137.500 C 2022.364 2230.229,2025.834 2244.167,2022.464 2247.660 C 2014.800 2255.604,1894.491 2257.572,1792.500 2251.422 C 1782.600 2250.824,1744.813 2248.811,1708.530 2246.948 C 1672.246 2245.084,1641.952 2242.952,1641.209 2242.209 C 1640.465 2241.465,1639.267 2202.464,1638.545 2155.538 L 1637.233 2070.218 1743.367 2070.859 L 1849.500 2071.500 1855.500 2090.008 C 1858.800 2100.188,1863.692 2110.988,1866.370 2114.008 C 1869.049 2117.029,1872.140 2124.524,1873.240 2130.664 C 1875.711 2144.458,1884.463 2151.004,1900.418 2150.989 C 1928.712 2150.963,1946.165 2127.441,1954.391 2078.250 C 1955.941 2068.978,1957.510 2067.000,1963.317 2067.000 C 1969.161 2067.000,1971.636 2070.196,1977.840 2085.750 M3066.887 2083.500 C 3064.900 2091.750,3062.451 2105.925,3061.445 2115.000 C 3060.438 2124.075,3058.363 2138.925,3056.833 2148.000 C 3055.302 2157.075,3051.329 2182.725,3048.003 2205.000 C 3042.476 2242.014,3034.982 2289.020,3027.196 2335.500 C 3025.538 2345.400,3021.456 2365.650,3018.126 2380.500 C 3004.396 2441.726,2999.440 2466.279,2993.903 2500.500 C 2990.700 2520.300,2985.537 2548.650,2982.430 2563.500 C 2979.323 2578.350,2975.121 2602.650,2973.092 2617.500 C 2971.063 2632.350,2965.427 2667.450,2960.567 2695.500 C 2939.263 2818.476,2936.516 2835.346,2932.470 2868.000 C 2930.120 2886.975,2925.558 2920.725,2922.333 2943.000 C 2919.108 2965.275,2915.575 2992.671,2914.482 3003.881 L 2912.494 3024.261 2935.997 3023.381 L 2959.500 3022.500 2961.568 2998.500 C 2964.211 2967.820,2971.949 2906.973,2979.307 2859.000 C 2982.471 2838.375,2987.727 2801.925,2990.987 2778.000 C 2994.247 2754.075,2998.407 2725.725,3000.231 2715.000 C 3002.055 2704.275,3005.421 2684.025,3007.711 2670.000 C 3016.013 2619.155,3029.838 2544.592,3038.581 2503.500 C 3043.496 2480.400,3050.961 2445.300,3055.170 2425.500 C 3070.331 2354.177,3072.155 2327.886,3071.294 2193.000 C 3070.627 2088.433,3069.922 2070.902,3066.887 2083.500 M1896.000 2077.150 C 1896.000 2077.783,1898.702 2079.007,1902.004 2079.870 C 1905.306 2080.734,1907.252 2080.216,1906.327 2078.720 C 1904.712 2076.107,1896.000 2074.783,1896.000 2077.150 M1907.370 2091.956 C 1906.638 2095.782,1907.061 2101.520,1908.309 2104.706 C 1909.914 2108.805,1910.640 2106.770,1910.789 2097.750 C 1911.021 2083.758,1909.447 2081.091,1907.370 2091.956 M1696.500 2399.995 C 1769.100 2401.426,1958.100 2404.024,2116.500 2405.768 C 2413.922 2409.043,2709.354 2414.354,2711.462 2416.462 C 2712.706 2417.706,2703.552 2595.448,2702.173 2596.827 C 2700.960 2598.040,1857.951 2592.069,1662.000 2589.460 C 1515.661 2587.511,1483.509 2587.824,1468.500 2591.341 C 1458.600 2593.661,1430.925 2596.221,1407.000 2597.029 C 1369.441 2598.298,1360.247 2597.645,1339.685 2592.249 C 1316.381 2586.134,1309.908 2586.000,1038.185 2585.980 C 874.598 2585.969,733.381 2584.579,694.500 2582.597 C 639.028 2579.770,269.785 2578.508,180.000 2580.838 L 154.500 2581.500 152.597 2553.000 C 151.550 2537.325,149.986 2500.748,149.120 2471.719 L 147.545 2418.937 250.023 2417.077 C 468.902 2413.104,712.436 2408.914,918.000 2405.583 C 1035.975 2403.671,1172.325 2401.209,1221.000 2400.112 C 1353.637 2397.123,1548.369 2397.075,1696.500 2399.995 M1141.545 2651.250 C 1150.207 2682.953,1169.141 2737.169,1182.917 2769.710 C 1195.504 2799.446,1205.656 2833.491,1202.732 2836.162 C 1202.054 2836.780,1178.754 2837.885,1150.954 2838.616 C 1116.390 2839.526,1100.146 2838.927,1099.581 2836.723 C 1099.127 2834.950,1097.065 2826.233,1094.998 2817.351 C 1091.610 2802.790,1086.311 2789.800,1063.495 2740.126 C 1059.611 2731.670,1054.867 2718.845,1052.951 2711.626 C 1051.035 2704.407,1044.863 2685.020,1039.234 2668.544 C 1033.605 2652.069,1029.000 2637.556,1029.000 2636.294 C 1029.000 2635.032,1053.262 2634.000,1082.916 2634.000 L 1136.832 2634.000 1141.545 2651.250 M1299.896 2638.009 C 1300.743 2640.214,1301.651 2661.476,1301.914 2685.259 C 1302.178 2709.042,1303.459 2752.125,1304.762 2781.000 C 1306.064 2809.875,1306.571 2834.513,1305.888 2835.750 C 1305.205 2836.988,1293.406 2838.000,1279.668 2838.000 L 1254.691 2838.000 1249.580 2822.250 C 1245.274 2808.977,1235.945 2785.713,1224.018 2758.500 C 1213.271 2733.981,1209.391 2723.190,1207.680 2713.066 C 1206.006 2703.158,1190.584 2655.953,1183.564 2639.250 C 1181.507 2634.354,1185.303 2634.000,1239.858 2634.000 C 1285.906 2634.000,1298.686 2634.853,1299.896 2638.009 M1663.673 2637.832 C 1663.952 2638.199,1661.779 2652.675,1658.842 2670.000 C 1655.906 2687.325,1651.994 2715.675,1650.149 2733.000 C 1644.261 2788.293,1639.569 2821.393,1637.073 2825.250 C 1635.290 2828.005,1621.270 2829.000,1584.241 2829.000 L 1533.836 2829.000 1531.944 2813.250 C 1530.903 2804.588,1530.040 2788.984,1530.026 2778.575 C 1530.012 2768.166,1528.636 2750.616,1526.969 2739.575 C 1523.075 2713.785,1518.342 2639.333,1520.372 2635.789 C 1521.654 2633.550,1661.935 2635.550,1663.673 2637.832 M2555.673 2640.034 C 2659.186 2642.084,2705.102 2644.010,2708.013 2646.426 C 2712.966 2650.536,2787.380 2801.189,2793.008 2818.500 C 2795.154 2825.100,2798.765 2833.354,2801.032 2836.841 C 2805.610 2843.883,2819.799 2885.102,2819.922 2891.714 C 2819.989 2895.319,2776.467 2895.648,2519.250 2893.990 C 2353.838 2892.924,2178.000 2890.739,2128.500 2889.134 C 1898.978 2881.693,1835.592 2879.375,1810.585 2877.509 L 1783.671 2875.500 1779.966 2853.333 C 1773.001 2811.662,1763.078 2720.793,1759.537 2666.250 L 1757.638 2637.000 2082.569 2637.050 C 2261.281 2637.078,2474.178 2638.421,2555.673 2640.034 M1716.000 2681.536 C 1716.000 2716.632,1723.615 2795.366,1729.609 2822.250 C 1731.074 2828.821,1730.466 2829.000,1706.670 2829.000 L 1682.225 2829.000 1684.295 2807.250 C 1687.214 2776.586,1700.482 2677.870,1704.456 2657.250 C 1706.574 2646.263,1709.273 2640.000,1711.890 2640.000 C 1715.172 2640.000,1716.000 2648.368,1716.000 2681.536 M1737.496 2879.410 C 1740.528 2882.585,1752.986 2969.103,1751.114 2973.983 C 1750.214 2976.328,1743.290 2979.175,1735.729 2980.309 C 1710.594 2984.078,1689.180 3005.836,1681.094 3035.818 C 1677.923 3047.577,1677.377 3037.835,1677.202 2966.495 C 1677.091 2920.843,1677.888 2881.178,1678.972 2878.351 C 1680.718 2873.801,1684.081 2873.447,1708.222 2875.265 C 1723.225 2876.395,1736.398 2878.260,1737.496 2879.410 M2050.500 2931.113 C 2078.550 2932.618,2264.006 2935.177,2462.624 2936.799 C 2661.243 2938.421,2824.447 2940.447,2825.300 2941.300 C 2826.154 2942.154,2827.515 2958.942,2828.325 2978.608 L 2829.797 3014.364 2317.789 3013.932 C 1887.699 3013.568,1805.374 3012.841,1803.239 3009.386 C 1801.841 3007.125,1799.142 2990.250,1797.242 2971.887 C 1795.342 2953.524,1793.079 2935.244,1792.214 2931.264 L 1790.642 2924.028 1895.071 2926.203 C 1952.507 2927.399,2022.450 2929.609,2050.500 2931.113 M3024.000 3048.000 L 3024.000 3072.000 3048.000 3072.000 L 3072.000 3072.000 3072.000 3048.000 L 3072.000 3024.000 3048.000 3024.000 L 3024.000 3024.000 3024.000 3048.000 " stroke="black" fill="none" fill-rule="evenodd"/></g></g>
      <g id="hand">
        <rect id="groupSizer" width="140" height="160" fill="none"/>
        <path d="M55.25,55.9,48.63,82.66s-27.58,40.19-26.86,16C23.31,47.27,55.25,55.9,55.25,55.9Z"
            fill="#f49f58" />
        <path
            d="M77.45,30.06C75.95,29.74,27.15,45,24.08,46.12S13.72,48,11.42,53.79s0,16.5,0,21.1-1.15,33.38-.77,37.6c.24,2.7,3.45,5.37,6.52,5.75s8.06-4.6,9.21-7.67,6.52-40.67,7.29-43.35,13-1.15,15.73-1.15,26.47,23.4,26.47,26.86-14.19,19.57-16.11,19.57-29.63,6.77-31.46,8.06c-3.84,2.69-6.93,9.81-5.75,16.88.77,4.6,6.14,6.14,10.36,5.76,3.62-.33,24.17-1.53,30.69-1.92,4.28-.25,12.66-3.84,15-5.37S97,121.7,98.12,119.78s15.08-12.56,17.26-16.69c3.45-6.52,14.39-48.34,13.24-50.07C123.39,45.17,83.76,31.37,77.45,30.06Z"
            fill="#ffc585" />
        <path
            d="M119.82,46.59c-7.44-4-18-8.3-26.85-11.51h0C81.87,48.19,69.38,60,56.92,71.77h0c7.89,7.16,19,18.8,19,21.15,0,1.58-3,5.82-6.39,9.95h0c1.15,0,8.42,8.43,21.74-4.39C111.74,78.73,119,66.42,120.74,56.26A17,17,0,0,0,119.82,46.59Z"
            fill="#ffc585" opacity="0.4" style="mix-blend-mode: multiply" />
        <path
            d="M14.1,70.29c-2.3,7.29-9.8,45.47-10,49.11-.21,4.32,1.83,7.15,5.75,6.91,3.39-.21,8.58-2.94,10.36-6.14,3.34-6,4.19-5.22,11.13-50.26Z"
            fill="#ffc585" />
        <path
            d="M14.1,70.29c-2.3,7.29-9.8,45.47-10,49.11-.21,4.32,1.83,7.15,5.75,6.91,3.39-.21,8.58-2.94,10.36-6.14,3.34-6,4.19-5.22,11.13-50.26Z"
            fill="#ffc585" opacity="0.4" style="mix-blend-mode: multiply" />
        <g>
            <path
                d="M115.22,36.89s-4.3,37.94-5.1,39.36S83.83,106.38,81.9,107.18,69.43,109.49,71.37,105s7.33-2.93,8.17-3.66S101.42,75.61,102,74.43s.74-30,.74-30Z"
                fill="#363f4f" />
            <path
                d="M113.07,39.08s-3.87,36-4.66,37.41S83.11,106.2,81.18,107s-11.75,2.49-9.81-2,7.33-2.93,8.17-3.66S101.42,75.61,102,74.43s.74-30,.74-30Z"
                fill="#4b5668" />
            <path
                d="M111.25,55.36c1-8.48,1.81-16.28,1.81-16.28l-10.31,5.4s-.08,15.28-.35,24C103.3,67.19,108.68,59.83,111.25,55.36Z"
                fill="#4b5668" opacity="0.4" style="mix-blend-mode: multiply" />
            <path
                d="M71.55,107.11c2.19-3.36,7.43-5.35,7.69-5.61-1.41.38-6.08-.56-7.86,3.53A1.73,1.73,0,0,0,71.55,107.11Z"
                fill="#4b5668" opacity="0.4" style="mix-blend-mode: multiply" />
            <path d="M33.23,86.72c10.08,3.3,24,15.06,29.31,25.8L58,117.38c-10.6-4-25.41-17.87-28-25.83Z"
                fill="#edbd15" />
            <path
                d="M46.16,94c-2.09,3-4.54,5.8-6.79,8.77-.24.32-.47.65-.7,1,5.75,5.83,13.22,11.38,19.3,13.65l4.57-4.85C59.32,106,52.93,99.13,46.16,94Z"
                fill="#edbd15" style="mix-blend-mode: multiply" />
            <path d="M3.79,149.09s-3.57,7.55-2.42,8.58c1.52,1.36,7.71-4.53,7.71-4.53Z" fill="#c6d0d5" />
            <path
                d="M7.95,150.39c-1.11,2.4-3.21,5.47-5.9,6.3a3.13,3.13,0,0,1-.73.13.78.78,0,0,0,.21.51c1.52,1.36,7.71-4.53,7.71-4.53Z"
                fill="#c7d1d6" style="mix-blend-mode: multiply" />
            <path
                d="M1.95,149.82c3.16-8.14,17.61-40.14,31.5-61.3,8.37-12.75,53.86-84,78.16-64.8,21.59,17-31.06,69.86-52.81,90.88C42,130.87,11.55,153.39,9.34,154.72S1.34,151.39,1.95,149.82Z"
                fill="#4b5668" />
            <path
                d="M49,113.63c-6.42,6.38-20.09,20-29.15,28.48C11,150.42,6.2,152.81,4.59,153.36c1.65,1.19,3.64,2,4.75,1.36,2.22-1.33,32.63-23.85,49.45-40.11C78,96.07,121.16,52.8,116.31,31.15c0,2.37-7.76,3.86-12,13.2C95.55,63.76,63.76,99,49,113.63Z"
                fill="#4b5668" opacity="0.4" style="mix-blend-mode: multiply" />
            <path
                d="M92.86,47.91c7.9,6.12,17.67,6.77,19.08,3.07,5.75-11.47,7-21.45-.34-27.26-8-6.33-18.36-2.79-28.91,5.24C80.46,32.85,84.33,41.31,92.86,47.91Z"
                fill="#69778b" />
            <path
                d="M83.79,28.14C94,20.69,103.86,17.61,111.6,23.72c7.17,5.66,6.15,15.26.79,26.34C106.53,58.36,80.56,40.72,83.79,28.14Z"
                fill="#edbd15" />
            <path
                d="M116.31,31.11c-.65,10.45-11.22,20.6-22,15.52,6.91,5.15,15.12,7.66,18.12,3.43C115.86,42.91,117.5,36.37,116.31,31.11Z"
                fill="#edbd15" style="mix-blend-mode: multiply" />
            <path
                d="M10.5,130.62c-4.17,8.76-7.28,15.93-8.55,19.21-.61,1.56,5.17,6.22,7.39,4.9,1-.59,7.45-5.31,15.83-11.79C20.75,141.85,11.74,135.18,10.5,130.62Z"
                fill="#edbd15" />
            <path d="M10.5,130.62c-1.89,4.89,10,12.92,14.67,12.31C20.75,141.85,11.74,135.18,10.5,130.62Z"
                fill="#feee28" />
            <path
                d="M2.51,151.41a8,8,0,0,0,.9,1c2.45-3.69,7.82-11.23,11.22-16a19.94,19.94,0,0,1-3-3.41C8.87,137.68,5,146,2.51,151.41Z"
                fill="#edbd15" style="mix-blend-mode: screen" />
            <path
                d="M20.4,140.73c-4.19,5-9,9.31-13.71,13.83a3.09,3.09,0,0,0,2.64.16c1-.59,7.45-5.31,15.83-11.79A18.38,18.38,0,0,1,20.4,140.73Z"
                fill="#edbd15" style="mix-blend-mode: multiply" />
            <path d="M33.23,86.72c4.3,8.5,19.27,22.52,29.31,25.8L58,117.38c-10.6-4-25.41-17.87-28-25.83Z"
                fill="#feee28" />
            <path d="M33.23,86.72c3.3,10,19.4,24.28,29.31,25.8L58,117.38c-10.6-4-25.41-17.87-28-25.83Z"
                fill="#edbd15" />
            <path
                d="M53.09,107.47a38.21,38.21,0,0,0,9.45,5.06L58,117.38a43,43,0,0,1-9.29-5.15C50.14,110.87,51.15,109.6,53.09,107.47Z"
                fill="#edbd15" style="mix-blend-mode: multiply" />
            <path
                d="M39,94.81c-.92-1-1.78-2.09-2.55-3.1-1.26,1.68-2.45,3.41-3.59,5.18.6.86,1.28,1.73,2,2.62A61.6,61.6,0,0,1,39,94.81Z"
                fill="#edbd15" style="mix-blend-mode: screen" />
            <path d="M3.45,153c1,.55-1.26,3.33-1.42,2.73S2.63,152.54,3.45,153Z" fill="#c7d1d6" opacity="0.7"
                style="mix-blend-mode: screen" />
            <path d="M107.61,75.33c.49-1.63-25.92,28.23-25.4,28.92S106.8,78,107.61,75.33Z" fill="#4b5668"
                opacity="0.7" style="mix-blend-mode: screen" />
            <path
                d="M101.93,22c-3.44-.3-9,3-8.18,4.61,2.2,4.21,12.06,2,12.88,0C107.76,23.75,103.74,22.19,101.93,22Z"
                fill="#edbd15" opacity="0.4" style="mix-blend-mode: screen" />
            <path
                d="M81,41.38c-5.59.22-35.49,37.16-38.3,46.24,3.74-1.84,11.19-13.24,18.86-22.54C70.83,53.89,80.15,44.46,81,41.38Z"
                fill="#4b5668" opacity="0.4" style="mix-blend-mode: screen" />
            <path d="M32.75,100.8c-3.63,2.63-15.13,19.8-17.94,28.88C18.78,125.16,31.85,103.88,32.75,100.8Z"
                fill="#4b5668" opacity="0.4" style="mix-blend-mode: screen" />
        </g>
        <path
            d="M43.35,65.72C43.74,64.29,71.25,36,73.6,31.06c-8.52,2.7-47.07,14.14-49.52,15.06C21,47.27,13.72,48,11.42,53.79s0,16.5,0,21.1-1.15,33.38-.77,37.6c.24,2.7,3.45,5.37,6.52,5.75s8.06-4.6,9.21-7.67,6.52-40.67,7.29-43.35C34.14,65.55,39,65.51,43.35,65.72Z"
            fill="#ffc585" />
        <path
            d="M69.51,111.93a10.24,10.24,0,0,1-4.45-3.18c-2.5,2.3-4.66,3.74-5.3,3.74-1.92,0-29.63,6.77-31.46,8.06-3.84,2.69-6.93,9.81-5.75,16.88.77,4.6,6.14,6.14,10.36,5.76,3.62-.33,24.17-1.53,30.69-1.92,4.28-.25,12.66-3.84,15-5.37S97,121.7,98.12,119.78C98.3,119.48,73.84,113.57,69.51,111.93Z"
            fill="#ffc585" />
        <path
            d="M27.53,124.77c2.69-2.69,15-2.3,15.35-.38s.38,10-.38,12.28-14.19,5-15.73,2.69C23.39,134.28,25.1,127.19,27.53,124.77Z"
            fill="#ffd5b8" />
        <path
            d="M19,116a81.46,81.46,0,0,0-.29-14.29c-.34-1.68-6.65-1.76-8-2.1-.15,6-.23,11.23-.08,12.84C10.89,115.19,17.27,117.77,19,116Z"
            fill="#ffd5b8" />
        <path
            d="M117,91.87c-8.53,11-35.2,38.27-45.36,42.58-9.4,4-40.57,9.5-49.11,3,.77,4.6,6.14,6.14,10.36,5.76,3.62-.33,24.17-1.53,30.69-1.92,4.28-.25,12.66-3.84,15-5.37S97,121.7,98.12,119.78s15.08-12.56,17.26-16.69c1.12-2.12,3-7.94,5.05-14.91C119.34,89.44,118,90.54,117,91.87Z"
            fill="#ffc585" opacity="0.4" style="mix-blend-mode: multiply" />
        <path
            d="M26.38,110.57c1.15-3.07,6.52-40.67,7.29-43.35.54-1.89,6.78-1.69,11.37-1.41.76,0-11.61-4.73-14-1.47-3.27,4.54-3.16,35.87-12,50.07a5.88,5.88,0,0,1-5.31,2.53,8.13,8.13,0,0,0,3.39,1.31C20.24,118.63,25.23,113.64,26.38,110.57Z"
            fill="#ffc585" opacity="0.4" style="mix-blend-mode: multiply" />
      </g>
    </svg>