<canvas id="myCanvas" width="1202.25" height="601.2" style="position:absolute;z-index: 10;"></canvas><svg id="demo" version="1.1" width="1202.25" height="601.2" xmlns="http://www.w3.org/2000/svg" style="position:relative;"><g class="theWords" stroke-linejoin="round"><g id="handwriting" transform="translate(240.45, 100.2 ) scale(0.1500000, 0.1500000)"><path d="M1143.964 120.694 C 1135.603 131.037,1115.089 156.372,1098.379 176.994 C 1081.668 197.615,1068.439 215.840,1068.980 217.494 C 1069.521 219.147,1074.979 220.922,1081.110 221.439 L 1092.255 222.377 1091.378 243.939 L 1090.500 265.500 1021.500 267.000 L 952.500 268.500 952.500 310.500 L 952.500 352.500 972.750 353.387 C 986.062 353.970,992.994 355.512,992.982 357.887 C 992.922 369.876,950.477 757.040,949.034 758.762 C 948.452 759.456,944.857 757.093,941.045 753.512 C 930.901 743.982,917.269 744.937,908.113 755.819 C 901.088 764.168,899.787 764.544,883.706 762.885 C 873.111 761.791,862.246 762.609,854.827 765.057 C 843.960 768.643,842.352 768.454,836.216 762.866 C 825.702 753.291,817.413 750.000,803.812 750.000 L 791.229 750.000 792.592 716.923 C 793.342 698.730,795.219 682.581,796.764 681.036 C 798.510 679.290,807.511 681.136,820.537 685.909 C 875.600 706.089,905.196 715.768,908.486 714.671 C 910.798 713.901,903.833 697.426,889.060 668.720 C 876.393 644.108,866.943 623.057,868.059 621.941 C 869.176 620.824,874.521 624.205,879.938 629.455 C 889.213 638.445,897.013 641.782,896.989 636.750 C 896.979 634.650,891.513 619.950,871.717 568.788 C 859.519 537.261,861.826 533.924,883.186 552.198 C 894.222 561.640,901.931 566.269,903.691 564.509 C 905.450 562.750,897.955 538.459,883.755 499.900 C 871.240 465.916,861.000 436.735,861.000 435.055 C 861.000 430.628,866.143 431.300,874.582 436.830 C 878.637 439.486,884.138 440.821,886.808 439.797 C 890.990 438.192,890.542 436.466,883.579 427.337 C 873.814 414.534,851.710 368.306,843.491 343.500 C 838.389 328.099,827.050 281.859,819.637 246.228 C 818.462 240.578,816.020 235.472,814.211 234.882 C 812.403 234.291,805.825 244.988,799.593 258.654 C 772.575 317.906,732.458 383.766,694.621 430.986 C 683.829 444.453,675.000 457.045,675.000 458.967 C 675.000 460.889,688.039 455.597,703.976 447.207 C 719.913 438.817,733.710 432.710,734.636 433.636 C 737.977 436.977,707.155 490.099,684.566 519.933 C 677.307 529.522,672.233 538.233,673.291 539.291 C 674.349 540.349,681.579 538.756,689.357 535.751 C 697.136 532.745,706.846 529.556,710.935 528.663 C 717.967 527.127,718.130 527.380,713.935 533.325 C 711.496 536.783,696.874 553.189,681.442 569.782 C 653.131 600.224,650.407 607.848,670.733 599.754 C 675.555 597.833,685.238 594.468,692.250 592.275 C 713.339 585.679,711.721 588.654,667.351 638.037 C 656.708 649.883,648.000 661.695,648.000 664.287 C 648.000 668.370,654.270 669.000,694.895 669.000 L 741.789 669.000 739.924 690.750 C 738.898 702.713,737.217 720.105,736.187 729.401 L 734.315 746.302 721.907 747.924 C 711.848 749.239,707.102 752.253,696.829 763.852 C 689.859 771.720,683.687 777.559,683.112 776.829 C 682.538 776.098,678.592 769.423,674.345 761.996 C 664.911 745.501,657.583 738.609,645.925 735.265 C 627.893 730.094,617.923 738.736,592.145 781.884 C 588.970 787.200,588.057 786.976,575.085 777.700 C 522.286 739.945,478.976 742.465,454.205 784.733 C 449.983 791.938,447.044 800.233,447.675 803.166 C 448.514 807.068,450.553 805.184,455.267 796.151 C 476.279 755.895,501.098 746.835,540.000 765.220 C 550.725 770.289,566.530 779.738,575.121 786.218 C 583.713 792.698,591.477 798.000,592.375 798.000 C 593.273 798.000,598.201 789.125,603.326 778.278 C 612.564 758.725,629.828 737.990,636.850 738.011 C 646.301 738.040,660.294 751.051,670.498 769.298 C 676.558 780.134,682.640 789.000,684.014 789.000 C 685.387 789.000,689.226 784.613,692.545 779.250 C 703.052 762.275,715.379 752.426,724.754 753.518 C 733.047 754.483,733.184 754.816,732.541 772.500 C 731.937 789.099,732.240 790.047,736.443 784.677 C 738.949 781.474,741.000 775.061,741.000 770.427 C 741.000 759.004,745.920 759.827,753.398 772.500 C 756.805 778.275,760.574 783.000,761.773 783.000 C 762.973 783.000,767.125 779.625,771.000 775.500 C 779.998 765.922,782.770 766.028,782.065 775.922 C 781.754 780.280,783.110 784.416,785.078 785.115 C 787.452 785.958,788.966 781.567,789.578 772.063 C 790.380 759.610,791.479 757.509,798.000 755.958 C 809.838 753.142,817.732 755.839,831.072 767.258 L 843.483 777.881 853.843 772.940 C 865.676 767.298,880.880 766.582,892.780 771.107 C 900.170 773.916,901.787 773.199,909.694 763.607 C 920.368 750.658,930.320 749.800,940.643 760.938 C 949.855 770.878,949.916 775.164,940.905 779.270 C 937.002 781.048,929.131 788.352,923.413 795.501 C 910.865 811.190,892.943 842.943,895.303 845.303 C 897.457 847.457,896.999 848.104,909.877 824.719 C 922.100 802.520,936.779 786.672,947.640 783.946 C 957.111 781.569,973.821 790.578,980.307 801.559 C 983.050 806.201,986.690 809.945,988.397 809.878 C 990.104 809.810,997.432 800.228,1004.682 788.584 C 1018.068 767.083,1037.136 750.000,1047.746 750.000 C 1055.443 750.000,1069.722 765.537,1074.035 778.605 C 1078.497 792.126,1083.839 791.771,1090.264 777.524 C 1093.110 771.213,1098.425 762.303,1102.076 757.724 C 1108.331 749.880,1110.088 749.400,1132.571 749.400 L 1156.428 749.400 1160.505 759.450 C 1166.113 773.274,1165.906 773.232,1176.795 762.729 C 1188.181 751.747,1199.360 747.000,1213.839 747.000 C 1227.964 747.000,1236.490 756.788,1246.663 784.681 C 1251.141 796.956,1255.992 807.000,1257.444 807.000 C 1258.896 807.000,1263.905 802.725,1268.574 797.499 C 1278.869 785.976,1284.988 787.377,1291.400 802.723 L 1295.990 813.708 1308.003 802.854 C 1325.943 786.647,1340.626 788.478,1352.977 808.462 C 1356.559 814.258,1361.495 819.000,1363.947 819.000 C 1366.923 819.000,1367.817 820.849,1366.638 824.565 C 1365.667 827.626,1366.115 833.364,1367.635 837.315 C 1370.093 843.703,1370.639 843.905,1372.565 839.135 C 1373.756 836.184,1373.863 828.346,1372.803 821.717 C 1371.100 811.071,1371.907 808.632,1379.707 800.832 C 1384.564 795.974,1390.876 792.000,1393.734 792.000 C 1396.591 792.000,1404.060 797.393,1410.330 803.985 L 1421.732 815.971 1430.517 803.235 C 1441.171 787.790,1450.545 779.015,1454.856 780.452 C 1456.703 781.068,1454.870 786.213,1450.530 792.601 C 1440.307 807.644,1440.779 811.158,1452.750 809.148 C 1458.113 808.247,1464.826 806.590,1467.668 805.466 C 1471.883 803.798,1473.187 805.612,1474.736 815.297 C 1477.852 834.787,1479.374 835.361,1496.808 823.629 C 1509.667 814.976,1515.395 813.000,1527.622 813.000 C 1538.348 813.000,1542.262 814.072,1541.312 816.750 C 1540.580 818.813,1536.767 833.146,1532.837 848.602 L 1525.693 876.705 1509.097 874.859 C 1408.732 863.701,1399.230 863.395,1201.500 864.968 C 1094.250 865.821,982.200 867.924,952.500 869.640 C 922.800 871.356,866.100 874.187,826.500 875.931 C 786.900 877.675,736.950 880.438,715.500 882.071 C 694.050 883.704,636.000 887.735,586.500 891.029 C 473.451 898.552,459.000 899.988,459.000 903.695 C 459.000 905.540,465.053 905.994,474.750 904.878 C 502.072 901.732,604.548 894.316,685.500 889.626 C 765.349 885.001,785.534 883.900,882.000 878.917 C 912.525 877.340,969.900 874.363,1009.500 872.301 C 1106.938 867.227,1380.514 867.299,1435.500 872.413 C 1458.600 874.561,1496.400 879.743,1519.500 883.927 C 1542.600 888.112,1573.620 893.447,1588.434 895.783 C 1603.248 898.119,1617.423 900.671,1619.934 901.455 C 1639.963 907.705,1757.779 924.703,1795.181 926.739 C 1838.237 929.083,1842.597 929.918,1882.500 943.473 C 1991.668 980.558,2060.487 1022.326,2080.788 1063.820 C 2087.746 1078.041,2088.598 1082.781,2087.241 1099.695 C 2086.086 1114.081,2083.544 1122.405,2077.530 1131.493 C 2064.578 1151.065,2045.887 1169.885,2028.026 1181.341 C 1927.791 1245.631,1816.837 1290.308,1706.056 1310.988 C 1629.679 1325.245,1493.714 1356.001,1466.429 1365.192 C 1425.575 1378.955,1401.059 1403.883,1405.435 1427.209 C 1408.667 1444.439,1415.019 1454.350,1438.883 1479.403 C 1451.048 1492.172,1460.995 1505.068,1460.989 1508.060 C 1460.946 1528.628,1429.183 1551.189,1360.065 1579.743 C 1298.976 1604.981,1259.222 1629.989,1228.082 1662.772 C 1198.296 1694.129,1192.489 1707.238,1192.544 1743.000 C 1192.584 1768.486,1193.498 1773.245,1201.188 1788.000 C 1211.883 1808.520,1245.318 1841.787,1275.000 1861.440 C 1294.286 1874.210,1418.880 1937.623,1543.500 1998.096 C 1627.749 2038.978,1702.712 2089.254,1778.489 2155.697 C 1834.955 2205.210,1856.779 2222.401,1896.000 2248.265 C 1983.506 2305.970,2057.052 2341.152,2206.500 2396.795 C 2227.950 2404.782,2257.650 2416.100,2272.500 2421.947 C 2324.611 2442.466,2408.196 2473.010,2481.000 2498.139 C 2879.610 2635.724,3275.289 2733.252,3658.500 2788.372 C 3688.200 2792.644,3714.525 2796.718,3717.000 2797.424 C 3724.635 2799.603,3814.386 2810.559,3877.500 2817.016 C 3910.500 2820.392,3963.825 2825.846,3996.000 2829.136 C 4231.362 2853.200,4500.765 2896.108,4710.000 2942.853 C 4755.352 2952.985,4756.024 2953.084,4753.651 2949.244 C 4751.839 2946.313,4720.735 2938.539,4662.907 2926.564 C 4643.433 2922.531,4617.375 2917.064,4605.000 2914.415 C 4492.999 2890.438,4255.581 2853.270,4098.000 2835.045 C 4054.275 2829.988,4014.450 2825.191,4009.500 2824.384 C 4004.550 2823.578,3963.375 2819.539,3918.000 2815.410 C 3649.847 2791.008,3233.378 2714.368,2962.500 2639.576 C 2855.248 2609.962,2819.119 2599.803,2799.000 2593.599 C 2786.625 2589.783,2767.050 2583.871,2755.500 2580.461 C 2619.768 2540.388,2432.276 2476.360,2275.500 2416.542 C 2255.700 2408.988,2221.275 2396.034,2199.000 2387.757 C 2025.998 2323.469,1908.148 2260.180,1821.110 2184.818 C 1802.487 2168.693,1779.656 2148.995,1770.375 2141.045 C 1737.392 2112.792,1674.943 2067.006,1637.182 2043.390 C 1601.402 2021.014,1569.861 2004.850,1375.500 1909.288 C 1288.888 1866.703,1262.283 1849.917,1233.683 1819.809 C 1204.697 1789.294,1198.500 1775.501,1198.500 1741.500 C 1198.500 1707.566,1204.351 1694.523,1232.437 1665.850 C 1264.278 1633.344,1302.554 1610.204,1372.500 1581.175 C 1442.016 1552.325,1475.703 1522.148,1463.759 1499.426 C 1461.756 1495.617,1451.399 1483.211,1440.742 1471.858 C 1412.623 1441.901,1406.461 1422.260,1418.823 1401.987 C 1433.995 1377.105,1478.046 1363.416,1668.000 1324.554 C 1753.146 1307.134,1775.565 1301.823,1810.440 1290.805 C 1875.542 1270.239,1958.655 1231.640,2019.000 1193.948 C 2068.810 1162.836,2097.000 1126.572,2097.000 1093.610 C 2097.000 1040.402,2025.107 985.798,1897.679 942.221 C 1884.578 937.741,1873.328 932.483,1872.679 930.537 C 1870.231 923.194,2593.170 926.193,3198.000 936.036 C 3525.816 941.370,3561.004 942.092,3634.500 944.990 C 3674.100 946.552,3733.500 948.572,3766.500 949.479 C 3799.500 950.387,3844.725 951.776,3867.000 952.565 C 3889.275 953.355,3954.075 955.349,4011.000 956.998 C 4067.925 958.647,4131.375 960.670,4152.000 961.494 C 4172.625 962.318,4227.975 964.395,4275.000 966.110 C 4322.025 967.824,4417.090 971.876,4486.256 975.114 C 4615.227 981.151,4655.187 982.187,4652.424 979.424 C 4648.558 975.558,4561.476 971.438,4212.000 958.588 C 4145.175 956.131,4070.925 953.395,4047.000 952.509 C 3865.567 945.788,3670.392 940.076,3648.649 940.851 C 3632.914 941.412,3640.602 937.884,3663.535 934.020 C 3691.024 929.389,3709.604 917.964,3718.864 900.000 C 3734.764 869.153,3743.960 847.698,3745.688 837.418 C 3746.698 831.413,3748.153 824.196,3748.923 821.381 C 3749.933 817.681,3744.652 812.492,3729.878 802.668 C 3712.107 790.850,3708.738 787.112,3704.104 774.066 C 3700.122 762.853,3696.907 758.589,3691.394 757.205 C 3678.165 753.885,3674.227 757.548,3676.509 771.052 L 3678.543 783.090 3661.185 790.767 C 3631.532 803.881,3572.156 822.410,3558.000 822.968 L 3544.500 823.500 3541.876 797.124 C 3540.432 782.618,3539.792 770.208,3540.453 769.547 C 3541.114 768.886,3559.170 766.842,3580.577 765.004 C 3625.623 761.137,3620.887 764.312,3652.186 717.000 C 3712.857 625.287,3709.057 547.165,3640.574 478.288 C 3603.119 440.617,3599.493 438.863,3555.676 437.227 C 3535.423 436.471,3518.044 435.044,3517.057 434.057 C 3516.070 433.070,3514.566 420.053,3513.715 405.131 L 3512.168 378.000 3526.834 377.971 C 3536.073 377.952,3547.376 375.206,3557.381 370.548 C 3577.335 361.258,3601.531 354.000,3612.545 354.000 C 3629.178 354.000,3620.617 348.660,3600.750 346.643 C 3567.825 343.301,3558.364 339.680,3541.828 324.094 C 3533.398 316.148,3521.438 307.545,3515.250 304.976 C 3509.063 302.408,3504.000 298.212,3504.000 295.653 C 3504.000 292.984,3501.415 291.000,3497.936 291.000 C 3486.014 291.000,3484.945 301.187,3489.851 368.003 C 3492.375 402.376,3493.554 431.325,3492.470 432.334 C 3491.387 433.342,3461.736 432.856,3426.579 431.254 C 3391.423 429.652,3361.867 429.133,3360.900 430.100 C 3359.932 431.068,3367.991 441.241,3378.808 452.707 C 3412.071 487.969,3434.191 524.823,3447.468 567.106 C 3453.328 585.768,3454.475 595.749,3454.348 627.000 C 3454.177 669.222,3448.822 689.625,3425.806 735.749 C 3419.205 748.979,3414.215 760.215,3414.717 760.717 C 3415.220 761.220,3437.822 763.104,3464.944 764.905 C 3492.359 766.725,3515.117 769.571,3516.195 771.315 C 3517.261 773.041,3519.007 786.756,3520.074 801.794 C 3521.499 821.859,3521.041 829.739,3518.354 831.399 C 3505.760 839.183,3415.592 838.035,3385.500 829.709 C 3375.600 826.970,3358.038 820.065,3346.473 814.364 C 3334.909 808.664,3324.446 804.000,3323.223 804.000 C 3319.351 804.000,3320.823 824.955,3325.304 833.620 C 3327.671 838.198,3334.940 845.472,3341.457 849.784 C 3350.660 855.875,3356.003 863.274,3365.379 882.914 C 3378.263 909.900,3384.319 915.889,3411.623 928.645 L 3427.500 936.063 3385.500 934.482 C 3362.400 933.613,3273.300 931.580,3187.500 929.965 C 3101.700 928.350,2993.025 926.196,2946.000 925.179 C 2898.975 924.162,2608.725 922.285,2301.000 921.009 C 1879.989 919.261,1737.206 917.781,1724.150 915.028 C 1708.431 911.713,1706.240 910.271,1700.839 899.685 C 1694.286 886.840,1686.936 883.187,1692.583 895.581 C 1694.683 900.191,1694.952 904.179,1693.269 905.756 C 1691.140 907.749,1575.517 889.761,1573.129 887.064 C 1572.854 886.754,1573.327 876.946,1574.180 865.270 C 1575.590 845.975,1576.451 843.706,1583.616 840.381 C 1587.952 838.369,1596.630 833.942,1602.899 830.543 C 1617.428 822.667,1636.903 824.940,1650.112 836.055 C 1659.665 844.093,1665.741 843.622,1658.896 835.375 C 1646.903 820.924,1611.643 817.058,1593.382 828.191 C 1578.017 837.558,1575.000 834.588,1575.000 810.094 C 1575.000 785.217,1572.533 786.098,1620.731 793.761 C 1639.127 796.686,1651.751 797.449,1653.459 795.741 C 1655.168 794.032,1650.987 784.438,1642.620 770.868 C 1630.145 750.633,1625.582 738.876,1631.250 741.569 C 1632.488 742.157,1639.883 745.900,1647.684 749.885 C 1655.485 753.871,1662.799 756.201,1663.935 755.065 C 1665.072 753.928,1661.448 747.331,1655.882 740.404 C 1646.835 729.146,1614.021 667.905,1614.006 662.250 C 1613.995 658.214,1622.574 659.871,1636.354 666.566 C 1643.787 670.177,1650.729 672.271,1651.781 671.219 C 1652.834 670.166,1641.388 646.508,1626.347 618.643 C 1611.306 590.779,1599.000 567.085,1599.000 565.990 C 1599.000 562.159,1605.218 564.062,1617.000 571.500 C 1623.534 575.625,1629.583 579.000,1630.440 579.000 C 1634.260 579.000,1631.324 572.430,1623.450 563.354 C 1605.942 543.175,1569.000 481.699,1569.000 472.743 C 1569.000 468.394,1576.740 472.285,1602.056 489.362 C 1629.017 507.548,1637.194 509.895,1629.068 497.114 C 1596.137 445.318,1555.677 373.492,1528.500 318.582 C 1515.300 291.912,1503.150 270.516,1501.500 271.037 C 1499.850 271.558,1497.562 285.036,1496.415 300.990 C 1493.394 343.005,1480.254 425.087,1471.270 458.064 C 1467.006 473.714,1464.296 487.296,1465.246 488.246 C 1467.411 490.411,1477.967 485.121,1488.701 476.493 C 1493.211 472.868,1497.740 470.740,1498.765 471.765 C 1501.036 474.036,1484.007 524.902,1467.634 564.750 C 1454.985 595.534,1456.052 601.124,1471.500 585.000 C 1484.662 571.262,1488.574 572.983,1483.436 590.250 C 1480.060 601.591,1461.815 648.377,1453.018 668.250 C 1450.563 673.797,1457.193 672.824,1471.900 665.479 C 1479.082 661.892,1485.646 659.646,1486.487 660.487 C 1489.039 663.039,1477.548 693.196,1459.783 730.569 C 1450.531 750.034,1443.735 766.735,1444.681 767.681 C 1445.628 768.628,1451.829 766.279,1458.462 762.462 C 1472.310 754.491,1475.864 755.683,1469.087 766.025 C 1465.683 771.221,1462.373 772.857,1457.248 771.877 C 1451.839 770.843,1447.573 773.352,1439.446 782.348 C 1433.568 788.855,1427.385 796.632,1425.706 799.631 C 1422.848 804.740,1422.051 804.576,1413.096 797.041 C 1399.380 785.500,1390.243 783.952,1380.100 791.452 L 1371.683 797.675 1369.707 771.587 C 1359.070 631.110,1340.968 505.313,1313.830 383.282 C 1310.624 368.862,1308.000 356.429,1308.000 355.653 C 1308.000 354.877,1319.138 353.851,1332.750 353.371 L 1357.500 352.500 1357.500 309.000 L 1357.500 265.500 1292.250 264.691 L 1227.000 263.883 1227.000 242.941 L 1227.000 222.000 1239.000 222.000 C 1247.508 222.000,1251.000 220.728,1251.000 217.630 C 1251.000 212.766,1167.338 104.520,1162.333 102.909 C 1160.591 102.348,1152.325 110.351,1143.964 120.694 M1202.592 163.155 C 1222.995 189.091,1239.119 210.881,1238.424 211.576 C 1236.404 213.596,1085.561 213.561,1083.540 211.540 C 1081.224 209.224,1080.714 209.917,1123.200 157.687 C 1142.836 133.549,1160.385 114.295,1162.198 114.899 C 1164.012 115.504,1182.189 137.219,1202.592 163.155 M1218.000 243.000 L 1218.000 264.000 1159.702 264.000 C 1106.309 264.000,1101.261 263.548,1099.699 258.628 C 1097.821 252.709,1098.111 227.817,1100.100 224.250 C 1100.790 223.013,1127.599 222.000,1159.677 222.000 L 1218.000 222.000 1218.000 243.000 M2569.570 243.000 C 2572.719 253.667,2595.217 303.941,2598.367 307.350 C 2603.608 313.023,2600.860 303.608,2588.696 274.223 C 2581.929 257.875,2574.359 242.475,2571.874 240.000 C 2567.854 235.995,2567.600 236.326,2569.570 243.000 M2845.910 290.589 C 2823.047 313.496,2805.594 333.013,2807.126 333.960 C 2810.668 336.149,2889.983 256.450,2888.548 252.144 C 2887.961 250.382,2868.774 267.682,2845.910 290.589 M815.404 267.235 C 819.108 297.010,837.581 357.665,853.322 391.734 C 859.195 404.445,864.000 415.976,864.000 417.358 C 864.000 418.740,860.619 418.331,856.487 416.448 C 841.446 409.595,841.815 411.232,877.031 507.671 C 882.890 523.715,886.504 537.570,885.063 538.461 C 883.621 539.352,874.707 533.313,865.254 525.041 C 847.837 509.799,843.000 507.266,843.000 513.388 C 843.000 515.252,850.425 536.796,859.500 561.264 C 868.575 585.732,876.000 607.449,876.000 609.523 C 876.000 611.598,868.870 606.254,860.156 597.648 C 845.977 583.645,837.000 578.351,837.000 583.992 C 837.000 585.586,860.335 630.943,889.995 687.000 C 894.014 694.596,895.248 702.000,892.494 702.000 C 890.870 702.000,861.588 691.777,807.357 672.277 L 773.215 660.000 718.107 660.000 C 681.836 660.000,663.000 658.930,663.000 656.869 C 663.000 655.147,667.546 648.735,673.103 642.619 C 731.293 578.574,735.613 573.000,727.067 573.000 C 724.238 573.000,713.358 575.893,702.890 579.429 C 692.422 582.965,683.011 585.011,681.975 583.975 C 680.083 582.083,692.358 567.870,728.475 530.134 C 740.087 518.001,746.862 508.684,745.234 507.087 C 743.620 505.505,734.085 508.009,721.959 513.201 C 710.662 518.037,700.258 521.277,698.839 520.401 C 697.420 519.524,703.521 507.551,712.395 493.795 C 732.276 462.977,750.000 428.206,750.000 420.023 C 750.000 414.314,748.689 414.616,730.797 424.448 C 699.014 441.913,698.371 439.777,724.471 403.424 C 745.403 374.270,773.753 326.540,793.504 287.202 C 808.053 258.225,813.648 253.124,815.404 267.235 M1349.340 308.250 L 1348.500 346.500 1162.500 347.342 C 1060.200 347.805,972.113 347.406,966.750 346.456 L 957.000 344.728 957.033 320.114 C 957.051 306.576,957.899 290.462,958.917 284.304 L 960.767 273.109 1030.134 272.246 C 1068.285 271.772,1155.903 271.073,1224.840 270.692 L 1350.179 270.000 1349.340 308.250 M1529.945 336.750 C 1553.449 383.023,1555.898 387.480,1589.364 444.880 C 1601.671 465.989,1611.028 483.972,1610.158 484.842 C 1609.289 485.711,1597.062 478.760,1582.989 469.395 C 1568.916 460.029,1555.931 452.856,1554.134 453.455 C 1550.238 454.754,1568.090 492.719,1588.091 525.667 C 1595.741 538.269,1602.000 549.384,1602.000 550.367 C 1602.000 551.350,1598.017 550.094,1593.149 547.577 C 1588.281 545.060,1583.465 543.000,1582.447 543.000 C 1578.670 543.000,1585.405 557.648,1609.345 601.500 C 1622.856 626.250,1634.789 648.863,1635.861 651.750 C 1638.502 658.858,1631.824 658.563,1616.821 650.909 C 1606.831 645.812,1604.610 645.525,1603.219 649.151 C 1601.214 654.375,1616.719 690.896,1631.083 714.785 C 1636.800 724.292,1641.030 733.409,1640.485 735.046 C 1639.939 736.682,1633.157 734.649,1625.414 730.527 C 1617.670 726.404,1610.689 724.076,1609.900 725.352 C 1609.112 726.628,1615.768 739.784,1624.691 754.586 C 1633.615 769.389,1640.935 783.188,1640.958 785.250 C 1641.012 790.068,1632.568 789.760,1590.000 783.392 L 1555.500 778.231 1516.993 787.848 L 1478.485 797.465 1474.504 787.997 C 1470.686 778.916,1471.065 777.769,1483.762 759.977 C 1503.142 732.818,1502.006 729.559,1478.255 744.173 C 1470.055 749.219,1462.616 752.616,1461.723 751.723 C 1460.830 750.830,1465.865 737.590,1472.912 722.300 C 1484.800 696.507,1500.000 656.202,1500.000 650.475 C 1500.000 646.253,1491.283 647.734,1478.880 654.061 C 1472.346 657.395,1467.000 658.930,1467.000 657.474 C 1467.000 656.017,1471.179 644.852,1476.286 632.663 C 1483.435 615.600,1502.631 560.223,1502.947 555.750 C 1503.190 552.313,1494.250 556.512,1487.445 563.031 C 1482.835 567.449,1478.271 570.271,1477.304 569.304 C 1476.336 568.336,1480.429 554.505,1486.399 538.567 C 1503.376 493.239,1512.559 462.989,1511.485 455.932 C 1510.548 449.773,1509.804 449.991,1496.221 460.388 C 1488.368 466.400,1480.698 470.549,1479.176 469.609 C 1477.578 468.621,1478.758 459.369,1481.971 447.700 C 1488.041 425.648,1503.000 327.103,1503.000 309.165 C 1503.000 299.805,1504.767 294.000,1507.615 294.000 C 1507.953 294.000,1518.002 313.238,1529.945 336.750 M3498.089 308.250 C 3498.138 311.138,3500.135 332.400,3502.526 355.500 C 3507.648 404.958,3508.204 435.000,3504.000 435.000 C 3502.350 435.000,3500.984 432.638,3500.964 429.750 C 3500.945 426.863,3498.925 402.900,3496.477 376.500 C 3491.244 320.085,3490.901 303.000,3495.000 303.000 C 3496.650 303.000,3498.040 305.363,3498.089 308.250 M3519.771 312.412 C 3523.277 314.289,3530.951 320.549,3536.823 326.322 C 3549.726 339.008,3563.692 347.974,3570.573 347.989 C 3582.271 348.015,3578.013 354.412,3560.365 363.328 C 3541.298 372.960,3519.066 376.266,3513.148 370.348 C 3511.538 368.738,3509.297 354.276,3508.168 338.210 C 3505.986 307.170,3506.760 305.449,3519.771 312.412 M1303.656 369.409 C 1305.608 377.058,1308.056 387.858,1309.097 393.409 L 1310.990 403.500 1153.373 403.500 L 995.755 403.500 997.565 387.000 C 998.560 377.925,1000.075 366.775,1000.931 362.222 L 1002.489 353.944 1151.299 354.722 L 1300.109 355.500 1303.656 369.409 M2682.000 358.959 C 2654.104 368.892,2638.638 386.035,2633.758 412.434 C 2625.879 455.057,2652.389 487.652,2694.322 486.899 C 2724.778 486.352,2741.967 470.695,2741.989 443.480 C 2742.014 411.981,2703.409 390.619,2678.505 408.353 C 2666.705 416.755,2662.915 427.122,2667.055 439.667 C 2670.457 449.974,2674.886 453.000,2686.575 453.000 C 2695.936 453.000,2703.000 442.390,2703.000 428.332 C 2703.000 419.317,2704.132 417.000,2708.535 417.000 C 2717.563 417.000,2724.771 427.853,2726.298 443.746 C 2727.540 456.677,2726.742 459.531,2719.997 466.276 C 2713.562 472.711,2709.506 474.000,2695.697 474.000 C 2648.173 474.000,2627.977 440.738,2650.477 399.525 C 2662.508 377.488,2677.341 369.000,2703.818 369.000 C 2729.242 369.000,2737.320 372.224,2754.786 389.344 C 2781.545 415.570,2787.648 447.738,2771.860 479.333 C 2754.648 513.777,2728.540 527.197,2684.602 524.185 C 2646.361 521.564,2620.293 503.136,2602.033 465.813 C 2595.012 451.464,2594.392 447.362,2595.558 422.972 C 2596.268 408.138,2596.528 396.000,2596.137 396.000 C 2595.746 396.000,2593.158 403.763,2590.387 413.250 C 2584.221 434.358,2585.765 456.516,2595.131 481.323 C 2608.867 517.706,2650.409 546.033,2689.929 545.964 C 2716.135 545.919,2738.306 539.996,2756.879 528.078 C 2806.241 496.402,2813.415 426.387,2771.399 386.362 C 2743.014 359.323,2709.676 349.104,2682.000 358.959 M1277.154 410.613 C 1295.663 411.820,1311.506 413.506,1312.360 414.360 C 1314.478 416.478,1326.000 473.034,1326.000 481.316 L 1326.000 487.972 1208.250 486.798 C 1143.488 486.152,1068.225 486.815,1041.000 488.271 C 1013.775 489.727,990.576 490.150,989.447 489.209 C 986.648 486.879,993.178 419.252,996.565 415.500 C 998.054 413.850,1012.373 411.728,1028.386 410.785 C 1071.929 408.219,1238.674 408.104,1277.154 410.613 M2858.213 422.037 C 2855.306 422.817,2853.698 424.702,2854.640 426.227 C 2855.583 427.752,2878.662 429.000,2905.927 429.000 C 2944.250 429.000,2955.217 428.149,2954.253 425.250 C 2953.339 422.500,2941.069 421.383,2908.253 421.060 C 2883.639 420.818,2861.121 421.258,2858.213 422.037 M2424.000 435.000 C 2424.000 436.840,2438.500 438.000,2461.500 438.000 C 2484.500 438.000,2499.000 436.840,2499.000 435.000 C 2499.000 433.160,2484.500 432.000,2461.500 432.000 C 2438.500 432.000,2424.000 433.160,2424.000 435.000 M3454.500 437.846 C 3477.600 439.362,3518.100 441.488,3544.500 442.570 C 3600.901 444.881,3600.513 444.709,3638.185 484.113 C 3696.109 544.700,3704.001 604.884,3664.397 684.000 C 3649.004 714.750,3619.583 754.019,3609.842 756.815 C 3586.809 763.426,3439.920 762.749,3428.969 755.981 C 3425.770 754.004,3427.200 748.548,3435.913 729.486 C 3454.103 689.695,3460.324 663.244,3460.372 625.500 C 3460.396 607.000,3458.575 585.251,3456.229 576.002 C 3446.080 536.002,3424.532 496.639,3391.996 458.661 C 3382.648 447.750,3375.000 437.963,3375.000 436.911 C 3375.000 434.246,3405.042 434.599,3454.500 437.846 M1290.538 493.964 C 1325.864 495.766,1328.689 496.354,1330.151 502.202 C 1333.023 513.690,1346.938 613.363,1348.885 636.392 L 1350.799 659.040 1316.650 660.964 C 1247.422 664.864,1097.625 666.790,1034.250 664.595 L 969.000 662.336 969.130 651.418 C 969.352 632.768,985.782 501.219,988.192 498.795 C 993.369 493.587,1214.026 490.062,1290.538 493.964 M1118.077 508.923 C 1116.935 510.065,1116.000 538.450,1116.000 572.000 L 1116.000 633.000 1162.561 633.000 L 1209.122 633.000 1208.311 570.750 L 1207.500 508.500 1163.827 507.673 C 1139.807 507.218,1119.219 507.781,1118.077 508.923 M1201.500 570.000 L 1201.500 625.500 1163.250 626.340 L 1125.000 627.179 1125.000 570.000 L 1125.000 512.821 1163.250 513.660 L 1201.500 514.500 1201.500 570.000 M2485.500 540.212 C 2451.410 566.876,2448.133 570.000,2454.259 570.000 C 2458.857 570.000,2509.472 532.571,2516.776 523.770 C 2520.067 519.804,2520.041 519.008,2516.617 519.047 C 2514.353 519.073,2500.350 528.597,2485.500 540.212 M2802.000 545.306 C 2802.000 549.630,2861.797 607.203,2864.000 605.000 C 2866.203 602.797,2808.630 543.000,2804.306 543.000 C 2803.038 543.000,2802.000 544.038,2802.000 545.306 M2642.000 575.000 C 2639.500 577.500,2639.349 624.813,2641.821 631.255 C 2646.394 643.171,2649.000 633.457,2649.000 604.500 C 2649.000 575.656,2647.532 569.468,2642.000 575.000 M1354.034 678.750 C 1358.228 709.911,1359.496 732.014,1357.099 732.178 C 1355.670 732.276,1326.825 734.773,1293.000 737.726 C 1253.050 741.215,1229.548 742.106,1225.930 740.271 C 1222.867 738.718,1214.092 738.291,1206.430 739.322 C 1162.878 745.187,1163.013 745.197,1155.841 735.496 C 1144.130 719.656,1124.184 720.669,1108.594 737.896 C 1102.939 744.145,1101.128 744.332,1063.601 742.525 C 1042.095 741.490,1012.350 739.397,997.500 737.874 C 982.650 736.350,967.963 735.081,964.863 735.052 C 958.911 734.997,958.915 732.292,964.945 683.680 L 966.659 669.861 1093.079 671.077 C 1162.611 671.746,1242.450 671.081,1270.500 669.599 C 1298.550 668.117,1328.434 666.701,1336.909 666.452 L 1352.319 666.000 1354.034 678.750 M781.290 672.976 C 786.264 676.613,786.541 680.297,784.545 716.197 C 782.375 755.198,782.302 755.499,772.804 764.706 L 763.245 773.970 751.957 760.466 C 745.749 753.039,741.445 745.707,742.393 744.174 C 743.340 742.640,745.464 726.787,747.112 708.943 C 748.761 691.099,750.717 674.813,751.460 672.750 C 753.258 667.763,774.379 667.922,781.290 672.976 M1143.514 733.965 C 1152.318 741.933,1150.050 744.000,1132.500 744.000 C 1114.684 744.000,1112.156 741.413,1122.750 734.023 C 1131.542 727.890,1136.785 727.875,1143.514 733.965 M1360.209 747.750 C 1363.385 768.664,1365.017 807.000,1362.730 807.000 C 1361.405 807.000,1355.864 802.275,1350.416 796.500 C 1337.976 783.311,1323.208 782.185,1309.500 793.380 L 1300.500 800.731 1292.369 791.116 L 1284.238 781.500 1271.635 788.266 C 1264.703 791.987,1258.810 794.687,1258.538 794.266 C 1258.267 793.845,1253.234 783.212,1247.354 770.637 L 1236.664 747.775 1273.082 745.600 C 1293.112 744.404,1318.275 742.389,1329.000 741.123 C 1339.725 739.857,1350.801 738.636,1353.614 738.410 C 1357.204 738.122,1359.170 740.907,1360.209 747.750 M1009.021 745.641 L 1029.543 747.536 1022.748 754.768 C 1014.748 763.284,1010.431 763.731,1000.298 757.092 C 994.606 753.362,988.510 752.574,974.904 753.808 C 956.905 755.440,955.400 754.660,958.907 745.520 C 960.436 741.538,963.568 740.867,974.657 742.148 C 982.271 743.027,997.735 744.599,1009.021 745.641 M1097.372 751.507 C 1098.923 752.817,1085.484 774.000,1083.102 774.000 C 1081.054 774.000,1065.000 751.833,1065.000 749.005 C 1065.000 747.833,1095.845 750.217,1097.372 751.507 M1175.425 753.225 C 1174.834 754.999,1173.068 756.450,1171.500 756.450 C 1169.933 756.450,1168.166 754.999,1167.575 753.225 C 1166.984 751.451,1168.750 750.000,1171.500 750.000 C 1174.250 750.000,1176.016 751.451,1175.425 753.225 M994.596 760.347 C 1007.159 765.596,1007.784 771.510,997.392 786.804 C 988.748 799.524,985.567 800.534,981.005 792.010 C 979.242 788.715,972.445 783.288,965.900 779.949 C 959.355 776.610,954.000 772.536,954.000 770.895 C 954.000 766.892,972.141 756.025,978.846 756.011 C 981.787 756.005,988.874 757.956,994.596 760.347 M3695.480 770.250 C 3702.265 787.698,3704.966 803.318,3704.948 825.000 C 3704.914 865.692,3691.408 900.400,3668.941 917.537 C 3653.180 929.558,3649.504 925.412,3662.650 910.441 C 3667.985 904.364,3674.696 890.872,3678.666 878.241 C 3684.687 859.085,3685.443 850.882,3685.024 809.250 C 3684.654 772.476,3685.405 762.000,3688.410 762.000 C 3690.534 762.000,3693.716 765.713,3695.480 770.250 M3532.083 773.250 C 3535.629 785.765,3537.418 827.387,3534.488 829.198 C 3532.798 830.243,3530.406 829.467,3529.174 827.473 C 3526.563 823.248,3522.111 773.576,3524.045 770.250 C 3526.356 766.277,3530.551 767.843,3532.083 773.250 M1469.954 797.250 C 1469.979 799.313,1467.300 801.000,1464.000 801.000 C 1457.325 801.000,1456.078 795.122,1461.583 789.617 C 1465.455 785.745,1469.862 789.763,1469.954 797.250 M1567.074 797.250 C 1568.097 803.438,1568.949 811.641,1568.967 815.481 C 1568.999 822.340,1568.843 822.305,1560.024 813.486 C 1552.622 806.084,1551.373 802.886,1552.899 795.255 C 1555.647 781.513,1564.684 782.785,1567.074 797.250 M1545.000 796.500 C 1545.000 803.363,1543.880 804.000,1531.805 804.000 C 1522.976 804.000,1513.006 806.948,1501.675 812.908 C 1484.464 821.961,1483.457 821.766,1481.393 808.966 C 1480.651 804.371,1484.825 802.264,1506.000 796.544 C 1540.743 787.158,1545.000 787.153,1545.000 796.500 M3679.109 795.750 C 3682.274 807.559,3681.139 827.150,3677.096 830.506 C 3670.678 835.832,3612.114 854.226,3578.685 861.416 C 3538.398 870.081,3447.332 871.071,3410.414 863.245 C 3352.403 850.949,3332.741 841.465,3328.262 823.619 C 3325.442 812.385,3328.039 811.418,3342.635 818.270 C 3364.088 828.341,3393.189 836.212,3423.761 840.212 C 3484.454 848.152,3573.502 831.811,3653.044 798.135 C 3678.220 787.476,3676.924 787.595,3679.109 795.750 M3729.910 809.131 C 3741.205 816.958,3741.576 817.750,3739.849 830.348 C 3736.808 852.531,3734.563 854.014,3721.987 842.153 C 3712.111 832.839,3711.000 830.235,3711.000 816.396 C 3711.000 798.446,3713.246 797.583,3729.910 809.131 M1561.487 823.751 C 1569.678 831.342,1569.812 832.004,1567.977 855.799 C 1566.946 869.163,1564.964 881.236,1563.572 882.628 C 1561.129 885.071,1530.000 879.947,1530.000 877.102 C 1530.000 876.332,1531.837 872.057,1534.082 867.601 C 1536.328 863.145,1540.523 849.713,1543.406 837.750 C 1546.288 825.788,1549.654 816.000,1550.885 816.000 C 1552.116 816.000,1556.887 819.488,1561.487 823.751 M3672.274 875.775 C 3664.519 901.306,3647.814 921.260,3627.695 929.023 C 3615.250 933.825,3604.992 934.431,3544.500 933.937 C 3436.813 933.060,3400.709 926.242,3383.991 903.629 C 3376.056 892.897,3362.841 861.439,3365.575 859.793 C 3366.634 859.156,3377.171 861.101,3388.992 864.116 C 3465.063 883.519,3561.013 877.740,3646.500 848.607 L 3676.500 838.383 3677.460 846.961 C 3677.988 851.680,3675.655 864.646,3672.274 875.775 M3721.161 850.477 C 3733.631 859.917,3718.516 900.878,3696.975 916.017 C 3690.267 920.732,3682.325 924.117,3679.327 923.540 C 3674.580 922.626,3675.112 921.081,3683.446 911.590 C 3694.410 899.102,3706.643 873.713,3709.628 857.250 C 3711.880 844.831,3712.907 844.228,3721.161 850.477 M676.500 961.365 C 609.843 968.798,562.700 979.127,501.000 999.816 C 374.290 1042.302,245.031 1141.027,146.359 1270.684 C 127.064 1296.038,81.000 1364.923,81.000 1368.423 C 81.000 1372.296,115.970 1388.471,135.695 1393.721 C 155.915 1399.104,186.108 1399.098,206.359 1393.707 C 236.604 1385.656,264.362 1362.614,285.110 1328.335 C 290.825 1318.894,297.002 1311.132,298.837 1311.085 C 300.673 1311.038,311.850 1314.990,323.676 1319.867 C 354.155 1332.435,376.049 1336.025,411.762 1334.308 C 461.428 1331.921,496.088 1314.289,543.291 1267.398 L 566.493 1244.349 580.996 1249.079 C 588.973 1251.680,604.911 1255.275,616.414 1257.068 C 627.916 1258.860,637.909 1260.909,638.620 1261.620 C 641.064 1264.064,674.944 1369.502,674.972 1374.750 C 674.987 1377.638,673.966 1380.000,672.702 1380.000 C 668.617 1380.000,575.458 1433.983,542.750 1455.304 C 512.413 1475.079,510.197 1476.000,492.976 1476.000 C 473.065 1476.000,447.408 1482.543,443.565 1488.601 C 442.205 1490.746,441.071 1512.907,441.046 1537.849 L 441.000 1583.199 507.371 1686.349 C 543.875 1743.082,576.320 1792.200,579.470 1795.500 C 584.415 1800.680,585.588 1800.885,588.053 1797.000 C 589.623 1794.525,590.929 1788.034,590.954 1782.575 C 591.087 1753.921,606.513 1693.897,616.420 1683.488 C 619.605 1680.141,623.161 1680.231,637.869 1684.032 C 647.566 1686.538,661.480 1689.693,668.788 1691.044 L 682.077 1693.500 694.867 1722.000 C 701.902 1737.675,707.734 1754.746,707.829 1759.936 C 707.982 1768.399,700.107 1777.068,631.521 1843.936 C 589.458 1884.946,555.033 1919.513,555.021 1920.750 C 555.009 1921.988,562.077 1923.000,570.727 1923.000 L 586.455 1923.000 658.887 1850.613 C 701.377 1808.150,732.701 1779.079,734.660 1780.290 C 737.010 1781.743,738.000 1813.465,738.000 1887.358 L 738.000 1992.362 749.250 1991.431 L 760.500 1990.500 761.257 1891.500 C 761.673 1837.050,762.742 1790.555,763.632 1788.178 C 764.748 1785.198,774.936 1793.509,796.457 1814.957 C 831.779 1850.159,827.620 1841.808,859.596 1941.731 C 870.549 1975.958,880.652 2004.667,882.048 2005.530 C 888.345 2009.421,887.424 1999.411,879.236 1974.959 C 874.364 1960.406,857.381 1908.000,841.497 1858.500 C 825.613 1809.000,804.710 1744.200,795.045 1714.500 C 785.380 1684.800,765.140 1622.025,750.068 1575.000 C 734.996 1527.975,719.509 1480.050,715.651 1468.500 C 711.794 1456.950,698.312 1415.100,685.693 1375.500 C 673.073 1335.900,660.104 1296.292,656.874 1287.483 C 650.566 1270.283,649.371 1260.000,653.679 1260.000 C 656.408 1260.000,662.327 1277.463,731.971 1491.000 C 753.766 1557.825,778.061 1632.075,785.959 1656.000 C 793.858 1679.925,818.821 1756.200,841.431 1825.500 C 899.698 2004.085,900.798 2007.241,904.322 2005.998 C 908.778 2004.427,907.610 1999.444,890.611 1947.472 C 882.331 1922.156,876.142 1900.858,876.857 1900.143 C 877.573 1899.427,883.069 1904.277,889.071 1910.921 C 899.271 1922.211,901.052 1923.000,916.315 1923.000 C 925.297 1923.000,933.538 1921.556,934.629 1919.791 C 935.721 1918.025,917.736 1897.462,894.614 1874.041 L 852.617 1831.500 832.940 1771.500 C 805.681 1688.376,806.537 1695.820,823.981 1693.603 C 881.007 1686.357,930.646 1666.523,968.250 1635.961 L 981.000 1625.598 980.980 1593.549 C 980.964 1567.569,979.923 1559.926,975.480 1553.189 C 969.199 1543.663,954.714 1532.235,937.860 1523.508 L 926.220 1517.480 927.866 1498.990 C 928.771 1488.821,932.343 1459.575,935.803 1434.000 C 939.264 1408.425,942.412 1384.800,942.798 1381.500 C 943.305 1377.168,940.163 1373.832,931.500 1369.500 C 914.605 1361.052,841.274 1359.102,818.979 1366.507 C 810.779 1369.231,803.326 1372.663,802.416 1374.135 C 801.507 1375.607,802.841 1392.660,805.381 1412.031 C 807.922 1431.402,810.000 1449.171,810.000 1451.518 C 810.000 1467.060,723.251 1424.336,713.865 1404.172 C 706.475 1388.294,666.218 1262.075,667.752 1259.592 C 668.633 1258.166,672.082 1257.000,675.415 1257.000 C 685.732 1257.000,720.673 1241.715,738.000 1229.623 C 755.265 1217.574,773.286 1198.249,789.079 1174.848 C 794.219 1167.232,798.901 1161.000,799.482 1161.000 C 800.064 1161.000,810.430 1166.263,822.520 1172.695 C 896.686 1212.154,956.584 1196.064,1024.551 1118.423 L 1039.500 1101.347 1068.740 1115.816 C 1084.822 1123.774,1109.797 1134.158,1124.240 1138.893 C 1147.919 1146.654,1154.496 1147.500,1191.156 1147.500 L 1231.811 1147.500 1254.156 1136.422 C 1277.843 1124.678,1307.356 1098.239,1303.587 1092.140 C 1302.419 1090.252,1283.697 1080.157,1261.982 1069.707 C 1155.374 1018.406,1057.809 987.010,943.500 967.221 C 902.999 960.209,889.201 959.326,805.500 958.390 C 741.251 957.671,701.370 958.591,676.500 961.365 M937.500 973.329 C 1022.513 986.847,1098.754 1008.311,1183.757 1042.658 C 1225.574 1059.555,1288.322 1089.859,1291.228 1094.560 C 1294.041 1099.111,1266.715 1122.004,1248.525 1130.337 C 1235.536 1136.288,1224.744 1138.545,1203.000 1139.857 C 1148.865 1143.124,1098.789 1127.676,1029.625 1086.373 C 957.383 1043.232,895.724 1018.797,812.848 1000.466 C 769.936 990.975,695.218 981.056,666.000 980.973 C 642.292 980.905,628.430 976.766,642.156 973.854 C 651.641 971.842,696.580 966.157,714.000 964.765 C 721.425 964.172,763.275 964.031,807.000 964.453 C 876.407 965.122,892.975 966.249,937.500 973.329 M750.000 995.849 C 842.128 1010.009,921.606 1035.495,991.500 1073.288 C 1033.604 1096.055,1032.733 1094.686,1016.981 1113.368 C 987.515 1148.312,958.789 1169.399,927.434 1179.101 C 902.150 1186.924,884.161 1186.539,855.905 1177.572 C 828.060 1168.735,807.279 1155.324,785.510 1132.141 C 750.477 1094.834,691.503 1048.082,630.750 1009.456 C 615.488 999.752,603.000 990.548,603.000 989.002 C 603.000 984.293,706.036 989.092,750.000 995.849 M612.840 1006.826 C 653.275 1031.424,691.878 1058.873,723.573 1085.566 C 751.405 1109.005,792.000 1149.926,792.000 1154.542 C 792.000 1158.861,773.866 1184.500,759.492 1200.502 C 741.283 1220.776,714.873 1237.651,689.105 1245.478 C 671.779 1250.740,663.318 1251.502,636.480 1250.216 C 595.015 1248.228,570.807 1240.874,563.274 1227.975 C 560.270 1222.833,554.398 1205.322,550.223 1189.063 C 535.460 1131.560,542.051 1073.268,569.931 1014.750 C 576.417 1001.138,582.501 990.000,583.452 990.000 C 584.403 990.000,597.627 997.572,612.840 1006.826 M546.000 995.776 C 546.000 997.303,532.163 1007.600,515.250 1018.658 C 403.122 1091.977,331.825 1170.683,304.334 1251.494 C 300.593 1262.490,295.901 1279.345,293.907 1288.949 C 289.947 1308.024,276.775 1330.784,257.752 1351.422 C 231.919 1379.447,196.808 1393.934,161.705 1391.051 C 138.247 1389.125,93.000 1372.755,93.000 1366.195 C 93.000 1360.268,126.036 1310.138,153.865 1273.836 C 230.509 1173.854,319.569 1096.216,417.000 1044.449 C 447.306 1028.347,496.799 1007.735,526.500 998.846 C 536.400 995.883,544.838 993.355,545.250 993.229 C 545.663 993.103,546.000 994.249,546.000 995.776 M566.117 1002.750 C 549.475 1043.680,544.894 1057.334,539.957 1080.724 C 536.732 1096.001,534.073 1116.788,534.047 1126.919 C 533.987 1150.403,541.270 1189.191,551.137 1217.941 L 558.839 1240.382 530.170 1267.688 C 484.168 1311.503,451.242 1325.901,396.905 1325.964 C 364.285 1326.002,330.596 1317.926,309.691 1305.055 C 301.340 1299.914,300.159 1297.788,301.748 1290.758 C 324.513 1190.043,389.733 1110.302,518.735 1025.461 C 556.900 1000.362,569.555 994.296,566.117 1002.750 M2694.086 1019.095 C 2671.752 1031.385,2666.479 1033.080,2650.586 1033.080 C 2639.709 1033.080,2625.064 1030.473,2613.845 1026.540 C 2589.502 1018.006,2560.275 1017.889,2534.641 1026.222 C 2524.113 1029.644,2506.725 1033.517,2496.000 1034.828 L 2476.500 1037.211 2494.780 1037.606 C 2506.484 1037.858,2519.435 1035.762,2530.780 1031.780 C 2556.642 1022.702,2593.197 1024.694,2616.000 1036.426 C 2643.288 1050.465,2668.912 1047.457,2696.231 1027.008 C 2710.749 1016.141,2730.168 1008.132,2742.000 1008.132 C 2755.347 1008.132,2774.690 1016.886,2791.156 1030.379 C 2808.887 1044.908,2825.310 1050.063,2852.627 1049.675 L 2875.500 1049.351 2854.388 1045.482 C 2829.621 1040.944,2813.622 1034.712,2799.931 1024.269 C 2781.517 1010.224,2766.112 1005.133,2742.000 1005.121 C 2720.843 1005.111,2717.983 1005.946,2694.086 1019.095 M3826.500 1032.050 C 3819.900 1033.366,3807.075 1037.430,3798.000 1041.082 C 3757.013 1057.574,3751.831 1058.803,3723.000 1058.866 C 3706.307 1058.903,3687.665 1057.017,3678.000 1054.313 C 3668.925 1051.775,3647.977 1048.913,3631.449 1047.954 C 3606.511 1046.506,3594.516 1047.531,3560.949 1053.977 C 3538.702 1058.250,3517.125 1062.294,3513.000 1062.964 C 3507.744 1063.818,3508.832 1064.305,3516.634 1064.591 C 3522.757 1064.816,3539.347 1062.300,3553.500 1059.000 C 3599.438 1048.289,3635.702 1050.748,3692.237 1068.408 C 3722.295 1077.798,3747.252 1074.274,3786.492 1055.100 C 3843.857 1027.069,3868.839 1028.087,3928.009 1060.870 C 3948.359 1072.145,3971.853 1076.952,4005.000 1076.624 L 4033.500 1076.343 4008.000 1072.561 C 3972.405 1067.282,3959.051 1063.300,3931.500 1049.750 C 3895.166 1031.881,3858.420 1025.686,3826.500 1032.050 M3088.691 1169.203 C 3083.845 1169.920,3069.973 1174.443,3057.862 1179.253 C 3030.656 1190.061,3014.248 1190.359,2986.500 1180.550 C 2962.945 1172.223,2946.511 1171.290,2931.000 1177.398 C 2925.225 1179.672,2910.762 1185.175,2898.859 1189.627 L 2877.218 1197.721 2865.859 1190.973 C 2846.427 1179.429,2838.852 1178.467,2822.568 1185.472 C 2811.021 1190.439,2804.652 1191.346,2792.227 1189.793 C 2757.922 1185.503,2730.996 1184.510,2721.000 1187.165 C 2712.807 1189.341,2721.772 1190.419,2761.808 1192.071 C 2794.982 1193.439,2815.992 1193.094,2821.253 1191.094 C 2833.815 1186.318,2849.075 1187.406,2862.000 1194.000 C 2878.041 1202.184,2888.169 1201.557,2910.481 1191.002 C 2932.529 1180.572,2957.330 1179.073,2985.000 1186.500 C 3008.904 1192.916,3041.644 1192.192,3066.303 1184.702 C 3083.031 1179.621,3092.105 1178.697,3113.268 1179.917 C 3127.696 1180.749,3145.575 1182.849,3153.000 1184.584 C 3160.425 1186.319,3182.025 1187.601,3201.000 1187.433 L 3235.500 1187.127 3207.000 1184.828 C 3191.325 1183.564,3164.325 1179.037,3147.000 1174.768 C 3116.587 1167.276,3107.544 1166.412,3088.691 1169.203 M2425.384 1311.367 C 2408.851 1320.224,2368.134 1322.500,2345.243 1315.845 C 2327.525 1310.694,2288.499 1309.656,2278.500 1314.070 C 2274.441 1315.862,2280.265 1316.643,2296.500 1316.484 C 2309.700 1316.355,2331.162 1318.623,2344.192 1321.524 C 2373.019 1327.942,2404.380 1326.286,2424.000 1317.309 C 2440.299 1309.851,2473.474 1308.919,2491.500 1315.413 C 2507.353 1321.125,2540.471 1321.168,2554.047 1315.496 C 2559.976 1313.019,2573.978 1309.703,2585.163 1308.127 L 2605.500 1305.262 2584.152 1306.423 C 2572.411 1307.061,2557.733 1309.702,2551.536 1312.292 C 2536.168 1318.713,2514.275 1318.203,2496.000 1311.000 C 2474.641 1302.581,2441.462 1302.754,2425.384 1311.367 M4042.983 1344.442 C 4036.649 1345.858,4021.877 1351.226,4010.156 1356.370 C 3991.480 1364.568,3986.411 1365.549,3969.149 1364.314 C 3958.316 1363.539,3945.142 1360.676,3939.875 1357.953 C 3927.968 1351.795,3894.756 1351.350,3880.848 1357.161 C 3875.371 1359.450,3865.289 1362.269,3858.444 1363.425 C 3851.600 1364.581,3846.000 1366.759,3846.000 1368.264 C 3846.000 1372.395,3851.979 1371.608,3870.779 1365.000 C 3893.125 1357.146,3921.184 1357.173,3938.578 1365.066 C 3957.664 1373.727,3983.138 1372.976,4007.765 1363.027 C 4020.783 1357.768,4035.228 1354.585,4050.205 1353.673 C 4071.088 1352.403,4074.513 1353.065,4092.877 1361.922 C 4120.364 1375.179,4124.359 1371.914,4099.183 1356.769 C 4077.082 1343.474,4062.058 1340.178,4042.983 1344.442 M4163.311 1353.915 C 4147.257 1360.629,4134.713 1366.713,4135.436 1367.436 C 4136.159 1368.159,4141.959 1366.667,4148.325 1364.120 C 4165.738 1357.153,4207.254 1351.969,4229.218 1354.020 C 4242.386 1355.250,4255.143 1359.024,4268.598 1365.670 C 4287.442 1374.978,4290.254 1375.500,4321.500 1375.491 C 4350.820 1375.483,4356.740 1374.547,4374.586 1367.100 C 4402.276 1355.547,4426.560 1352.114,4467.000 1354.038 C 4507.204 1355.950,4503.119 1350.529,4462.320 1347.827 C 4433.556 1345.922,4398.184 1352.225,4372.058 1363.912 C 4358.736 1369.871,4347.864 1372.131,4326.992 1373.279 C 4297.333 1374.911,4296.132 1374.530,4248.114 1348.309 C 4226.754 1336.645,4200.450 1338.384,4163.311 1353.915 M3727.500 1357.730 C 3707.000 1362.192,3676.750 1373.648,3684.909 1373.860 C 3689.729 1373.985,3743.624 1359.222,3746.750 1356.920 C 3750.742 1353.981,3743.278 1354.295,3727.500 1357.730 M922.549 1374.018 C 953.707 1385.865,876.882 1397.448,831.588 1387.733 C 821.187 1385.502,811.955 1382.955,811.073 1382.073 C 810.191 1381.191,813.301 1378.393,817.985 1375.855 C 828.049 1370.401,909.282 1368.974,922.549 1374.018 M704.361 1461.972 C 717.913 1503.757,728.999 1539.195,728.997 1540.722 C 728.995 1542.250,717.996 1549.437,704.553 1556.694 C 675.107 1572.590,659.654 1587.311,654.558 1604.322 C 652.468 1611.295,650.101 1617.000,649.296 1617.000 C 645.724 1617.000,583.987 1585.952,559.500 1571.842 C 520.406 1549.314,480.108 1520.285,480.050 1514.610 C 480.022 1511.921,487.088 1504.397,495.750 1497.889 C 519.892 1479.753,585.726 1437.250,622.500 1416.060 C 640.650 1405.601,659.550 1394.581,664.500 1391.572 C 669.450 1388.563,674.900 1386.078,676.611 1386.051 C 678.323 1386.023,690.810 1420.188,704.361 1461.972 M930.428 1410.284 C 928.755 1435.593,927.302 1437.015,908.364 1431.874 C 890.468 1427.017,848.096 1428.296,831.523 1434.195 C 818.588 1438.798,816.465 1436.329,814.128 1413.974 L 812.219 1395.710 858.360 1397.200 C 885.625 1398.080,908.795 1397.438,915.000 1395.630 C 920.775 1393.947,926.850 1392.907,928.500 1393.319 C 930.208 1393.745,931.038 1401.053,930.428 1410.284 M787.999 1459.714 L 812.351 1467.737 814.348 1480.119 C 816.712 1494.781,814.986 1496.567,779.193 1516.501 L 755.886 1529.481 751.885 1521.491 C 749.685 1517.096,742.250 1495.630,735.363 1473.789 C 728.476 1451.948,722.066 1432.056,721.118 1429.585 C 720.136 1427.026,728.918 1430.817,741.521 1438.392 C 753.691 1445.706,774.606 1455.302,787.999 1459.714 M908.897 1441.376 C 911.899 1444.993,911.052 1446.158,904.015 1448.089 C 890.853 1451.700,848.209 1450.920,841.500 1446.945 C 835.664 1443.487,835.705 1443.307,843.000 1440.385 C 855.313 1435.452,904.596 1436.194,908.897 1441.376 M3386.003 1446.379 C 3382.979 1448.137,3376.141 1448.756,3370.806 1447.755 C 3363.033 1446.297,3359.764 1447.365,3354.348 1453.130 C 3348.479 1459.377,3346.472 1459.902,3339.097 1457.118 C 3319.354 1449.666,3302.294 1476.248,3303.266 1512.951 C 3303.751 1531.279,3302.558 1537.974,3296.679 1549.916 C 3282.662 1578.391,3288.977 1635.000,3306.171 1635.000 C 3309.481 1635.000,3312.985 1637.075,3313.958 1639.611 C 3316.282 1645.668,3330.718 1653.000,3340.319 1653.000 C 3352.863 1653.000,3376.675 1642.480,3395.607 1628.575 C 3409.202 1618.590,3418.438 1607.871,3434.690 1583.215 C 3459.185 1546.053,3468.140 1539.028,3491.032 1539.011 C 3504.246 1539.002,3507.493 1540.180,3512.782 1546.905 C 3521.490 1557.974,3520.713 1562.511,3506.482 1583.704 C 3489.588 1608.865,3487.647 1627.542,3499.426 1651.618 C 3508.430 1670.020,3514.051 1671.486,3515.346 1655.769 C 3515.930 1648.691,3515.331 1646.791,3513.419 1649.655 C 3508.900 1656.425,3503.993 1643.746,3504.049 1625.447 C 3504.085 1613.860,3506.106 1606.219,3511.440 1597.500 C 3515.478 1590.900,3521.790 1579.782,3525.467 1572.794 C 3531.907 1560.555,3531.968 1559.699,3527.115 1549.523 C 3517.064 1528.445,3492.927 1521.609,3467.499 1532.638 C 3451.648 1539.514,3446.376 1545.185,3424.629 1578.750 C 3415.275 1593.188,3405.789 1605.000,3403.549 1605.000 C 3401.309 1605.000,3398.530 1600.613,3397.372 1595.250 C 3392.210 1571.336,3369.733 1541.957,3345.923 1528.003 C 3338.815 1523.838,3333.000 1519.313,3333.000 1517.949 C 3333.000 1512.460,3359.958 1492.862,3383.766 1481.043 C 3408.842 1468.594,3409.282 1468.500,3442.266 1468.500 C 3480.684 1468.500,3499.834 1474.386,3524.256 1493.701 C 3542.129 1507.835,3556.396 1532.768,3553.862 1545.438 C 3552.189 1553.803,3552.980 1554.749,3566.288 1560.319 C 3586.462 1568.763,3588.569 1570.101,3594.502 1578.232 C 3600.335 1586.226,3607.215 1631.901,3603.199 1635.970 C 3601.858 1637.328,3597.974 1633.930,3594.568 1628.418 C 3588.600 1618.763,3573.000 1602.243,3573.000 1605.580 C 3573.000 1606.474,3579.075 1616.265,3586.500 1627.338 C 3593.925 1638.410,3600.000 1649.389,3600.000 1651.735 C 3600.000 1659.930,3606.345 1655.908,3611.003 1644.760 C 3616.991 1630.427,3614.941 1604.525,3606.510 1587.999 C 3599.990 1575.219,3583.234 1558.748,3573.662 1555.710 C 3569.661 1554.440,3566.839 1549.013,3564.314 1537.732 C 3560.130 1519.037,3547.016 1497.773,3533.155 1487.209 C 3507.016 1467.289,3469.716 1455.000,3435.389 1455.000 C 3419.439 1455.000,3411.698 1453.508,3404.323 1449.011 C 3393.014 1442.117,3393.270 1442.153,3386.003 1446.379 M923.970 1458.000 C 923.796 1466.838,911.806 1555.194,910.620 1556.380 C 909.747 1557.253,901.678 1556.202,892.688 1554.045 C 882.168 1551.521,870.668 1550.911,860.421 1552.332 C 831.189 1556.387,832.687 1556.908,830.704 1542.000 C 829.716 1534.575,827.310 1516.350,825.357 1501.500 C 823.405 1486.650,821.177 1470.450,820.408 1465.500 L 819.010 1456.500 871.505 1456.500 C 900.377 1456.500,923.987 1457.175,923.970 1458.000 M3397.954 1459.688 C 3398.410 1461.234,3388.286 1467.653,3375.457 1473.952 C 3362.627 1480.251,3343.775 1492.847,3333.564 1501.943 C 3312.717 1520.513,3309.652 1519.407,3315.040 1495.257 C 3318.791 1478.444,3325.297 1467.000,3331.104 1467.000 C 3333.285 1467.000,3337.580 1469.774,3340.648 1473.164 L 3346.226 1479.327 3355.819 1467.914 C 3364.887 1457.124,3365.914 1456.688,3374.591 1459.946 C 3382.004 1462.729,3384.456 1462.566,3387.335 1459.096 C 3391.073 1454.593,3396.542 1454.897,3397.954 1459.688 M493.158 1488.998 C 492.353 1490.924,485.688 1496.930,478.347 1502.345 C 471.006 1507.760,465.000 1513.499,465.000 1515.098 C 465.000 1519.390,496.554 1543.138,531.675 1565.278 C 568.139 1588.265,649.583 1628.883,659.350 1628.952 C 667.533 1629.009,690.246 1617.881,717.000 1600.706 C 727.725 1593.821,738.074 1587.236,739.998 1586.072 C 742.331 1584.662,745.725 1590.709,750.187 1604.229 C 753.867 1615.378,757.462 1626.089,758.176 1628.031 C 759.730 1632.259,748.196 1634.015,694.040 1637.793 C 640.607 1641.521,622.092 1651.262,606.038 1684.091 C 595.932 1704.755,585.024 1744.407,584.954 1760.730 C 584.900 1773.413,580.598 1781.880,576.446 1777.475 C 573.710 1774.573,469.737 1614.213,456.608 1592.646 C 450.569 1582.726,450.000 1577.895,450.000 1536.512 L 450.000 1491.231 461.250 1488.315 C 484.852 1482.197,495.901 1482.434,493.158 1488.998 M3388.714 1498.714 C 3384.484 1502.945,3381.730 1527.000,3385.476 1527.000 C 3386.288 1527.000,3389.328 1521.956,3392.231 1515.790 C 3398.572 1502.323,3404.218 1500.662,3414.950 1509.104 C 3427.757 1519.178,3425.714 1528.472,3408.750 1537.303 L 3394.500 1544.721 3407.386 1544.860 C 3417.186 1544.967,3422.036 1543.236,3427.636 1537.636 C 3438.398 1526.875,3437.080 1517.578,3422.991 1504.849 C 3409.823 1492.952,3396.806 1490.622,3388.714 1498.714 M817.189 1510.771 C 819.738 1517.415,818.960 1518.275,790.483 1540.256 C 763.504 1561.081,761.417 1561.236,758.557 1542.624 C 757.646 1536.698,761.233 1533.730,784.500 1521.154 C 815.786 1504.244,814.804 1504.555,817.189 1510.771 M946.289 1537.235 C 966.020 1549.857,972.000 1558.074,972.000 1572.563 C 972.000 1588.599,959.198 1601.713,927.669 1617.970 C 893.906 1635.379,857.374 1647.115,823.500 1651.431 C 795.508 1654.999,792.142 1654.137,792.046 1643.376 C 792.007 1639.056,795.646 1638.115,815.250 1637.376 C 836.512 1636.575,838.579 1635.942,839.428 1629.980 C 841.615 1614.623,814.537 1581.358,790.530 1569.910 C 784.738 1567.148,780.000 1563.809,780.000 1562.488 C 780.000 1558.800,814.097 1532.874,817.500 1533.975 C 819.150 1534.509,821.880 1542.271,823.566 1551.223 C 826.531 1566.964,827.173 1567.779,843.066 1575.961 C 857.199 1583.237,862.231 1584.268,879.000 1583.328 C 889.725 1582.727,902.550 1580.268,907.500 1577.864 C 915.637 1573.912,916.910 1571.264,920.773 1550.246 C 923.123 1537.461,926.225 1527.000,927.667 1527.000 C 929.109 1527.000,937.488 1531.606,946.289 1537.235 M3343.157 1537.848 C 3349.510 1542.165,3358.601 1549.928,3363.360 1555.098 C 3374.840 1567.571,3389.717 1597.920,3390.707 1610.886 C 3391.471 1620.889,3390.781 1621.635,3372.000 1631.113 C 3361.275 1636.525,3350.138 1640.964,3347.250 1640.977 C 3340.887 1641.005,3340.360 1634.095,3346.347 1629.127 C 3353.102 1623.521,3358.343 1605.143,3354.330 1601.130 C 3351.907 1598.707,3348.296 1600.780,3340.932 1608.819 C 3331.404 1619.221,3319.463 1626.000,3310.669 1626.000 C 3297.735 1626.000,3294.399 1576.434,3305.824 1554.000 C 3319.289 1527.559,3324.621 1525.252,3343.157 1537.848 M737.604 1565.736 C 739.487 1571.367,740.683 1576.155,740.264 1576.377 C 739.844 1576.599,723.840 1587.180,704.701 1599.890 C 685.562 1612.601,668.349 1623.000,666.451 1623.000 C 661.534 1623.000,662.181 1606.285,667.497 1596.006 C 669.970 1591.223,676.661 1583.750,682.367 1579.398 C 697.226 1568.064,730.168 1550.929,732.341 1553.403 C 733.353 1554.557,735.721 1560.106,737.604 1565.736 M893.250 1561.891 C 902.341 1564.327,901.811 1571.431,892.361 1573.803 C 873.037 1578.653,835.702 1569.479,846.608 1562.561 C 851.123 1559.697,883.336 1559.234,893.250 1561.891 M3316.714 1570.714 C 3305.780 1581.649,3315.480 1597.854,3331.092 1594.732 C 3336.102 1593.730,3341.261 1591.242,3342.555 1589.205 C 3346.068 1583.673,3345.480 1573.680,3341.400 1569.600 C 3336.303 1564.503,3322.293 1565.135,3316.714 1570.714 M807.643 1592.650 C 813.069 1597.414,820.635 1606.874,824.456 1613.673 C 832.560 1628.093,832.007 1628.561,805.500 1629.716 L 787.500 1630.500 778.057 1603.500 C 772.863 1588.650,768.475 1574.790,768.307 1572.699 C 767.899 1567.643,794.566 1581.168,807.643 1592.650 M3333.000 1581.000 C 3333.000 1584.333,3331.000 1587.000,3328.500 1587.000 C 3326.000 1587.000,3324.000 1584.333,3324.000 1581.000 C 3324.000 1577.667,3326.000 1575.000,3328.500 1575.000 C 3331.000 1575.000,3333.000 1577.667,3333.000 1581.000 M3538.192 1596.685 C 3524.432 1616.973,3523.341 1622.901,3535.697 1610.250 C 3545.807 1599.898,3549.640 1597.680,3555.750 1598.645 C 3559.871 1599.295,3558.071 1593.994,3552.442 1588.900 C 3547.162 1584.121,3546.449 1584.511,3538.192 1596.685 M972.000 1612.299 C 972.000 1620.833,969.736 1624.453,958.792 1633.421 C 929.248 1657.631,883.810 1675.901,832.944 1684.026 L 806.388 1688.267 802.194 1678.230 C 799.887 1672.709,798.000 1666.976,798.000 1665.489 C 798.000 1664.002,810.109 1661.232,824.908 1659.334 C 869.491 1653.617,930.641 1630.122,959.655 1607.563 C 969.763 1599.703,972.000 1600.562,972.000 1612.299 M764.367 1648.500 C 765.202 1654.284,763.942 1654.446,729.354 1653.000 C 694.176 1651.529,682.271 1648.885,696.396 1645.680 C 706.010 1643.498,730.242 1641.892,748.500 1642.226 C 761.100 1642.456,763.639 1643.460,764.367 1648.500 M727.004 1660.983 C 772.215 1663.119,768.885 1661.652,775.302 1682.250 C 777.380 1688.923,777.080 1689.000,748.977 1689.000 C 701.411 1689.000,627.000 1677.151,627.000 1669.577 C 627.000 1668.838,630.038 1665.344,633.750 1661.812 C 639.834 1656.024,642.720 1655.570,663.000 1657.207 C 675.375 1658.206,704.177 1659.905,727.004 1660.983 M3797.827 1674.077 C 3790.307 1675.320,3773.432 1680.681,3760.327 1685.990 C 3725.054 1700.278,3720.947 1701.189,3691.500 1701.263 C 3672.900 1701.309,3657.970 1699.412,3643.510 1695.165 C 3614.347 1686.600,3562.328 1686.591,3529.669 1695.145 C 3516.765 1698.525,3493.898 1702.389,3478.854 1703.733 L 3451.500 1706.175 3474.140 1706.587 C 3487.605 1706.833,3508.275 1704.453,3525.140 1700.715 C 3564.409 1692.013,3615.405 1693.880,3647.775 1705.206 C 3686.634 1718.802,3726.468 1714.897,3762.605 1693.948 C 3783.954 1681.571,3808.274 1675.992,3832.343 1677.950 C 3850.050 1679.391,3858.273 1682.151,3882.769 1694.879 C 3920.778 1714.628,3938.544 1719.075,3977.880 1718.691 L 4009.500 1718.382 3980.759 1714.458 C 3945.989 1709.712,3927.838 1704.537,3904.320 1692.668 C 3869.667 1675.179,3831.483 1668.513,3797.827 1674.077 M717.349 1711.500 C 720.016 1719.750,723.038 1730.979,724.065 1736.454 C 725.736 1745.367,725.265 1746.309,719.553 1745.454 C 714.831 1744.748,710.617 1738.681,703.322 1722.084 C 697.903 1709.755,694.166 1698.540,695.018 1697.162 C 695.870 1695.784,700.152 1695.071,704.533 1695.578 C 711.175 1696.347,713.306 1698.995,717.349 1711.500 M732.000 1705.323 C 732.000 1715.306,727.021 1717.684,725.273 1708.536 C 723.832 1700.998,725.035 1698.000,729.500 1698.000 C 730.875 1698.000,732.000 1701.295,732.000 1705.323 M757.500 1722.000 C 757.500 1744.315,757.432 1744.508,749.250 1745.449 L 741.000 1746.399 741.000 1722.000 L 741.000 1697.601 749.250 1698.551 C 757.432 1699.492,757.500 1699.685,757.500 1722.000 M788.865 1725.609 C 789.135 1735.830,782.230 1746.000,775.018 1746.000 C 766.762 1746.000,766.749 1745.893,772.558 1726.500 C 779.920 1701.926,780.271 1701.494,784.724 1711.500 C 786.927 1716.450,788.790 1722.799,788.865 1725.609 M1803.000 1741.374 C 1797.225 1743.635,1787.100 1747.566,1780.500 1750.110 C 1764.069 1756.445,1740.072 1756.059,1711.500 1749.000 C 1686.579 1742.843,1668.849 1741.885,1656.000 1746.000 C 1650.600 1747.730,1654.379 1748.496,1669.500 1748.737 C 1681.050 1748.921,1697.925 1751.064,1707.000 1753.500 C 1731.643 1760.115,1769.367 1759.345,1788.410 1751.838 C 1813.292 1742.031,1836.658 1741.149,1862.537 1749.039 C 1886.605 1756.378,1905.026 1755.959,1928.923 1747.527 C 1935.980 1745.037,1950.022 1742.905,1960.127 1742.789 C 1971.438 1742.659,1976.316 1741.721,1972.818 1740.348 C 1964.422 1737.053,1939.612 1739.246,1927.358 1744.366 C 1906.351 1753.143,1890.153 1753.258,1865.656 1744.803 C 1840.673 1736.180,1819.261 1735.008,1803.000 1741.374 M805.459 1776.000 L 807.668 1786.500 798.334 1777.689 C 788.936 1768.817,787.095 1760.925,791.010 1746.296 C 792.774 1739.702,793.374 1740.210,798.093 1752.296 C 800.929 1759.558,804.244 1770.225,805.459 1776.000 M779.607 1759.026 C 785.195 1765.759,780.278 1767.000,748.000 1767.000 C 724.167 1767.000,717.000 1766.075,717.000 1763.000 C 717.000 1755.895,720.540 1755.000,748.633 1755.000 C 768.089 1755.000,777.254 1756.191,779.607 1759.026 M753.000 1881.177 C 753.000 1947.059,751.941 1983.000,750.000 1983.000 C 748.058 1983.000,747.000 1946.441,747.000 1879.323 C 747.000 1810.969,748.022 1776.278,750.000 1777.500 C 751.905 1778.677,753.000 1816.531,753.000 1881.177 M799.893 1790.681 C 813.444 1803.502,825.312 1824.688,821.230 1828.770 C 820.478 1829.522,809.584 1818.816,797.021 1804.979 C 784.459 1791.141,775.040 1778.960,776.090 1777.910 C 780.070 1773.930,784.962 1776.554,799.893 1790.681 M651.000 1846.500 C 590.549 1906.996,576.000 1919.616,576.000 1911.554 C 576.000 1906.357,707.505 1779.000,712.871 1779.000 C 716.476 1779.000,694.589 1802.879,651.000 1846.500 M3706.500 1842.486 C 3694.328 1849.189,3680.080 1864.893,3673.488 1878.873 C 3669.079 1888.223,3661.945 1896.634,3653.073 1902.942 C 3632.025 1917.907,3618.029 1939.291,3613.705 1963.093 C 3611.969 1972.651,3612.743 1975.905,3618.114 1981.621 C 3621.697 1985.435,3623.696 1990.065,3622.556 1991.910 C 3619.089 1997.519,3629.734 2010.170,3642.984 2016.185 C 3652.441 2020.479,3662.549 2021.884,3684.340 2021.934 L 3713.180 2022.000 3749.754 2004.000 C 3781.002 1988.621,3788.729 1986.000,3802.813 1986.000 C 3822.761 1986.000,3835.389 1991.962,3839.156 2003.159 C 3844.115 2017.902,3839.806 2025.702,3821.220 2035.628 C 3800.411 2046.740,3786.633 2059.293,3781.131 2072.154 C 3776.486 2083.008,3775.490 2115.000,3779.796 2115.000 C 3781.333 2115.000,3785.651 2110.703,3789.391 2105.450 C 3794.882 2097.740,3795.210 2096.277,3791.096 2097.856 C 3784.606 2100.347,3784.460 2094.492,3790.643 2079.695 C 3797.118 2064.197,3805.774 2055.780,3825.534 2045.765 C 3845.722 2035.533,3852.000 2027.628,3852.000 2012.437 C 3852.000 1990.629,3828.806 1974.000,3798.388 1974.000 C 3789.169 1974.000,3777.834 1978.249,3754.367 1990.500 C 3716.779 2010.124,3713.316 2010.738,3716.325 1997.250 C 3717.521 1991.888,3718.443 1976.015,3718.373 1961.977 C 3718.262 1939.676,3717.031 1933.858,3708.623 1915.890 C 3703.330 1904.580,3699.000 1894.866,3699.000 1894.304 C 3699.000 1890.985,3725.154 1887.031,3747.205 1887.017 C 3788.785 1886.990,3822.142 1899.656,3847.366 1925.051 C 3878.616 1956.510,3891.631 1993.084,3881.707 2021.552 C 3879.895 2026.749,3877.195 2031.000,3875.707 2031.000 C 3870.347 2031.000,3873.167 2039.984,3881.560 2049.646 C 3894.580 2064.634,3897.832 2072.592,3895.893 2084.715 C 3893.763 2098.039,3877.203 2133.000,3873.023 2133.000 C 3871.339 2133.000,3870.000 2125.280,3870.000 2115.573 C 3870.000 2104.326,3868.349 2096.082,3865.345 2092.323 C 3860.875 2086.732,3860.773 2086.799,3862.801 2094.000 C 3863.962 2098.125,3864.757 2112.576,3864.568 2126.113 C 3864.259 2148.143,3864.762 2150.534,3869.361 2148.897 C 3878.775 2145.547,3882.882 2140.643,3891.473 2122.500 C 3902.732 2098.720,3903.193 2074.324,3892.773 2053.742 C 3885.823 2040.013,3885.723 2038.948,3890.161 2025.921 C 3905.029 1982.288,3870.774 1918.777,3817.659 1891.500 C 3803.465 1884.211,3799.504 1880.504,3796.817 1872.000 C 3794.196 1863.704,3791.611 1861.185,3784.500 1860.000 C 3779.550 1859.175,3771.842 1856.018,3767.372 1852.985 C 3761.510 1849.007,3756.628 1848.044,3749.861 1849.530 C 3742.315 1851.188,3739.616 1850.359,3736.069 1845.296 C 3731.166 1838.295,3716.621 1836.913,3706.500 1842.486 M3728.449 1857.776 C 3729.563 1867.428,3731.200 1867.715,3745.703 1860.799 C 3756.483 1855.658,3756.677 1855.681,3762.403 1862.753 C 3765.590 1866.688,3767.707 1871.391,3767.107 1873.204 C 3766.465 1875.146,3752.997 1877.313,3734.316 1878.480 C 3716.880 1879.569,3699.631 1882.057,3695.985 1884.008 C 3685.709 1889.508,3682.181 1883.521,3688.921 1872.020 C 3694.983 1861.675,3715.764 1847.492,3723.000 1848.762 C 3725.475 1849.196,3727.927 1853.252,3728.449 1857.776 M918.000 1911.341 C 918.000 1912.419,915.126 1914.052,911.613 1914.970 C 902.206 1917.430,871.632 1887.135,865.572 1869.350 C 863.057 1861.969,861.000 1855.186,861.000 1854.275 C 861.000 1853.364,873.825 1865.390,889.500 1881.000 C 905.175 1896.610,918.000 1910.263,918.000 1911.341 M3784.500 1875.041 C 3784.500 1877.845,3782.273 1879.116,3778.500 1878.465 C 3770.839 1877.143,3769.925 1876.166,3772.479 1872.033 C 3775.379 1867.342,3784.500 1869.624,3784.500 1875.041 M3690.673 1904.250 C 3705.947 1921.670,3713.269 1955.510,3708.138 1984.972 C 3706.183 1996.201,3703.161 2007.101,3701.424 2009.194 C 3699.687 2011.287,3692.953 2013.000,3686.461 2013.000 C 3673.174 2013.000,3648.000 2007.323,3648.000 2004.326 C 3648.000 2003.247,3652.892 1999.730,3658.871 1996.510 C 3670.191 1990.414,3680.260 1978.260,3676.831 1974.831 C 3675.741 1973.741,3670.400 1974.458,3664.962 1976.425 C 3652.222 1981.031,3632.218 1981.018,3627.600 1976.400 C 3621.840 1970.640,3623.390 1958.792,3632.173 1941.432 C 3640.545 1924.885,3651.151 1914.865,3671.005 1904.742 C 3684.748 1897.736,3684.957 1897.730,3690.673 1904.250 M3748.357 1912.938 C 3737.660 1924.480,3738.542 1931.159,3749.713 1923.204 C 3762.031 1914.433,3767.355 1915.444,3773.181 1927.662 C 3780.530 1943.071,3776.138 1948.535,3756.526 1948.380 C 3744.600 1948.286,3741.991 1949.080,3744.457 1952.051 C 3748.564 1957.000,3765.911 1960.175,3775.582 1957.747 C 3787.629 1954.724,3790.711 1944.180,3784.387 1927.621 C 3775.607 1904.631,3761.415 1898.848,3748.357 1912.938 M3650.348 1939.733 C 3644.220 1953.183,3656.542 1965.417,3671.092 1960.330 C 3677.155 1958.210,3679.770 1955.053,3680.467 1949.013 C 3681.775 1937.677,3676.303 1932.000,3664.068 1932.000 C 3656.021 1932.000,3653.129 1933.630,3650.348 1939.733 M3669.000 1948.677 C 3669.000 1951.055,3666.975 1953.000,3664.500 1953.000 C 3659.981 1953.000,3658.333 1946.667,3661.918 1943.082 C 3664.718 1940.282,3669.000 1943.665,3669.000 1948.677 M1122.000 1978.969 C 1077.919 1981.976,1006.906 1994.522,955.500 2008.385 C 887.401 2026.749,815.325 2039.512,750.586 2044.669 C 736.884 2045.760,698.002 2044.902,664.182 2042.762 C 614.269 2039.604,592.349 2039.585,547.765 2042.661 C 502.639 2045.775,488.347 2045.741,467.669 2042.475 C 433.839 2037.132,293.049 2037.107,256.500 2042.438 C 228.389 2046.539,185.324 2054.299,176.250 2056.900 C 167.360 2059.448,170.361 2066.020,185.485 2077.122 C 211.938 2096.540,244.357 2133.331,254.793 2155.776 C 281.240 2212.655,293.806 2228.960,338.939 2264.952 C 383.808 2300.732,401.110 2324.667,407.868 2360.306 C 409.471 2368.757,412.821 2380.551,415.312 2386.514 C 421.268 2400.767,452.142 2432.629,468.706 2441.615 L 481.821 2448.730 528.160 2433.572 C 589.039 2413.657,648.033 2399.083,708.000 2389.145 C 727.406 2385.929,770.960 2383.642,844.500 2381.977 C 957.513 2379.418,959.576 2379.184,1017.000 2362.436 C 1087.918 2341.751,1155.092 2331.676,1266.347 2325.038 C 1323.190 2321.646,1376.665 2311.993,1424.782 2296.438 C 1487.301 2276.227,1509.534 2272.790,1578.749 2272.637 C 1612.986 2272.562,1640.999 2271.955,1640.999 2271.290 C 1641.000 2270.624,1634.588 2263.113,1626.750 2254.599 C 1618.913 2246.085,1607.756 2232.461,1601.958 2224.325 C 1589.261 2206.507,1561.870 2191.334,1534.500 2186.956 C 1524.600 2185.373,1508.084 2179.936,1497.797 2174.874 C 1482.940 2167.563,1476.665 2162.158,1467.279 2148.585 C 1441.158 2110.812,1430.419 2102.496,1402.430 2098.371 C 1373.905 2094.167,1356.654 2083.867,1327.528 2053.652 C 1300.895 2026.021,1300.127 2025.499,1275.000 2017.925 C 1246.641 2009.377,1225.016 1997.077,1217.095 1984.987 L 1211.862 1977.000 1173.681 1977.524 C 1152.681 1977.812,1129.425 1978.463,1122.000 1978.969 M1215.750 1993.340 C 1220.288 1999.027,1224.000 2004.286,1224.000 2005.027 C 1224.000 2005.769,1212.863 2007.266,1199.250 2008.355 C 1099.137 2016.360,1048.283 2024.658,922.500 2053.513 C 817.165 2077.678,772.613 2083.521,694.500 2083.414 C 644.331 2083.346,626.917 2082.226,609.000 2077.918 C 547.615 2063.158,298.015 2072.557,233.418 2092.060 L 219.335 2096.312 203.418 2082.781 C 194.663 2075.339,187.094 2067.553,186.598 2065.479 C 185.566 2061.161,235.220 2051.140,282.632 2046.098 C 320.952 2042.023,408.513 2042.184,442.500 2046.392 C 459.144 2048.453,528.181 2049.735,622.500 2049.735 C 808.311 2049.734,831.816 2047.304,960.000 2014.844 C 1043.004 1993.825,1109.183 1984.116,1174.500 1983.375 L 1207.500 1983.000 1215.750 1993.340 M1271.448 2024.218 C 1296.053 2033.147,1318.500 2047.726,1318.500 2054.778 C 1318.500 2057.481,1299.186 2058.625,1242.000 2059.308 C 1199.925 2059.810,1155.375 2061.734,1143.000 2063.582 C 1130.625 2065.431,1100.941 2069.762,1077.036 2073.208 C 1053.130 2076.654,1018.030 2083.519,999.036 2088.464 C 980.041 2093.410,954.440 2100.068,942.144 2103.260 C 916.831 2109.832,864.949 2118.847,820.500 2124.396 C 761.888 2131.713,674.919 2128.641,582.000 2115.972 C 513.256 2106.599,383.446 2114.310,286.894 2133.502 C 255.649 2139.713,254.163 2139.758,251.265 2134.581 C 249.602 2131.609,243.688 2124.137,238.121 2117.976 C 232.554 2111.814,228.000 2105.394,228.000 2103.710 C 228.000 2100.616,253.741 2093.707,286.107 2088.114 C 295.790 2086.441,339.665 2082.895,383.607 2080.234 C 478.907 2074.463,572.877 2075.833,603.000 2083.432 C 616.103 2086.738,641.769 2088.898,681.238 2090.016 C 731.424 2091.438,746.930 2090.724,787.738 2085.114 C 846.193 2077.076,887.438 2069.376,933.955 2057.814 C 1036.412 2032.348,1172.203 2012.228,1227.000 2014.394 C 1239.545 2014.890,1255.398 2018.393,1271.448 2024.218 M3832.959 2067.459 C 3813.877 2077.206,3812.067 2081.753,3829.568 2075.978 C 3835.601 2073.987,3844.220 2073.094,3848.722 2073.994 C 3856.347 2075.519,3856.818 2075.028,3855.613 2066.816 C 3854.901 2061.967,3853.460 2058.112,3852.410 2058.249 C 3851.359 2058.387,3842.607 2062.531,3832.959 2067.459 M1340.241 2077.106 C 1346.434 2082.665,1358.250 2090.640,1366.500 2094.829 C 1380.339 2101.856,1380.920 2102.571,1374.000 2104.072 C 1369.875 2104.967,1355.700 2106.520,1342.500 2107.524 C 1245.827 2114.871,1147.090 2132.503,1039.500 2161.632 C 928.295 2191.740,881.585 2197.602,775.500 2194.763 C 587.897 2189.742,552.061 2189.485,513.000 2192.884 C 474.210 2196.259,380.341 2213.466,333.093 2225.861 C 307.350 2232.615,307.665 2232.745,289.278 2207.698 C 280.792 2196.138,261.046 2154.175,261.010 2147.625 C 260.999 2145.591,267.812 2143.969,304.500 2137.270 C 409.769 2118.051,516.281 2113.124,591.000 2124.017 C 725.276 2143.593,838.393 2137.297,970.500 2102.895 C 1037.901 2085.344,1050.168 2082.843,1101.796 2076.132 C 1165.052 2067.909,1162.319 2068.067,1250.241 2067.504 L 1328.983 2067.000 1340.241 2077.106 M2746.258 2110.740 C 2725.112 2121.830,2699.230 2123.339,2668.000 2115.304 C 2642.875 2108.839,2616.144 2107.426,2605.500 2112.000 C 2601.444 2113.743,2607.277 2114.658,2623.500 2114.825 C 2636.700 2114.960,2654.925 2117.064,2664.000 2119.500 C 2689.191 2126.261,2717.101 2125.212,2743.790 2116.500 C 2770.915 2107.645,2791.069 2107.081,2814.861 2114.508 C 2824.525 2117.525,2836.495 2119.234,2841.861 2118.361 C 2850.734 2116.919,2850.308 2116.628,2836.500 2114.696 C 2828.250 2113.542,2816.481 2110.439,2810.346 2107.799 C 2792.590 2100.159,2763.926 2101.475,2746.258 2110.740 M2884.500 2108.070 C 2877.900 2110.627,2867.775 2113.751,2862.000 2115.014 C 2853.099 2116.960,2852.699 2117.363,2859.373 2117.655 C 2863.703 2117.845,2872.985 2115.975,2880.000 2113.500 C 2887.015 2111.025,2902.372 2108.979,2914.127 2108.954 C 2929.034 2108.922,2934.139 2108.028,2931.000 2106.000 C 2924.250 2101.638,2898.103 2102.802,2884.500 2108.070 M1425.947 2112.360 C 1436.435 2117.738,1452.000 2133.735,1452.000 2139.137 C 1452.000 2143.338,1443.390 2145.114,1395.750 2150.743 C 1292.415 2162.950,1206.379 2177.626,1105.500 2200.253 C 1047.559 2213.249,999.938 2221.386,898.500 2235.623 C 853.107 2241.994,842.271 2242.316,699.000 2241.544 C 518.186 2240.570,466.801 2244.244,388.883 2263.722 C 364.805 2269.740,358.352 2270.427,354.383 2267.392 C 333.857 2251.700,321.228 2240.058,322.500 2237.999 C 324.537 2234.704,404.318 2215.596,447.000 2208.181 C 521.103 2195.308,619.342 2192.660,719.330 2200.841 C 834.356 2210.253,928.204 2200.626,1046.349 2167.294 C 1144.475 2139.610,1259.537 2119.450,1360.726 2112.213 C 1410.143 2108.678,1418.805 2108.698,1425.947 2112.360 M1472.678 2166.250 C 1481.380 2174.638,1488.050 2181.942,1487.500 2182.481 C 1486.950 2183.020,1471.650 2185.541,1453.500 2188.084 C 1433.454 2190.892,1404.602 2197.930,1380.000 2206.014 C 1316.870 2226.756,1282.017 2232.792,1195.500 2237.965 C 1141.414 2241.199,1097.461 2248.424,1039.856 2263.548 C 946.133 2288.155,902.870 2292.487,760.500 2291.518 C 633.200 2290.652,611.552 2292.547,532.387 2311.480 C 498.595 2319.562,438.892 2337.127,417.777 2345.198 C 415.568 2346.042,411.765 2341.283,408.429 2333.502 C 405.336 2326.286,395.874 2311.225,387.403 2300.032 C 378.931 2288.840,372.000 2278.669,372.000 2277.432 C 372.000 2274.479,417.921 2263.648,465.000 2255.497 C 498.710 2249.660,513.720 2248.987,613.500 2248.834 C 674.550 2248.741,744.750 2249.100,769.500 2249.632 C 857.459 2251.523,1006.920 2230.691,1161.067 2195.056 C 1214.992 2182.590,1412.740 2152.394,1447.678 2151.290 C 1454.841 2151.064,1460.329 2154.348,1472.678 2166.250 M1554.353 2198.605 C 1567.137 2202.678,1584.519 2213.921,1586.269 2219.250 C 1587.123 2221.851,1583.634 2223.000,1574.885 2223.000 C 1549.145 2223.000,1496.353 2232.725,1420.500 2251.439 C 1301.214 2280.868,1285.755 2283.413,1192.500 2288.964 C 1142.328 2291.950,1043.093 2307.837,987.281 2321.819 C 932.491 2335.544,907.932 2337.916,814.500 2338.510 C 739.179 2338.989,717.518 2340.148,681.693 2345.617 C 611.797 2356.288,543.370 2374.328,474.819 2400.155 L 442.500 2412.332 434.209 2402.480 C 426.858 2393.746,414.000 2365.440,414.000 2357.993 C 414.000 2353.559,421.728 2350.477,469.500 2335.863 C 577.966 2302.683,618.206 2297.693,769.847 2298.622 C 877.584 2299.281,889.774 2298.827,929.336 2292.676 C 984.680 2284.072,1009.751 2278.952,1057.500 2266.505 C 1114.117 2251.745,1143.705 2247.247,1206.000 2243.928 C 1236.525 2242.301,1266.225 2240.205,1272.000 2239.269 C 1309.462 2233.200,1335.881 2226.976,1375.283 2214.934 C 1399.913 2207.407,1429.613 2199.453,1441.283 2197.258 C 1466.266 2192.559,1538.058 2193.415,1554.353 2198.605 M1607.930 2244.269 C 1614.569 2252.668,1620.000 2260.605,1620.000 2261.908 C 1620.000 2263.212,1594.688 2264.983,1563.750 2265.845 C 1503.340 2267.528,1476.879 2272.337,1405.500 2294.608 C 1359.231 2309.044,1317.856 2315.904,1257.128 2319.208 C 1155.725 2324.725,1082.175 2335.937,1010.227 2356.846 C 953.928 2373.206,952.698 2373.346,841.500 2375.942 C 730.556 2378.532,697.148 2381.993,627.000 2398.161 C 590.196 2406.644,531.266 2423.723,502.021 2434.382 L 481.500 2441.861 468.019 2433.564 C 460.604 2429.000,454.133 2423.168,453.639 2420.604 C 452.161 2412.926,531.809 2385.324,612.000 2365.726 C 678.954 2349.362,707.695 2346.754,843.000 2344.765 C 917.787 2343.665,956.715 2339.084,997.500 2326.584 C 1010.311 2322.657,1035.432 2317.940,1135.500 2300.669 C 1143.750 2299.245,1174.800 2296.656,1204.500 2294.916 C 1276.964 2290.671,1360.823 2276.108,1434.153 2255.036 C 1478.809 2242.203,1546.775 2230.507,1583.180 2229.389 C 1595.019 2229.026,1596.661 2230.013,1607.930 2244.269 M3413.432 2398.244 C 3405.695 2400.467,3394.473 2405.308,3388.495 2409.003 C 3381.542 2413.300,3370.934 2416.258,3359.056 2417.212 C 3343.460 2418.463,3337.366 2417.388,3320.994 2410.492 C 3304.300 2403.461,3298.818 2402.531,3282.835 2404.020 C 3272.569 2404.976,3260.251 2407.785,3255.461 2410.261 C 3234.528 2421.086,3189.764 2422.042,3171.116 2412.062 C 3167.969 2410.378,3162.943 2409.066,3159.947 2409.146 C 3151.678 2409.367,3192.336 2429.687,3201.381 2429.854 C 3205.716 2429.934,3222.419 2425.950,3238.500 2421.000 C 3273.622 2410.189,3297.430 2409.316,3320.282 2418.002 C 3341.123 2425.923,3354.960 2425.568,3383.136 2416.388 C 3395.986 2412.201,3416.004 2407.978,3427.619 2407.003 C 3446.882 2405.385,3450.656 2406.071,3470.553 2414.804 C 3494.628 2425.370,3506.437 2425.756,3487.500 2415.358 C 3480.900 2411.733,3471.243 2406.072,3466.040 2402.777 C 3453.856 2395.061,3431.283 2393.117,3413.432 2398.244 M3543.547 2406.309 C 3526.522 2413.066,3513.022 2418.996,3513.547 2419.487 C 3514.071 2419.979,3524.625 2417.653,3537.000 2414.319 C 3552.508 2410.141,3569.755 2408.150,3592.500 2407.911 C 3624.248 2407.577,3626.352 2407.961,3647.952 2418.032 C 3669.163 2427.922,3672.147 2428.497,3701.952 2428.444 C 3729.990 2428.394,3735.470 2427.471,3751.208 2420.150 C 3775.628 2408.790,3804.374 2404.875,3847.500 2407.033 C 3875.315 2408.425,3882.155 2408.052,3877.584 2405.395 C 3868.739 2400.254,3813.053 2398.624,3791.262 2402.870 C 3780.943 2404.880,3763.304 2410.542,3752.064 2415.452 C 3727.797 2426.054,3697.439 2429.559,3675.985 2424.237 C 3668.018 2422.261,3652.086 2414.986,3640.580 2408.072 C 3621.540 2396.630,3617.629 2395.434,3597.080 2394.763 C 3576.764 2394.099,3571.397 2395.257,3543.547 2406.309 M3103.500 2410.761 C 3095.250 2413.157,3076.350 2418.475,3061.500 2422.579 C 3038.233 2429.009,3036.574 2429.862,3049.500 2428.749 C 3062.256 2427.651,3128.007 2410.332,3131.750 2407.085 C 3134.736 2404.493,3117.243 2406.770,3103.500 2410.761 M1915.500 2479.396 C 1883.570 2485.341,1592.453 2536.037,1501.500 2551.490 C 1488.300 2553.733,1430.250 2563.776,1372.500 2573.809 C 1314.750 2583.842,1204.725 2602.891,1128.000 2616.141 C 836.805 2666.431,644.758 2708.156,532.523 2745.519 C 470.098 2766.301,417.000 2795.069,417.000 2808.109 C 417.000 2809.374,423.918 2818.589,432.373 2828.587 C 450.195 2849.662,458.376 2853.200,506.872 2860.813 C 558.717 2868.952,706.469 2865.324,813.000 2853.297 C 1017.234 2830.239,1136.536 2810.197,1297.500 2771.905 C 1317.300 2767.195,1435.425 2739.563,1560.000 2710.502 C 1684.575 2681.441,1826.325 2648.359,1875.000 2636.986 C 1923.675 2625.613,2019.525 2603.250,2088.000 2587.290 C 2156.475 2571.331,2215.538 2557.120,2219.250 2555.711 C 2224.646 2553.663,2226.000 2550.819,2226.000 2541.539 C 2226.000 2527.148,2221.926 2523.272,2192.515 2509.683 C 2143.685 2487.122,2087.657 2476.667,1999.500 2473.665 C 1960.391 2472.334,1949.394 2473.084,1915.500 2479.396 M2085.838 2487.001 C 2128.130 2493.238,2202.000 2517.749,2202.000 2525.544 C 2202.000 2527.126,2181.413 2533.273,2156.250 2539.204 C 2090.097 2554.797,2093.615 2554.449,2077.115 2547.050 C 2033.172 2527.347,1979.945 2513.206,1924.240 2506.436 C 1902.933 2503.847,1882.125 2500.933,1878.000 2499.962 C 1870.852 2498.279,1870.993 2498.059,1881.000 2495.287 C 1920.506 2484.340,1952.048 2481.200,2008.500 2482.594 C 2039.850 2483.368,2074.652 2485.351,2085.838 2487.001 M1909.500 2512.901 C 1963.904 2519.138,2028.385 2534.425,2061.750 2548.998 C 2081.357 2557.561,2082.252 2557.132,2009.635 2573.999 L 1968.769 2583.491 1953.289 2575.646 C 1919.023 2558.283,1874.090 2544.681,1805.125 2530.796 C 1779.068 2525.550,1757.468 2519.980,1757.125 2518.417 C 1756.781 2516.855,1769.325 2513.305,1785.000 2510.528 C 1816.558 2504.937,1844.715 2505.474,1909.500 2512.901 M1756.206 2530.594 C 1818.474 2541.153,1851.821 2548.674,1890.064 2560.784 C 1933.573 2574.561,1951.736 2582.464,1948.144 2586.056 C 1945.640 2588.560,1876.894 2604.819,1726.500 2638.477 C 1686.388 2647.454,1489.672 2691.963,1329.000 2728.416 C 1224.693 2752.080,1171.960 2761.857,997.500 2789.875 C 931.862 2800.417,851.016 2810.746,848.125 2808.959 C 842.444 2805.448,837.000 2786.586,837.000 2770.411 C 837.000 2748.505,846.813 2727.755,868.511 2703.777 C 893.381 2676.296,911.844 2663.934,935.461 2658.951 C 946.483 2656.626,1048.650 2638.614,1162.500 2618.924 C 1276.350 2599.234,1381.650 2580.927,1396.500 2578.242 C 1411.350 2575.557,1487.625 2562.150,1566.000 2548.449 C 1644.375 2534.748,1709.175 2523.419,1710.000 2523.275 C 1710.825 2523.131,1731.618 2526.424,1756.206 2530.594 M2217.000 2540.823 C 2217.000 2544.026,2215.960 2547.288,2214.690 2548.074 C 2213.419 2548.859,2180.006 2557.088,2140.440 2566.360 C 2100.873 2575.632,2060.400 2585.153,2050.500 2587.517 C 2040.600 2589.882,1971.075 2606.108,1896.000 2623.573 C 1766.610 2653.676,1702.215 2668.692,1492.500 2717.663 C 1443.000 2729.222,1361.832 2748.167,1312.126 2759.761 C 1119.647 2804.661,999.305 2825.034,807.000 2845.275 C 640.208 2862.831,542.062 2863.200,478.500 2846.508 C 455.325 2840.423,434.926 2827.723,440.230 2822.682 C 441.479 2821.496,451.950 2822.319,463.500 2824.512 C 510.135 2833.365,555.684 2835.888,634.500 2833.981 C 677.400 2832.944,726.000 2830.727,742.500 2829.055 C 759.000 2827.383,794.775 2823.904,822.000 2821.324 C 911.007 2812.888,1072.332 2788.358,1206.000 2762.935 C 1257.716 2753.099,1288.221 2746.420,1473.000 2704.481 C 1546.230 2687.860,1578.674 2680.515,1711.500 2650.483 C 1893.255 2609.389,1943.129 2598.054,1980.000 2589.460 C 2070.242 2568.425,2113.563 2558.175,2158.500 2547.225 C 2215.414 2533.355,2217.000 2533.182,2217.000 2540.823 M888.000 2670.850 C 888.000 2671.318,878.490 2681.421,866.866 2693.301 C 831.793 2729.147,819.336 2766.458,832.180 2797.198 C 836.634 2807.858,836.566 2808.312,830.145 2810.700 C 823.927 2813.013,746.957 2820.541,685.173 2824.879 C 670.144 2825.934,657.108 2825.602,656.205 2824.141 C 650.904 2815.564,675.679 2773.715,700.192 2749.839 C 719.321 2731.207,754.779 2704.846,773.366 2695.439 C 790.157 2686.941,888.000 2665.954,888.000 2670.850 M743.935 2702.250 C 743.900 2703.488,736.333 2709.900,727.120 2716.500 C 690.387 2742.815,653.816 2788.959,646.875 2817.750 L 644.886 2826.000 588.693 2825.941 C 522.705 2825.873,450.000 2817.380,435.000 2807.988 C 427.322 2803.181,435.127 2795.717,462.240 2781.935 C 503.915 2760.753,545.208 2747.395,655.500 2719.421 C 729.472 2700.660,744.062 2697.827,743.935 2702.250 " stroke="black" fill="none" fill-rule="evenodd"/></g></g>
      <g id="hand">
        <rect id="groupSizer" width="140" height="160" fill="none"/>
        <path d="M55.25,55.9,48.63,82.66s-27.58,40.19-26.86,16C23.31,47.27,55.25,55.9,55.25,55.9Z"
            fill="#f49f58" />
        <path
            d="M77.45,30.06C75.95,29.74,27.15,45,24.08,46.12S13.72,48,11.42,53.79s0,16.5,0,21.1-1.15,33.38-.77,37.6c.24,2.7,3.45,5.37,6.52,5.75s8.06-4.6,9.21-7.67,6.52-40.67,7.29-43.35,13-1.15,15.73-1.15,26.47,23.4,26.47,26.86-14.19,19.57-16.11,19.57-29.63,6.77-31.46,8.06c-3.84,2.69-6.93,9.81-5.75,16.88.77,4.6,6.14,6.14,10.36,5.76,3.62-.33,24.17-1.53,30.69-1.92,4.28-.25,12.66-3.84,15-5.37S97,121.7,98.12,119.78s15.08-12.56,17.26-16.69c3.45-6.52,14.39-48.34,13.24-50.07C123.39,45.17,83.76,31.37,77.45,30.06Z"
            fill="#ffc585" />
        <path
            d="M119.82,46.59c-7.44-4-18-8.3-26.85-11.51h0C81.87,48.19,69.38,60,56.92,71.77h0c7.89,7.16,19,18.8,19,21.15,0,1.58-3,5.82-6.39,9.95h0c1.15,0,8.42,8.43,21.74-4.39C111.74,78.73,119,66.42,120.74,56.26A17,17,0,0,0,119.82,46.59Z"
            fill="#ffc585" opacity="0.4" style="mix-blend-mode: multiply" />
        <path
            d="M14.1,70.29c-2.3,7.29-9.8,45.47-10,49.11-.21,4.32,1.83,7.15,5.75,6.91,3.39-.21,8.58-2.94,10.36-6.14,3.34-6,4.19-5.22,11.13-50.26Z"
            fill="#ffc585" />
        <path
            d="M14.1,70.29c-2.3,7.29-9.8,45.47-10,49.11-.21,4.32,1.83,7.15,5.75,6.91,3.39-.21,8.58-2.94,10.36-6.14,3.34-6,4.19-5.22,11.13-50.26Z"
            fill="#ffc585" opacity="0.4" style="mix-blend-mode: multiply" />
        <g>
            <path
                d="M115.22,36.89s-4.3,37.94-5.1,39.36S83.83,106.38,81.9,107.18,69.43,109.49,71.37,105s7.33-2.93,8.17-3.66S101.42,75.61,102,74.43s.74-30,.74-30Z"
                fill="#363f4f" />
            <path
                d="M113.07,39.08s-3.87,36-4.66,37.41S83.11,106.2,81.18,107s-11.75,2.49-9.81-2,7.33-2.93,8.17-3.66S101.42,75.61,102,74.43s.74-30,.74-30Z"
                fill="#4b5668" />
            <path
                d="M111.25,55.36c1-8.48,1.81-16.28,1.81-16.28l-10.31,5.4s-.08,15.28-.35,24C103.3,67.19,108.68,59.83,111.25,55.36Z"
                fill="#4b5668" opacity="0.4" style="mix-blend-mode: multiply" />
            <path
                d="M71.55,107.11c2.19-3.36,7.43-5.35,7.69-5.61-1.41.38-6.08-.56-7.86,3.53A1.73,1.73,0,0,0,71.55,107.11Z"
                fill="#4b5668" opacity="0.4" style="mix-blend-mode: multiply" />
            <path d="M33.23,86.72c10.08,3.3,24,15.06,29.31,25.8L58,117.38c-10.6-4-25.41-17.87-28-25.83Z"
                fill="#edbd15" />
            <path
                d="M46.16,94c-2.09,3-4.54,5.8-6.79,8.77-.24.32-.47.65-.7,1,5.75,5.83,13.22,11.38,19.3,13.65l4.57-4.85C59.32,106,52.93,99.13,46.16,94Z"
                fill="#edbd15" style="mix-blend-mode: multiply" />
            <path d="M3.79,149.09s-3.57,7.55-2.42,8.58c1.52,1.36,7.71-4.53,7.71-4.53Z" fill="#c6d0d5" />
            <path
                d="M7.95,150.39c-1.11,2.4-3.21,5.47-5.9,6.3a3.13,3.13,0,0,1-.73.13.78.78,0,0,0,.21.51c1.52,1.36,7.71-4.53,7.71-4.53Z"
                fill="#c7d1d6" style="mix-blend-mode: multiply" />
            <path
                d="M1.95,149.82c3.16-8.14,17.61-40.14,31.5-61.3,8.37-12.75,53.86-84,78.16-64.8,21.59,17-31.06,69.86-52.81,90.88C42,130.87,11.55,153.39,9.34,154.72S1.34,151.39,1.95,149.82Z"
                fill="#4b5668" />
            <path
                d="M49,113.63c-6.42,6.38-20.09,20-29.15,28.48C11,150.42,6.2,152.81,4.59,153.36c1.65,1.19,3.64,2,4.75,1.36,2.22-1.33,32.63-23.85,49.45-40.11C78,96.07,121.16,52.8,116.31,31.15c0,2.37-7.76,3.86-12,13.2C95.55,63.76,63.76,99,49,113.63Z"
                fill="#4b5668" opacity="0.4" style="mix-blend-mode: multiply" />
            <path
                d="M92.86,47.91c7.9,6.12,17.67,6.77,19.08,3.07,5.75-11.47,7-21.45-.34-27.26-8-6.33-18.36-2.79-28.91,5.24C80.46,32.85,84.33,41.31,92.86,47.91Z"
                fill="#69778b" />
            <path
                d="M83.79,28.14C94,20.69,103.86,17.61,111.6,23.72c7.17,5.66,6.15,15.26.79,26.34C106.53,58.36,80.56,40.72,83.79,28.14Z"
                fill="#edbd15" />
            <path
                d="M116.31,31.11c-.65,10.45-11.22,20.6-22,15.52,6.91,5.15,15.12,7.66,18.12,3.43C115.86,42.91,117.5,36.37,116.31,31.11Z"
                fill="#edbd15" style="mix-blend-mode: multiply" />
            <path
                d="M10.5,130.62c-4.17,8.76-7.28,15.93-8.55,19.21-.61,1.56,5.17,6.22,7.39,4.9,1-.59,7.45-5.31,15.83-11.79C20.75,141.85,11.74,135.18,10.5,130.62Z"
                fill="#edbd15" />
            <path d="M10.5,130.62c-1.89,4.89,10,12.92,14.67,12.31C20.75,141.85,11.74,135.18,10.5,130.62Z"
                fill="#feee28" />
            <path
                d="M2.51,151.41a8,8,0,0,0,.9,1c2.45-3.69,7.82-11.23,11.22-16a19.94,19.94,0,0,1-3-3.41C8.87,137.68,5,146,2.51,151.41Z"
                fill="#edbd15" style="mix-blend-mode: screen" />
            <path
                d="M20.4,140.73c-4.19,5-9,9.31-13.71,13.83a3.09,3.09,0,0,0,2.64.16c1-.59,7.45-5.31,15.83-11.79A18.38,18.38,0,0,1,20.4,140.73Z"
                fill="#edbd15" style="mix-blend-mode: multiply" />
            <path d="M33.23,86.72c4.3,8.5,19.27,22.52,29.31,25.8L58,117.38c-10.6-4-25.41-17.87-28-25.83Z"
                fill="#feee28" />
            <path d="M33.23,86.72c3.3,10,19.4,24.28,29.31,25.8L58,117.38c-10.6-4-25.41-17.87-28-25.83Z"
                fill="#edbd15" />
            <path
                d="M53.09,107.47a38.21,38.21,0,0,0,9.45,5.06L58,117.38a43,43,0,0,1-9.29-5.15C50.14,110.87,51.15,109.6,53.09,107.47Z"
                fill="#edbd15" style="mix-blend-mode: multiply" />
            <path
                d="M39,94.81c-.92-1-1.78-2.09-2.55-3.1-1.26,1.68-2.45,3.41-3.59,5.18.6.86,1.28,1.73,2,2.62A61.6,61.6,0,0,1,39,94.81Z"
                fill="#edbd15" style="mix-blend-mode: screen" />
            <path d="M3.45,153c1,.55-1.26,3.33-1.42,2.73S2.63,152.54,3.45,153Z" fill="#c7d1d6" opacity="0.7"
                style="mix-blend-mode: screen" />
            <path d="M107.61,75.33c.49-1.63-25.92,28.23-25.4,28.92S106.8,78,107.61,75.33Z" fill="#4b5668"
                opacity="0.7" style="mix-blend-mode: screen" />
            <path
                d="M101.93,22c-3.44-.3-9,3-8.18,4.61,2.2,4.21,12.06,2,12.88,0C107.76,23.75,103.74,22.19,101.93,22Z"
                fill="#edbd15" opacity="0.4" style="mix-blend-mode: screen" />
            <path
                d="M81,41.38c-5.59.22-35.49,37.16-38.3,46.24,3.74-1.84,11.19-13.24,18.86-22.54C70.83,53.89,80.15,44.46,81,41.38Z"
                fill="#4b5668" opacity="0.4" style="mix-blend-mode: screen" />
            <path d="M32.75,100.8c-3.63,2.63-15.13,19.8-17.94,28.88C18.78,125.16,31.85,103.88,32.75,100.8Z"
                fill="#4b5668" opacity="0.4" style="mix-blend-mode: screen" />
        </g>
        <path
            d="M43.35,65.72C43.74,64.29,71.25,36,73.6,31.06c-8.52,2.7-47.07,14.14-49.52,15.06C21,47.27,13.72,48,11.42,53.79s0,16.5,0,21.1-1.15,33.38-.77,37.6c.24,2.7,3.45,5.37,6.52,5.75s8.06-4.6,9.21-7.67,6.52-40.67,7.29-43.35C34.14,65.55,39,65.51,43.35,65.72Z"
            fill="#ffc585" />
        <path
            d="M69.51,111.93a10.24,10.24,0,0,1-4.45-3.18c-2.5,2.3-4.66,3.74-5.3,3.74-1.92,0-29.63,6.77-31.46,8.06-3.84,2.69-6.93,9.81-5.75,16.88.77,4.6,6.14,6.14,10.36,5.76,3.62-.33,24.17-1.53,30.69-1.92,4.28-.25,12.66-3.84,15-5.37S97,121.7,98.12,119.78C98.3,119.48,73.84,113.57,69.51,111.93Z"
            fill="#ffc585" />
        <path
            d="M27.53,124.77c2.69-2.69,15-2.3,15.35-.38s.38,10-.38,12.28-14.19,5-15.73,2.69C23.39,134.28,25.1,127.19,27.53,124.77Z"
            fill="#ffd5b8" />
        <path
            d="M19,116a81.46,81.46,0,0,0-.29-14.29c-.34-1.68-6.65-1.76-8-2.1-.15,6-.23,11.23-.08,12.84C10.89,115.19,17.27,117.77,19,116Z"
            fill="#ffd5b8" />
        <path
            d="M117,91.87c-8.53,11-35.2,38.27-45.36,42.58-9.4,4-40.57,9.5-49.11,3,.77,4.6,6.14,6.14,10.36,5.76,3.62-.33,24.17-1.53,30.69-1.92,4.28-.25,12.66-3.84,15-5.37S97,121.7,98.12,119.78s15.08-12.56,17.26-16.69c1.12-2.12,3-7.94,5.05-14.91C119.34,89.44,118,90.54,117,91.87Z"
            fill="#ffc585" opacity="0.4" style="mix-blend-mode: multiply" />
        <path
            d="M26.38,110.57c1.15-3.07,6.52-40.67,7.29-43.35.54-1.89,6.78-1.69,11.37-1.41.76,0-11.61-4.73-14-1.47-3.27,4.54-3.16,35.87-12,50.07a5.88,5.88,0,0,1-5.31,2.53,8.13,8.13,0,0,0,3.39,1.31C20.24,118.63,25.23,113.64,26.38,110.57Z"
            fill="#ffc585" opacity="0.4" style="mix-blend-mode: multiply" />
      </g>
    </svg>