<canvas id="myCanvas" width="768" height="614.4" style="position:absolute;z-index: 10;"></canvas><svg id="demo" version="1.1" width="768" height="614.4" xmlns="http://www.w3.org/2000/svg" style="position:relative;"><g class="theWords" stroke-linejoin="round"><g id="handwriting" transform="translate(153.6, 102.4 ) scale(0.1500000, 0.1500000)"><path d="M1132.212 386.944 C 1111.195 389.922,1078.633 402.681,1068.750 411.810 L 1062.000 418.046 1062.000 411.628 C 1062.000 396.820,1031.474 393.464,1010.197 405.933 C 988.414 418.698,974.562 442.403,945.878 516.000 C 927.683 562.683,917.649 591.293,903.266 637.500 C 878.570 716.838,877.642 721.388,877.568 763.500 C 877.494 805.874,878.409 809.042,899.909 840.899 C 912.292 859.248,925.508 865.091,957.750 866.472 C 974.937 867.209,983.979 868.789,983.938 871.048 C 983.786 879.612,975.122 974.450,973.757 982.500 C 972.141 992.026,970.207 1013.401,966.990 1057.273 L 965.027 1084.046 950.186 1098.810 C 940.579 1108.366,931.603 1121.672,924.736 1136.536 C 918.901 1149.166,911.105 1164.288,907.411 1170.140 C 898.036 1184.992,879.982 1242.340,874.200 1275.633 C 867.264 1315.566,869.741 1378.183,880.285 1429.440 C 885.493 1454.763,887.626 1472.335,886.383 1479.690 L 884.473 1491.000 698.736 1491.482 C 596.581 1491.747,507.600 1492.302,501.000 1492.714 C 494.400 1493.127,378.975 1493.585,244.500 1493.732 L 0.000 1494.000 0.000 1512.456 L 0.000 1530.912 1121.250 1528.959 C 1737.938 1527.884,2429.138 1526.124,2657.250 1525.048 L 3072.000 1523.090 3072.000 1502.298 L 3072.000 1481.506 2679.682 1483.702 L 2287.363 1485.897 2273.182 1449.796 C 2262.262 1422.000,2259.000 1409.833,2259.000 1396.905 C 2259.000 1381.070,2259.470 1380.001,2267.250 1378.125 C 2295.104 1371.410,2326.497 1346.469,2339.721 1320.547 C 2351.577 1297.307,2358.000 1222.745,2358.000 1108.348 C 2358.000 1031.607,2356.109 1012.944,2347.759 1007.296 C 2345.966 1006.084,2299.950 1005.076,2245.500 1005.057 C 2152.889 1005.025,2145.886 1005.397,2136.990 1010.821 C 2128.657 1015.902,2127.211 1018.767,2125.314 1033.950 C 2121.444 1064.926,2126.206 1264.912,2131.358 1287.799 C 2141.904 1334.640,2171.700 1368.778,2210.639 1378.633 L 2224.500 1382.141 2225.380 1400.071 C 2226.204 1416.848,2225.186 1420.012,2209.564 1449.251 C 2200.381 1466.438,2190.614 1482.188,2187.860 1484.250 C 2183.964 1487.168,2135.397 1488.000,1968.927 1488.000 C 1851.267 1488.000,1755.000 1487.311,1755.000 1486.468 C 1755.000 1485.626,1757.975 1472.463,1761.611 1457.218 C 1770.459 1420.117,1771.237 1340.406,1763.119 1302.648 C 1752.169 1251.717,1727.911 1192.697,1689.947 1124.620 C 1680.169 1107.087,1670.070 1090.642,1667.505 1088.077 C 1664.119 1084.691,1662.253 1073.861,1660.694 1048.555 C 1659.514 1029.384,1658.077 1010.729,1657.502 1007.099 C 1656.927 1003.470,1655.670 991.050,1654.708 979.500 C 1653.372 963.446,1644.660 899.500,1639.997 871.514 C 1639.724 869.872,1646.925 867.793,1656.000 866.892 C 1686.248 863.892,1709.406 846.221,1723.495 815.386 C 1735.037 790.126,1734.526 749.450,1722.006 696.974 C 1698.713 599.348,1637.955 442.780,1610.688 410.119 C 1603.293 401.261,1601.308 400.582,1579.635 399.487 C 1566.368 398.817,1555.187 399.613,1553.448 401.352 C 1551.403 403.397,1552.532 416.951,1556.912 442.943 C 1560.486 464.149,1562.980 488.758,1562.455 497.629 L 1561.500 513.757 1550.229 475.129 C 1544.030 453.883,1538.098 431.775,1537.046 426.000 C 1533.427 406.126,1524.986 393.578,1512.763 389.901 C 1498.853 385.717,1159.488 383.080,1132.212 386.944 M1492.670 426.668 C 1497.675 431.677,1515.525 498.372,1521.008 532.550 C 1524.267 552.863,1530.358 607.736,1534.544 654.491 C 1546.911 792.608,1551.168 808.925,1583.992 844.014 L 1601.284 862.500 1606.227 900.000 C 1619.635 1001.715,1628.269 1090.731,1625.040 1093.960 C 1624.183 1094.817,1559.923 1096.286,1482.241 1097.225 L 1341.000 1098.930 1341.000 1082.415 C 1341.000 1063.448,1349.059 1049.769,1370.475 1032.385 L 1382.936 1022.271 1374.861 1007.905 C 1370.419 1000.003,1363.326 989.301,1359.099 984.121 C 1351.938 975.347,1350.512 974.847,1338.237 976.810 C 1328.836 978.313,1321.793 982.090,1313.649 989.993 C 1306.307 997.118,1296.761 1002.573,1286.887 1005.284 C 1271.773 1009.436,1266.136 1016.176,1278.939 1014.789 C 1285.131 1014.118,1285.194 1014.313,1280.059 1018.259 C 1274.914 1022.214,1275.439 1024.055,1289.760 1052.240 C 1298.087 1068.629,1305.260 1085.293,1305.700 1089.270 C 1306.487 1096.386,1306.096 1096.505,1281.000 1096.799 C 1230.535 1097.392,1027.254 1092.513,1016.250 1090.446 C 1005.033 1088.338,1005.000 1088.289,1005.000 1073.338 C 1005.000 1065.092,1007.014 1037.904,1009.475 1012.922 C 1011.936 987.940,1016.557 939.989,1019.742 906.365 L 1025.535 845.230 1035.949 834.365 C 1061.166 808.058,1065.799 786.917,1075.473 654.000 C 1080.841 580.261,1087.028 525.766,1093.557 494.730 C 1096.789 479.363,1097.259 470.297,1095.209 462.870 C 1093.567 456.925,1093.434 449.618,1094.898 445.769 C 1098.121 437.292,1111.377 428.467,1125.000 425.730 C 1138.799 422.958,1489.857 423.854,1492.670 426.668 M1056.776 486.327 C 1054.294 488.704,1026.000 493.437,1026.000 491.475 C 1026.000 488.054,1037.800 458.062,1037.892 461.250 C 1038.095 468.277,1043.262 465.025,1047.270 455.347 L 1051.269 445.694 1055.160 464.921 C 1057.301 475.496,1058.028 485.129,1056.776 486.327 M1170.000 562.595 L 1170.000 591.190 1205.250 590.345 L 1240.500 589.500 1241.363 561.750 L 1242.225 534.000 1206.113 534.000 L 1170.000 534.000 1170.000 562.595 M1316.000 536.000 C 1314.900 537.100,1314.000 549.925,1314.000 564.500 L 1314.000 591.000 1350.000 591.000 L 1386.000 591.000 1386.000 562.500 L 1386.000 534.000 1352.000 534.000 C 1333.300 534.000,1317.100 534.900,1316.000 536.000 M1257.000 682.755 C 1234.712 690.767,1211.874 710.298,1204.714 727.469 C 1197.429 744.940,1193.134 777.318,1195.006 800.645 C 1199.698 859.105,1223.800 901.298,1263.476 920.504 C 1279.560 928.291,1312.935 929.831,1327.757 923.472 C 1357.606 910.665,1383.312 878.176,1390.522 844.146 C 1396.283 816.954,1396.168 774.872,1390.270 752.113 C 1381.571 718.540,1371.300 704.723,1342.931 688.426 C 1330.319 681.180,1324.477 679.912,1299.431 678.979 C 1278.113 678.186,1266.948 679.179,1257.000 682.755 M2318.318 1098.414 L 2319.136 1151.328 2307.818 1152.829 C 2301.593 1153.655,2266.800 1154.144,2230.500 1153.915 L 2164.500 1153.500 2163.675 1102.610 C 2163.221 1074.621,2163.525 1049.960,2164.350 1047.808 C 2165.541 1044.706,2181.535 1044.062,2241.676 1044.698 L 2317.500 1045.500 2318.318 1098.414 M1179.444 1134.019 C 1250.975 1135.572,1311.525 1136.899,1314.000 1136.968 C 1318.000 1137.078,1318.000 1137.411,1314.000 1139.966 C 1311.500 1141.563,1309.500 1147.210,1309.500 1152.670 C 1309.500 1159.408,1308.084 1162.500,1305.000 1162.500 C 1298.368 1162.500,1288.937 1172.051,1291.095 1176.582 C 1294.754 1184.263,1300.569 1192.419,1305.000 1196.085 C 1308.283 1198.802,1308.457 1199.835,1305.644 1199.905 C 1302.812 1199.975,1302.585 1201.488,1304.789 1205.606 C 1306.439 1208.689,1306.987 1212.013,1306.007 1212.993 C 1305.027 1213.973,1307.806 1216.407,1312.184 1218.402 C 1316.562 1220.397,1320.786 1225.172,1321.572 1229.014 C 1322.357 1232.856,1323.725 1239.471,1324.611 1243.713 C 1327.045 1255.369,1333.155 1250.810,1336.253 1235.027 C 1337.883 1226.720,1340.636 1221.000,1343.003 1221.000 C 1346.985 1221.000,1348.126 1214.930,1347.092 1199.250 C 1346.525 1190.660,1349.532 1188.732,1354.987 1194.187 C 1357.237 1196.437,1359.098 1193.738,1361.314 1185.009 C 1364.422 1172.764,1364.352 1172.594,1354.226 1167.765 C 1345.231 1163.476,1344.000 1161.512,1344.000 1151.444 C 1344.000 1140.317,1343.688 1139.985,1332.750 1139.454 C 1304.785 1138.095,1430.518 1134.790,1524.409 1134.415 L 1628.319 1134.000 1630.024 1146.750 C 1630.963 1153.763,1633.210 1179.750,1635.020 1204.500 C 1641.792 1297.149,1650.321 1385.808,1656.321 1425.914 C 1662.428 1466.742,1662.353 1476.000,1655.917 1476.000 C 1654.118 1476.000,1653.480 1474.650,1654.500 1473.000 C 1655.520 1471.350,1654.924 1470.000,1653.177 1470.000 C 1651.430 1470.000,1649.946 1467.638,1649.880 1464.750 C 1649.793 1460.955,1648.547 1461.734,1645.383 1467.562 C 1641.533 1474.653,1639.650 1475.436,1629.753 1474.063 C 1621.513 1472.921,1619.682 1473.329,1622.913 1475.588 C 1630.784 1481.091,1624.330 1482.170,1603.199 1478.884 C 1555.954 1471.537,1558.355 1471.423,1545.471 1481.627 C 1533.983 1490.725,1532.748 1491.000,1503.318 1491.000 C 1486.643 1491.000,1473.000 1490.532,1473.000 1489.961 C 1473.000 1489.389,1474.890 1485.002,1477.201 1480.211 C 1502.050 1428.681,1506.840 1410.055,1505.532 1370.044 C 1504.569 1340.617,1503.892 1337.631,1495.458 1325.641 C 1476.157 1298.202,1460.777 1295.815,1314.000 1297.480 C 1198.270 1298.793,1183.400 1300.860,1165.485 1318.115 C 1150.068 1332.964,1146.020 1345.554,1146.069 1378.500 C 1146.132 1421.711,1157.884 1460.144,1176.482 1477.962 C 1181.167 1482.450,1185.000 1487.220,1185.000 1488.561 C 1185.000 1489.903,1170.395 1491.000,1152.545 1491.000 C 1119.066 1491.000,1095.993 1486.405,1078.411 1476.238 C 1060.409 1465.828,1053.754 1465.899,1040.189 1476.642 C 1029.323 1485.248,1025.523 1486.493,1010.109 1486.496 L 992.466 1486.500 986.363 1471.500 C 978.280 1451.636,978.271 1424.485,986.323 1348.500 C 989.820 1315.500,994.855 1256.775,997.512 1218.000 C 1000.170 1179.225,1003.036 1142.935,1003.882 1137.355 L 1005.420 1127.210 1027.404 1129.203 C 1039.495 1130.298,1107.913 1132.466,1179.444 1134.019 M962.953 1155.750 C 962.729 1173.760,953.180 1306.379,949.723 1339.500 C 947.312 1362.600,943.913 1395.000,942.170 1411.500 C 940.428 1428.000,938.663 1448.250,938.250 1456.500 L 937.497 1471.500 928.053 1443.000 C 922.858 1427.325,916.211 1399.755,913.280 1381.733 C 902.970 1318.331,915.475 1236.109,944.001 1179.750 C 956.974 1154.119,963.070 1146.399,962.953 1155.750 M1686.832 1202.250 C 1706.323 1235.357,1712.884 1254.029,1724.974 1310.788 C 1731.743 1342.564,1733.117 1401.175,1727.853 1433.612 C 1724.631 1453.471,1716.761 1472.144,1708.843 1478.715 C 1703.138 1483.450,1703.279 1483.992,1693.666 1420.500 C 1684.234 1358.209,1680.834 1324.781,1677.033 1257.000 C 1675.321 1226.475,1673.145 1196.438,1672.197 1190.250 C 1671.248 1184.063,1671.074 1179.000,1671.809 1179.000 C 1672.543 1179.000,1679.304 1189.463,1686.832 1202.250 M1455.300 1342.681 C 1466.598 1348.486,1472.821 1362.993,1469.785 1376.451 C 1464.608 1399.406,1455.938 1400.963,1333.159 1400.983 C 1221.229 1401.002,1203.240 1399.227,1190.371 1386.897 C 1176.823 1373.918,1180.385 1353.295,1197.904 1343.273 C 1212.671 1334.826,1438.997 1334.305,1455.300 1342.681 M2239.562 1473.889 C 2236.363 1481.546,2233.021 1485.000,2228.811 1485.000 C 2222.252 1485.000,2222.122 1485.394,2235.000 1466.295 C 2243.701 1453.392,2246.311 1457.736,2239.562 1473.889 M0.000 1666.500 L 0.000 1686.000 51.426 1686.000 L 102.851 1686.000 100.873 1745.250 C 99.786 1777.838,96.971 1845.675,94.619 1896.000 C 92.266 1946.325,89.568 2011.125,88.623 2040.000 C 87.678 2068.875,84.239 2167.425,80.982 2259.000 C 75.185 2421.969,72.100 2519.881,66.094 2731.500 C 64.455 2789.250,62.426 2849.325,61.584 2865.000 C 60.742 2880.675,58.673 2927.250,56.985 2968.500 C 55.297 3009.750,53.323 3049.913,52.599 3057.750 L 51.283 3072.000 70.505 3072.000 L 89.728 3072.000 91.220 3062.250 C 93.550 3047.027,98.739 2927.466,103.555 2778.000 C 105.975 2702.925,110.663 2560.500,113.973 2461.500 C 117.283 2362.500,121.353 2230.875,123.017 2169.000 C 124.680 2107.125,128.003 2005.200,130.401 1942.500 C 132.800 1879.800,135.655 1796.438,136.748 1757.250 L 138.734 1686.000 268.867 1686.000 L 399.000 1686.000 398.969 1703.250 C 398.952 1712.738,397.624 1736.025,396.019 1755.000 C 394.413 1773.975,391.030 1844.175,388.501 1911.000 C 383.564 2041.442,379.019 2153.377,376.503 2206.500 C 368.892 2367.178,365.783 2437.500,363.038 2511.000 C 356.187 2694.489,349.965 2832.107,342.015 2976.000 C 340.420 3004.875,339.089 3038.288,339.057 3050.250 L 339.000 3072.000 358.500 3072.000 L 378.000 3072.000 378.099 3050.250 C 378.193 3029.479,379.823 2993.197,386.828 2856.000 C 392.325 2748.327,398.950 2604.896,402.000 2527.500 C 410.800 2304.218,417.337 2145.851,419.957 2092.500 C 421.578 2059.500,424.314 1990.933,426.038 1940.129 C 427.761 1889.325,431.143 1814.400,433.553 1773.629 C 435.964 1732.858,437.950 1696.463,437.968 1692.750 L 438.000 1686.000 510.015 1686.000 L 582.030 1686.000 580.375 1716.750 C 579.465 1733.663,577.433 1765.725,575.860 1788.000 C 574.287 1810.275,569.630 1881.825,565.509 1947.000 C 561.389 2012.175,556.703 2083.050,555.096 2104.500 C 552.288 2141.972,551.186 2159.954,547.463 2229.000 C 546.528 2246.325,544.459 2280.750,542.865 2305.500 C 541.270 2330.250,537.947 2391.000,535.479 2440.500 C 533.011 2490.000,529.642 2545.350,527.991 2563.500 C 525.135 2594.905,519.293 2688.700,512.856 2806.500 C 511.233 2836.200,507.227 2905.004,503.953 2959.398 C 500.679 3013.792,498.000 3061.379,498.000 3065.148 C 498.000 3071.565,499.210 3072.000,517.060 3072.000 L 536.119 3072.000 538.133 3038.250 C 539.241 3019.688,542.104 2970.075,544.496 2928.000 C 546.888 2885.925,550.213 2828.550,551.886 2800.500 C 553.558 2772.450,556.357 2725.200,558.105 2695.500 C 559.854 2665.800,561.871 2634.750,562.587 2626.500 C 568.227 2561.548,572.322 2496.606,577.533 2389.500 C 578.496 2369.700,580.527 2336.625,582.046 2316.000 C 583.564 2295.375,586.219 2248.125,587.945 2211.000 C 589.671 2173.875,593.074 2113.125,595.508 2076.000 C 597.941 2038.875,601.999 1976.100,604.524 1936.500 C 607.049 1896.900,609.786 1856.400,610.606 1846.500 C 613.453 1812.114,621.000 1701.072,621.000 1693.558 L 621.000 1686.000 730.764 1686.000 L 840.527 1686.000 838.907 1697.250 C 838.015 1703.438,836.455 1720.650,835.438 1735.500 C 834.422 1750.350,830.890 1790.175,827.589 1824.000 C 823.592 1864.960,821.118 1918.063,820.182 1983.000 L 818.777 2080.500 809.507 2082.449 C 797.262 2085.024,785.880 2093.784,778.500 2106.314 C 772.812 2115.970,772.538 2121.181,773.224 2206.500 C 773.622 2256.000,774.626 2299.403,775.456 2302.950 C 777.546 2311.891,791.399 2316.000,819.448 2316.000 L 843.000 2316.000 843.000 2423.511 C 843.000 2482.642,843.898 2573.989,844.995 2626.506 C 846.814 2713.563,847.476 2722.476,852.495 2727.495 C 857.476 2732.476,863.835 2733.000,919.255 2733.000 C 952.945 2733.000,982.645 2732.181,985.255 2731.179 C 989.519 2729.543,990.000 2708.244,990.000 2521.179 L 990.000 2313.000 1000.608 2313.000 L 1011.216 2313.000 1010.895 2520.750 C 1010.719 2635.013,1011.439 2730.729,1012.495 2733.454 C 1015.430 2741.028,1022.969 2741.915,1084.791 2741.959 C 1137.809 2741.997,1142.598 2741.552,1149.000 2736.000 C 1152.805 2732.700,1157.657 2730.000,1159.782 2730.000 C 1161.907 2730.000,1164.523 2728.581,1165.594 2726.847 C 1166.666 2725.113,1167.363 2630.796,1167.144 2517.252 L 1166.745 2310.811 1218.623 2308.943 C 1247.155 2307.915,1308.638 2306.201,1355.250 2305.134 L 1440.000 2303.194 1440.000 2508.649 C 1440.000 2646.807,1441.051 2717.120,1443.209 2723.310 C 1448.568 2738.682,1462.081 2742.011,1518.811 2741.934 C 1572.878 2741.861,1585.733 2738.685,1598.704 2722.195 L 1605.436 2713.636 1603.022 2529.068 C 1601.694 2427.556,1600.583 2336.400,1600.554 2326.500 L 1600.500 2308.500 1617.882 2307.596 L 1635.263 2306.693 1634.852 2507.953 C 1634.538 2662.012,1635.297 2710.243,1638.088 2713.606 C 1641.096 2717.231,1653.776 2718.000,1710.520 2718.000 L 1779.306 2718.000 1783.494 2707.978 C 1786.851 2699.943,1788.103 2659.297,1789.812 2502.903 L 1791.943 2307.849 1823.721 2306.012 C 1862.237 2303.784,1867.946 2302.305,1870.182 2293.973 C 1871.137 2290.413,1871.937 2242.087,1871.959 2186.582 C 1872.010 2061.197,1876.143 2071.083,1824.254 2072.467 L 1788.000 2073.435 1787.949 2040.967 C 1787.860 1984.417,1782.401 1878.766,1776.120 1812.000 C 1772.782 1776.525,1770.040 1733.655,1770.026 1716.734 L 1770.000 1685.968 2042.250 1686.734 L 2314.500 1687.500 2317.934 1750.500 C 2319.823 1785.150,2322.215 1830.375,2323.250 1851.000 C 2327.137 1928.496,2339.045 2129.374,2341.566 2160.000 C 2343.365 2181.852,2351.053 2324.377,2354.997 2409.000 C 2356.728 2446.125,2360.077 2504.850,2362.439 2539.500 C 2364.802 2574.150,2367.527 2616.675,2368.494 2634.000 C 2369.461 2651.325,2370.850 2674.950,2371.580 2686.500 C 2372.310 2698.050,2374.281 2731.125,2375.961 2760.000 C 2377.641 2788.875,2380.349 2832.750,2381.978 2857.500 C 2386.064 2919.575,2390.440 2991.489,2392.794 3035.250 L 2394.771 3072.000 2413.885 3072.000 L 2433.000 3072.000 2432.975 3060.750 C 2432.953 3050.702,2426.438 2940.477,2418.215 2811.000 C 2416.590 2785.425,2413.787 2736.825,2411.986 2703.000 C 2410.185 2669.175,2406.065 2605.050,2402.831 2560.500 C 2399.598 2515.950,2395.600 2451.825,2393.948 2418.000 C 2389.326 2323.363,2378.059 2121.572,2367.062 1936.500 C 2365.494 1910.100,2363.381 1871.625,2362.368 1851.000 C 2361.355 1830.375,2360.012 1807.425,2359.384 1800.000 C 2358.756 1792.575,2357.310 1764.563,2356.170 1737.750 L 2354.097 1689.000 2426.292 1689.000 L 2498.488 1689.000 2500.103 1710.750 C 2502.161 1738.479,2510.254 1918.497,2514.096 2022.000 C 2515.719 2065.725,2518.374 2132.550,2519.996 2170.500 C 2521.618 2208.450,2525.003 2290.125,2527.517 2352.000 C 2530.032 2413.875,2534.051 2511.075,2536.449 2568.000 C 2538.847 2624.925,2542.230 2711.325,2543.967 2760.000 C 2545.704 2808.675,2549.122 2895.483,2551.563 2952.906 C 2554.003 3010.329,2556.000 3060.616,2556.000 3064.656 C 2556.000 3071.695,2556.810 3072.000,2575.500 3072.000 L 2595.000 3072.000 2594.971 3059.250 C 2594.955 3052.238,2593.641 3024.225,2592.051 2997.000 C 2590.461 2969.775,2587.752 2898.225,2586.030 2838.000 C 2584.309 2777.775,2581.582 2698.800,2579.971 2662.500 C 2576.274 2579.201,2574.588 2538.743,2572.532 2484.000 C 2571.634 2460.075,2569.539 2409.450,2567.876 2371.500 C 2562.096 2239.560,2553.112 2026.216,2551.390 1980.000 C 2550.437 1954.425,2548.445 1913.925,2546.964 1890.000 C 2542.191 1812.932,2539.500 1751.273,2539.500 1719.000 L 2539.500 1687.500 2672.332 1686.719 C 2777.052 1686.103,2805.441 1686.738,2806.473 1689.719 C 2807.192 1691.798,2809.211 1780.575,2810.958 1887.000 C 2812.706 1993.425,2815.407 2134.500,2816.960 2200.500 C 2818.514 2266.500,2821.227 2384.625,2822.990 2463.000 C 2824.753 2541.375,2828.231 2663.550,2830.719 2734.500 C 2833.208 2805.450,2836.072 2899.613,2837.084 2943.750 L 2838.924 3024.000 2858.142 3024.000 L 2877.361 3024.000 2875.586 2966.250 C 2874.611 2934.488,2872.474 2864.957,2870.839 2811.737 C 2869.205 2758.518,2866.624 2680.218,2865.105 2637.737 C 2863.585 2595.257,2861.574 2507.850,2860.635 2443.500 C 2859.695 2379.150,2858.234 2306.925,2857.388 2283.000 C 2856.543 2259.075,2854.568 2172.000,2853.000 2089.500 C 2851.432 2007.000,2849.424 1901.700,2848.539 1855.500 C 2847.653 1809.300,2846.144 1752.938,2845.185 1730.250 L 2843.441 1689.000 2920.221 1689.000 L 2997.000 1689.000 2997.000 1752.295 C 2997.000 1787.107,2995.716 1942.694,2994.147 2098.045 C 2992.578 2253.395,2990.509 2525.288,2989.549 2702.250 L 2987.804 3024.000 3005.902 3024.000 L 3024.000 3024.000 3024.000 3048.000 L 3024.000 3072.000 3048.000 3072.000 L 3072.000 3072.000 3072.000 3048.000 L 3072.000 3024.000 3049.500 3024.000 L 3027.000 3024.000 3026.986 2964.750 C 3026.940 2765.063,3033.270 1761.608,3034.784 1728.750 L 3036.615 1689.000 3054.307 1689.000 L 3072.000 1689.000 3072.000 1669.998 L 3072.000 1650.995 2466.750 1648.998 C 2133.863 1647.900,1442.663 1647.001,930.750 1647.001 L 0.000 1647.000 0.000 1666.500 M1729.069 1691.250 C 1729.880 1694.138,1731.381 1714.050,1732.405 1735.500 C 1734.485 1779.068,1736.505 1808.311,1738.519 1824.000 C 1742.828 1857.566,1748.911 1962.745,1749.711 2017.500 L 1750.500 2071.500 1735.500 2071.178 C 1727.250 2071.000,1691.880 2070.663,1656.900 2070.428 L 1593.299 2070.000 1592.400 2052.750 L 1591.500 2035.500 1574.129 2034.597 L 1556.758 2033.693 1558.537 2165.097 C 1559.515 2237.369,1561.595 2357.025,1563.158 2431.001 C 1566.878 2607.044,1566.796 2689.907,1562.894 2697.197 C 1560.072 2702.470,1556.283 2703.000,1521.388 2703.000 L 1482.987 2703.000 1480.996 2475.750 C 1479.900 2350.763,1479.003 2200.913,1479.002 2142.750 L 1479.000 2037.000 1461.000 2037.000 L 1443.000 2037.000 1443.000 2055.000 L 1443.000 2073.000 1389.750 2073.006 C 1360.463 2073.009,1299.244 2073.896,1253.709 2074.977 L 1170.918 2076.943 1168.957 2064.684 C 1167.879 2057.942,1164.876 2050.305,1162.284 2047.713 C 1154.850 2040.279,1141.370 2041.812,1134.218 2050.905 C 1128.015 2058.790,1128.000 2059.597,1128.000 2380.471 L 1128.000 2702.132 1107.750 2704.045 C 1096.613 2705.097,1078.403 2705.967,1067.284 2705.979 L 1047.068 2706.000 1047.053 2375.439 C 1047.042 2113.364,1046.258 2044.382,1043.269 2042.485 C 1037.498 2038.821,1018.646 2039.554,1014.600 2043.600 C 1012.620 2045.580,1011.000 2054.355,1011.000 2063.100 L 1011.000 2079.000 990.750 2079.008 C 979.613 2079.013,945.013 2079.908,913.863 2080.996 L 857.225 2082.976 858.738 1987.238 C 859.777 1921.470,862.809 1860.509,868.422 1792.500 C 872.916 1738.050,877.092 1691.813,877.702 1689.750 C 878.583 1686.773,966.282 1686.000,1303.204 1686.000 C 1704.825 1686.000,1727.675 1686.282,1729.069 1691.250 M1832.300 2189.250 L 1833.100 2268.000 1715.019 2268.000 L 1596.938 2268.000 1595.153 2190.917 C 1594.170 2148.521,1594.049 2112.730,1594.882 2111.382 C 1595.715 2110.034,1649.295 2109.284,1713.948 2109.715 L 1831.500 2110.500 1832.300 2189.250 M1440.000 2188.025 L 1440.000 2264.049 1381.018 2266.025 C 1348.577 2267.111,1287.176 2268.000,1244.571 2268.000 L 1167.106 2268.000 1167.803 2192.250 L 1168.500 2116.500 1219.500 2114.890 C 1247.550 2114.004,1308.638 2112.992,1355.250 2112.640 L 1440.000 2112.000 1440.000 2188.025 M1011.000 2198.704 L 1011.000 2279.408 911.250 2278.954 L 811.500 2278.500 810.700 2199.814 L 809.901 2121.127 869.200 2120.246 C 901.815 2119.762,947.063 2119.058,969.750 2118.683 L 1011.000 2118.000 1011.000 2198.704 M1751.995 2388.750 C 1751.993 2433.713,1751.099 2518.088,1750.009 2576.250 L 1748.028 2682.000 1711.014 2682.000 L 1674.000 2682.000 1674.000 2494.500 L 1674.000 2307.000 1713.000 2307.000 L 1752.000 2307.000 1751.995 2388.750 M951.000 2505.000 L 951.000 2694.000 918.350 2694.000 C 887.027 2694.000,885.626 2693.726,883.891 2687.250 C 882.896 2683.538,882.063 2598.488,882.041 2498.250 L 882.000 2316.000 916.500 2316.000 L 951.000 2316.000 951.000 2505.000 " stroke="black" fill="none" fill-rule="evenodd"/></g></g>
      <g id="hand">
        <rect id="groupSizer" width="140" height="160" fill="none"/>
        <path d="M55.25,55.9,48.63,82.66s-27.58,40.19-26.86,16C23.31,47.27,55.25,55.9,55.25,55.9Z"
            fill="#f49f58" />
        <path
            d="M77.45,30.06C75.95,29.74,27.15,45,24.08,46.12S13.72,48,11.42,53.79s0,16.5,0,21.1-1.15,33.38-.77,37.6c.24,2.7,3.45,5.37,6.52,5.75s8.06-4.6,9.21-7.67,6.52-40.67,7.29-43.35,13-1.15,15.73-1.15,26.47,23.4,26.47,26.86-14.19,19.57-16.11,19.57-29.63,6.77-31.46,8.06c-3.84,2.69-6.93,9.81-5.75,16.88.77,4.6,6.14,6.14,10.36,5.76,3.62-.33,24.17-1.53,30.69-1.92,4.28-.25,12.66-3.84,15-5.37S97,121.7,98.12,119.78s15.08-12.56,17.26-16.69c3.45-6.52,14.39-48.34,13.24-50.07C123.39,45.17,83.76,31.37,77.45,30.06Z"
            fill="#ffc585" />
        <path
            d="M119.82,46.59c-7.44-4-18-8.3-26.85-11.51h0C81.87,48.19,69.38,60,56.92,71.77h0c7.89,7.16,19,18.8,19,21.15,0,1.58-3,5.82-6.39,9.95h0c1.15,0,8.42,8.43,21.74-4.39C111.74,78.73,119,66.42,120.74,56.26A17,17,0,0,0,119.82,46.59Z"
            fill="#ffc585" opacity="0.4" style="mix-blend-mode: multiply" />
        <path
            d="M14.1,70.29c-2.3,7.29-9.8,45.47-10,49.11-.21,4.32,1.83,7.15,5.75,6.91,3.39-.21,8.58-2.94,10.36-6.14,3.34-6,4.19-5.22,11.13-50.26Z"
            fill="#ffc585" />
        <path
            d="M14.1,70.29c-2.3,7.29-9.8,45.47-10,49.11-.21,4.32,1.83,7.15,5.75,6.91,3.39-.21,8.58-2.94,10.36-6.14,3.34-6,4.19-5.22,11.13-50.26Z"
            fill="#ffc585" opacity="0.4" style="mix-blend-mode: multiply" />
        <g>
            <path
                d="M115.22,36.89s-4.3,37.94-5.1,39.36S83.83,106.38,81.9,107.18,69.43,109.49,71.37,105s7.33-2.93,8.17-3.66S101.42,75.61,102,74.43s.74-30,.74-30Z"
                fill="#363f4f" />
            <path
                d="M113.07,39.08s-3.87,36-4.66,37.41S83.11,106.2,81.18,107s-11.75,2.49-9.81-2,7.33-2.93,8.17-3.66S101.42,75.61,102,74.43s.74-30,.74-30Z"
                fill="#4b5668" />
            <path
                d="M111.25,55.36c1-8.48,1.81-16.28,1.81-16.28l-10.31,5.4s-.08,15.28-.35,24C103.3,67.19,108.68,59.83,111.25,55.36Z"
                fill="#4b5668" opacity="0.4" style="mix-blend-mode: multiply" />
            <path
                d="M71.55,107.11c2.19-3.36,7.43-5.35,7.69-5.61-1.41.38-6.08-.56-7.86,3.53A1.73,1.73,0,0,0,71.55,107.11Z"
                fill="#4b5668" opacity="0.4" style="mix-blend-mode: multiply" />
            <path d="M33.23,86.72c10.08,3.3,24,15.06,29.31,25.8L58,117.38c-10.6-4-25.41-17.87-28-25.83Z"
                fill="#edbd15" />
            <path
                d="M46.16,94c-2.09,3-4.54,5.8-6.79,8.77-.24.32-.47.65-.7,1,5.75,5.83,13.22,11.38,19.3,13.65l4.57-4.85C59.32,106,52.93,99.13,46.16,94Z"
                fill="#edbd15" style="mix-blend-mode: multiply" />
            <path d="M3.79,149.09s-3.57,7.55-2.42,8.58c1.52,1.36,7.71-4.53,7.71-4.53Z" fill="#c6d0d5" />
            <path
                d="M7.95,150.39c-1.11,2.4-3.21,5.47-5.9,6.3a3.13,3.13,0,0,1-.73.13.78.78,0,0,0,.21.51c1.52,1.36,7.71-4.53,7.71-4.53Z"
                fill="#c7d1d6" style="mix-blend-mode: multiply" />
            <path
                d="M1.95,149.82c3.16-8.14,17.61-40.14,31.5-61.3,8.37-12.75,53.86-84,78.16-64.8,21.59,17-31.06,69.86-52.81,90.88C42,130.87,11.55,153.39,9.34,154.72S1.34,151.39,1.95,149.82Z"
                fill="#4b5668" />
            <path
                d="M49,113.63c-6.42,6.38-20.09,20-29.15,28.48C11,150.42,6.2,152.81,4.59,153.36c1.65,1.19,3.64,2,4.75,1.36,2.22-1.33,32.63-23.85,49.45-40.11C78,96.07,121.16,52.8,116.31,31.15c0,2.37-7.76,3.86-12,13.2C95.55,63.76,63.76,99,49,113.63Z"
                fill="#4b5668" opacity="0.4" style="mix-blend-mode: multiply" />
            <path
                d="M92.86,47.91c7.9,6.12,17.67,6.77,19.08,3.07,5.75-11.47,7-21.45-.34-27.26-8-6.33-18.36-2.79-28.91,5.24C80.46,32.85,84.33,41.31,92.86,47.91Z"
                fill="#69778b" />
            <path
                d="M83.79,28.14C94,20.69,103.86,17.61,111.6,23.72c7.17,5.66,6.15,15.26.79,26.34C106.53,58.36,80.56,40.72,83.79,28.14Z"
                fill="#edbd15" />
            <path
                d="M116.31,31.11c-.65,10.45-11.22,20.6-22,15.52,6.91,5.15,15.12,7.66,18.12,3.43C115.86,42.91,117.5,36.37,116.31,31.11Z"
                fill="#edbd15" style="mix-blend-mode: multiply" />
            <path
                d="M10.5,130.62c-4.17,8.76-7.28,15.93-8.55,19.21-.61,1.56,5.17,6.22,7.39,4.9,1-.59,7.45-5.31,15.83-11.79C20.75,141.85,11.74,135.18,10.5,130.62Z"
                fill="#edbd15" />
            <path d="M10.5,130.62c-1.89,4.89,10,12.92,14.67,12.31C20.75,141.85,11.74,135.18,10.5,130.62Z"
                fill="#feee28" />
            <path
                d="M2.51,151.41a8,8,0,0,0,.9,1c2.45-3.69,7.82-11.23,11.22-16a19.94,19.94,0,0,1-3-3.41C8.87,137.68,5,146,2.51,151.41Z"
                fill="#edbd15" style="mix-blend-mode: screen" />
            <path
                d="M20.4,140.73c-4.19,5-9,9.31-13.71,13.83a3.09,3.09,0,0,0,2.64.16c1-.59,7.45-5.31,15.83-11.79A18.38,18.38,0,0,1,20.4,140.73Z"
                fill="#edbd15" style="mix-blend-mode: multiply" />
            <path d="M33.23,86.72c4.3,8.5,19.27,22.52,29.31,25.8L58,117.38c-10.6-4-25.41-17.87-28-25.83Z"
                fill="#feee28" />
            <path d="M33.23,86.72c3.3,10,19.4,24.28,29.31,25.8L58,117.38c-10.6-4-25.41-17.87-28-25.83Z"
                fill="#edbd15" />
            <path
                d="M53.09,107.47a38.21,38.21,0,0,0,9.45,5.06L58,117.38a43,43,0,0,1-9.29-5.15C50.14,110.87,51.15,109.6,53.09,107.47Z"
                fill="#edbd15" style="mix-blend-mode: multiply" />
            <path
                d="M39,94.81c-.92-1-1.78-2.09-2.55-3.1-1.26,1.68-2.45,3.41-3.59,5.18.6.86,1.28,1.73,2,2.62A61.6,61.6,0,0,1,39,94.81Z"
                fill="#edbd15" style="mix-blend-mode: screen" />
            <path d="M3.45,153c1,.55-1.26,3.33-1.42,2.73S2.63,152.54,3.45,153Z" fill="#c7d1d6" opacity="0.7"
                style="mix-blend-mode: screen" />
            <path d="M107.61,75.33c.49-1.63-25.92,28.23-25.4,28.92S106.8,78,107.61,75.33Z" fill="#4b5668"
                opacity="0.7" style="mix-blend-mode: screen" />
            <path
                d="M101.93,22c-3.44-.3-9,3-8.18,4.61,2.2,4.21,12.06,2,12.88,0C107.76,23.75,103.74,22.19,101.93,22Z"
                fill="#edbd15" opacity="0.4" style="mix-blend-mode: screen" />
            <path
                d="M81,41.38c-5.59.22-35.49,37.16-38.3,46.24,3.74-1.84,11.19-13.24,18.86-22.54C70.83,53.89,80.15,44.46,81,41.38Z"
                fill="#4b5668" opacity="0.4" style="mix-blend-mode: screen" />
            <path d="M32.75,100.8c-3.63,2.63-15.13,19.8-17.94,28.88C18.78,125.16,31.85,103.88,32.75,100.8Z"
                fill="#4b5668" opacity="0.4" style="mix-blend-mode: screen" />
        </g>
        <path
            d="M43.35,65.72C43.74,64.29,71.25,36,73.6,31.06c-8.52,2.7-47.07,14.14-49.52,15.06C21,47.27,13.72,48,11.42,53.79s0,16.5,0,21.1-1.15,33.38-.77,37.6c.24,2.7,3.45,5.37,6.52,5.75s8.06-4.6,9.21-7.67,6.52-40.67,7.29-43.35C34.14,65.55,39,65.51,43.35,65.72Z"
            fill="#ffc585" />
        <path
            d="M69.51,111.93a10.24,10.24,0,0,1-4.45-3.18c-2.5,2.3-4.66,3.74-5.3,3.74-1.92,0-29.63,6.77-31.46,8.06-3.84,2.69-6.93,9.81-5.75,16.88.77,4.6,6.14,6.14,10.36,5.76,3.62-.33,24.17-1.53,30.69-1.92,4.28-.25,12.66-3.84,15-5.37S97,121.7,98.12,119.78C98.3,119.48,73.84,113.57,69.51,111.93Z"
            fill="#ffc585" />
        <path
            d="M27.53,124.77c2.69-2.69,15-2.3,15.35-.38s.38,10-.38,12.28-14.19,5-15.73,2.69C23.39,134.28,25.1,127.19,27.53,124.77Z"
            fill="#ffd5b8" />
        <path
            d="M19,116a81.46,81.46,0,0,0-.29-14.29c-.34-1.68-6.65-1.76-8-2.1-.15,6-.23,11.23-.08,12.84C10.89,115.19,17.27,117.77,19,116Z"
            fill="#ffd5b8" />
        <path
            d="M117,91.87c-8.53,11-35.2,38.27-45.36,42.58-9.4,4-40.57,9.5-49.11,3,.77,4.6,6.14,6.14,10.36,5.76,3.62-.33,24.17-1.53,30.69-1.92,4.28-.25,12.66-3.84,15-5.37S97,121.7,98.12,119.78s15.08-12.56,17.26-16.69c1.12-2.12,3-7.94,5.05-14.91C119.34,89.44,118,90.54,117,91.87Z"
            fill="#ffc585" opacity="0.4" style="mix-blend-mode: multiply" />
        <path
            d="M26.38,110.57c1.15-3.07,6.52-40.67,7.29-43.35.54-1.89,6.78-1.69,11.37-1.41.76,0-11.61-4.73-14-1.47-3.27,4.54-3.16,35.87-12,50.07a5.88,5.88,0,0,1-5.31,2.53,8.13,8.13,0,0,0,3.39,1.31C20.24,118.63,25.23,113.64,26.38,110.57Z"
            fill="#ffc585" opacity="0.4" style="mix-blend-mode: multiply" />
      </g>
    </svg>